<?xml version="1.0" encoding="UTF-8"?>
<svg width="792px" height="305px" viewBox="0 0 792 305" version="1.1" xmlns="http://www.w3.org/2000/svg" xmlns:xlink="http://www.w3.org/1999/xlink">
    <!-- Generator: Sketch 48.2 (47327) - http://www.bohemiancoding.com/sketch -->
    <desc>Created with Sketch.</desc>
    <defs></defs>
    <g id="Page-1" stroke="none" stroke-width="1" fill="none" fill-rule="evenodd">
        <g id="logo" transform="translate(4.000000, 4.000000)" stroke="#FFFFFF">
            <path d="M380.527184,132.573084 C380.454422,133.156056 380.418041,134.103372 380.418041,135.41506 C380.418041,141.754887 382.000594,146.728296 385.165746,150.335439 C388.330898,153.942581 392.896652,155.746125 398.863145,155.746125 C402.210202,155.746125 405.484448,155.199597 408.685981,154.106523 C411.887514,153.01345 414.797955,151.373864 417.417391,149.187717 L419.600244,154.21583 C417.41738,156.401977 414.379608,158.169086 410.486835,159.51721 C406.594062,160.865334 402.683157,161.539386 398.754002,161.539386 C390.968456,161.539386 384.82015,159.152878 380.308899,154.37979 C375.797648,149.606703 373.542056,143.212319 373.542056,135.196447 C373.542056,129.148107 374.633471,123.828562 376.816335,119.237654 C378.999198,114.646745 382.109732,111.076092 386.148029,108.525587 C390.186327,105.975082 394.897603,104.699849 400.281999,104.699849 C407.121638,104.699849 412.524144,106.667352 416.489679,110.602417 C420.455214,114.537481 422.437952,120.184943 422.437952,127.544971 C422.437952,129.148145 422.328811,130.824166 422.110524,132.573084 L380.527184,132.573084 Z M387.730597,114.592115 C384.38354,117.616285 382.164329,121.897425 381.072897,127.435664 L416.325965,127.435664 C416.471489,121.897425 415.12541,117.616285 412.287688,114.592115 C409.449966,111.567945 405.593631,110.055882 400.71857,110.055882 C395.406935,110.055882 391.077655,111.567945 387.730597,114.592115 Z M484.477738,106.011531 L480.112033,160.774238 L473.672619,160.774238 L474.436617,151.264547 C472.690326,154.470895 470.1255,156.984927 466.742062,158.806716 C463.358624,160.628505 459.702382,161.539386 455.773228,161.539386 C451.116453,161.539386 447.041836,160.446329 443.549254,158.260182 C440.056673,156.074035 437.346325,152.97704 435.418129,148.969104 C433.489933,144.961168 432.525849,140.297457 432.525849,134.977833 C432.525849,128.929493 433.580884,123.628166 435.690985,119.073694 C437.801086,114.519221 440.802479,110.985003 444.695252,108.470934 C448.588025,105.956865 453.044637,104.699849 458.065223,104.699849 C462.576474,104.699849 466.487379,105.683601 469.798055,107.651133 C473.108732,109.618665 475.564416,112.387743 477.165183,115.95845 L477.929181,106.011531 L484.477738,106.011531 Z M470.889482,149.078411 C474.27292,144.633245 475.964614,138.548561 475.964614,130.824175 C475.964614,124.192862 474.436632,119.128364 471.380623,115.630529 C468.324615,112.132694 463.958953,110.383803 458.283508,110.383803 C452.317015,110.383803 447.6785,112.588135 444.367824,116.996864 C441.057148,121.405594 439.401834,127.508496 439.401834,135.305754 C439.401834,141.791323 440.929816,146.819385 443.985825,150.390092 C447.041833,153.960799 451.407495,155.746125 457.08294,155.746125 C462.903909,155.746125 467.506043,153.523576 470.889482,149.078411 Z M497.839914,160.774238 L504.279329,80.3244326 L510.937029,80.3244326 L504.497614,160.774238 L497.839914,160.774238 Z M532.921472,143.940991 C532.84871,144.451092 532.812329,145.179797 532.812329,146.127127 C532.812329,149.697834 533.59451,152.17543 535.158896,153.559989 C536.723281,154.944549 538.960683,155.636819 541.871167,155.636819 C544.054031,155.636819 546.018578,155.308901 547.764869,154.653057 L547.328299,160.555625 C545.145435,161.138597 542.817082,161.430079 540.343171,161.430079 C535.904682,161.430079 532.430343,160.264151 529.92005,157.932261 C527.409757,155.600371 526.154629,152.102589 526.154629,147.438808 C526.154629,146.56435 526.19101,145.87208 526.263772,145.361979 L528.883195,111.367564 L518.078075,111.367564 L518.514646,106.011531 L529.319765,106.011531 L530.411192,91.4737263 L537.178034,88.9596699 L535.868323,106.011531 L552.021431,106.011531 L551.584861,111.367564 L535.431752,111.367564 L532.921472,143.940991 Z M601.782673,109.345388 C605.020587,112.44243 606.639519,117.051487 606.639519,123.172699 C606.639519,124.484387 606.603139,125.468138 606.530377,126.123982 L603.801811,160.774238 L597.253254,160.774238 L599.981819,126.561209 C600.054581,125.978237 600.090962,125.103791 600.090962,123.937846 C600.090962,119.346938 598.999547,115.958461 596.816683,113.772314 C594.63382,111.586167 591.323193,110.49311 586.884704,110.49311 C581.282021,110.49311 576.825409,112.132695 573.514733,115.411916 C570.204057,118.691136 568.33046,123.245541 567.893887,129.075266 L565.383607,160.774238 L558.725907,160.774238 L565.056179,80.3244326 L571.713879,80.3244326 L568.985314,114.756075 C570.804367,111.476855 573.351002,108.981041 576.625297,107.268559 C579.899593,105.556077 583.610405,104.699849 587.757845,104.699849 C593.869863,104.699849 598.544758,106.248347 601.782673,109.345388 Z" id="ealth" stroke-width="2" fill="#FFFFFF"></path>
            <path d="M395.920609,239.963467 L391.558318,294.726174 L385.123939,294.726174 L385.88734,285.216482 C384.142415,288.422831 381.579594,290.936863 378.198802,292.758652 C374.818009,294.580441 371.164627,295.491322 367.238546,295.491322 C362.585412,295.491322 358.513981,294.398265 355.024131,292.212118 C351.53428,290.025971 348.826052,286.928976 346.899364,282.92104 C344.972675,278.913104 344.009346,274.249393 344.009346,268.929769 C344.009346,262.881429 345.063556,257.580102 347.172007,253.02563 C349.280458,248.471157 352.279503,244.936939 356.169232,242.42287 C360.058961,239.908801 364.512089,238.651785 369.528748,238.651785 C374.036472,238.651785 377.944318,239.635537 381.252405,241.603069 C384.560493,243.570601 387.014257,246.339679 388.613772,249.910386 L389.377173,239.963467 L395.920609,239.963467 Z M382.342978,283.030346 C385.723771,278.585181 387.414142,272.500497 387.414142,264.776111 C387.414142,258.144798 385.887355,253.0803 382.833736,249.582465 C379.780117,246.08463 375.41787,244.335739 369.746863,244.335739 C363.785035,244.335739 359.150147,246.540071 355.84206,250.9488 C352.533973,255.35753 350.879954,261.460432 350.879954,269.257689 C350.879954,275.743259 352.406741,280.771321 355.46036,284.342028 C358.513979,287.912735 362.876226,289.698061 368.547233,289.698061 C374.36365,289.698061 378.962186,287.475512 382.342978,283.030346 Z M419.469191,292.212118 C415.797578,290.025971 412.962117,286.947193 410.962723,282.975693 C408.96333,279.004193 407.963648,274.395135 407.963648,269.148383 C407.963648,263.027171 409.05421,257.671192 411.235367,253.080283 C413.416523,248.489374 416.5428,244.936939 420.614292,242.42287 C424.685784,239.908801 429.484256,238.651785 435.009853,238.651785 C438.863229,238.651785 442.480259,239.271184 445.861052,240.510001 C449.241844,241.748817 452.095481,243.534144 454.422048,245.866034 L451.477501,251.003454 C448.569293,248.671564 445.806536,246.977325 443.189148,245.920687 C440.571761,244.86405 437.7363,244.335739 434.682681,244.335739 C428.430032,244.335739 423.558856,246.558288 420.069006,251.003454 C416.579156,255.448619 414.834257,261.569739 414.834257,269.366996 C414.834257,275.706822 416.397395,280.680232 419.523719,284.287375 C422.650044,287.894517 427.121347,289.698061 432.937764,289.698061 C435.845973,289.698061 438.536026,289.187968 441.008003,288.167766 C443.47998,287.147564 446.133681,285.471543 448.969184,283.139653 L451.150329,288.167766 C448.823763,290.426785 446.006478,292.212111 442.698391,293.523799 C439.390303,294.835488 435.918681,295.491322 432.283421,295.491322 C427.412171,295.491322 423.140804,294.398265 419.469191,292.212118 Z M509.324596,239.963467 L478.679502,266.415713 L507.906852,294.726174 L499.400384,294.726174 L471.045492,267.508781 L468.864347,294.726174 L462.32091,294.726174 L468.646232,214.276368 L475.189669,214.276368 L471.15455,265.431951 L500.3819,239.963467 L509.324596,239.963467 Z M565.863004,239.963467 L561.500713,294.726174 L555.066334,294.726174 L555.829735,285.216482 C554.084809,288.422831 551.521989,290.936863 548.141197,292.758652 C544.760404,294.580441 541.107022,295.491322 537.18094,295.491322 C532.527807,295.491322 528.456376,294.398265 524.966526,292.212118 C521.476675,290.025971 518.768447,286.928976 516.841758,282.92104 C514.91507,278.913104 513.951741,274.249393 513.951741,268.929769 C513.951741,262.881429 515.00595,257.580102 517.114402,253.02563 C519.222853,248.471157 522.221898,244.936939 526.111627,242.42287 C530.001356,239.908801 534.454483,238.651785 539.471143,238.651785 C543.978866,238.651785 547.886713,239.635537 551.1948,241.603069 C554.502888,243.570601 556.956652,246.339679 558.556166,249.910386 L559.319567,239.963467 L565.863004,239.963467 Z M552.285373,283.030346 C555.666166,278.585181 557.356536,272.500497 557.356536,264.776111 C557.356536,258.144798 555.82975,253.0803 552.776131,249.582465 C549.722512,246.08463 545.360264,244.335739 539.689258,244.335739 C533.72743,244.335739 529.092542,246.540071 525.784455,250.9488 C522.476368,255.35753 520.822349,261.460432 520.822349,269.257689 C520.822349,275.743259 522.349136,280.771321 525.402755,284.342028 C528.456374,287.912735 532.818621,289.698061 538.489628,289.698061 C544.306045,289.698061 548.904581,287.475512 552.285373,283.030346 Z M589.793286,277.892927 C589.720581,278.403028 589.684229,279.131732 589.684229,280.079063 C589.684229,283.649769 590.465798,286.127366 592.02896,287.511925 C593.592122,288.896485 595.827774,289.588754 598.735983,289.588754 C600.917139,289.588754 602.880151,289.260837 604.625076,288.604993 L604.188847,294.507561 C602.00769,295.090533 599.681158,295.382015 597.209181,295.382015 C592.774163,295.382015 589.302541,294.216087 586.794211,291.884197 C584.285881,289.552307 583.031735,286.054525 583.031735,281.390744 C583.031735,280.516286 583.068087,279.824016 583.140792,279.313915 L585.758167,245.3195 L574.961497,245.3195 L575.397726,239.963467 L586.194396,239.963467 L587.284969,225.425662 L594.04652,222.911606 L592.737833,239.963467 L608.878309,239.963467 L608.44208,245.3195 L592.301604,245.3195 L589.793286,277.892927 Z M658.600637,243.297324 C661.836019,246.394366 663.453686,251.003423 663.453686,257.124635 C663.453686,258.436323 663.417334,259.420074 663.344629,260.075918 L660.618197,294.726174 L654.07476,294.726174 L656.801192,260.513145 C656.873898,259.930173 656.91025,259.055727 656.91025,257.889782 C656.91025,253.298874 655.819688,249.910397 653.638531,247.72425 C651.457375,245.538103 648.149337,244.445046 643.714319,244.445046 C638.116018,244.445046 633.66289,246.084631 630.354803,249.363852 C627.046716,252.643072 625.174585,257.197477 624.738353,263.027202 L622.230036,294.726174 L615.577542,294.726174 L621.902864,214.276368 L628.555358,214.276368 L625.828926,248.708011 C627.646556,245.42879 630.191201,242.932977 633.462935,241.220495 C636.73467,239.508013 640.44258,238.651785 644.586777,238.651785 C650.694015,238.651785 655.365255,240.200283 658.600637,243.297324 Z M688.420012,292.212118 C684.748399,290.025971 681.912938,286.947193 679.913545,282.975693 C677.914152,279.004193 676.91447,274.3587 676.91447,269.039076 C676.91447,262.990736 677.986856,257.671192 680.13166,253.080283 C682.276463,248.489374 685.311861,244.936939 689.237942,242.42287 C693.164024,239.908801 697.671679,238.651785 702.761044,238.651785 C707.632294,238.651785 711.903661,239.744842 715.575274,241.930989 C719.246887,244.117136 722.082348,247.195914 724.081742,251.167414 C726.081135,255.138914 727.080817,259.784407 727.080817,265.104031 C727.080817,271.152371 726.008431,276.471915 723.863627,281.062824 C721.718823,285.653733 718.683426,289.206168 714.757345,291.720237 C710.831263,294.234306 706.323607,295.491322 701.234242,295.491322 C696.362993,295.491322 692.091626,294.398265 688.420012,292.212118 Z M715.35716,283.030346 C718.665247,278.585181 720.319266,272.500497 720.319266,264.776111 C720.319266,258.363413 718.756127,253.353568 715.629803,249.746425 C712.503479,246.139283 708.213935,244.335739 702.761044,244.335739 C696.871922,244.335739 692.237034,246.576506 688.856242,251.058107 C685.475449,255.539708 683.785078,261.64261 683.785078,269.366996 C683.785078,275.998309 685.311865,281.044589 688.365484,284.505988 C691.419103,287.967388 695.854054,289.698061 701.670472,289.698061 C707.486889,289.698061 712.049072,287.475512 715.35716,283.030346 Z M782.146951,243.297324 C785.382333,246.394366 787,251.003423 787,257.124635 C787,258.436323 786.963648,259.420074 786.890943,260.075918 L784.164511,294.726174 L777.621074,294.726174 L780.347506,260.513145 C780.420211,259.930173 780.456563,259.055727 780.456563,257.889782 C780.456563,253.298874 779.366002,249.910397 777.184845,247.72425 C775.003689,245.538103 771.695651,244.445046 767.260633,244.445046 C761.662332,244.445046 757.209204,246.084631 753.901117,249.363852 C750.59303,252.643072 748.720898,257.197477 748.284667,263.027202 L745.77635,294.726174 L739.123856,294.726174 L742.286517,255.157112 C742.577338,252.169378 742.722746,248.780901 742.722746,244.99158 C742.722746,242.732561 742.686394,241.05654 742.613689,239.963467 L748.829953,239.963467 L748.939011,249.473158 C750.756641,245.975323 753.337637,243.297333 756.682077,241.439109 C760.026517,239.580884 763.843484,238.651785 768.133091,238.651785 C774.240329,238.651785 778.911569,240.200283 782.146951,243.297324 Z" id="ackathon" stroke-width="2" fill="#FFFFFF"></path>
            <g id="Page-1" transform="translate(0.164219, 0.164219)" stroke-width="8">
                <polygon id="Stroke-1" points="67.0591194 0.0227738342 0.358968278 270.4739 20.8415039 296.311792 111.638896 296.311792 135.399497 199.841868 199.833891 199.841868 182.414544 270.4739 202.89708 296.311792 293.69686 296.311792 363.429161 13.5728759 339.914475 0.0227738342 249.117083 0.0227738342 228.317007 84.3606019 163.9232 84.3174869 181.371198 13.5728759 157.856512 0.0227738342"></polygon>
                <polyline id="Stroke-3" points="163.923917 84.318445 137.071477 84.2992827 157.857228 0.0237319464"></polyline>
                <path d="M24.4872472,172.637229 L206.495073,172.833642" id="Stroke-6"></path>
                <path d="M91.155883,270.47438 L0.358490774,270.47438" id="Stroke-7"></path>
                <polyline id="Stroke-9" points="115.490444 172.637229 91.156838 270.474859 111.639374 296.31275"></polyline>
                <path d="M199.834608,199.841628 L228.317723,84.3603624" id="Stroke-12"></path>
                <polyline id="Stroke-13" points="182.415499 270.47438 273.212891 270.47438 339.91543 0.0232528903"></polyline>
                <path d="M273.213608,270.47438 L293.696143,296.312271" id="Stroke-15"></path>
                <path d="M115.490444,172.637229 L135.399974,199.840431" id="Stroke-18"></path>
            </g>
        </g>
    </g>
</svg>