<?xml version="1.0" encoding="UTF-8"?>
<svg width="287px" height="111px" viewBox="0 0 287 111" version="1.1" xmlns="http://www.w3.org/2000/svg" xmlns:xlink="http://www.w3.org/1999/xlink">
    <!-- Generator: Sketch 48.2 (47327) - http://www.bohemiancoding.com/sketch -->
    <desc>Created with Sketch.</desc>
    <defs></defs>
    <g id="Page-1" stroke="none" stroke-width="1" fill="none" fill-rule="evenodd">
        <g id="logo" transform="translate(2.000000, 2.000000)" stroke="#FFFFFF">
            <path d="M137.303623,47.8356487 C137.277369,48.0459996 137.264242,48.3878147 137.264242,48.8611043 C137.264242,51.1486704 137.835266,52.9431997 138.977331,54.2447459 C140.119396,55.5462922 141.766833,56.1970556 143.919692,56.1970556 C145.127393,56.1970556 146.308822,55.9998545 147.464014,55.6054466 C148.619206,55.2110386 149.669365,54.6194356 150.614523,53.8306196 L151.40215,55.6448872 C150.614519,56.4337031 149.518415,57.0713197 148.113806,57.5577562 C146.709197,58.0441927 145.298046,58.2874073 143.88031,58.2874073 C141.071092,58.2874073 138.852631,57.4262961 137.22486,55.7040481 C135.597089,53.9818 134.783216,51.6745481 134.783216,48.7822231 C134.783216,46.5998324 135.177026,44.6804091 135.964657,43.0238957 C136.752288,41.3673823 137.874646,40.0790023 139.331763,39.1587171 C140.788881,38.2384318 142.488826,37.7782961 144.431649,37.7782961 C146.89956,37.7782961 148.848918,38.4882198 150.279781,39.9080884 C151.710644,41.3279571 152.426065,43.3657009 152.426065,46.0213812 C152.426065,46.5998462 152.386684,47.204596 152.307921,47.8356487 L137.303623,47.8356487 Z M139.902793,41.3476703 C138.695092,42.4388656 137.894345,43.9836069 137.50053,45.9819406 L150.220709,45.9819406 C150.273218,43.9836069 149.787519,42.4388656 148.763599,41.3476703 C147.739678,40.2564749 146.348217,39.7108854 144.589175,39.7108854 C142.672606,39.7108854 141.110494,40.2564749 139.902793,41.3476703 Z M174.811555,38.2515833 L173.236301,58.0113231 L170.912801,58.0113231 L171.18847,54.579991 C170.558365,55.736921 169.632912,56.6440457 168.412084,57.3013923 C167.191256,57.9587389 165.871994,58.2874073 164.454258,58.2874073 C162.773978,58.2874073 161.303755,57.8930052 160.043545,57.1041893 C158.783335,56.3153734 157.805375,55.197901 157.109634,53.7517385 C156.413893,52.3055759 156.066028,50.6227939 156.066028,48.7033419 C156.066028,46.5209512 156.446711,44.6081013 157.208087,42.9647348 C157.969464,41.3213683 159.052441,40.0461351 160.45705,39.1389968 C161.861658,38.2318585 163.469715,37.7782961 165.281266,37.7782961 C166.909037,37.7782961 168.320188,38.133258 169.514762,38.8431923 C170.709336,39.5531266 171.595408,40.5522784 172.173004,41.8406777 L172.448674,38.2515833 L174.811555,38.2515833 Z M169.908576,53.7911791 C171.129404,52.1872534 171.739809,49.9917487 171.739809,47.2045991 C171.739809,44.8118575 171.188476,42.9844614 170.085792,41.722356 C168.983108,40.4602505 167.40787,39.8292072 165.360029,39.8292072 C163.20717,39.8292072 161.533479,40.6245847 160.338905,42.2153634 C159.144332,43.8061422 158.547054,46.0082202 158.547054,48.8216637 C158.547054,51.1618175 159.098387,52.9760669 160.201071,54.2644662 C161.303754,55.5528656 162.878993,56.1970556 164.926834,56.1970556 C167.027184,56.1970556 168.687748,55.3951047 169.908576,53.7911791 Z M179.632959,58.0113231 L181.956459,28.9830427 L184.358722,28.9830427 L182.035222,58.0113231 L179.632959,58.0113231 Z M192.291253,51.9374709 C192.264998,52.121528 192.251871,52.3844627 192.251871,52.7262829 C192.251871,54.0146822 192.534102,54.9086602 193.098571,55.4082436 C193.66304,55.907827 194.470349,56.157615 195.520524,56.157615 C196.308155,56.157615 197.017013,56.0392943 197.647118,55.8026496 L197.489592,57.9324419 C196.701961,58.1427928 195.861834,58.2479667 194.969185,58.2479667 C193.367669,58.2479667 192.114041,57.8272712 191.208265,56.9858675 C190.30249,56.1444639 189.849609,54.8823774 189.849609,53.1995701 C189.849609,52.8840437 189.862736,52.6342558 189.88899,52.4501987 L190.834143,40.1841726 L186.935388,40.1841726 L187.092913,38.2515833 L190.991668,38.2515833 L191.385482,33.0059837 L193.827126,32.09885 L193.35455,38.2515833 L199.182991,38.2515833 L199.025465,40.1841726 L193.197024,40.1841726 L192.291253,51.9374709 Z M217.138078,39.4545215 C218.306397,40.5720108 218.890548,42.2350727 218.890548,44.4437572 C218.890548,44.9170468 218.877421,45.2720086 218.851167,45.5086534 L217.866633,58.0113231 L215.503751,58.0113231 L216.488285,45.6664158 C216.51454,45.4560649 216.527667,45.1405432 216.527667,44.7198414 C216.527667,43.063328 216.133857,41.8406817 215.346226,41.0518658 C214.558595,40.2630499 213.364039,39.8686478 211.762522,39.8686478 C209.740936,39.8686478 208.132879,40.4602509 206.938306,41.6434748 C205.743732,42.8266986 205.067692,44.4700405 204.910166,46.5735496 L204.004394,58.0113231 L201.602131,58.0113231 L203.88625,28.9830427 L206.288513,28.9830427 L205.303979,41.4068312 C205.960338,40.2236073 206.879228,39.323056 208.060674,38.7051502 C209.242121,38.0872444 210.581074,37.7782961 212.077573,37.7782961 C214.28294,37.7782961 215.969758,38.3370323 217.138078,39.4545215 Z" id="ealth" stroke-width="0.721649485" fill="#FFFFFF"></path>
            <path d="M142.857952,86.584756 L141.283929,106.344496 L138.962246,106.344496 L139.2377,102.913164 C138.608088,104.070094 137.683359,104.977218 136.463485,105.634565 C135.243612,106.291912 133.925381,106.62058 132.508754,106.62058 C130.829788,106.62058 129.360715,106.226178 128.10149,105.437362 C126.842266,104.648546 125.86507,103.531074 125.169873,102.084911 C124.474677,100.638749 124.127084,98.9559667 124.127084,97.0365146 C124.127084,94.8541239 124.507469,92.941274 125.26825,91.2979076 C126.029031,89.6545411 127.111161,88.3793078 128.514671,87.4721695 C129.918182,86.5650312 131.52498,86.1114689 133.335115,86.1114689 C134.961613,86.1114689 136.371661,86.4664307 137.565301,87.176365 C138.758941,87.8862993 139.644319,88.8854512 140.221464,90.1738505 L140.496918,86.584756 L142.857952,86.584756 Z M137.958807,102.124352 C139.17868,100.520426 139.788608,98.3249214 139.788608,95.5377719 C139.788608,93.1450303 139.237705,91.3176342 138.135884,90.0555287 C137.034063,88.7934232 135.460056,88.16238 133.413817,88.16238 C131.262642,88.16238 129.590259,88.9577574 128.39662,90.5485362 C127.20298,92.1393149 126.606169,94.341393 126.606169,97.1548364 C126.606169,99.4949903 127.157071,101.30924 128.258893,102.597639 C129.360714,103.886038 130.934721,104.530228 132.98096,104.530228 C135.079668,104.530228 136.738933,103.728277 137.958807,102.124352 Z M151.354863,105.437362 C150.030054,104.648546 149.006949,103.537647 148.285519,102.104632 C147.564088,100.671616 147.203378,99.008554 147.203378,97.1153958 C147.203378,94.9067113 147.59688,92.9741413 148.383895,91.3176279 C149.17091,89.6611144 150.298949,88.3793078 151.768044,87.4721695 C153.237139,86.5650312 154.968546,86.1114689 156.962318,86.1114689 C158.352711,86.1114689 159.657825,86.3349634 160.877699,86.781959 C162.097573,87.2289547 163.127235,87.8731447 163.966718,88.7145484 L162.904253,90.5682565 C161.854899,89.7268528 160.858028,89.1155297 159.91361,88.7342687 C158.969192,88.3530076 157.946088,88.16238 156.844266,88.16238 C154.588156,88.16238 152.830515,88.9643308 151.571291,90.5682565 C150.312066,92.1721822 149.682464,94.3808336 149.682464,97.194277 C149.682464,99.4818432 150.246483,101.276372 151.374538,102.577919 C152.502593,103.879465 154.11595,104.530228 156.214657,104.530228 C157.264011,104.530228 158.234648,104.346174 159.126599,103.97806 C160.01855,103.609946 160.97607,103.005196 161.99919,102.163792 L162.786201,103.97806 C161.946718,104.79317 160.930172,105.43736 159.736533,105.910649 C158.542893,106.383939 157.290246,106.62058 155.978554,106.62058 C154.220887,106.62058 152.679672,106.226178 151.354863,105.437362 Z M183.776916,86.584756 L172.719408,96.1293809 L183.265359,106.344496 L180.196015,106.344496 L169.964868,96.5237868 L169.177857,106.344496 L166.816823,106.344496 L169.099156,77.3162154 L171.46019,77.3162154 L170.004219,95.7744155 L180.55017,86.584756 L183.776916,86.584756 Z M204.177373,86.584756 L202.60335,106.344496 L200.281667,106.344496 L200.557121,102.913164 C199.927509,104.070094 199.00278,104.977218 197.782906,105.634565 C196.563032,106.291912 195.244802,106.62058 193.828174,106.62058 C192.149209,106.62058 190.680136,106.226178 189.420911,105.437362 C188.161687,104.648546 187.184491,103.531074 186.489294,102.084911 C185.794098,100.638749 185.446504,98.9559667 185.446504,97.0365146 C185.446504,94.8541239 185.826889,92.941274 186.587671,91.2979076 C187.348452,89.6545411 188.430582,88.3793078 189.834092,87.4721695 C191.237603,86.5650312 192.844401,86.1114689 194.654536,86.1114689 C196.281034,86.1114689 197.691082,86.4664307 198.884722,87.176365 C200.078362,87.8862993 200.96374,88.8854512 201.540885,90.1738505 L201.816339,86.584756 L204.177373,86.584756 Z M199.278227,102.124352 C200.498101,100.520426 201.108029,98.3249214 201.108029,95.5377719 C201.108029,93.1450303 200.557126,91.3176342 199.455305,90.0555287 C198.353484,88.7934232 196.779477,88.16238 194.733237,88.16238 C192.582062,88.16238 190.90968,88.9577574 189.71604,90.5485362 C188.522401,92.1393149 187.92559,94.341393 187.92559,97.1548364 C187.92559,99.4949903 188.476492,101.30924 189.578314,102.597639 C190.680135,103.886038 192.254142,104.530228 194.300381,104.530228 C196.399088,104.530228 198.058354,103.728277 199.278227,102.124352 Z M212.81201,100.270644 C212.785777,100.454701 212.77266,100.717635 212.77266,101.059456 C212.77266,102.347855 213.054669,103.241833 213.618697,103.741416 C214.182725,104.241 214.989403,104.490788 216.038757,104.490788 C216.825772,104.490788 217.534075,104.372467 218.163687,104.135822 L218.006285,106.265615 C217.21927,106.475966 216.379799,106.581139 215.487849,106.581139 C213.887585,106.581139 212.634937,106.160444 211.72987,105.31904 C210.824802,104.477637 210.372276,103.21555 210.372276,101.532743 C210.372276,101.217216 210.385392,100.967429 210.411626,100.783371 L211.35604,88.5173454 L207.460334,88.5173454 L207.617736,86.584756 L211.513442,86.584756 L211.906948,81.3391565 L214.346682,80.4320227 L213.874476,86.584756 L219.698359,86.584756 L219.540957,88.5173454 L213.717073,88.5173454 L212.81201,100.270644 Z M237.639405,87.7876943 C238.806811,88.9051835 239.390505,90.5682454 239.390505,92.77693 C239.390505,93.2502195 239.377389,93.6051814 239.351155,93.8418261 L238.367391,106.344496 L236.006357,106.344496 L236.990121,93.9995885 C237.016355,93.7892376 237.029472,93.473716 237.029472,93.0530142 C237.029472,91.3965008 236.63597,90.1738544 235.848955,89.3850385 C235.061939,88.5962226 233.868318,88.2018206 232.268053,88.2018206 C230.248048,88.2018206 228.641249,88.7934236 227.447609,89.9766475 C226.25397,91.1598714 225.578458,92.8032132 225.421055,94.9067223 L224.515992,106.344496 L222.115608,106.344496 L224.397941,77.3162154 L226.798325,77.3162154 L225.814561,89.7400039 C226.470407,88.5567801 227.388578,87.6562287 228.5691,87.0383229 C229.749623,86.4204171 231.087529,86.1114689 232.582858,86.1114689 C234.7865,86.1114689 236.471999,86.6702051 237.639405,87.7876943 Z M248.398974,105.437362 C247.074165,104.648546 246.05106,103.537647 245.32963,102.104632 C244.608199,100.671616 244.247489,98.9954073 244.247489,97.0759552 C244.247489,94.8935645 244.634432,92.9741413 245.408331,91.3176279 C246.182229,89.6611144 247.277475,88.3793078 248.694103,87.4721695 C250.11073,86.5650312 251.737204,86.1114689 253.573573,86.1114689 C255.33124,86.1114689 256.872455,86.5058709 258.197264,87.2946868 C259.522073,88.0835027 260.545177,89.1944018 261.266608,90.6274174 C261.988038,92.060433 262.348748,93.7366416 262.348748,95.6560937 C262.348748,97.8384844 261.961805,99.7579076 261.187907,101.414421 C260.414008,103.070934 259.318762,104.352741 257.902135,105.259879 C256.485507,106.167018 254.859034,106.62058 253.022665,106.62058 C251.264997,106.62058 249.723783,106.226178 248.398974,105.437362 Z M258.118563,102.124352 C259.312202,100.520426 259.909013,98.3249214 259.909013,95.5377719 C259.909013,93.2239119 259.344994,91.4162359 258.216939,90.1146896 C257.088884,88.8131433 255.541111,88.16238 253.573573,88.16238 C251.448632,88.16238 249.776249,88.9709042 248.556376,90.5879768 C247.336502,92.2050494 246.726575,94.4071275 246.726575,97.194277 C246.726575,99.5870186 247.277477,101.407841 248.379298,102.6568 C249.48112,103.905758 251.08136,104.530228 253.180067,104.530228 C255.278774,104.530228 256.924923,103.728277 258.118563,102.124352 Z M282.217972,87.7876943 C283.385378,88.9051835 283.969072,90.5682454 283.969072,92.77693 C283.969072,93.2502195 283.955955,93.6051814 283.929722,93.8418261 L282.945958,106.344496 L280.584924,106.344496 L281.568688,93.9995885 C281.594922,93.7892376 281.608038,93.473716 281.608038,93.0530142 C281.608038,91.3965008 281.214537,90.1738544 280.427521,89.3850385 C279.640506,88.5962226 278.446884,88.2018206 276.84662,88.2018206 C274.826614,88.2018206 273.219816,88.7934236 272.026176,89.9766475 C270.832536,91.1598714 270.157025,92.8032132 269.999622,94.9067223 L269.094559,106.344496 L266.694175,106.344496 L267.835341,92.0669992 C267.940277,90.9889508 267.992743,89.7663045 267.992743,88.3990236 C267.992743,87.5839138 267.979627,86.979164 267.953393,86.584756 L270.196375,86.584756 L270.235726,90.0160881 C270.891572,88.7539826 271.822859,87.7876977 273.029616,87.1172041 C274.236372,86.4467106 275.613628,86.1114689 277.161425,86.1114689 C279.365067,86.1114689 281.050566,86.6702051 282.217972,87.7876943 Z" id="ackathon" stroke-width="0.721649485" fill="#FFFFFF"></path>
            <g id="Page-1" transform="translate(0.059254, 0.059254)" stroke-width="2.88659794">
                <polygon id="Stroke-1" points="24.1965895 0.00821736285 0.129524637 97.5936754 7.52013026 106.916626 40.2820759 106.916626 48.8554886 72.1078904 72.1050123 72.1078904 65.8196809 97.5936754 73.2102865 106.916626 105.973094 106.916626 131.134233 4.89742945 122.649553 0.00821736285 89.8876072 0.00821736285 82.3824252 30.4393924 59.1475465 30.4238355 65.4432157 4.89742945 56.9585351 0.00821736285"></polygon>
                <polyline id="Stroke-3" points="59.147805 30.4241812 49.4587805 30.417267 56.9587936 0.00856307345"></polyline>
                <path d="M8.83560465,62.2917838 L74.5085314,62.3626545" id="Stroke-6"></path>
                <path d="M32.891298,97.5938483 L0.129352341,97.5938483" id="Stroke-7"></path>
                <polyline id="Stroke-9" points="41.6718096 62.2917838 32.8916426 97.5940211 40.2822482 106.916972"></polyline>
                <path d="M72.1052708,72.107804 L82.3826837,30.439306" id="Stroke-12"></path>
                <polyline id="Stroke-13" points="65.8200255 97.5938483 98.5819711 97.5938483 122.649897 0.00839021815"></polyline>
                <path d="M98.5822296,97.5938483 L105.972835,106.916799" id="Stroke-15"></path>
                <path d="M41.6718096,62.2917838 L48.8556609,72.1073718" id="Stroke-18"></path>
            </g>
        </g>
    </g>
</svg>