<?xml version="1.0" encoding="UTF-8"?>
<svg width="172px" height="68px" viewBox="0 0 172 68" version="1.1" xmlns="http://www.w3.org/2000/svg" xmlns:xlink="http://www.w3.org/1999/xlink">
    <!-- Generator: Sketch 48.2 (47327) - http://www.bohemiancoding.com/sketch -->
    <desc>Created with Sketch.</desc>
    <defs></defs>
    <g id="Page-1" stroke="none" stroke-width="1" fill="none" fill-rule="evenodd">
        <g id="logo-copy" transform="translate(1.000000, 1.000000)" stroke="#FFFFFF">
            <path d="M82.713026,29.8972804 C82.6972101,30.0287498 82.6893023,30.2423842 82.6893023,30.5381902 C82.6893023,31.967919 83.0332926,33.0894998 83.7212837,33.9029662 C84.4092747,34.7164326 85.4017067,35.1231597 86.6986093,35.1231597 C87.4261401,35.1231597 88.1378443,34.9999091 88.8337433,34.7534041 C89.5296423,34.5068991 90.1622682,34.1371472 90.7316401,33.6441373 L91.2061144,34.7780545 C90.7316378,35.2710644 90.0713344,35.6695748 89.2251845,35.9735976 C88.3790346,36.2776204 87.5289435,36.4296295 86.6748856,36.4296295 C84.9825858,36.4296295 83.6461635,35.8914351 82.6655786,34.81503 C81.6849936,33.738625 81.1947085,32.2965925 81.1947085,30.4888894 C81.1947085,29.1248952 81.4319432,27.9252557 81.9064198,26.8899348 C82.3808964,25.8546139 83.0570154,25.0493764 83.9347971,24.4741982 C84.8125787,23.8990199 85.836642,23.6114351 87.0070176,23.6114351 C88.4937109,23.6114351 89.6680228,24.0551374 90.5299886,24.9425553 C91.3919544,25.8299732 91.8229308,27.1035631 91.8229308,28.7633632 C91.8229308,29.1249039 91.7992074,29.5028725 91.7517597,29.8972804 L82.713026,29.8972804 Z M84.2787909,25.8422939 C83.5512601,26.524291 83.0688828,27.4897543 82.8316445,28.7387129 L90.494403,28.7387129 C90.5260348,27.4897543 90.2334453,26.524291 89.6166257,25.8422939 C88.9998062,25.1602968 88.1615768,24.8193034 87.1019124,24.8193034 C85.9473527,24.8193034 85.0063216,25.1602968 84.2787909,25.8422939 Z M105.308166,23.9072396 L104.359217,36.2570769 L102.959518,36.2570769 L103.125584,34.1124944 C102.746003,34.8355756 102.188501,35.4025286 101.453063,35.8133702 C100.717624,36.2242118 99.9228877,36.4296295 99.0688299,36.4296295 C98.0566131,36.4296295 97.1709368,36.1831283 96.4117743,35.6901183 C95.6526117,35.1971084 95.0634788,34.4986881 94.6443578,33.5948365 C94.2252369,32.690985 94.0156795,31.6392462 94.0156795,30.4395887 C94.0156795,29.0755945 94.2450064,27.8800633 94.7036671,26.8529593 C95.1623278,25.8258552 95.8147233,25.0288344 96.6608732,24.461873 C97.5070231,23.8949115 98.4757316,23.6114351 99.5670278,23.6114351 C100.547613,23.6114351 101.397704,23.8332862 102.117327,24.2769952 C102.836949,24.7207041 103.370728,25.345174 103.718677,26.1504236 L103.884743,23.9072396 L105.308166,23.9072396 Z M102.354564,33.6194869 C103.090002,32.6170334 103.457716,31.2448429 103.457716,29.5028745 C103.457716,28.007411 103.125588,26.8652884 102.46132,26.0764725 C101.797053,25.2876566 100.848114,24.8932545 99.6144752,24.8932545 C98.3175725,24.8932545 97.3093249,25.3903654 96.5897021,26.3846021 C95.8700793,27.3788389 95.5102733,28.7551377 95.5102733,30.5135398 C95.5102733,31.976136 95.8424019,33.1100418 96.5066691,33.9152914 C97.1709363,34.720541 98.1198753,35.1231597 99.3535144,35.1231597 C100.618785,35.1231597 101.619125,34.6219405 102.354564,33.6194869 Z M108.212626,36.2570769 L109.612325,18.1144017 L111.059471,18.1144017 L109.659772,36.2570769 L108.212626,36.2570769 Z M115.838104,32.4609193 C115.822288,32.575955 115.81438,32.7402892 115.81438,32.9539268 C115.81438,33.7591764 115.984399,34.3179126 116.32444,34.6301522 C116.664482,34.9423919 117.150813,35.0985093 117.783448,35.0985093 C118.257925,35.0985093 118.684947,35.024559 119.064529,34.876656 L118.969634,36.2077762 C118.495157,36.3392455 117.989057,36.4049792 117.451316,36.4049792 C116.486547,36.4049792 115.73135,36.1420445 115.185702,35.6161672 C114.640054,35.0902899 114.367234,34.3014858 114.367234,33.2497313 C114.367234,33.0525273 114.375142,32.8964098 114.390958,32.7813742 L114.960327,25.1151079 L112.611679,25.1151079 L112.706574,23.9072396 L115.055222,23.9072396 L115.292459,20.6287398 L116.763329,20.0617812 L116.478644,23.9072396 L119.989753,23.9072396 L119.894859,25.1151079 L116.383749,25.1151079 L115.838104,32.4609193 Z M130.806071,24.659076 C131.509878,25.3575067 131.861776,26.3969204 131.861776,27.7773483 C131.861776,28.0731542 131.853868,28.2950054 131.838052,28.4429084 L131.24496,36.2570769 L129.821537,36.2570769 L130.41463,28.5415099 C130.430446,28.4100405 130.438353,28.2128395 130.438353,27.9499009 C130.438353,26.91458 130.201119,26.1504261 129.726642,25.6574161 C129.252166,25.1644062 128.532553,24.9179049 127.567784,24.9179049 C126.349961,24.9179049 125.381253,25.2876568 124.66163,26.0271717 C123.942007,26.7666866 123.534754,27.7937753 123.439859,29.1084685 L122.894213,36.2570769 L121.447067,36.2570769 L122.823042,18.1144017 L124.270189,18.1144017 L123.677096,25.8792695 C124.072493,25.1397546 124.626041,24.57691 125.337756,24.1907189 C126.049471,23.8045277 126.856069,23.6114351 127.757574,23.6114351 C129.086109,23.6114351 130.102264,23.9606452 130.806071,24.659076 Z" id="ealth" stroke-width="0.75" fill="#FFFFFF"></path>
            <path d="M86.0590071,54.1154725 L85.1108007,66.4653099 L83.7121964,66.4653099 L83.8781325,64.3207274 C83.498848,65.0438086 82.9417824,65.6107615 82.2069188,66.0216032 C81.4720552,66.4324448 80.6779403,66.6378625 79.8245503,66.6378625 C78.8131252,66.6378625 77.9281414,66.3913612 77.1695726,65.8983513 C76.4110037,65.4053413 75.8223315,64.7069211 75.4035382,63.8030695 C74.984745,62.8992179 74.7753515,61.8474792 74.7753515,60.6478216 C74.7753515,59.2838275 75.0044991,58.0882963 75.4628011,57.0611922 C75.9211032,56.0340882 76.5729885,55.2370674 77.4184767,54.6701059 C78.2639649,54.1031445 79.2319159,53.819668 80.3223587,53.819668 C81.3021768,53.819668 82.1516031,54.0415192 82.8706632,54.4852281 C83.5897233,54.9289371 84.123084,55.553407 84.4707614,56.3586566 L84.6366975,54.1154725 L86.0590071,54.1154725 Z M83.1077148,63.8277199 C83.8425784,62.8252663 84.2100047,61.4530759 84.2100047,59.7111074 C84.2100047,58.2156439 83.8781358,57.0735214 83.214388,56.2847054 C82.5506403,55.4958895 81.6024434,55.1014875 80.369769,55.1014875 C79.0738805,55.1014875 78.0664213,55.5985984 77.3473612,56.5928351 C76.6283012,57.5870718 76.2687765,58.9633706 76.2687765,60.7217728 C76.2687765,62.1843689 76.6006454,63.3182748 77.2643932,64.1235244 C77.928141,64.9287739 78.8763378,65.3313927 80.1090122,65.3313927 C81.3732937,65.3313927 82.3728512,64.8301734 83.1077148,63.8277199 Z M91.1776281,65.8983513 C90.3795504,65.4053413 89.7632225,64.7110294 89.3286257,63.8153947 C88.894029,62.91976 88.6767339,61.8803462 88.6767339,60.6971224 C88.6767339,59.3166945 88.9137831,58.1088383 89.3878886,57.0735174 C89.8619942,56.0381965 90.5415353,55.2370674 91.4265323,54.6701059 C92.3115293,54.1031445 93.3545458,53.819668 94.5556132,53.819668 C95.3931997,53.819668 96.1794129,53.9593521 96.9142765,54.2387244 C97.6491401,54.5180967 98.2694189,54.9207155 98.7751315,55.4465927 L98.1350922,56.6051603 C97.5029515,56.079283 96.9024268,55.6972061 96.3335001,55.4589179 C95.7645735,55.2206298 95.1482455,55.1014875 94.4844978,55.1014875 C93.1253952,55.1014875 92.0665754,55.6027067 91.3080065,56.6051603 C90.5494376,57.6076139 90.1701589,58.988021 90.1701589,60.7464231 C90.1701589,62.176152 90.5099294,63.2977328 91.1894807,64.1111992 C91.869032,64.9246656 92.8409338,65.3313927 94.1052152,65.3313927 C94.7373559,65.3313927 95.3220773,65.2163588 95.859397,64.9862875 C96.3967166,64.7562161 96.9735363,64.3782475 97.5898735,63.8523703 L98.0639767,64.9862875 C97.5582641,65.4957311 96.945887,65.8983498 96.2268269,66.1941558 C95.5077668,66.4899617 94.7531602,66.6378625 93.9629843,66.6378625 C92.9041485,66.6378625 91.9757058,66.3913612 91.1776281,65.8983513 Z M110.708986,54.1154725 L104.047836,60.080863 L110.400819,66.4653099 L108.551816,66.4653099 L102.388475,60.3273668 L101.914372,66.4653099 L100.492062,66.4653099 L101.866961,48.3226346 L103.289271,48.3226346 L102.41218,59.8590097 L108.765163,54.1154725 L110.708986,54.1154725 Z M122.998417,54.1154725 L122.050211,66.4653099 L120.651606,66.4653099 L120.817543,64.3207274 C120.438258,65.0438086 119.881193,65.6107615 119.146329,66.0216032 C118.411465,66.4324448 117.61735,66.6378625 116.76396,66.6378625 C115.752535,66.6378625 114.867552,66.3913612 114.108983,65.8983513 C113.350414,65.4053413 112.761742,64.7069211 112.342948,63.8030695 C111.924155,62.8992179 111.714762,61.8474792 111.714762,60.6478216 C111.714762,59.2838275 111.943909,58.0882963 112.402211,57.0611922 C112.860513,56.0340882 113.512399,55.2370674 114.357887,54.6701059 C115.203375,54.1031445 116.171326,53.819668 117.261769,53.819668 C118.241587,53.819668 119.091013,54.0415192 119.810073,54.4852281 C120.529133,54.9289371 121.062494,55.553407 121.410172,56.3586566 L121.576108,54.1154725 L122.998417,54.1154725 Z M120.047125,63.8277199 C120.781989,62.8252663 121.149415,61.4530759 121.149415,59.7111074 C121.149415,58.2156439 120.817546,57.0735214 120.153798,56.2847054 C119.49005,55.4958895 118.541854,55.1014875 117.309179,55.1014875 C116.013291,55.1014875 115.005831,55.5985984 114.286771,56.5928351 C113.567711,57.5870718 113.208187,58.9633706 113.208187,60.7217728 C113.208187,62.1843689 113.540056,63.3182748 114.203803,64.1235244 C114.867551,64.9287739 115.815748,65.3313927 117.048422,65.3313927 C118.312704,65.3313927 119.312261,64.8301734 120.047125,63.8277199 Z M128.200006,62.6691523 C128.184203,62.784188 128.176301,62.9485221 128.176301,63.1621598 C128.176301,63.9674094 128.346186,64.5261456 128.685962,64.8383852 C129.025738,65.1506248 129.511689,65.3067423 130.143829,65.3067423 C130.617935,65.3067423 131.044623,65.2327919 131.423908,65.084889 L131.329087,66.4160091 C130.854982,66.5474785 130.349277,66.6132121 129.811957,66.6132121 C128.847942,66.6132121 128.093336,66.3502774 127.548114,65.8244002 C127.002893,65.2985229 126.730286,64.5097188 126.730286,63.4579643 C126.730286,63.2607603 126.738188,63.1046428 126.753992,62.9896072 L127.322915,55.3233409 L124.976105,55.3233409 L125.070925,54.1154725 L127.417736,54.1154725 L127.654788,50.8369728 L129.124507,50.2700142 L128.840046,54.1154725 L132.348409,54.1154725 L132.253588,55.3233409 L128.745225,55.3233409 L128.200006,62.6691523 Z M143.156268,54.8673089 C143.859525,55.5657397 144.211148,56.6051534 144.211148,57.9855812 C144.211148,58.2813872 144.203246,58.5032384 144.187443,58.6511413 L143.594814,66.4653099 L142.172504,66.4653099 L142.765133,58.7497428 C142.780937,58.6182735 142.788838,58.4210725 142.788838,58.1581339 C142.788838,57.122813 142.551789,56.358659 142.077683,55.8656491 C141.603578,55.3726391 140.884529,55.1261379 139.920514,55.1261379 C138.703643,55.1261379 137.735692,55.4958898 137.016632,56.2354047 C136.297572,56.9749196 135.890638,58.0020083 135.795816,59.3167014 L135.250598,66.4653099 L133.804583,66.4653099 L135.179482,48.3226346 L136.625497,48.3226346 L136.032868,56.0875024 C136.427956,55.3479875 136.981071,54.785143 137.692229,54.3989518 C138.403387,54.0127607 139.209355,53.819668 140.110155,53.819668 C141.437651,53.819668 142.453012,54.1688782 143.156268,54.8673089 Z M149.637936,65.8983513 C148.839858,65.4053413 148.22353,64.7110294 147.788934,63.8153947 C147.354337,62.91976 147.137042,61.8721295 147.137042,60.672472 C147.137042,59.3084778 147.37014,58.1088383 147.836344,57.0735174 C148.302548,56.0381965 148.962335,55.2370674 149.815725,54.6701059 C150.669115,54.1031445 151.648918,53.819668 152.755164,53.819668 C153.814,53.819668 154.742443,54.0661693 155.54052,54.5591793 C156.338598,55.0521892 156.954926,55.7465011 157.389523,56.6421359 C157.82412,57.5377706 158.041415,58.585401 158.041415,59.7850585 C158.041415,61.1490527 157.808316,62.3486923 157.342112,63.3840131 C156.875909,64.419334 156.216122,65.2204632 155.362732,65.7874246 C154.509342,66.354386 153.529538,66.6378625 152.423292,66.6378625 C151.364456,66.6378625 150.436014,66.3913612 149.637936,65.8983513 Z M155.49311,63.8277199 C156.21217,62.8252663 156.571695,61.4530759 156.571695,59.7111074 C156.571695,58.2649449 156.231924,57.1351474 155.552373,56.321681 C154.872822,55.5082146 153.940428,55.1014875 152.755164,55.1014875 C151.475079,55.1014875 150.46762,55.6068151 149.732757,56.6174855 C148.997893,57.6281559 148.630467,59.0044547 148.630467,60.7464231 C148.630467,62.2418866 148.962336,63.3799008 149.626083,64.1604999 C150.289831,64.941099 151.253831,65.3313927 152.518113,65.3313927 C153.782394,65.3313927 154.77405,64.8301734 155.49311,63.8277199 Z M170.010827,54.8673089 C170.714083,55.5657397 171.065706,56.6051534 171.065706,57.9855812 C171.065706,58.2813872 171.057804,58.5032384 171.042001,58.6511413 L170.449372,66.4653099 L169.027062,66.4653099 L169.619691,58.7497428 C169.635495,58.6182735 169.643397,58.4210725 169.643397,58.1581339 C169.643397,57.122813 169.406347,56.358659 168.932242,55.8656491 C168.458136,55.3726391 167.739087,55.1261379 166.775072,55.1261379 C165.558202,55.1261379 164.590251,55.4958898 163.87119,56.2354047 C163.15213,56.9749196 162.745196,58.0020083 162.650375,59.3167014 L162.105156,66.4653099 L160.659141,66.4653099 L161.346591,57.5418745 C161.409805,56.8680943 161.441412,56.1039403 161.441412,55.2493897 C161.441412,54.7399461 161.43351,54.3619775 161.417707,54.1154725 L162.768901,54.1154725 L162.792606,56.2600551 C163.187694,55.4712392 163.74871,54.867311 164.475672,54.4482526 C165.202634,54.0291941 166.032306,53.819668 166.964714,53.819668 C168.292209,53.819668 169.30757,54.1688782 170.010827,54.8673089 Z" id="ackathon" stroke-width="0.75" fill="#FFFFFF"></path>
            <g id="Page-1" transform="translate(0.035695, 0.037034)" stroke-width="1.80412371">
                <polygon id="Stroke-1" points="14.5762587 0.00513585178 0.0780268895 60.9960471 4.53019895 66.8228912 24.2663108 66.8228912 29.4310172 45.0674315 43.4367544 45.0674315 39.6504102 60.9960471 44.1025822 66.8228912 63.839213 66.8228912 78.9965262 3.0608934 73.8852728 0.00513585178 54.149161 0.00513585178 49.627967 19.0246203 35.6310521 19.0148972 39.4236239 3.0608934 34.3123706 0.00513585178"></polygon>
                <polyline id="Stroke-3" points="35.6312078 19.0151132 29.7944461 19.0107919 34.3125262 0.0053519209"></polyline>
                <path d="M5.3226534,38.9323649 L44.8846574,38.976659" id="Stroke-6"></path>
                <path d="M19.8140349,60.9961552 L0.0779230971,60.9961552" id="Stroke-7"></path>
                <polyline id="Stroke-9" points="25.1034997 38.9323649 19.8142425 60.9962632 24.2664146 66.8231073"></polyline>
                <path d="M43.4369101,45.0673775 L49.6281227,19.0245663" id="Stroke-12"></path>
                <polyline id="Stroke-13" points="39.6506178 60.9961552 59.3867296 60.9961552 73.8854804 0.00524388634"></polyline>
                <path d="M59.3868853,60.9961552 L63.8390573,66.8229992" id="Stroke-15"></path>
                <path d="M25.1034997,38.9323649 L29.431121,45.0671074" id="Stroke-18"></path>
            </g>
        </g>
    </g>
</svg>