<?xml version="1.0" encoding="utf-8"?>
<!-- Generator: Adobe Illustrator 18.1.1, SVG Export Plug-In . SVG Version: 6.00 Build 0)  -->
<svg version="1.1" baseProfile="tiny" id="Layer_1" xmlns="http://www.w3.org/2000/svg" xmlns:xlink="http://www.w3.org/1999/xlink"
	 x="0px" y="0px" viewBox="0 0 612.7 226.8" overflow="inherit" xml:space="preserve">
<image display="none" width="1024" height="444" xlink:href="typography.jpg"  transform="matrix(0.48 0 0 0.48 61 6.8)">
</image>
<g>
	<rect x="87.6" y="10" fill="none" width="180.4" height="75.5"/>
	<g>
		<path fill="#3B4C5D" d="M100.6,10v12.1c0,2.6-1.4,5.3-5.8,5.3c-3.9,0-5.8-2-5.8-5.3V10h3.6v11.9c0,2.1,0.9,2.9,2.2,2.9
			c1.6,0,2.3-1,2.3-2.9V10H100.6z"/>
		<path fill="#3B4C5D" d="M103.5,27.1V10h4.8l4.5,11.8h0V10h3.3v17.1h-4.7l-4.7-12.5h0v12.5H103.5z"/>
		<path fill="#3B4C5D" d="M119.3,27.1V10h3.6v17.1H119.3z"/>
		<path fill="#3B4C5D" d="M124.5,10h3.7l2.7,12.4h0l3-12.4h3.5l-4.5,17.1h-4.2L124.5,10z"/>
		<path fill="#3B4C5D" d="M139,27.1V10h9.3v2.6h-5.8v4.2h5.3v2.6h-5.3v5h5.9v2.6H139z"/>
		<path fill="#3B4C5D" d="M154.4,27.1h-3.6V10h6.6c2.4,0,4,1.6,4,4.5c0,2.2-0.9,3.8-3.2,4.2v0c0.8,0.1,3.1,0.3,3.1,3.4
			c0,1.1,0.1,4.3,0.4,5h-3.5c-0.5-1-0.4-2.2-0.4-3.3c0-2,0.2-3.8-2.6-3.8h-0.9V27.1z M154.4,17.4h1.6c1.4,0,1.8-1.4,1.8-2.5
			c0-1.6-0.7-2.2-1.8-2.2h-1.6V17.4z"/>
		<path fill="#3B4C5D" d="M168.7,27.4c-4.4,0-5.3-2.6-5.1-5.6h3.6c0,1.6,0.1,3,2,3c1.2,0,1.8-0.8,1.8-1.9c0-3.1-7.2-3.3-7.2-8.4
			c0-2.7,1.3-4.8,5.6-4.8c3.5,0,5.2,1.6,5,5.1h-3.5c0-1.3-0.2-2.6-1.7-2.6c-1.2,0-1.8,0.6-1.8,1.8c0,3.2,7.2,3,7.2,8.3
			C174.6,26.8,171.4,27.4,168.7,27.4z"/>
		<path fill="#3B4C5D" d="M182.5,27.1V10h3.6v14.2h5.3v2.8H182.5z"/>
		<path fill="#3B4C5D" d="M201.7,10v2.8h-4v14.2h-3.6V12.8h-4V10H201.7z"/>
		<path fill="#3B4C5D" d="M213.3,27.4c-4.4,0-5.3-2.6-5.1-5.6h3.6c0,1.6,0.1,3,2,3c1.2,0,1.8-0.8,1.8-1.9c0-3.1-7.2-3.3-7.2-8.4
			c0-2.7,1.3-4.8,5.6-4.8c3.5,0,5.2,1.6,5,5.1h-3.5c0-1.3-0.2-2.6-1.7-2.6c-1.2,0-1.8,0.6-1.8,1.8c0,3.2,7.2,3,7.2,8.3
			C219.2,26.8,216,27.4,213.3,27.4z"/>
		<path fill="#3B4C5D" d="M232,10v2.8h-4v14.2h-3.6V12.8h-4V10H232z"/>
		<path fill="#3B4C5D" d="M233.7,10h6c4.7,0,5.6,3.1,5.6,8.4c0,2.6,0.4,8.6-5.7,8.6h-5.8V10z M237.3,24.4h1.7c2.2,0,2.6-1.6,2.6-5.9
			c0-3.1,0-5.9-2.5-5.9h-1.8V24.4z"/>
	</g>
	<g>
		<path fill="#3B4C5D" d="M89,55.5V38.4h8.9V41h-5.3v4.4h5.1V48h-5.1v7.5H89z"/>
		<path fill="#3B4C5D" d="M99.4,46.9c0-4.5,0-8.8,5.9-8.8s5.9,4.3,5.9,8.8c0,4.5,0,8.8-5.9,8.8S99.4,51.4,99.4,46.9z M107.6,46.9
			c0-4.4-0.3-6.3-2.3-6.3s-2.3,1.9-2.3,6.3c0,4.4,0.3,6.3,2.3,6.3S107.6,51.3,107.6,46.9z"/>
		<path fill="#3B4C5D" d="M117.5,55.5H114V38.4h6.6c2.4,0,4,1.6,4,4.5c0,2.2-0.9,3.8-3.2,4.2v0c0.8,0.1,3.1,0.3,3.1,3.4
			c0,1.1,0.1,4.3,0.4,5h-3.5c-0.5-1-0.4-2.2-0.4-3.3c0-2,0.2-3.8-2.6-3.8h-0.9V55.5z M117.5,45.7h1.6c1.4,0,1.8-1.4,1.8-2.5
			c0-1.6-0.7-2.2-1.8-2.2h-1.6V45.7z"/>
		<path fill="#3B4C5D" d="M140.2,45.2v-6.8h3.6v17.1h-3.6v-7.6h-4.1v7.6h-3.6V38.4h3.6v6.8H140.2z"/>
		<path fill="#3B4C5D" d="M146.9,55.5V38.4h9.3V41h-5.8v4.2h5.3v2.6h-5.3v5h5.9v2.6H146.9z"/>
		<path fill="#3B4C5D" d="M157.4,55.5l4.7-17.1h4.7l4.6,17.1h-3.8l-0.9-3.8h-4.9l-1,3.8H157.4z M164.3,41.7L164.3,41.7l-1.7,7.4h3.4
			L164.3,41.7z"/>
		<path fill="#3B4C5D" d="M173.2,38.4h6c4.7,0,5.6,3.1,5.6,8.4c0,2.6,0.4,8.6-5.7,8.6h-5.8V38.4z M176.8,52.8h1.7
			c2.2,0,2.6-1.6,2.6-5.9c0-3.1,0-5.9-2.5-5.9h-1.8V52.8z"/>
		<path fill="#3B4C5D" d="M187.6,55.5V38.4h9.3V41h-5.8v4.2h5.3v2.6h-5.3v5h5.9v2.6H187.6z"/>
		<path fill="#3B4C5D" d="M203,55.5h-3.6V38.4h6.6c2.4,0,4,1.6,4,4.5c0,2.2-0.9,3.8-3.2,4.2v0c0.8,0.1,3.1,0.3,3.1,3.4
			c0,1.1,0.1,4.3,0.4,5h-3.5c-0.5-1-0.4-2.2-0.4-3.3c0-2,0.2-3.8-2.6-3.8H203V55.5z M203,45.7h1.6c1.4,0,1.8-1.4,1.8-2.5
			c0-1.6-0.7-2.2-1.8-2.2H203V45.7z"/>
	</g>
	<g>
		<path fill="#3B4C5D" d="M99.2,66.7v2.8h-4v14.2h-3.6V69.6h-4v-2.8H99.2z"/>
		<path fill="#3B4C5D" d="M100.9,83.8V66.7h3.6v17.1H100.9z"/>
		<path fill="#3B4C5D" d="M117.7,66.7v2.8h-4v14.2h-3.6V69.6h-4v-2.8H117.7z"/>
		<path fill="#3B4C5D" d="M119.3,83.8V66.7h3.6V81h5.3v2.8H119.3z"/>
		<path fill="#3B4C5D" d="M129.8,83.8V66.7h9.3v2.6h-5.8v4.2h5.3v2.6h-5.3v5h5.9v2.6H129.8z"/>
	</g>
	<g>
		<rect x="87.6" y="109.6" fill="none" width="169.7" height="9"/>
		<g>
			<path fill="#3B4C5D" d="M89.6,109.7l1.3,6.4l1.7-6.4h2.1l1.5,6.4l1.4-6.4h1.8l-2.2,8.5h-2l-1.5-6.5l-1.7,6.5h-2.1l-2.1-8.5H89.6z
				"/>
			<path fill="#3B4C5D" d="M100.2,109.7h1.7v3.4c0.2-0.3,0.6-0.9,1.7-0.9c0.9,0,1.5,0.4,1.7,0.8c0.2,0.3,0.4,0.8,0.4,1.6v3.6h-1.7
				v-3.6c0-0.3,0-1.3-1-1.3c-0.5,0-1.1,0.3-1.1,1.2l0,3.7h-1.8V109.7z"/>
			<path fill="#3B4C5D" d="M111,118.2c-0.1-0.4-0.1-0.6-0.1-0.8c-0.7,1-1.5,1-1.8,1c-0.9,0-1.3-0.2-1.5-0.5
				c-0.4-0.4-0.5-0.8-0.5-1.3c0-0.5,0.2-1.3,1.3-1.9c0.7-0.3,1.8-0.3,2.4-0.3c0-0.4,0-0.6-0.1-0.8c-0.2-0.4-0.6-0.5-0.8-0.5
				c-0.2,0-0.5,0.1-0.7,0.3c-0.1,0.2-0.1,0.4-0.1,0.5h-1.7c0-0.3,0-1,0.7-1.4c0.5-0.4,1.2-0.5,1.8-0.5c0.5,0,1.5,0.1,2.1,0.8
				c0.4,0.5,0.4,1.2,0.4,1.5l0,2.4c0,0.5,0,1,0.1,1.5H111z M108.8,116.4c0,0.4,0.3,0.9,0.9,0.9c0.3,0,0.6-0.2,0.7-0.3
				c0.3-0.4,0.3-0.8,0.3-1.5C109.6,115.3,108.8,115.6,108.8,116.4z"/>
			<path fill="#3B4C5D" d="M117.5,118.1c-0.6,0.2-1.1,0.2-1.4,0.2c-1.8,0-1.8-1.1-1.8-1.6v-3.3h-1.1v-1.2h1.1v-1.2l1.7-0.6v1.8h1.4
				v1.2h-1.4v2.7c0,0.5,0,0.9,0.8,0.9c0.3,0,0.4,0,0.6,0V118.1z"/>
			<path fill="#3B4C5D" d="M121.8,109.7h1.9v1.5h-1.9V109.7z M121.9,112.2h1.8v6h-1.8V112.2z"/>
			<path fill="#3B4C5D" d="M126.4,116.5c0,0.4,0.3,0.8,1,0.8c0.6,0,0.9-0.4,0.9-0.7c0-0.3-0.1-0.5-0.8-0.7l-1.1-0.3
				c-0.5-0.1-1.5-0.4-1.5-1.7c0-1.2,1.1-1.9,2.6-1.9c1.2,0,2.2,0.6,2.3,1.8h-1.6c0-0.7-0.6-0.7-0.9-0.7c-0.5,0-0.8,0.2-0.8,0.6
				c0,0.4,0.3,0.5,0.8,0.6l1.1,0.3c1.1,0.3,1.6,0.9,1.6,1.7c0,1-0.9,2.1-2.7,2.1c-0.8,0-1.5-0.2-2-0.7c-0.4-0.4-0.4-0.9-0.4-1.2
				H126.4z"/>
			<path fill="#3B4C5D" d="M137.9,118.2c-0.1-0.4-0.1-0.6-0.1-0.8c-0.7,1-1.5,1-1.8,1c-0.9,0-1.3-0.2-1.5-0.5
				c-0.4-0.4-0.5-0.8-0.5-1.3c0-0.5,0.2-1.3,1.3-1.9c0.7-0.3,1.8-0.3,2.4-0.3c0-0.4,0-0.6-0.1-0.8c-0.2-0.4-0.6-0.5-0.8-0.5
				c-0.2,0-0.5,0.1-0.7,0.3c-0.1,0.2-0.1,0.4-0.1,0.5h-1.7c0-0.3,0-1,0.7-1.4c0.5-0.4,1.2-0.5,1.8-0.5c0.5,0,1.5,0.1,2.1,0.8
				c0.4,0.5,0.4,1.2,0.4,1.5l0,2.4c0,0.5,0,1,0.1,1.5H137.9z M135.8,116.4c0,0.4,0.3,0.9,0.9,0.9c0.3,0,0.6-0.2,0.7-0.3
				c0.3-0.4,0.3-0.8,0.3-1.5C136.6,115.3,135.8,115.6,135.8,116.4z"/>
			<path fill="#3B4C5D" d="M145.9,112.2l0,0.9c0.5-1,1.5-1,1.8-1c1.5,0,2.5,1.2,2.5,3c0,1.7-0.9,3.2-2.6,3.2c-1.1,0-1.5-0.6-1.7-0.8
				v3h-1.8v-8.3H145.9z M148.5,115.2c0-0.7-0.2-1.9-1.2-1.9c-0.6,0-1.4,0.4-1.4,2c0,0.4,0,1.9,1.3,1.9
				C148,117.1,148.5,116.3,148.5,115.2z"/>
			<path fill="#3B4C5D" d="M151.5,109.7h1.8v8.5h-1.8V109.7z"/>
			<path fill="#3B4C5D" d="M156.2,115.7c0,0.4,0,1.6,1.2,1.6c0.4,0,0.9-0.2,1-0.8h1.6c0,0.3-0.1,0.8-0.6,1.3
				c-0.4,0.5-1.2,0.7-2.1,0.7c-0.5,0-1.5-0.1-2.1-0.7c-0.5-0.6-0.8-1.4-0.8-2.3c0-1,0.2-2.1,1.2-2.8c0.5-0.3,1-0.5,1.7-0.5
				c0.9,0,1.9,0.3,2.4,1.4c0.4,0.8,0.4,1.7,0.4,2.2H156.2z M158.4,114.6c0-0.3,0-1.3-1-1.3c-0.8,0-1.1,0.6-1.1,1.3H158.4z"/>
			<path fill="#3B4C5D" d="M164.9,118.2c-0.1-0.4-0.1-0.6-0.1-0.8c-0.7,1-1.5,1-1.8,1c-0.9,0-1.3-0.2-1.5-0.5
				c-0.4-0.4-0.5-0.8-0.5-1.3c0-0.5,0.2-1.3,1.3-1.9c0.7-0.3,1.8-0.3,2.4-0.3c0-0.4,0-0.6-0.1-0.8c-0.2-0.4-0.6-0.5-0.8-0.5
				c-0.2,0-0.5,0.1-0.7,0.3c-0.1,0.2-0.1,0.4-0.1,0.5h-1.7c0-0.3,0-1,0.7-1.4c0.5-0.4,1.2-0.5,1.8-0.5c0.5,0,1.5,0.1,2.1,0.8
				c0.4,0.5,0.4,1.2,0.4,1.5l0,2.4c0,0.5,0,1,0.1,1.5H164.9z M162.8,116.4c0,0.4,0.3,0.9,0.9,0.9c0.3,0,0.6-0.2,0.7-0.3
				c0.3-0.4,0.3-0.8,0.3-1.5C163.6,115.3,162.8,115.6,162.8,116.4z"/>
			<path fill="#3B4C5D" d="M171.1,109.7h1.8v3.3c0.6-0.8,1.4-0.8,1.7-0.8c1.5,0,2.6,1.1,2.6,3.2c0,2.2-1.3,3-2.5,3
				c-0.3,0-1.3,0-1.8-1c0,0.2,0,0.5-0.1,0.8h-1.7V109.7z M174.1,113.3c-1.3,0-1.3,1.5-1.3,1.8c0,1.4,0.6,2,1.4,2
				c1.2,0,1.2-1.5,1.2-1.8C175.4,114.9,175.4,113.3,174.1,113.3z"/>
			<path fill="#3B4C5D" d="M182,118.2c-0.1-0.4-0.1-0.6-0.1-0.8c-0.7,1-1.5,1-1.8,1c-0.9,0-1.3-0.2-1.5-0.5
				c-0.4-0.4-0.5-0.8-0.5-1.3c0-0.5,0.2-1.3,1.3-1.9c0.7-0.3,1.8-0.3,2.4-0.3c0-0.4,0-0.6-0.1-0.8c-0.2-0.4-0.6-0.5-0.8-0.5
				c-0.2,0-0.5,0.1-0.7,0.3c-0.1,0.2-0.1,0.4-0.1,0.5h-1.7c0-0.3,0-1,0.7-1.4c0.5-0.4,1.2-0.5,1.8-0.5c0.5,0,1.5,0.1,2.1,0.8
				c0.4,0.5,0.4,1.2,0.4,1.5l0,2.4c0,0.5,0,1,0.1,1.5H182z M179.8,116.4c0,0.4,0.3,0.9,0.9,0.9c0.3,0,0.6-0.2,0.7-0.3
				c0.3-0.4,0.3-0.8,0.3-1.5C180.7,115.3,179.8,115.6,179.8,116.4z"/>
			<path fill="#3B4C5D" d="M185,113.7c0-0.3,0-1.1-0.1-1.5h1.6l0,1.1c0.2-0.5,0.6-1.2,2-1.2v1.6c-1.8-0.2-1.9,0.7-1.9,1.5v2.9H185
				V113.7z"/>
			<path fill="#3B4C5D" d="M195,112.3c0,0.5-0.1,0.9-0.1,1.5v4.4c0,2.2-1.8,2.4-3,2.4c-0.9,0-2.5-0.1-2.6-1.9h1.7
				c0,0.2,0.1,0.8,1,0.8c0.5,0,1-0.2,1.1-0.8c0.1-0.3,0.1-0.5,0.1-1.4c-0.6,0.7-1.2,0.8-1.6,0.8c-1.7,0-2.5-1.5-2.5-2.9
				c0-1.5,0.8-3,2.6-3c1.1,0,1.5,0.6,1.7,0.9l0.1-0.8H195z M192,116.9c1.2,0,1.2-1.4,1.2-1.7c0-0.7-0.1-1.8-1.2-1.8
				c-0.7,0-1.2,0.5-1.2,1.8C190.8,115.4,190.8,116.9,192,116.9z"/>
			<path fill="#3B4C5D" d="M199.9,118.2c-0.1-0.4-0.1-0.6-0.1-0.8c-0.7,1-1.5,1-1.8,1c-0.9,0-1.3-0.2-1.5-0.5
				c-0.4-0.4-0.5-0.8-0.5-1.3c0-0.5,0.2-1.3,1.3-1.9c0.7-0.3,1.8-0.3,2.4-0.3c0-0.4,0-0.6-0.1-0.8c-0.2-0.4-0.6-0.5-0.8-0.5
				c-0.2,0-0.5,0.1-0.7,0.3c-0.1,0.2-0.1,0.4-0.1,0.5h-1.7c0-0.3,0-1,0.7-1.4c0.5-0.4,1.2-0.5,1.8-0.5c0.5,0,1.5,0.1,2.1,0.8
				c0.4,0.5,0.4,1.2,0.4,1.5l0,2.4c0,0.5,0,1,0.1,1.5H199.9z M197.7,116.4c0,0.4,0.3,0.9,0.9,0.9c0.3,0,0.6-0.2,0.7-0.3
				c0.3-0.4,0.3-0.8,0.3-1.5C198.5,115.3,197.7,115.6,197.7,116.4z"/>
			<path fill="#3B4C5D" d="M202.8,109.7h1.9v1.5h-1.9V109.7z M202.9,112.2h1.8v6h-1.8V112.2z"/>
			<path fill="#3B4C5D" d="M206.2,113.3c0,0,0-0.7,0-1.1h1.7l0,0.9c0.2-0.3,0.6-1,1.9-1c1.2,0,1.7,0.7,1.8,1.1
				c0.1,0.4,0.2,0.7,0.2,1.8v3.2H210v-3.7c0-0.2,0-0.5-0.1-0.7c-0.1-0.3-0.4-0.5-0.9-0.5c-0.4,0-0.7,0.2-0.9,0.5
				c-0.1,0.2-0.2,0.4-0.2,0.9v3.5h-1.8V113.3z"/>
			<path fill="#3B4C5D" d="M214.3,116.3v-1.1c0-0.3,0-0.5,0.4-1l0.5-0.6c0.5-0.5,0.9-1.1,0.9-1.7c0-0.3-0.1-1.2-1.4-1.2
				c-0.5,0-0.9,0.1-1.6,0.3v-1.2c0.4-0.1,1.1-0.2,2-0.2c1.4,0,2.8,0.6,2.8,2.2c0,0.2,0,0.7-0.3,1.1c-0.4,0.5-0.5,0.6-0.6,0.7
				l-0.7,0.6c-0.6,0.6-0.7,0.7-0.7,1.1v1H214.3z M214.3,116.8h1.4v1.4h-1.4V116.8z"/>
		</g>
	</g>
	<g>
		<rect x="87.6" y="0" fill="none" width="32.7" height="3.6"/>
		<g>
			<path fill="#3B4C5D" d="M88,2.9V0h0.3v1.3h1.6V0h0.3v2.9h-0.3V1.5h-1.6v1.4H88z"/>
			<path fill="#3B4C5D" d="M91,2c0,0.4,0.2,0.8,0.7,0.8c0.3,0,0.5-0.2,0.6-0.5h0.3C92.4,2.8,92.1,3,91.6,3c-0.6,0-0.9-0.5-0.9-1.1
				c0-0.6,0.3-1.1,0.9-1.1c0.7,0,0.9,0.5,0.9,1.1H91z M92.3,1.8c0-0.4-0.2-0.7-0.7-0.7c-0.4,0-0.6,0.3-0.6,0.7H92.3z"/>
			<path fill="#3B4C5D" d="M94.3,1.5c0-0.3-0.2-0.4-0.5-0.4c-0.3,0-0.5,0.1-0.5,0.4H93c0.1-0.4,0.4-0.6,0.8-0.6
				c0.5,0,0.7,0.2,0.7,0.7v1c0,0.2,0,0.3,0,0.5h-0.3l0-0.3h0l0,0C94.1,2.8,93.9,3,93.6,3c-0.4,0-0.7-0.2-0.7-0.6
				c0-0.3,0.2-0.5,0.4-0.6c0.3-0.1,0.6-0.1,0.9-0.1V1.5z M93.6,2.8c0.5,0,0.6-0.4,0.6-0.9c-0.3,0-1.1-0.1-1.1,0.5
				C93.2,2.6,93.4,2.8,93.6,2.8z"/>
			<path fill="#3B4C5D" d="M96.5,2.6L96.5,2.6C96.4,2.9,96.1,3,95.8,3C95.2,3,95,2.4,95,1.9c0-0.5,0.2-1.1,0.8-1.1
				c0.3,0,0.6,0.1,0.7,0.4l0,0V0h0.2v2.5c0,0.2,0,0.3,0,0.5h-0.3L96.5,2.6z M95.9,1.1c-0.5,0-0.6,0.4-0.6,0.8c0,0.4,0.1,0.9,0.6,0.9
				c0.5,0,0.7-0.4,0.7-0.9C96.5,1.5,96.3,1.1,95.9,1.1z"/>
			<path fill="#3B4C5D" d="M97.5,2c0,0.4,0.2,0.8,0.7,0.8c0.3,0,0.5-0.2,0.6-0.5h0.3C99,2.8,98.7,3,98.2,3c-0.6,0-0.9-0.5-0.9-1.1
				c0-0.6,0.3-1.1,0.9-1.1c0.7,0,0.9,0.5,0.9,1.1H97.5z M98.9,1.8c0-0.4-0.2-0.7-0.7-0.7c-0.4,0-0.6,0.3-0.6,0.7H98.9z"/>
			<path fill="#3B4C5D" d="M99.9,2.9h-0.2V1.4c0-0.2,0-0.3,0-0.5h0.3l0,0.3h0c0.1-0.2,0.3-0.4,0.5-0.4c0.1,0,0.2,0,0.2,0v0.2
				c0,0-0.1,0-0.2,0c-0.4,0-0.6,0.3-0.6,0.7V2.9z"/>
			<path fill="#3B4C5D" d="M103.9,0.8h-0.3c0-0.3-0.2-0.5-0.5-0.5c-0.7,0-0.8,0.7-0.8,1.3h0c0.1-0.3,0.4-0.5,0.7-0.5
				c0.6,0,0.9,0.4,0.9,0.9s-0.3,1-0.9,1c-0.8,0-1-0.7-1-1.3c0-0.7,0.1-1.6,1-1.6C103.5,0.1,103.8,0.3,103.9,0.8z M102.3,2.1
				c0,0.4,0.3,0.7,0.6,0.7c0.4,0,0.6-0.3,0.6-0.7c0-0.4-0.2-0.7-0.6-0.7C102.6,1.3,102.3,1.7,102.3,2.1z"/>
			<path fill="#3B4C5D" d="M105.5,2.3h-1.3V2l1.2-1.9h0.4v1.9h0.5v0.2h-0.5v0.7h-0.3V2.3z M105.5,0.4L105.5,0.4l-1.1,1.7h1.1V0.4z"
				/>
			<path fill="#3B4C5D" d="M106.9,3.7h-0.2V1.4c0-0.2,0-0.3,0-0.5h0.3l0,0.3l0,0c0.1-0.2,0.4-0.4,0.7-0.4c0.6,0,0.8,0.5,0.8,1.1
				c0,0.5-0.2,1.1-0.8,1.1c-0.3,0-0.5-0.1-0.7-0.4h0V3.7z M107.6,2.8c0.5,0,0.6-0.5,0.6-0.9c0-0.4-0.2-0.8-0.6-0.8
				c-0.5,0-0.7,0.4-0.7,0.8C106.9,2.3,107,2.8,107.6,2.8z"/>
			<path fill="#3B4C5D" d="M110.2,0.9h0.3l-0.7,1l0.8,1.1h-0.3l-0.7-0.9l-0.6,0.9h-0.3l0,0l0.8-1l-0.8-1h0.3l0.6,0.8L110.2,0.9z"/>
			<path fill="#3B4C5D" d="M111.6,0h0.3l-1.1,3.3h-0.3L111.6,0z"/>
			<path fill="#3B4C5D" d="M113.2,2.3h-1.3V2l1.2-1.9h0.4v1.9h0.5v0.2h-0.5v0.7h-0.3V2.3z M113.2,0.4L113.2,0.4l-1.1,1.7h1.1V0.4z"
				/>
			<path fill="#3B4C5D" d="M114.5,2c0,0.4,0.2,0.8,0.7,0.8c0.3,0,0.5-0.2,0.6-0.5h0.3c-0.1,0.5-0.4,0.7-0.9,0.7
				c-0.6,0-0.9-0.5-0.9-1.1c0-0.6,0.3-1.1,0.9-1.1c0.7,0,0.9,0.5,0.9,1.1H114.5z M115.8,1.8c0-0.4-0.2-0.7-0.7-0.7
				c-0.4,0-0.6,0.3-0.6,0.7H115.8z"/>
			<path fill="#3B4C5D" d="M116.8,1.2L116.8,1.2c0.2-0.2,0.4-0.4,0.6-0.4c0.3,0,0.6,0.2,0.7,0.4c0.2-0.2,0.4-0.4,0.7-0.4
				c0.7,0,0.7,0.6,0.7,0.8v1.3h-0.2V1.6c0-0.4-0.2-0.6-0.5-0.6c-0.4,0-0.6,0.3-0.6,0.7v1.2H118V1.6c0-0.4-0.2-0.6-0.5-0.6
				c-0.4,0-0.6,0.3-0.6,0.7v1.2h-0.2V1.4c0-0.2,0-0.3,0-0.5h0.3L116.8,1.2z"/>
		</g>
	</g>
	<g>
		<rect x="88.1" y="101.9" fill="none" width="27.6" height="3.6"/>
		<g>
			<path fill="#3B4C5D" d="M89,102.2h-0.9v-0.2h2.2v0.2h-0.9l0,2.7H89L89,102.2z"/>
			<path fill="#3B4C5D" d="M90.9,102.2h-0.3v-0.3h0.3V102.2z M90.9,102.8v2h-0.2v-2H90.9z"/>
			<path fill="#3B4C5D" d="M91.7,103h-0.4v-0.2h0.4v-0.4l0.2-0.1v0.5h0.5v0.2h-0.5v1.4c0,0.2,0.1,0.3,0.3,0.3c0.1,0,0.1,0,0.2,0v0.2
				c-0.1,0-0.2,0-0.2,0c-0.5,0-0.5-0.3-0.5-0.6V103z"/>
			<path fill="#3B4C5D" d="M93.1,104.9h-0.2v-2.9h0.2V104.9z"/>
			<path fill="#3B4C5D" d="M93.9,103.9c0,0.4,0.2,0.8,0.7,0.8c0.3,0,0.5-0.2,0.6-0.5h0.3c-0.1,0.5-0.4,0.7-0.9,0.7
				c-0.6,0-0.9-0.5-0.9-1.1c0-0.6,0.3-1.1,0.9-1.1c0.7,0,0.9,0.5,0.9,1.1H93.9z M95.2,103.7c0-0.4-0.2-0.7-0.7-0.7
				c-0.4,0-0.6,0.3-0.6,0.7H95.2z"/>
			<path fill="#3B4C5D" d="M97.8,103.3c0.4,0,0.8-0.1,0.8-0.5c0-0.3-0.3-0.5-0.6-0.5c-0.4,0-0.6,0.2-0.6,0.5H97
				c0-0.5,0.4-0.8,0.9-0.8c0.5,0,0.9,0.2,0.9,0.8c0,0.3-0.3,0.6-0.6,0.6v0c0.4,0.1,0.6,0.3,0.6,0.7c0,0.5-0.5,0.8-1,0.8
				c-0.5,0-0.9-0.3-0.9-0.8h0.3c0,0.3,0.3,0.6,0.6,0.6c0.4,0,0.7-0.2,0.7-0.6c0-0.5-0.4-0.6-0.8-0.6V103.3z"/>
			<path fill="#3B4C5D" d="M99.3,104.9v-0.3c0.4-0.3,1.5-1.4,1.5-1.9c0-0.3-0.3-0.5-0.6-0.5c-0.3,0-0.6,0.2-0.6,0.6h-0.3
				c0-0.5,0.4-0.8,0.9-0.8c0.5,0,0.8,0.2,0.8,0.7c0,0.7-1,1.5-1.4,1.9h1.5v0.2H99.3z"/>
			<path fill="#3B4C5D" d="M101.9,105.6h-0.2v-2.4c0-0.2,0-0.3,0-0.5h0.3l0,0.3l0,0c0.1-0.2,0.4-0.4,0.7-0.4c0.6,0,0.8,0.5,0.8,1.1
				c0,0.5-0.2,1.1-0.8,1.1c-0.3,0-0.5-0.1-0.7-0.4h0V105.6z M102.6,104.7c0.5,0,0.6-0.5,0.6-0.9c0-0.4-0.2-0.8-0.6-0.8
				c-0.5,0-0.7,0.4-0.7,0.8C101.9,104.3,102.1,104.7,102.6,104.7z"/>
			<path fill="#3B4C5D" d="M105.3,102.8h0.3l-0.7,1l0.8,1.1h-0.3l-0.7-0.9l-0.6,0.9h-0.3l0,0l0.8-1l-0.8-1h0.3l0.6,0.8L105.3,102.8z
				"/>
			<path fill="#3B4C5D" d="M106.6,101.9h0.3l-1.1,3.3h-0.3L106.6,101.9z"/>
			<path fill="#3B4C5D" d="M107,104.9v-0.3c0.4-0.3,1.5-1.4,1.5-1.9c0-0.3-0.3-0.5-0.6-0.5c-0.3,0-0.6,0.2-0.6,0.6H107
				c0-0.5,0.4-0.8,0.9-0.8c0.5,0,0.8,0.2,0.8,0.7c0,0.7-1,1.5-1.4,1.9h1.5v0.2H107z"/>
			<path fill="#3B4C5D" d="M109.5,103.9c0,0.4,0.2,0.8,0.7,0.8c0.3,0,0.5-0.2,0.6-0.5h0.3c-0.1,0.5-0.4,0.7-0.9,0.7
				c-0.6,0-0.9-0.5-0.9-1.1c0-0.6,0.3-1.1,0.9-1.1c0.7,0,0.9,0.5,0.9,1.1H109.5z M110.8,103.7c0-0.4-0.2-0.7-0.7-0.7
				c-0.4,0-0.6,0.3-0.6,0.7H110.8z"/>
			<path fill="#3B4C5D" d="M111.9,103.1L111.9,103.1c0.2-0.2,0.4-0.4,0.6-0.4c0.3,0,0.6,0.2,0.7,0.4c0.2-0.2,0.4-0.4,0.7-0.4
				c0.7,0,0.7,0.6,0.7,0.8v1.3h-0.2v-1.3c0-0.4-0.2-0.6-0.5-0.6c-0.4,0-0.6,0.3-0.6,0.7v1.2H113v-1.3c0-0.4-0.2-0.6-0.5-0.6
				c-0.4,0-0.6,0.3-0.6,0.7v1.2h-0.2v-1.6c0-0.2,0-0.3,0-0.5h0.3L111.9,103.1z"/>
		</g>
	</g>
	<g>
		<rect x="87.9" y="146.6" fill="none" width="169.3" height="54.1"/>
		<g>
			<path fill="#3B4C5D" d="M88,152.5l2.3-5.9H91l2.3,5.9h-0.6l-0.6-1.6h-2.9l-0.6,1.6H88z M91.9,150.4l-1.3-3.3l-1.3,3.3H91.9z"/>
			<path fill="#3B4C5D" d="M96.7,154.1h-0.5v-4.7c0-0.3,0-0.6,0-0.9h0.5l0,0.6l0,0c0.3-0.5,0.9-0.7,1.4-0.7c1.2,0,1.7,1.1,1.7,2.1
				c0,1-0.5,2.2-1.7,2.2c-0.6,0-1.1-0.3-1.4-0.8h0V154.1z M98.1,152.2c0.9,0,1.2-1,1.2-1.8c0-0.8-0.3-1.6-1.2-1.6
				c-1,0-1.3,0.8-1.3,1.6C96.7,151.3,97,152.2,98.1,152.2z"/>
			<path fill="#3B4C5D" d="M101.3,152.5h-0.5v-5.9h0.5V152.5z"/>
			<path fill="#3B4C5D" d="M102.9,150.6c0,0.9,0.4,1.6,1.4,1.6c0.6,0,1.1-0.4,1.2-1h0.5c-0.3,1-0.9,1.4-1.8,1.4
				c-1.2,0-1.8-1-1.8-2.2c0-1.1,0.6-2.2,1.8-2.2c1.4,0,1.9,1,1.9,2.3H102.9z M105.5,150.1c-0.1-0.8-0.5-1.4-1.3-1.4
				c-0.8,0-1.2,0.7-1.3,1.4H105.5z"/>
			<path fill="#3B4C5D" d="M109.4,149.6c0-0.7-0.4-0.9-1-0.9c-0.5,0-0.9,0.2-1,0.7H107c0.1-0.8,0.7-1.2,1.5-1.2
				c0.9,0,1.5,0.4,1.4,1.4v1.9c0,0.3,0,0.6,0,0.9h-0.5l0-0.6h0l0,0.1c-0.2,0.3-0.7,0.7-1.3,0.7c-0.8,0-1.4-0.5-1.4-1.3
				c0-0.6,0.3-1,0.8-1.2c0.5-0.2,1.3-0.2,1.8-0.2V149.6z M108.2,152.2c1.1,0,1.3-0.9,1.2-1.7c-0.7,0-2.1-0.1-2.1,0.9
				C107.3,151.9,107.7,152.2,108.2,152.2z"/>
			<path fill="#3B4C5D" d="M113.8,152.5h-0.5c0-0.3,0-0.6,0-0.9v-5h0.5v2.4l0,0c0.3-0.5,0.9-0.7,1.4-0.7c1.2,0,1.7,1.1,1.7,2.1
				c0,1-0.5,2.2-1.7,2.2c-0.6,0-1.1-0.3-1.4-0.8l0,0L113.8,152.5z M113.9,150.4c0,0.9,0.3,1.8,1.4,1.8c0.9,0,1.2-1,1.2-1.8
				c0-0.8-0.3-1.7-1.2-1.7C114.2,148.8,113.9,149.6,113.9,150.4z"/>
			<path fill="#3B4C5D" d="M120.3,149.6c0-0.7-0.4-0.9-1-0.9c-0.5,0-0.9,0.2-1,0.7h-0.5c0.1-0.8,0.7-1.2,1.5-1.2
				c0.9,0,1.5,0.4,1.4,1.4v1.9c0,0.3,0,0.6,0,0.9h-0.5l0-0.6h0l0,0.1c-0.2,0.3-0.7,0.7-1.3,0.7c-0.8,0-1.4-0.5-1.4-1.3
				c0-0.6,0.3-1,0.8-1.2c0.5-0.2,1.3-0.2,1.8-0.2V149.6z M119.1,152.2c1.1,0,1.3-0.9,1.2-1.7c-0.7,0-2.1-0.1-2.1,0.9
				C118.2,151.9,118.6,152.2,119.1,152.2z"/>
			<path fill="#3B4C5D" d="M122.5,152.5H122v-3.2c0-0.3,0-0.6,0-0.9h0.5l0,0.6h0c0.1-0.4,0.5-0.7,0.9-0.7c0.2,0,0.3,0,0.5,0v0.5
				c-0.1,0-0.2,0-0.3,0c-0.7,0-1.1,0.5-1.1,1.3V152.5z"/>
			<path fill="#3B4C5D" d="M127.6,148.4h0.5c0,0.3,0,0.6,0,0.9v2.4c0,0.8,0,1.7-0.9,2.1c-0.3,0.2-0.5,0.2-0.9,0.2
				c-0.7,0-1.6-0.3-1.6-1.1h0.5c0.1,0.5,0.6,0.7,1.2,0.7c0.6,0,1.2-0.4,1.2-1.1v-0.8h0c-0.2,0.5-0.8,0.8-1.3,0.8
				c-1.2,0-1.8-0.9-1.8-2.1c0-1.1,0.5-2.1,1.7-2.1c0.6,0,1,0.3,1.3,0.8l0,0L127.6,148.4z M126.3,148.8c-0.9,0-1.3,0.9-1.3,1.6
				s0.4,1.7,1.3,1.7c0.9,0,1.3-0.9,1.3-1.7C127.6,149.6,127.1,148.8,126.3,148.8z"/>
			<path fill="#3B4C5D" d="M131.6,149.6c0-0.7-0.4-0.9-1-0.9c-0.5,0-0.9,0.2-1,0.7h-0.5c0.1-0.8,0.7-1.2,1.5-1.2
				c0.9,0,1.5,0.4,1.4,1.4v1.9c0,0.3,0,0.6,0,0.9h-0.5l0-0.6h0l0,0.1c-0.2,0.3-0.7,0.7-1.3,0.7c-0.8,0-1.4-0.5-1.4-1.3
				c0-0.6,0.3-1,0.8-1.2c0.5-0.2,1.3-0.2,1.8-0.2V149.6z M130.4,152.2c1.1,0,1.3-0.9,1.2-1.7c-0.7,0-2.1-0.1-2.1,0.9
				C129.4,151.9,129.9,152.2,130.4,152.2z"/>
			<path fill="#3B4C5D" d="M133.9,147.3h-0.6v-0.6h0.6V147.3z M133.8,148.4v4.1h-0.5v-4.1H133.8z"/>
			<path fill="#3B4C5D" d="M135.6,152.5h-0.5v-3.2c0-0.3,0-0.6,0-0.9h0.5l0,0.6l0,0c0.3-0.5,0.7-0.7,1.3-0.7c1.3,0,1.4,1.2,1.4,1.7
				v2.6h-0.5v-2.6c0-0.7-0.4-1.1-1.1-1.1c-0.8,0-1.2,0.7-1.2,1.4V152.5z"/>
			<path fill="#3B4C5D" d="M140.5,151.9l-0.6,1.7h-0.4l0.3-1.7H140.5z"/>
			<path fill="#3B4C5D" d="M147.7,150.5c0,1.1-0.6,2.2-1.9,2.2s-1.9-1.1-1.9-2.2c0-1.1,0.6-2.2,1.9-2.2S147.7,149.4,147.7,150.5z
				 M145.8,148.8c-1,0-1.4,1-1.4,1.7c0,0.8,0.4,1.7,1.4,1.7c1,0,1.4-1,1.4-1.7C147.2,149.7,146.8,148.8,145.8,148.8z"/>
			<path fill="#3B4C5D" d="M149.2,152.5h-0.5v-3.2c0-0.3,0-0.6,0-0.9h0.5l0,0.6h0c0.1-0.4,0.5-0.7,0.9-0.7c0.2,0,0.3,0,0.5,0v0.5
				c-0.1,0-0.2,0-0.3,0c-0.7,0-1.1,0.5-1.1,1.3V152.5z"/>
			<path fill="#3B4C5D" d="M154.1,154.1h-0.5v-4.7c0-0.3,0-0.6,0-0.9h0.5l0,0.6l0,0c0.3-0.5,0.9-0.7,1.4-0.7c1.2,0,1.7,1.1,1.7,2.1
				c0,1-0.5,2.2-1.7,2.2c-0.6,0-1.1-0.3-1.4-0.8h0V154.1z M155.5,152.2c0.9,0,1.2-1,1.2-1.8c0-0.8-0.3-1.6-1.2-1.6
				c-1,0-1.3,0.8-1.3,1.6C154.1,151.3,154.4,152.2,155.5,152.2z"/>
			<path fill="#3B4C5D" d="M158.7,152.5h-0.5v-5.9h0.5V152.5z"/>
			<path fill="#3B4C5D" d="M160.3,150.6c0,0.9,0.4,1.6,1.4,1.6c0.6,0,1.1-0.4,1.2-1h0.5c-0.3,1-0.9,1.4-1.8,1.4
				c-1.2,0-1.8-1-1.8-2.2c0-1.1,0.6-2.2,1.8-2.2c1.4,0,1.9,1,1.9,2.3H160.3z M162.9,150.1c-0.1-0.8-0.5-1.4-1.3-1.4
				c-0.8,0-1.2,0.7-1.3,1.4H162.9z"/>
			<path fill="#3B4C5D" d="M166.8,149.6c0-0.7-0.4-0.9-1-0.9c-0.5,0-0.9,0.2-1,0.7h-0.5c0.1-0.8,0.7-1.2,1.5-1.2
				c0.9,0,1.5,0.4,1.4,1.4v1.9c0,0.3,0,0.6,0,0.9h-0.5l0-0.6h0l0,0.1c-0.2,0.3-0.7,0.7-1.3,0.7c-0.8,0-1.4-0.5-1.4-1.3
				c0-0.6,0.3-1,0.8-1.2c0.5-0.2,1.3-0.2,1.8-0.2V149.6z M165.6,152.2c1.1,0,1.3-0.9,1.2-1.7c-0.7,0-2.1-0.1-2.1,0.9
				C164.7,151.9,165.1,152.2,165.6,152.2z"/>
			<path fill="#3B4C5D" d="M173.7,151.9L173.7,151.9c-0.4,0.5-0.8,0.7-1.4,0.7c-1.2,0-1.7-1.2-1.7-2.2c0-1.1,0.5-2.1,1.7-2.1
				c0.5,0,1.1,0.3,1.4,0.7l0,0v-2.4h0.5v5c0,0.3,0,0.6,0,0.9h-0.5L173.7,151.9z M172.3,148.8c-0.9,0-1.2,0.9-1.2,1.6
				c0,0.8,0.2,1.8,1.2,1.8c1.1,0,1.4-0.9,1.4-1.8C173.7,149.6,173.3,148.8,172.3,148.8z"/>
			<path fill="#3B4C5D" d="M175.7,150.6c0,0.9,0.4,1.6,1.4,1.6c0.6,0,1.1-0.4,1.2-1h0.5c-0.3,1-0.9,1.4-1.8,1.4
				c-1.2,0-1.8-1-1.8-2.2c0-1.1,0.6-2.2,1.8-2.2c1.4,0,1.9,1,1.9,2.3H175.7z M178.3,150.1c-0.1-0.8-0.5-1.4-1.3-1.4
				c-0.8,0-1.2,0.7-1.3,1.4H178.3z"/>
			<path fill="#3B4C5D" d="M182.2,149.6c0-0.7-0.4-0.9-1-0.9c-0.5,0-0.9,0.2-1,0.7h-0.5c0.1-0.8,0.7-1.2,1.5-1.2
				c0.9,0,1.5,0.4,1.4,1.4v1.9c0,0.3,0,0.6,0,0.9h-0.5l0-0.6h0l0,0.1c-0.2,0.3-0.7,0.7-1.3,0.7c-0.8,0-1.4-0.5-1.4-1.3
				c0-0.6,0.3-1,0.8-1.2c0.5-0.2,1.3-0.2,1.8-0.2V149.6z M181,152.2c1.1,0,1.3-0.9,1.2-1.7c-0.7,0-2.1-0.1-2.1,0.9
				C180.1,151.9,180.5,152.2,181,152.2z"/>
			<path fill="#3B4C5D" d="M184.5,152.5H184v-5.9h0.5V152.5z"/>
			<path fill="#3B4C5D" d="M186.6,151.9l-0.6,1.7h-0.4l0.3-1.7H186.6z"/>
			<path fill="#3B4C5D" d="M190.8,147.3h-0.6v-0.6h0.6V147.3z M190.8,148.4v4.1h-0.5v-4.1H190.8z"/>
			<path fill="#3B4C5D" d="M193.5,148.3c0.8,0,1.4,0.3,1.5,1.1h-0.5c0-0.5-0.5-0.7-1-0.7c-0.5,0-0.9,0.2-0.9,0.7
				c0,0.6,0.8,0.5,1.9,0.9c0.4,0.1,0.7,0.5,0.7,1c0,0.9-0.9,1.3-1.7,1.3c-0.7,0-1.5-0.3-1.5-1.2h0.5c0,0.6,0.6,0.8,1.1,0.8
				c0.5,0,1.1-0.2,1.1-0.8c0-0.6-0.6-0.7-1.3-0.8c-0.6-0.2-1.3-0.3-1.3-1.1C192,148.6,192.7,148.3,193.5,148.3z"/>
			<path fill="#3B4C5D" d="M200.7,149.6c0-0.7-0.4-0.9-1-0.9c-0.5,0-0.9,0.2-1,0.7h-0.5c0.1-0.8,0.7-1.2,1.5-1.2
				c0.9,0,1.5,0.4,1.4,1.4v1.9c0,0.3,0,0.6,0,0.9h-0.5l0-0.6h0l0,0.1c-0.2,0.3-0.7,0.7-1.3,0.7c-0.8,0-1.4-0.5-1.4-1.3
				c0-0.6,0.3-1,0.8-1.2c0.5-0.2,1.3-0.2,1.8-0.2V149.6z M199.5,152.2c1.1,0,1.3-0.9,1.2-1.7c-0.7,0-2.1-0.1-2.1,0.9
				C198.6,151.9,199,152.2,199.5,152.2z"/>
			<path fill="#3B4C5D" d="M203,152.5h-0.5v-3.2c0-0.3,0-0.6,0-0.9h0.5l0,0.6l0,0c0.3-0.5,0.7-0.7,1.3-0.7c1.3,0,1.4,1.2,1.4,1.7
				v2.6h-0.5v-2.6c0-0.7-0.4-1.1-1.1-1.1c-0.8,0-1.2,0.7-1.2,1.4V152.5z"/>
			<path fill="#3B4C5D" d="M211.6,149.6c0-0.7-0.4-0.9-1-0.9c-0.5,0-0.9,0.2-1,0.7h-0.5c0.1-0.8,0.7-1.2,1.5-1.2
				c0.9,0,1.5,0.4,1.4,1.4v1.9c0,0.3,0,0.6,0,0.9h-0.5l0-0.6h0l0,0.1c-0.2,0.3-0.7,0.7-1.3,0.7c-0.8,0-1.4-0.5-1.4-1.3
				c0-0.6,0.3-1,0.8-1.2c0.5-0.2,1.3-0.2,1.8-0.2V149.6z M210.4,152.2c1.1,0,1.3-0.9,1.2-1.7c-0.7,0-2.1-0.1-2.1,0.9
				C209.5,151.9,209.9,152.2,210.4,152.2z"/>
			<path fill="#3B4C5D" d="M216.2,148.4h0.5c0,0.3,0,0.6,0,0.9v2.4c0,0.8,0,1.7-0.9,2.1c-0.3,0.2-0.5,0.2-0.9,0.2
				c-0.7,0-1.6-0.3-1.6-1.1h0.5c0.1,0.5,0.6,0.7,1.2,0.7c0.6,0,1.2-0.4,1.2-1.1v-0.8h0c-0.2,0.5-0.8,0.8-1.3,0.8
				c-1.2,0-1.8-0.9-1.8-2.1c0-1.1,0.5-2.1,1.7-2.1c0.6,0,1,0.3,1.3,0.8l0,0L216.2,148.4z M214.9,148.8c-0.9,0-1.3,0.9-1.3,1.6
				s0.4,1.7,1.3,1.7c0.9,0,1.3-0.9,1.3-1.7C216.2,149.6,215.7,148.8,214.9,148.8z"/>
			<path fill="#3B4C5D" d="M218.4,152.5h-0.5v-3.2c0-0.3,0-0.6,0-0.9h0.5l0,0.6h0c0.1-0.4,0.5-0.7,0.9-0.7c0.2,0,0.3,0,0.5,0v0.5
				c-0.1,0-0.2,0-0.3,0c-0.7,0-1.1,0.5-1.1,1.3V152.5z"/>
			<path fill="#3B4C5D" d="M220.9,150.6c0,0.9,0.4,1.6,1.4,1.6c0.6,0,1.1-0.4,1.2-1h0.5c-0.3,1-0.9,1.4-1.8,1.4
				c-1.2,0-1.8-1-1.8-2.2c0-1.1,0.6-2.2,1.8-2.2c1.4,0,1.9,1,1.9,2.3H220.9z M223.5,150.1c-0.1-0.8-0.5-1.4-1.3-1.4
				c-0.8,0-1.2,0.7-1.3,1.4H223.5z"/>
			<path fill="#3B4C5D" d="M225.4,150.6c0,0.9,0.4,1.6,1.4,1.6c0.6,0,1.1-0.4,1.2-1h0.5c-0.3,1-0.9,1.4-1.8,1.4
				c-1.2,0-1.8-1-1.8-2.2c0-1.1,0.6-2.2,1.8-2.2c1.4,0,1.9,1,1.9,2.3H225.4z M228,150.1c-0.1-0.8-0.5-1.4-1.3-1.4
				c-0.8,0-1.2,0.7-1.3,1.4H228z"/>
			<path fill="#3B4C5D" d="M230.1,149L230.1,149c0.3-0.5,0.8-0.7,1.3-0.7c0.6,0,1.1,0.4,1.3,0.9c0.3-0.5,0.8-0.9,1.4-0.9
				c1.3,0,1.4,1.2,1.4,1.7v2.6h-0.5v-2.6c0-0.7-0.4-1.1-1.1-1.1c-0.8,0-1.2,0.7-1.2,1.4v2.4h-0.5v-2.6c0-0.7-0.4-1.1-1.1-1.1
				c-0.8,0-1.2,0.7-1.2,1.4v2.4h-0.5v-3.2c0-0.3,0-0.6,0-0.9h0.5L230.1,149z"/>
			<path fill="#3B4C5D" d="M237.1,150.6c0,0.9,0.4,1.6,1.4,1.6c0.6,0,1.1-0.4,1.2-1h0.5c-0.3,1-0.9,1.4-1.8,1.4
				c-1.2,0-1.8-1-1.8-2.2c0-1.1,0.6-2.2,1.8-2.2c1.4,0,1.9,1,1.9,2.3H237.1z M239.8,150.1c-0.1-0.8-0.5-1.4-1.3-1.4
				c-0.8,0-1.2,0.7-1.3,1.4H239.8z"/>
			<path fill="#3B4C5D" d="M241.9,152.5h-0.5v-3.2c0-0.3,0-0.6,0-0.9h0.5l0,0.6l0,0c0.3-0.5,0.7-0.7,1.3-0.7c1.3,0,1.4,1.2,1.4,1.7
				v2.6h-0.5v-2.6c0-0.7-0.4-1.1-1.1-1.1c-0.8,0-1.2,0.7-1.2,1.4V152.5z"/>
			<path fill="#3B4C5D" d="M246.2,148.9h-0.8v-0.4h0.8v-0.9l0.5-0.2v1.1h0.9v0.4h-0.9v2.7c0,0.4,0.2,0.6,0.6,0.6c0.1,0,0.3,0,0.4,0
				v0.4c-0.2,0-0.3,0.1-0.5,0.1c-1,0-1-0.7-1-1.2V148.9z"/>
		</g>
		<g>
			<path fill="#3B4C5D" d="M89.1,158.8L89.1,158.8c0.3-0.5,0.8-0.7,1.3-0.7c0.6,0,1.1,0.4,1.3,0.9c0.3-0.5,0.8-0.9,1.4-0.9
				c1.3,0,1.4,1.2,1.4,1.7v2.6h-0.5v-2.6c0-0.7-0.4-1.1-1.1-1.1c-0.8,0-1.2,0.7-1.2,1.4v2.4h-0.5v-2.6c0-0.7-0.4-1.1-1.1-1.1
				c-0.8,0-1.2,0.7-1.2,1.4v2.4h-0.5v-3.2c0-0.3,0-0.6,0-0.9h0.5L89.1,158.8z"/>
			<path fill="#3B4C5D" d="M98.1,159.4c0-0.7-0.4-0.9-1-0.9c-0.5,0-0.9,0.2-1,0.7h-0.5c0.1-0.8,0.7-1.2,1.5-1.2
				c0.9,0,1.5,0.4,1.4,1.4v1.9c0,0.3,0,0.6,0,0.9h-0.5l0-0.6h0l0,0.1c-0.2,0.3-0.7,0.7-1.3,0.7c-0.8,0-1.4-0.5-1.4-1.3
				c0-0.6,0.3-1,0.8-1.2c0.5-0.2,1.3-0.2,1.8-0.2V159.4z M96.9,162c1.1,0,1.3-0.9,1.2-1.7c-0.7,0-2.1-0.1-2.1,0.9
				C96,161.7,96.4,162,96.9,162z"/>
			<path fill="#3B4C5D" d="M102.7,161.7L102.7,161.7c-0.4,0.5-0.8,0.7-1.4,0.7c-1.2,0-1.7-1.2-1.7-2.2c0-1.1,0.5-2.1,1.7-2.1
				c0.5,0,1.1,0.3,1.4,0.7l0,0v-2.4h0.5v5c0,0.3,0,0.6,0,0.9h-0.5L102.7,161.7z M101.4,158.5c-0.9,0-1.2,0.9-1.2,1.6
				c0,0.8,0.2,1.8,1.2,1.8c1.1,0,1.4-0.9,1.4-1.8C102.7,159.3,102.3,158.5,101.4,158.5z"/>
			<path fill="#3B4C5D" d="M104.7,160.4c0,0.9,0.4,1.6,1.4,1.6c0.6,0,1.1-0.4,1.2-1h0.5c-0.3,1-0.9,1.4-1.8,1.4
				c-1.2,0-1.8-1-1.8-2.2c0-1.1,0.6-2.2,1.8-2.2c1.4,0,1.9,1,1.9,2.3H104.7z M107.3,159.9c-0.1-0.8-0.5-1.4-1.3-1.4
				c-0.8,0-1.2,0.7-1.3,1.4H107.3z"/>
			<path fill="#3B4C5D" d="M111.6,162.3h-0.5c0-0.3,0-0.6,0-0.9v-5h0.5v2.4l0,0c0.3-0.5,0.9-0.7,1.4-0.7c1.2,0,1.7,1.1,1.7,2.1
				c0,1-0.5,2.2-1.7,2.2c-0.6,0-1.1-0.3-1.4-0.8l0,0L111.6,162.3z M111.6,160.2c0,0.9,0.3,1.8,1.4,1.8c0.9,0,1.2-1,1.2-1.8
				c0-0.8-0.3-1.7-1.2-1.7C112,158.5,111.6,159.3,111.6,160.2z"/>
			<path fill="#3B4C5D" d="M116,160.4c0,0.9,0.4,1.6,1.4,1.6c0.6,0,1.1-0.4,1.2-1h0.5c-0.3,1-0.9,1.4-1.8,1.4c-1.2,0-1.8-1-1.8-2.2
				c0-1.1,0.6-2.2,1.8-2.2c1.4,0,1.9,1,1.9,2.3H116z M118.6,159.9c-0.1-0.8-0.5-1.4-1.3-1.4c-0.8,0-1.2,0.7-1.3,1.4H118.6z"/>
			<path fill="#3B4C5D" d="M120.6,158.6h-0.8v-0.4h0.8v-0.9l0.5-0.2v1.1h0.9v0.4h-0.9v2.7c0,0.4,0.2,0.6,0.6,0.6c0.1,0,0.3,0,0.4,0
				v0.4c-0.2,0-0.3,0.1-0.5,0.1c-1,0-1-0.7-1-1.2V158.6z"/>
			<path fill="#3B4C5D" d="M124.3,161.6L124.3,161.6l1.3-3.4h0.6l1.2,3.4h0l1.2-3.4h0.5l-1.5,4.1h-0.5l-1.3-3.5h0l-1.3,3.5h-0.5
				l-1.5-4.1h0.5L124.3,161.6z"/>
			<path fill="#3B4C5D" d="M130,160.4c0,0.9,0.4,1.6,1.4,1.6c0.6,0,1.1-0.4,1.2-1h0.5c-0.3,1-0.9,1.4-1.8,1.4c-1.2,0-1.8-1-1.8-2.2
				c0-1.1,0.6-2.2,1.8-2.2c1.4,0,1.9,1,1.9,2.3H130z M132.6,159.9c-0.1-0.8-0.5-1.4-1.3-1.4c-0.8,0-1.2,0.7-1.3,1.4H132.6z"/>
			<path fill="#3B4C5D" d="M134.5,160.4c0,0.9,0.4,1.6,1.4,1.6c0.6,0,1.1-0.4,1.2-1h0.5c-0.3,1-0.9,1.4-1.8,1.4
				c-1.2,0-1.8-1-1.8-2.2c0-1.1,0.6-2.2,1.8-2.2c1.4,0,1.9,1,1.9,2.3H134.5z M137.2,159.9c-0.1-0.8-0.5-1.4-1.3-1.4
				c-0.8,0-1.2,0.7-1.3,1.4H137.2z"/>
			<path fill="#3B4C5D" d="M139.3,162.3h-0.5v-3.2c0-0.3,0-0.6,0-0.9h0.5l0,0.6l0,0c0.3-0.5,0.7-0.7,1.3-0.7c1.3,0,1.4,1.2,1.4,1.7
				v2.6h-0.5v-2.6c0-0.7-0.4-1.1-1.1-1.1c-0.8,0-1.2,0.7-1.2,1.4V162.3z"/>
			<path fill="#3B4C5D" d="M147.9,159.4c0-0.7-0.4-0.9-1-0.9c-0.5,0-0.9,0.2-1,0.7h-0.5c0.1-0.8,0.7-1.2,1.5-1.2
				c0.9,0,1.5,0.4,1.4,1.4v1.9c0,0.3,0,0.6,0,0.9h-0.5l0-0.6h0l0,0.1c-0.2,0.3-0.7,0.7-1.3,0.7c-0.8,0-1.4-0.5-1.4-1.3
				c0-0.6,0.3-1,0.8-1.2c0.5-0.2,1.3-0.2,1.8-0.2V159.4z M146.6,162c1.1,0,1.3-0.9,1.2-1.7c-0.7,0-2.1-0.1-2.1,0.9
				C145.7,161.7,146.1,162,146.6,162z"/>
			<path fill="#3B4C5D" d="M154.7,161.7L154.7,161.7c-0.4,0.5-0.8,0.7-1.4,0.7c-1.2,0-1.7-1.2-1.7-2.2c0-1.1,0.5-2.1,1.7-2.1
				c0.5,0,1.1,0.3,1.4,0.7l0,0v-2.4h0.5v5c0,0.3,0,0.6,0,0.9h-0.5L154.7,161.7z M153.4,158.5c-0.9,0-1.2,0.9-1.2,1.6
				c0,0.8,0.2,1.8,1.2,1.8c1.1,0,1.4-0.9,1.4-1.8C154.7,159.3,154.3,158.5,153.4,158.5z"/>
			<path fill="#3B4C5D" d="M156.7,160.4c0,0.9,0.4,1.6,1.4,1.6c0.6,0,1.1-0.4,1.2-1h0.5c-0.3,1-0.9,1.4-1.8,1.4
				c-1.2,0-1.8-1-1.8-2.2c0-1.1,0.6-2.2,1.8-2.2c1.4,0,1.9,1,1.9,2.3H156.7z M159.3,159.9c-0.1-0.8-0.5-1.4-1.3-1.4
				c-0.8,0-1.2,0.7-1.3,1.4H159.3z"/>
			<path fill="#3B4C5D" d="M161.3,162.3v-3.6h-0.8v-0.4h0.8v-0.9c0-0.7,0.3-1,1-1c0.2,0,0.3,0.1,0.5,0.1v0.4c-0.1,0-0.2,0-0.3,0
				c-0.7,0-0.7,0.3-0.7,0.9v0.5h0.9v0.4h-0.9v3.6H161.3z"/>
			<path fill="#3B4C5D" d="M163.6,160.4c0,0.9,0.4,1.6,1.4,1.6c0.6,0,1.1-0.4,1.2-1h0.5c-0.3,1-0.9,1.4-1.8,1.4
				c-1.2,0-1.8-1-1.8-2.2c0-1.1,0.6-2.2,1.8-2.2c1.4,0,1.9,1,1.9,2.3H163.6z M166.2,159.9c-0.1-0.8-0.5-1.4-1.3-1.4
				c-0.8,0-1.2,0.7-1.3,1.4H166.2z"/>
			<path fill="#3B4C5D" d="M168.3,162.3h-0.5v-3.2c0-0.3,0-0.6,0-0.9h0.5l0,0.6l0,0c0.3-0.5,0.7-0.7,1.3-0.7c1.3,0,1.4,1.2,1.4,1.7
				v2.6h-0.5v-2.6c0-0.7-0.4-1.1-1.1-1.1c-0.8,0-1.2,0.7-1.2,1.4V162.3z"/>
			<path fill="#3B4C5D" d="M175.2,161.7L175.2,161.7c-0.4,0.5-0.8,0.7-1.4,0.7c-1.2,0-1.7-1.2-1.7-2.2c0-1.1,0.5-2.1,1.7-2.1
				c0.5,0,1.1,0.3,1.4,0.7l0,0v-2.4h0.5v5c0,0.3,0,0.6,0,0.9h-0.5L175.2,161.7z M173.8,158.5c-0.9,0-1.2,0.9-1.2,1.6
				c0,0.8,0.2,1.8,1.2,1.8c1.1,0,1.4-0.9,1.4-1.8C175.1,159.3,174.8,158.5,173.8,158.5z"/>
			<path fill="#3B4C5D" d="M179.2,159.4c0-0.7-0.4-0.9-1-0.9c-0.5,0-0.9,0.2-1,0.7h-0.5c0.1-0.8,0.7-1.2,1.5-1.2
				c0.9,0,1.5,0.4,1.4,1.4v1.9c0,0.3,0,0.6,0,0.9h-0.5l0-0.6h0l0,0.1c-0.2,0.3-0.7,0.7-1.3,0.7c-0.8,0-1.4-0.5-1.4-1.3
				c0-0.6,0.3-1,0.8-1.2c0.5-0.2,1.3-0.2,1.8-0.2V159.4z M178,162c1.1,0,1.3-0.9,1.2-1.7c-0.7,0-2.1-0.1-2.1,0.9
				C177,161.7,177.5,162,178,162z"/>
			<path fill="#3B4C5D" d="M181.4,162.3h-0.5v-3.2c0-0.3,0-0.6,0-0.9h0.5l0,0.6l0,0c0.3-0.5,0.7-0.7,1.3-0.7c1.3,0,1.4,1.2,1.4,1.7
				v2.6h-0.5v-2.6c0-0.7-0.4-1.1-1.1-1.1c-0.8,0-1.2,0.7-1.2,1.4V162.3z"/>
			<path fill="#3B4C5D" d="M185.8,158.6H185v-0.4h0.8v-0.9l0.5-0.2v1.1h0.9v0.4h-0.9v2.7c0,0.4,0.2,0.6,0.6,0.6c0.1,0,0.3,0,0.4,0
				v0.4c-0.2,0-0.3,0.1-0.5,0.1c-1,0-1-0.7-1-1.2V158.6z"/>
			<path fill="#3B4C5D" d="M189,161.6l-0.6,1.7H188l0.3-1.7H189z"/>
			<path fill="#3B4C5D" d="M193.1,163.8h-0.5v-4.7c0-0.3,0-0.6,0-0.9h0.5l0,0.6l0,0c0.3-0.5,0.9-0.7,1.4-0.7c1.2,0,1.7,1.1,1.7,2.1
				c0,1-0.5,2.2-1.7,2.2c-0.6,0-1.1-0.3-1.4-0.8h0V163.8z M194.5,162c0.9,0,1.2-1,1.2-1.8c0-0.8-0.3-1.6-1.2-1.6
				c-1,0-1.3,0.8-1.3,1.6C193.1,161.1,193.4,162,194.5,162z"/>
			<path fill="#3B4C5D" d="M197.7,162.3h-0.5v-3.2c0-0.3,0-0.6,0-0.9h0.5l0,0.6h0c0.1-0.4,0.5-0.7,0.9-0.7c0.2,0,0.3,0,0.5,0v0.5
				c-0.1,0-0.2,0-0.3,0c-0.7,0-1.1,0.5-1.1,1.3V162.3z"/>
			<path fill="#3B4C5D" d="M203.4,160.2c0,1.1-0.6,2.2-1.9,2.2s-1.9-1.1-1.9-2.2c0-1.1,0.6-2.2,1.9-2.2S203.4,159.2,203.4,160.2z
				 M201.5,158.5c-1,0-1.4,1-1.4,1.7c0,0.8,0.4,1.7,1.4,1.7c1,0,1.4-1,1.4-1.7C202.9,159.5,202.5,158.5,201.5,158.5z"/>
			<path fill="#3B4C5D" d="M205.8,158.1c0.8,0,1.4,0.3,1.5,1.1h-0.5c0-0.5-0.5-0.7-1-0.7c-0.5,0-0.9,0.2-0.9,0.7
				c0,0.6,0.8,0.5,1.9,0.9c0.4,0.1,0.7,0.5,0.7,1c0,0.9-0.9,1.3-1.7,1.3c-0.7,0-1.5-0.3-1.5-1.2h0.5c0,0.6,0.6,0.8,1.1,0.8
				c0.5,0,1.1-0.2,1.1-0.8c0-0.6-0.6-0.7-1.3-0.8c-0.6-0.2-1.3-0.3-1.3-1.1C204.3,158.4,205.1,158.1,205.8,158.1z"/>
			<path fill="#3B4C5D" d="M208.8,160.4c0,0.9,0.4,1.6,1.4,1.6c0.6,0,1.1-0.4,1.2-1h0.5c-0.3,1-0.9,1.4-1.8,1.4
				c-1.2,0-1.8-1-1.8-2.2c0-1.1,0.6-2.2,1.8-2.2c1.4,0,1.9,1,1.9,2.3H208.8z M211.4,159.9c-0.1-0.8-0.5-1.4-1.3-1.4
				c-0.8,0-1.2,0.7-1.3,1.4H211.4z"/>
			<path fill="#3B4C5D" d="M215.6,159.4c0-0.6-0.4-0.9-1.1-0.9c-0.7,0-1.2,0.8-1.2,1.7c0,0.9,0.5,1.7,1.2,1.7c0.6,0,1.1-0.4,1.1-1
				h0.5c-0.1,0.9-0.7,1.4-1.6,1.4c-1.2,0-1.8-1-1.8-2.2c0-1.1,0.6-2.2,1.8-2.2c0.8,0,1.5,0.5,1.6,1.4H215.6z"/>
			<path fill="#3B4C5D" d="M219.8,158.2h0.5v3.2c0,0.3,0,0.6,0,0.9h-0.5l0-0.6l0,0c-0.3,0.5-0.7,0.7-1.3,0.7c-1.3,0-1.4-1.2-1.4-1.7
				v-2.6h0.5v2.6c0,0.7,0.4,1.1,1.1,1.1c0.8,0,1.2-0.7,1.2-1.4V158.2z"/>
			<path fill="#3B4C5D" d="M222,158.6h-0.8v-0.4h0.8v-0.9l0.5-0.2v1.1h0.9v0.4h-0.9v2.7c0,0.4,0.2,0.6,0.6,0.6c0.1,0,0.3,0,0.4,0
				v0.4c-0.2,0-0.3,0.1-0.5,0.1c-1,0-1-0.7-1-1.2V158.6z"/>
			<path fill="#3B4C5D" d="M224.6,160.4c0,0.9,0.4,1.6,1.4,1.6c0.6,0,1.1-0.4,1.2-1h0.5c-0.3,1-0.9,1.4-1.8,1.4
				c-1.2,0-1.8-1-1.8-2.2c0-1.1,0.6-2.2,1.8-2.2c1.4,0,1.9,1,1.9,2.3H224.6z M227.2,159.9c-0.1-0.8-0.5-1.4-1.3-1.4
				c-0.8,0-1.2,0.7-1.3,1.4H227.2z"/>
			<path fill="#3B4C5D" d="M229.3,162.3h-0.5v-3.2c0-0.3,0-0.6,0-0.9h0.5l0,0.6h0c0.1-0.4,0.5-0.7,0.9-0.7c0.2,0,0.3,0,0.5,0v0.5
				c-0.1,0-0.2,0-0.3,0c-0.7,0-1.1,0.5-1.1,1.3V162.3z"/>
			<path fill="#3B4C5D" d="M231.8,161.6l-0.6,1.7h-0.4l0.3-1.7H231.8z"/>
			<path fill="#3B4C5D" d="M237.8,159.4c0-0.7-0.4-0.9-1-0.9c-0.5,0-0.9,0.2-1,0.7h-0.5c0.1-0.8,0.7-1.2,1.5-1.2
				c0.9,0,1.5,0.4,1.4,1.4v1.9c0,0.3,0,0.6,0,0.9h-0.5l0-0.6h0l0,0.1c-0.2,0.3-0.7,0.7-1.3,0.7c-0.8,0-1.4-0.5-1.4-1.3
				c0-0.6,0.3-1,0.8-1.2c0.5-0.2,1.3-0.2,1.8-0.2V159.4z M236.6,162c1.1,0,1.3-0.9,1.2-1.7c-0.7,0-2.1-0.1-2.1,0.9
				C235.6,161.7,236.1,162,236.6,162z"/>
			<path fill="#3B4C5D" d="M240,162.3h-0.5v-3.2c0-0.3,0-0.6,0-0.9h0.5l0,0.6l0,0c0.3-0.5,0.7-0.7,1.3-0.7c1.3,0,1.4,1.2,1.4,1.7
				v2.6h-0.5v-2.6c0-0.7-0.4-1.1-1.1-1.1c-0.8,0-1.2,0.7-1.2,1.4V162.3z"/>
			<path fill="#3B4C5D" d="M246.9,161.7L246.9,161.7c-0.4,0.5-0.8,0.7-1.4,0.7c-1.2,0-1.7-1.2-1.7-2.2c0-1.1,0.5-2.1,1.7-2.1
				c0.5,0,1.1,0.3,1.4,0.7l0,0v-2.4h0.5v5c0,0.3,0,0.6,0,0.9h-0.5L246.9,161.7z M245.5,158.5c-0.9,0-1.2,0.9-1.2,1.6
				c0,0.8,0.2,1.8,1.2,1.8c1.1,0,1.4-0.9,1.4-1.8C246.9,159.3,246.5,158.5,245.5,158.5z"/>
		</g>
		<g>
			<path fill="#3B4C5D" d="M91.4,171.4L91.4,171.4c-0.4,0.5-0.8,0.7-1.4,0.7c-1.2,0-1.7-1.2-1.7-2.2c0-1.1,0.5-2.1,1.7-2.1
				c0.5,0,1.1,0.3,1.4,0.7l0,0v-2.4h0.5v5c0,0.3,0,0.6,0,0.9h-0.5L91.4,171.4z M90.1,168.3c-0.9,0-1.2,0.9-1.2,1.6
				c0,0.8,0.2,1.8,1.2,1.8c1.1,0,1.4-0.9,1.4-1.8C91.4,169.1,91,168.3,90.1,168.3z"/>
			<path fill="#3B4C5D" d="M93.4,170.1c0,0.9,0.4,1.6,1.4,1.6c0.6,0,1.1-0.4,1.2-1h0.5c-0.3,1-0.9,1.4-1.8,1.4c-1.2,0-1.8-1-1.8-2.2
				c0-1.1,0.6-2.2,1.8-2.2c1.4,0,1.9,1,1.9,2.3H93.4z M96,169.7c-0.1-0.8-0.5-1.4-1.3-1.4c-0.8,0-1.2,0.7-1.3,1.4H96z"/>
			<path fill="#3B4C5D" d="M98,172v-3.6h-0.8V168H98v-0.9c0-0.7,0.3-1,1-1c0.2,0,0.3,0.1,0.5,0.1v0.4c-0.1,0-0.2,0-0.3,0
				c-0.7,0-0.7,0.3-0.7,0.9v0.5h0.9v0.4h-0.9v3.6H98z"/>
			<path fill="#3B4C5D" d="M100.3,170.1c0,0.9,0.4,1.6,1.4,1.6c0.6,0,1.1-0.4,1.2-1h0.5c-0.3,1-0.9,1.4-1.8,1.4
				c-1.2,0-1.8-1-1.8-2.2c0-1.1,0.6-2.2,1.8-2.2c1.4,0,1.9,1,1.9,2.3H100.3z M102.9,169.7c-0.1-0.8-0.5-1.4-1.3-1.4
				c-0.8,0-1.2,0.7-1.3,1.4H102.9z"/>
			<path fill="#3B4C5D" d="M105,172h-0.5v-3.2c0-0.3,0-0.6,0-0.9h0.5l0,0.6l0,0c0.3-0.5,0.7-0.7,1.3-0.7c1.3,0,1.4,1.2,1.4,1.7v2.6
				h-0.5v-2.6c0-0.7-0.4-1.1-1.1-1.1c-0.8,0-1.2,0.7-1.2,1.4V172z"/>
			<path fill="#3B4C5D" d="M110.4,167.8c0.8,0,1.4,0.3,1.5,1.1h-0.5c0-0.5-0.5-0.7-1-0.7c-0.5,0-0.9,0.2-0.9,0.7
				c0,0.6,0.8,0.5,1.9,0.9c0.4,0.1,0.7,0.5,0.7,1c0,0.9-0.9,1.3-1.7,1.3c-0.7,0-1.5-0.3-1.5-1.2h0.5c0,0.6,0.6,0.8,1.1,0.8
				c0.5,0,1.1-0.2,1.1-0.8c0-0.6-0.6-0.7-1.3-0.8c-0.6-0.2-1.3-0.3-1.3-1.1C108.9,168.1,109.7,167.8,110.4,167.8z"/>
			<path fill="#3B4C5D" d="M113.4,170.1c0,0.9,0.4,1.6,1.4,1.6c0.6,0,1.1-0.4,1.2-1h0.5c-0.3,1-0.9,1.4-1.8,1.4
				c-1.2,0-1.8-1-1.8-2.2c0-1.1,0.6-2.2,1.8-2.2c1.4,0,1.9,1,1.9,2.3H113.4z M116,169.7c-0.1-0.8-0.5-1.4-1.3-1.4
				c-0.8,0-1.2,0.7-1.3,1.4H116z"/>
			<path fill="#3B4C5D" d="M122.2,169.2c0-0.7-0.4-0.9-1-0.9c-0.5,0-0.9,0.2-1,0.7h-0.5c0.1-0.8,0.7-1.2,1.5-1.2
				c0.9,0,1.5,0.4,1.4,1.4v1.9c0,0.3,0,0.6,0,0.9h-0.5l0-0.6h0l0,0.1c-0.2,0.3-0.7,0.7-1.3,0.7c-0.8,0-1.4-0.5-1.4-1.3
				c0-0.6,0.3-1,0.8-1.2c0.5-0.2,1.3-0.2,1.8-0.2V169.2z M121,171.7c1.1,0,1.3-0.9,1.2-1.7c-0.7,0-2.1-0.1-2.1,0.9
				C120.1,171.5,120.5,171.7,121,171.7z"/>
			<path fill="#3B4C5D" d="M124.3,168.4h-0.8V168h0.8v-0.9l0.5-0.2v1.1h0.9v0.4h-0.9v2.7c0,0.4,0.2,0.6,0.6,0.6c0.1,0,0.3,0,0.4,0
				v0.4c-0.2,0-0.3,0.1-0.5,0.1c-1,0-1-0.7-1-1.2V168.4z"/>
			<path fill="#3B4C5D" d="M126.6,168.4h-0.8V168h0.8v-0.9l0.5-0.2v1.1h0.9v0.4h-0.9v2.7c0,0.4,0.2,0.6,0.6,0.6c0.1,0,0.3,0,0.4,0
				v0.4c-0.2,0-0.3,0.1-0.5,0.1c-1,0-1-0.7-1-1.2V168.4z"/>
			<path fill="#3B4C5D" d="M132.5,170c0,1.1-0.6,2.2-1.9,2.2s-1.9-1.1-1.9-2.2c0-1.1,0.6-2.2,1.9-2.2S132.5,168.9,132.5,170z
				 M130.6,168.3c-1,0-1.4,1-1.4,1.7c0,0.8,0.4,1.7,1.4,1.7c1,0,1.4-1,1.4-1.7C132,169.2,131.6,168.3,130.6,168.3z"/>
			<path fill="#3B4C5D" d="M134,172h-0.5v-3.2c0-0.3,0-0.6,0-0.9h0.5l0,0.6h0c0.1-0.4,0.5-0.7,0.9-0.7c0.2,0,0.3,0,0.5,0v0.5
				c-0.1,0-0.2,0-0.3,0c-0.7,0-1.1,0.5-1.1,1.3V172z"/>
			<path fill="#3B4C5D" d="M136.7,172h-0.5v-3.2c0-0.3,0-0.6,0-0.9h0.5l0,0.6l0,0c0.3-0.5,0.7-0.7,1.3-0.7c1.3,0,1.4,1.2,1.4,1.7
				v2.6H139v-2.6c0-0.7-0.4-1.1-1.1-1.1c-0.8,0-1.2,0.7-1.2,1.4V172z"/>
			<path fill="#3B4C5D" d="M141,170.1c0,0.9,0.4,1.6,1.4,1.6c0.6,0,1.1-0.4,1.2-1h0.5c-0.3,1-0.9,1.4-1.8,1.4c-1.2,0-1.8-1-1.8-2.2
				c0-1.1,0.6-2.2,1.8-2.2c1.4,0,1.9,1,1.9,2.3H141z M143.7,169.7c-0.1-0.8-0.5-1.4-1.3-1.4c-0.8,0-1.2,0.7-1.3,1.4H143.7z"/>
			<path fill="#3B4C5D" d="M145.1,168l1.4,3.4l1.4-3.4h0.5l-2.3,5.6h-0.5l0.6-1.6l-1.7-4.1H145.1z"/>
			<path fill="#3B4C5D" d="M152.7,171.4L152.7,171.4l1.3-3.4h0.6l1.2,3.4h0l1.2-3.4h0.5l-1.5,4.1h-0.5l-1.3-3.5h0l-1.3,3.5h-0.5
				l-1.5-4.1h0.5L152.7,171.4z"/>
			<path fill="#3B4C5D" d="M158.7,168.6L158.7,168.6c0.3-0.5,0.8-0.7,1.3-0.7c1.3,0,1.4,1.2,1.4,1.7v2.6h-0.5v-2.6
				c0-0.7-0.4-1.1-1.1-1.1c-0.8,0-1.2,0.7-1.2,1.4v2.4h-0.5v-5.9h0.5V168.6z"/>
			<path fill="#3B4C5D" d="M163,170.1c0,0.9,0.4,1.6,1.4,1.6c0.6,0,1.1-0.4,1.2-1h0.5c-0.3,1-0.9,1.4-1.8,1.4c-1.2,0-1.8-1-1.8-2.2
				c0-1.1,0.6-2.2,1.8-2.2c1.4,0,1.9,1,1.9,2.3H163z M165.6,169.7c-0.1-0.8-0.5-1.4-1.3-1.4c-0.8,0-1.2,0.7-1.3,1.4H165.6z"/>
			<path fill="#3B4C5D" d="M167.7,172h-0.5v-3.2c0-0.3,0-0.6,0-0.9h0.5l0,0.6h0c0.1-0.4,0.5-0.7,0.9-0.7c0.2,0,0.3,0,0.5,0v0.5
				c-0.1,0-0.2,0-0.3,0c-0.7,0-1.1,0.5-1.1,1.3V172z"/>
			<path fill="#3B4C5D" d="M170.2,170.1c0,0.9,0.4,1.6,1.4,1.6c0.6,0,1.1-0.4,1.2-1h0.5c-0.3,1-0.9,1.4-1.8,1.4
				c-1.2,0-1.8-1-1.8-2.2c0-1.1,0.6-2.2,1.8-2.2c1.4,0,1.9,1,1.9,2.3H170.2z M172.9,169.7c-0.1-0.8-0.5-1.4-1.3-1.4
				c-0.8,0-1.2,0.7-1.3,1.4H172.9z"/>
			<path fill="#3B4C5D" d="M174.9,172h-0.5c0-0.3,0-0.6,0-0.9v-5h0.5v2.4l0,0c0.3-0.5,0.9-0.7,1.4-0.7c1.2,0,1.7,1.1,1.7,2.1
				c0,1-0.5,2.2-1.7,2.2c-0.6,0-1.1-0.3-1.4-0.8l0,0L174.9,172z M174.9,169.9c0,0.9,0.3,1.8,1.4,1.8c0.9,0,1.2-1,1.2-1.8
				c0-0.8-0.3-1.7-1.2-1.7C175.3,168.3,174.9,169.1,174.9,169.9z"/>
			<path fill="#3B4C5D" d="M178.8,168l1.4,3.4l1.4-3.4h0.5l-2.3,5.6h-0.5l0.6-1.6l-1.7-4.1H178.8z"/>
			<path fill="#3B4C5D" d="M187.5,169.2c0-0.7-0.4-0.9-1-0.9c-0.5,0-0.9,0.2-1,0.7H185c0.1-0.8,0.7-1.2,1.5-1.2
				c0.9,0,1.5,0.4,1.4,1.4v1.9c0,0.3,0,0.6,0,0.9h-0.5l0-0.6h0l0,0.1c-0.2,0.3-0.7,0.7-1.3,0.7c-0.8,0-1.4-0.5-1.4-1.3
				c0-0.6,0.3-1,0.8-1.2c0.5-0.2,1.3-0.2,1.8-0.2V169.2z M186.3,171.7c1.1,0,1.3-0.9,1.2-1.7c-0.7,0-2.1-0.1-2.1,0.9
				C185.3,171.5,185.8,171.7,186.3,171.7z"/>
			<path fill="#3B4C5D" d="M194.3,171.4L194.3,171.4c-0.4,0.5-0.8,0.7-1.4,0.7c-1.2,0-1.7-1.2-1.7-2.2c0-1.1,0.5-2.1,1.7-2.1
				c0.5,0,1.1,0.3,1.4,0.7l0,0v-2.4h0.5v5c0,0.3,0,0.6,0,0.9h-0.5L194.3,171.4z M193,168.3c-0.9,0-1.2,0.9-1.2,1.6
				c0,0.8,0.2,1.8,1.2,1.8c1.1,0,1.4-0.9,1.4-1.8C194.3,169.1,193.9,168.3,193,168.3z"/>
			<path fill="#3B4C5D" d="M196.3,170.1c0,0.9,0.4,1.6,1.4,1.6c0.6,0,1.1-0.4,1.2-1h0.5c-0.3,1-0.9,1.4-1.8,1.4
				c-1.2,0-1.8-1-1.8-2.2c0-1.1,0.6-2.2,1.8-2.2c1.4,0,1.9,1,1.9,2.3H196.3z M198.9,169.7c-0.1-0.8-0.5-1.4-1.3-1.4
				c-0.8,0-1.2,0.7-1.3,1.4H198.9z"/>
			<path fill="#3B4C5D" d="M200.9,172v-3.6h-0.8V168h0.8v-0.9c0-0.7,0.3-1,1-1c0.2,0,0.3,0.1,0.5,0.1v0.4c-0.1,0-0.2,0-0.3,0
				c-0.7,0-0.7,0.3-0.7,0.9v0.5h0.9v0.4h-0.9v3.6H200.9z"/>
			<path fill="#3B4C5D" d="M203.2,170.1c0,0.9,0.4,1.6,1.4,1.6c0.6,0,1.1-0.4,1.2-1h0.5c-0.3,1-0.9,1.4-1.8,1.4
				c-1.2,0-1.8-1-1.8-2.2c0-1.1,0.6-2.2,1.8-2.2c1.4,0,1.9,1,1.9,2.3H203.2z M205.8,169.7c-0.1-0.8-0.5-1.4-1.3-1.4
				c-0.8,0-1.2,0.7-1.3,1.4H205.8z"/>
			<path fill="#3B4C5D" d="M207.9,172h-0.5v-3.2c0-0.3,0-0.6,0-0.9h0.5l0,0.6l0,0c0.3-0.5,0.7-0.7,1.3-0.7c1.3,0,1.4,1.2,1.4,1.7
				v2.6h-0.5v-2.6c0-0.7-0.4-1.1-1.1-1.1c-0.8,0-1.2,0.7-1.2,1.4V172z"/>
			<path fill="#3B4C5D" d="M214.8,171.4L214.8,171.4c-0.4,0.5-0.8,0.7-1.4,0.7c-1.2,0-1.7-1.2-1.7-2.2c0-1.1,0.5-2.1,1.7-2.1
				c0.5,0,1.1,0.3,1.4,0.7l0,0v-2.4h0.5v5c0,0.3,0,0.6,0,0.9h-0.5L214.8,171.4z M213.4,168.3c-0.9,0-1.2,0.9-1.2,1.6
				c0,0.8,0.2,1.8,1.2,1.8c1.1,0,1.4-0.9,1.4-1.8C214.8,169.1,214.4,168.3,213.4,168.3z"/>
			<path fill="#3B4C5D" d="M218.8,169.2c0-0.7-0.4-0.9-1-0.9c-0.5,0-0.9,0.2-1,0.7h-0.5c0.1-0.8,0.7-1.2,1.5-1.2
				c0.9,0,1.5,0.4,1.4,1.4v1.9c0,0.3,0,0.6,0,0.9h-0.5l0-0.6h0l0,0.1c-0.2,0.3-0.7,0.7-1.3,0.7c-0.8,0-1.4-0.5-1.4-1.3
				c0-0.6,0.3-1,0.8-1.2c0.5-0.2,1.3-0.2,1.8-0.2V169.2z M217.6,171.7c1.1,0,1.3-0.9,1.2-1.7c-0.7,0-2.1-0.1-2.1,0.9
				C216.7,171.5,217.1,171.7,217.6,171.7z"/>
			<path fill="#3B4C5D" d="M221,172h-0.5v-3.2c0-0.3,0-0.6,0-0.9h0.5l0,0.6l0,0c0.3-0.5,0.7-0.7,1.3-0.7c1.3,0,1.4,1.2,1.4,1.7v2.6
				h-0.5v-2.6c0-0.7-0.4-1.1-1.1-1.1c-0.8,0-1.2,0.7-1.2,1.4V172z"/>
			<path fill="#3B4C5D" d="M225.4,168.4h-0.8V168h0.8v-0.9l0.5-0.2v1.1h0.9v0.4h-0.9v2.7c0,0.4,0.2,0.6,0.6,0.6c0.1,0,0.3,0,0.4,0
				v0.4c-0.2,0-0.3,0.1-0.5,0.1c-1,0-1-0.7-1-1.2V168.4z"/>
			<path fill="#3B4C5D" d="M230.5,173.6H230v-4.7c0-0.3,0-0.6,0-0.9h0.5l0,0.6l0,0c0.3-0.5,0.9-0.7,1.4-0.7c1.2,0,1.7,1.1,1.7,2.1
				c0,1-0.5,2.2-1.7,2.2c-0.6,0-1.1-0.3-1.4-0.8h0V173.6z M231.8,171.7c0.9,0,1.2-1,1.2-1.8c0-0.8-0.3-1.6-1.2-1.6
				c-1,0-1.3,0.8-1.3,1.6C230.5,170.8,230.8,171.7,231.8,171.7z"/>
			<path fill="#3B4C5D" d="M235.1,172h-0.5v-5.9h0.5V172z"/>
			<path fill="#3B4C5D" d="M236.7,170.1c0,0.9,0.4,1.6,1.4,1.6c0.6,0,1.1-0.4,1.2-1h0.5c-0.3,1-0.9,1.4-1.8,1.4
				c-1.2,0-1.8-1-1.8-2.2c0-1.1,0.6-2.2,1.8-2.2c1.4,0,1.9,1,1.9,2.3H236.7z M239.3,169.7c-0.1-0.8-0.5-1.4-1.3-1.4
				c-0.8,0-1.2,0.7-1.3,1.4H239.3z"/>
			<path fill="#3B4C5D" d="M243.2,169.2c0-0.7-0.4-0.9-1-0.9c-0.5,0-0.9,0.2-1,0.7h-0.5c0.1-0.8,0.7-1.2,1.5-1.2
				c0.9,0,1.5,0.4,1.4,1.4v1.9c0,0.3,0,0.6,0,0.9h-0.5l0-0.6h0l0,0.1c-0.2,0.3-0.7,0.7-1.3,0.7c-0.8,0-1.4-0.5-1.4-1.3
				c0-0.6,0.3-1,0.8-1.2c0.5-0.2,1.3-0.2,1.8-0.2V169.2z M242,171.7c1.1,0,1.3-0.9,1.2-1.7c-0.7,0-2.1-0.1-2.1,0.9
				C241.1,171.5,241.5,171.7,242,171.7z"/>
			<path fill="#3B4C5D" d="M246.3,167.8c0.8,0,1.4,0.3,1.5,1.1h-0.5c0-0.5-0.5-0.7-1-0.7c-0.5,0-0.9,0.2-0.9,0.7
				c0,0.6,0.8,0.5,1.9,0.9c0.4,0.1,0.7,0.5,0.7,1c0,0.9-0.9,1.3-1.7,1.3c-0.7,0-1.5-0.3-1.5-1.2h0.5c0,0.6,0.6,0.8,1.1,0.8
				c0.5,0,1.1-0.2,1.1-0.8c0-0.6-0.6-0.7-1.3-0.8c-0.6-0.2-1.3-0.3-1.3-1.1C244.8,168.1,245.6,167.8,246.3,167.8z"/>
		</g>
		<g>
			<path fill="#3B4C5D" d="M91.4,177.7h0.5c0,0.3,0,0.6,0,0.9v2.4c0,0.8,0,1.7-0.9,2.1c-0.3,0.2-0.5,0.2-0.9,0.2
				c-0.7,0-1.6-0.3-1.6-1.1H89c0.1,0.5,0.6,0.7,1.2,0.7c0.6,0,1.2-0.4,1.2-1.1V181h0c-0.2,0.5-0.8,0.8-1.3,0.8
				c-1.2,0-1.8-0.9-1.8-2.1c0-1.1,0.5-2.1,1.7-2.1c0.6,0,1,0.3,1.3,0.8l0,0L91.4,177.7z M90.1,178c-0.9,0-1.3,0.9-1.3,1.6
				c0,0.7,0.4,1.7,1.3,1.7c0.9,0,1.3-0.9,1.3-1.7C91.4,178.9,91,178,90.1,178z"/>
			<path fill="#3B4C5D" d="M95.9,177.7h0.5v3.2c0,0.3,0,0.6,0,0.9h-0.5l0-0.6l0,0c-0.3,0.5-0.7,0.7-1.3,0.7c-1.3,0-1.4-1.2-1.4-1.7
				v-2.6h0.5v2.6c0,0.7,0.4,1.1,1.1,1.1c0.8,0,1.2-0.7,1.2-1.4V177.7z"/>
			<path fill="#3B4C5D" d="M98.2,176.5h-0.6v-0.6h0.6V176.5z M98.1,177.7v4.1h-0.5v-4.1H98.1z"/>
			<path fill="#3B4C5D" d="M99.9,181.8h-0.5v-5.9h0.5V181.8z"/>
			<path fill="#3B4C5D" d="M101.6,178.2h-0.8v-0.4h0.8v-0.9l0.5-0.2v1.1h0.9v0.4h-0.9v2.7c0,0.4,0.2,0.6,0.6,0.6c0.1,0,0.3,0,0.4,0
				v0.4c-0.2,0-0.3,0.1-0.5,0.1c-1,0-1-0.7-1-1.2V178.2z"/>
			<path fill="#3B4C5D" d="M104.1,177.7l1.4,3.4l1.4-3.4h0.5l-2.3,5.6h-0.5l0.6-1.6l-1.7-4.1H104.1z"/>
			<path fill="#3B4C5D" d="M111,176.5h-0.6v-0.6h0.6V176.5z M110.9,177.7v4.1h-0.5v-4.1H110.9z"/>
			<path fill="#3B4C5D" d="M112.7,181.8h-0.5v-3.2c0-0.3,0-0.6,0-0.9h0.5l0,0.6l0,0c0.3-0.5,0.7-0.7,1.3-0.7c1.3,0,1.4,1.2,1.4,1.7
				v2.6H115v-2.6c0-0.7-0.4-1.1-1.1-1.1c-0.8,0-1.2,0.7-1.2,1.4V181.8z"/>
			<path fill="#3B4C5D" d="M119.3,179.9c0,0.9,0.4,1.6,1.4,1.6c0.6,0,1.1-0.4,1.2-1h0.5c-0.3,1-0.9,1.4-1.8,1.4
				c-1.2,0-1.8-1-1.8-2.2c0-1.1,0.6-2.2,1.8-2.2c1.4,0,1.9,1,1.9,2.3H119.3z M121.9,179.4c-0.1-0.8-0.5-1.4-1.3-1.4
				c-0.8,0-1.2,0.7-1.3,1.4H121.9z"/>
			<path fill="#3B4C5D" d="M126,177.7h0.5l-1.5,2l1.6,2.1H126l-1.3-1.8l-1.3,1.8h-0.6l0,0l1.6-2.1l-1.5-2h0.7l1.2,1.6L126,177.7z"/>
			<path fill="#3B4C5D" d="M129.9,179c0-0.6-0.4-0.9-1.1-0.9c-0.7,0-1.2,0.8-1.2,1.7c0,0.9,0.5,1.7,1.2,1.7c0.6,0,1.1-0.4,1.1-1h0.5
				c-0.1,0.9-0.7,1.4-1.6,1.4c-1.2,0-1.8-1-1.8-2.2c0-1.1,0.6-2.2,1.8-2.2c0.8,0,1.5,0.5,1.6,1.4H129.9z"/>
			<path fill="#3B4C5D" d="M131.4,178.3L131.4,178.3c0.3-0.5,0.8-0.7,1.3-0.7c1.3,0,1.4,1.2,1.4,1.7v2.6h-0.5v-2.6
				c0-0.7-0.4-1.1-1.1-1.1c-0.8,0-1.2,0.7-1.2,1.4v2.4H131v-5.9h0.5V178.3z"/>
			<path fill="#3B4C5D" d="M137.8,178.9c0-0.7-0.4-0.9-1-0.9c-0.5,0-0.9,0.2-1,0.7h-0.5c0.1-0.8,0.7-1.2,1.5-1.2
				c0.9,0,1.5,0.4,1.4,1.4v1.9c0,0.3,0,0.6,0,0.9h-0.5l0-0.6h0l0,0.1c-0.2,0.3-0.7,0.7-1.3,0.7c-0.8,0-1.4-0.5-1.4-1.3
				c0-0.6,0.3-1,0.8-1.2c0.5-0.2,1.3-0.2,1.8-0.2V178.9z M136.6,181.5c1.1,0,1.3-0.9,1.2-1.7c-0.7,0-2.1-0.1-2.1,0.9
				C135.7,181.2,136.1,181.5,136.6,181.5z"/>
			<path fill="#3B4C5D" d="M140,181.8h-0.5v-3.2c0-0.3,0-0.6,0-0.9h0.5l0,0.6l0,0c0.3-0.5,0.7-0.7,1.3-0.7c1.3,0,1.4,1.2,1.4,1.7
				v2.6h-0.5v-2.6c0-0.7-0.4-1.1-1.1-1.1c-0.8,0-1.2,0.7-1.2,1.4V181.8z"/>
			<path fill="#3B4C5D" d="M146.9,177.7h0.5c0,0.3,0,0.6,0,0.9v2.4c0,0.8,0,1.7-0.9,2.1c-0.3,0.2-0.5,0.2-0.9,0.2
				c-0.7,0-1.6-0.3-1.6-1.1h0.5c0.1,0.5,0.6,0.7,1.2,0.7c0.6,0,1.2-0.4,1.2-1.1V181h0c-0.2,0.5-0.8,0.8-1.3,0.8
				c-1.2,0-1.8-0.9-1.8-2.1c0-1.1,0.5-2.1,1.7-2.1c0.6,0,1,0.3,1.3,0.8l0,0L146.9,177.7z M145.6,178c-0.9,0-1.3,0.9-1.3,1.6
				c0,0.7,0.4,1.7,1.3,1.7c0.9,0,1.3-0.9,1.3-1.7C146.9,178.9,146.5,178,145.6,178z"/>
			<path fill="#3B4C5D" d="M148.9,179.9c0,0.9,0.4,1.6,1.4,1.6c0.6,0,1.1-0.4,1.2-1h0.5c-0.3,1-0.9,1.4-1.8,1.4
				c-1.2,0-1.8-1-1.8-2.2c0-1.1,0.6-2.2,1.8-2.2c1.4,0,1.9,1,1.9,2.3H148.9z M151.5,179.4c-0.1-0.8-0.5-1.4-1.3-1.4
				c-0.8,0-1.2,0.7-1.3,1.4H151.5z"/>
			<path fill="#3B4C5D" d="M155.7,181.8v-3.6h-0.8v-0.4h0.8v-0.9c0-0.7,0.3-1,1-1c0.2,0,0.3,0.1,0.5,0.1v0.4c-0.1,0-0.2,0-0.3,0
				c-0.7,0-0.7,0.3-0.7,0.9v0.5h0.9v0.4h-0.9v3.6H155.7z"/>
			<path fill="#3B4C5D" d="M161.4,179.8c0,1.1-0.6,2.2-1.9,2.2s-1.9-1.1-1.9-2.2c0-1.1,0.6-2.2,1.9-2.2S161.4,178.7,161.4,179.8z
				 M159.5,178c-1,0-1.4,1-1.4,1.7c0,0.8,0.4,1.7,1.4,1.7c1,0,1.4-1,1.4-1.7C160.9,179,160.5,178,159.5,178z"/>
			<path fill="#3B4C5D" d="M162.9,181.8h-0.5v-3.2c0-0.3,0-0.6,0-0.9h0.5l0,0.6h0c0.1-0.4,0.5-0.7,0.9-0.7c0.2,0,0.3,0,0.5,0v0.5
				c-0.1,0-0.2,0-0.3,0c-0.7,0-1.1,0.5-1.1,1.3V181.8z"/>
			<path fill="#3B4C5D" d="M169.7,178.9c0-0.7-0.4-0.9-1-0.9c-0.5,0-0.9,0.2-1,0.7h-0.5c0.1-0.8,0.7-1.2,1.5-1.2
				c0.9,0,1.5,0.4,1.4,1.4v1.9c0,0.3,0,0.6,0,0.9h-0.5l0-0.6h0l0,0.1c-0.2,0.3-0.7,0.7-1.3,0.7c-0.8,0-1.4-0.5-1.4-1.3
				c0-0.6,0.3-1,0.8-1.2c0.5-0.2,1.3-0.2,1.8-0.2V178.9z M168.5,181.5c1.1,0,1.3-0.9,1.2-1.7c-0.7,0-2.1-0.1-2.1,0.9
				C167.6,181.2,168,181.5,168.5,181.5z"/>
			<path fill="#3B4C5D" d="M176.3,179c0-0.6-0.4-0.9-1.1-0.9c-0.7,0-1.2,0.8-1.2,1.7c0,0.9,0.5,1.7,1.2,1.7c0.6,0,1.1-0.4,1.1-1h0.5
				c-0.1,0.9-0.7,1.4-1.6,1.4c-1.2,0-1.8-1-1.8-2.2c0-1.1,0.6-2.2,1.8-2.2c0.8,0,1.5,0.5,1.6,1.4H176.3z"/>
			<path fill="#3B4C5D" d="M181.3,179.8c0,1.1-0.6,2.2-1.9,2.2s-1.9-1.1-1.9-2.2c0-1.1,0.6-2.2,1.9-2.2S181.3,178.7,181.3,179.8z
				 M179.4,178c-1,0-1.4,1-1.4,1.7c0,0.8,0.4,1.7,1.4,1.7c1,0,1.4-1,1.4-1.7C180.8,179,180.4,178,179.4,178z"/>
			<path fill="#3B4C5D" d="M182.8,181.8h-0.5v-3.2c0-0.3,0-0.6,0-0.9h0.5l0,0.6l0,0c0.3-0.5,0.7-0.7,1.3-0.7c1.3,0,1.4,1.2,1.4,1.7
				v2.6h-0.5v-2.6c0-0.7-0.4-1.1-1.1-1.1c-0.8,0-1.2,0.7-1.2,1.4V181.8z"/>
			<path fill="#3B4C5D" d="M189.4,179c0-0.6-0.4-0.9-1.1-0.9c-0.7,0-1.2,0.8-1.2,1.7c0,0.9,0.5,1.7,1.2,1.7c0.6,0,1.1-0.4,1.1-1h0.5
				c-0.1,0.9-0.7,1.4-1.6,1.4c-1.2,0-1.8-1-1.8-2.2c0-1.1,0.6-2.2,1.8-2.2c0.8,0,1.5,0.5,1.6,1.4H189.4z"/>
			<path fill="#3B4C5D" d="M191.2,179.9c0,0.9,0.4,1.6,1.4,1.6c0.6,0,1.1-0.4,1.2-1h0.5c-0.3,1-0.9,1.4-1.8,1.4
				c-1.2,0-1.8-1-1.8-2.2c0-1.1,0.6-2.2,1.8-2.2c1.4,0,1.9,1,1.9,2.3H191.2z M193.8,179.4c-0.1-0.8-0.5-1.4-1.3-1.4
				c-0.8,0-1.2,0.7-1.3,1.4H193.8z"/>
			<path fill="#3B4C5D" d="M196.8,177.6c0.8,0,1.4,0.3,1.5,1.1h-0.5c0-0.5-0.5-0.7-1-0.7c-0.5,0-0.9,0.2-0.9,0.7
				c0,0.6,0.8,0.5,1.9,0.9c0.4,0.1,0.7,0.5,0.7,1c0,0.9-0.9,1.3-1.7,1.3c-0.7,0-1.5-0.3-1.5-1.2h0.5c0,0.6,0.6,0.8,1.1,0.8
				c0.5,0,1.1-0.2,1.1-0.8c0-0.6-0.6-0.7-1.3-0.8c-0.6-0.2-1.3-0.3-1.3-1.1C195.3,177.9,196.1,177.6,196.8,177.6z"/>
			<path fill="#3B4C5D" d="M200.9,177.6c0.8,0,1.4,0.3,1.5,1.1h-0.5c0-0.5-0.5-0.7-1-0.7c-0.5,0-0.9,0.2-0.9,0.7
				c0,0.6,0.8,0.5,1.9,0.9c0.4,0.1,0.7,0.5,0.7,1c0,0.9-0.9,1.3-1.7,1.3c-0.7,0-1.5-0.3-1.5-1.2h0.5c0,0.6,0.6,0.8,1.1,0.8
				c0.5,0,1.1-0.2,1.1-0.8c0-0.6-0.6-0.7-1.3-0.8c-0.6-0.2-1.3-0.3-1.3-1.1C199.4,177.9,200.1,177.6,200.9,177.6z"/>
			<path fill="#3B4C5D" d="M204.1,176.5h-0.6v-0.6h0.6V176.5z M204.1,177.7v4.1h-0.5v-4.1H204.1z"/>
			<path fill="#3B4C5D" d="M208.9,179.8c0,1.1-0.6,2.2-1.9,2.2s-1.9-1.1-1.9-2.2c0-1.1,0.6-2.2,1.9-2.2S208.9,178.7,208.9,179.8z
				 M207,178c-1,0-1.4,1-1.4,1.7c0,0.8,0.4,1.7,1.4,1.7c1,0,1.4-1,1.4-1.7C208.4,179,208,178,207,178z"/>
			<path fill="#3B4C5D" d="M210.4,181.8h-0.5v-3.2c0-0.3,0-0.6,0-0.9h0.5l0,0.6l0,0c0.3-0.5,0.7-0.7,1.3-0.7c1.3,0,1.4,1.2,1.4,1.7
				v2.6h-0.5v-2.6c0-0.7-0.4-1.1-1.1-1.1c-0.8,0-1.2,0.7-1.2,1.4V181.8z"/>
			<path fill="#3B4C5D" d="M215.3,181.1l-0.6,1.7h-0.4l0.3-1.7H215.3z"/>
			<path fill="#3B4C5D" d="M220.3,177.6c0.8,0,1.4,0.3,1.5,1.1h-0.5c0-0.5-0.5-0.7-1-0.7c-0.5,0-0.9,0.2-0.9,0.7
				c0,0.6,0.8,0.5,1.9,0.9c0.4,0.1,0.7,0.5,0.7,1c0,0.9-0.9,1.3-1.7,1.3c-0.7,0-1.5-0.3-1.5-1.2h0.5c0,0.6,0.6,0.8,1.1,0.8
				c0.5,0,1.1-0.2,1.1-0.8c0-0.6-0.6-0.7-1.3-0.8c-0.6-0.2-1.3-0.3-1.3-1.1C218.8,177.9,219.6,177.6,220.3,177.6z"/>
			<path fill="#3B4C5D" d="M225.7,177.7h0.5v3.2c0,0.3,0,0.6,0,0.9h-0.5l0-0.6l0,0c-0.3,0.5-0.7,0.7-1.3,0.7c-1.3,0-1.4-1.2-1.4-1.7
				v-2.6h0.5v2.6c0,0.7,0.4,1.1,1.1,1.1c0.8,0,1.2-0.7,1.2-1.4V177.7z"/>
			<path fill="#3B4C5D" d="M230.1,179c0-0.6-0.4-0.9-1.1-0.9c-0.7,0-1.2,0.8-1.2,1.7c0,0.9,0.5,1.7,1.2,1.7c0.6,0,1.1-0.4,1.1-1h0.5
				c-0.1,0.9-0.7,1.4-1.6,1.4c-1.2,0-1.8-1-1.8-2.2c0-1.1,0.6-2.2,1.8-2.2c0.8,0,1.5,0.5,1.6,1.4H230.1z"/>
			<path fill="#3B4C5D" d="M231.7,178.3L231.7,178.3c0.3-0.5,0.8-0.7,1.3-0.7c1.3,0,1.4,1.2,1.4,1.7v2.6h-0.5v-2.6
				c0-0.7-0.4-1.1-1.1-1.1c-0.8,0-1.2,0.7-1.2,1.4v2.4h-0.5v-5.9h0.5V178.3z"/>
			<path fill="#3B4C5D" d="M240.3,178.9c0-0.7-0.4-0.9-1-0.9c-0.5,0-0.9,0.2-1,0.7h-0.5c0.1-0.8,0.7-1.2,1.5-1.2
				c0.9,0,1.5,0.4,1.4,1.4v1.9c0,0.3,0,0.6,0,0.9h-0.5l0-0.6h0l0,0.1c-0.2,0.3-0.7,0.7-1.3,0.7c-0.8,0-1.4-0.5-1.4-1.3
				c0-0.6,0.3-1,0.8-1.2c0.5-0.2,1.3-0.2,1.8-0.2V178.9z M239.1,181.5c1.1,0,1.3-0.9,1.2-1.7c-0.7,0-2.1-0.1-2.1,0.9
				C238.1,181.2,238.6,181.5,239.1,181.5z"/>
			<path fill="#3B4C5D" d="M243.4,177.6c0.8,0,1.4,0.3,1.5,1.1h-0.5c0-0.5-0.5-0.7-1-0.7c-0.5,0-0.9,0.2-0.9,0.7
				c0,0.6,0.8,0.5,1.9,0.9c0.4,0.1,0.7,0.5,0.7,1c0,0.9-0.9,1.3-1.7,1.3c-0.7,0-1.5-0.3-1.5-1.2h0.5c0,0.6,0.6,0.8,1.1,0.8
				c0.5,0,1.1-0.2,1.1-0.8c0-0.6-0.6-0.7-1.3-0.8c-0.6-0.2-1.3-0.3-1.3-1.1C241.9,177.9,242.7,177.6,243.4,177.6z"/>
		</g>
		<g>
			<path fill="#3B4C5D" d="M89.1,191.6h-0.5v-3.2c0-0.3,0-0.6,0-0.9h0.5l0,0.6h0c0.1-0.4,0.5-0.7,0.9-0.7c0.2,0,0.3,0,0.5,0v0.5
				c-0.1,0-0.2,0-0.3,0c-0.7,0-1.1,0.5-1.1,1.3V191.6z"/>
			<path fill="#3B4C5D" d="M91.6,189.6c0,0.9,0.4,1.6,1.4,1.6c0.6,0,1.1-0.4,1.2-1h0.5c-0.3,1-0.9,1.4-1.8,1.4c-1.2,0-1.8-1-1.8-2.2
				c0-1.1,0.6-2.2,1.8-2.2c1.4,0,1.9,1,1.9,2.3H91.6z M94.2,189.2c-0.1-0.8-0.5-1.4-1.3-1.4c-0.8,0-1.2,0.7-1.3,1.4H94.2z"/>
			<path fill="#3B4C5D" d="M98.6,191L98.6,191c-0.4,0.5-0.8,0.7-1.4,0.7c-1.2,0-1.7-1.2-1.7-2.2c0-1.1,0.5-2.1,1.7-2.1
				c0.5,0,1.1,0.3,1.4,0.7l0,0v-2.4h0.5v5c0,0.3,0,0.6,0,0.9h-0.5L98.6,191z M97.3,187.8c-0.9,0-1.2,0.9-1.2,1.6
				c0,0.8,0.2,1.8,1.2,1.8c1.1,0,1.4-0.9,1.4-1.8C98.6,188.6,98.3,187.8,97.3,187.8z"/>
			<path fill="#3B4C5D" d="M103.1,187.5h0.5v3.2c0,0.3,0,0.6,0,0.9h-0.5l0-0.6l0,0c-0.3,0.5-0.7,0.7-1.3,0.7c-1.3,0-1.4-1.2-1.4-1.7
				v-2.6h0.5v2.6c0,0.7,0.4,1.1,1.1,1.1c0.8,0,1.2-0.7,1.2-1.4V187.5z"/>
			<path fill="#3B4C5D" d="M107.4,188.7c0-0.6-0.4-0.9-1.1-0.9c-0.7,0-1.2,0.8-1.2,1.7c0,0.9,0.5,1.7,1.2,1.7c0.6,0,1.1-0.4,1.1-1
				h0.5c-0.1,0.9-0.7,1.4-1.6,1.4c-1.2,0-1.8-1-1.8-2.2c0-1.1,0.6-2.2,1.8-2.2c0.8,0,1.5,0.5,1.6,1.4H107.4z"/>
			<path fill="#3B4C5D" d="M109.2,189.6c0,0.9,0.4,1.6,1.4,1.6c0.6,0,1.1-0.4,1.2-1h0.5c-0.3,1-0.9,1.4-1.8,1.4
				c-1.2,0-1.8-1-1.8-2.2c0-1.1,0.6-2.2,1.8-2.2c1.4,0,1.9,1,1.9,2.3H109.2z M111.8,189.2c-0.1-0.8-0.5-1.4-1.3-1.4
				c-0.8,0-1.2,0.7-1.3,1.4H111.8z"/>
			<path fill="#3B4C5D" d="M116.3,191L116.3,191c-0.4,0.5-0.8,0.7-1.4,0.7c-1.2,0-1.7-1.2-1.7-2.2c0-1.1,0.5-2.1,1.7-2.1
				c0.5,0,1.1,0.3,1.4,0.7l0,0v-2.4h0.5v5c0,0.3,0,0.6,0,0.9h-0.5L116.3,191z M114.9,187.8c-0.9,0-1.2,0.9-1.2,1.6
				c0,0.8,0.2,1.8,1.2,1.8c1.1,0,1.4-0.9,1.4-1.8C116.3,188.6,115.9,187.8,114.9,187.8z"/>
			<path fill="#3B4C5D" d="M122.8,188.7c0-0.6-0.4-0.9-1.1-0.9c-0.7,0-1.2,0.8-1.2,1.7c0,0.9,0.5,1.7,1.2,1.7c0.6,0,1.1-0.4,1.1-1
				h0.5c-0.1,0.9-0.7,1.4-1.6,1.4c-1.2,0-1.8-1-1.8-2.2c0-1.1,0.6-2.2,1.8-2.2c0.8,0,1.5,0.5,1.6,1.4H122.8z"/>
			<path fill="#3B4C5D" d="M124.4,188.1L124.4,188.1c0.3-0.5,0.8-0.7,1.3-0.7c1.3,0,1.4,1.2,1.4,1.7v2.6h-0.5v-2.6
				c0-0.7-0.4-1.1-1.1-1.1c-0.8,0-1.2,0.7-1.2,1.4v2.4h-0.5v-5.9h0.5V188.1z"/>
			<path fill="#3B4C5D" d="M130.7,188.7c0-0.7-0.4-0.9-1-0.9c-0.5,0-0.9,0.2-1,0.7h-0.5c0.1-0.8,0.7-1.2,1.5-1.2
				c0.9,0,1.5,0.4,1.4,1.4v1.9c0,0.3,0,0.6,0,0.9h-0.5l0-0.6h0l0,0.1c-0.2,0.3-0.7,0.7-1.3,0.7c-0.8,0-1.4-0.5-1.4-1.3
				c0-0.6,0.3-1,0.8-1.2c0.5-0.2,1.3-0.2,1.8-0.2V188.7z M129.5,191.2c1.1,0,1.3-0.9,1.2-1.7c-0.7,0-2.1-0.1-2.1,0.9
				C128.6,191,129,191.2,129.5,191.2z"/>
			<path fill="#3B4C5D" d="M133,191.6h-0.5v-3.2c0-0.3,0-0.6,0-0.9h0.5l0,0.6h0c0.1-0.4,0.5-0.7,0.9-0.7c0.2,0,0.3,0,0.5,0v0.5
				c-0.1,0-0.2,0-0.3,0c-0.7,0-1.1,0.5-1.1,1.3V191.6z"/>
			<path fill="#3B4C5D" d="M138,187.5h0.5c0,0.3,0,0.6,0,0.9v2.4c0,0.8,0,1.7-0.9,2.1c-0.3,0.2-0.5,0.2-0.9,0.2
				c-0.7,0-1.6-0.3-1.6-1.1h0.5c0.1,0.5,0.6,0.7,1.2,0.7c0.6,0,1.2-0.4,1.2-1.1v-0.8h0c-0.2,0.5-0.8,0.8-1.3,0.8
				c-1.2,0-1.8-0.9-1.8-2.1c0-1.1,0.5-2.1,1.7-2.1c0.6,0,1,0.3,1.3,0.8l0,0L138,187.5z M136.7,187.8c-0.9,0-1.3,0.9-1.3,1.6
				s0.4,1.7,1.3,1.7c0.9,0,1.3-0.9,1.3-1.7C138,188.6,137.6,187.8,136.7,187.8z"/>
			<path fill="#3B4C5D" d="M140,189.6c0,0.9,0.4,1.6,1.4,1.6c0.6,0,1.1-0.4,1.2-1h0.5c-0.3,1-0.9,1.4-1.8,1.4c-1.2,0-1.8-1-1.8-2.2
				c0-1.1,0.6-2.2,1.8-2.2c1.4,0,1.9,1,1.9,2.3H140z M142.6,189.2c-0.1-0.8-0.5-1.4-1.3-1.4c-0.8,0-1.2,0.7-1.3,1.4H142.6z"/>
			<path fill="#3B4C5D" d="M144.7,191.6h-0.5v-3.2c0-0.3,0-0.6,0-0.9h0.5l0,0.6h0c0.1-0.4,0.5-0.7,0.9-0.7c0.2,0,0.3,0,0.5,0v0.5
				c-0.1,0-0.2,0-0.3,0c-0.7,0-1.1,0.5-1.1,1.3V191.6z"/>
			<path fill="#3B4C5D" d="M148.3,187.3c0.8,0,1.4,0.3,1.5,1.1h-0.5c0-0.5-0.5-0.7-1-0.7c-0.5,0-0.9,0.2-0.9,0.7
				c0,0.6,0.8,0.5,1.9,0.9c0.4,0.1,0.7,0.5,0.7,1c0,0.9-0.9,1.3-1.7,1.3c-0.7,0-1.5-0.3-1.5-1.2h0.5c0,0.6,0.6,0.8,1.1,0.8
				c0.5,0,1.1-0.2,1.1-0.8c0-0.6-0.6-0.7-1.3-0.8c-0.6-0.2-1.3-0.3-1.3-1.1C146.8,187.6,147.6,187.3,148.3,187.3z"/>
			<path fill="#3B4C5D" d="M156.8,189.5c0,1.1-0.6,2.2-1.9,2.2s-1.9-1.1-1.9-2.2c0-1.1,0.6-2.2,1.9-2.2S156.8,188.4,156.8,189.5z
				 M154.9,187.8c-1,0-1.4,1-1.4,1.7c0,0.8,0.4,1.7,1.4,1.7c1,0,1.4-1,1.4-1.7C156.3,188.8,155.9,187.8,154.9,187.8z"/>
			<path fill="#3B4C5D" d="M158.3,191.6h-0.5v-3.2c0-0.3,0-0.6,0-0.9h0.5l0,0.6h0c0.1-0.4,0.5-0.7,0.9-0.7c0.2,0,0.3,0,0.5,0v0.5
				c-0.1,0-0.2,0-0.3,0c-0.7,0-1.1,0.5-1.1,1.3V191.6z"/>
			<path fill="#3B4C5D" d="M164.1,187.3c0.8,0,1.4,0.3,1.5,1.1h-0.5c0-0.5-0.5-0.7-1-0.7c-0.5,0-0.9,0.2-0.9,0.7
				c0,0.6,0.8,0.5,1.9,0.9c0.4,0.1,0.7,0.5,0.7,1c0,0.9-0.9,1.3-1.7,1.3c-0.7,0-1.5-0.3-1.5-1.2h0.5c0,0.6,0.6,0.8,1.1,0.8
				c0.5,0,1.1-0.2,1.1-0.8c0-0.6-0.6-0.7-1.3-0.8c-0.6-0.2-1.3-0.3-1.3-1.1C162.6,187.6,163.4,187.3,164.1,187.3z"/>
			<path fill="#3B4C5D" d="M167.1,189.6c0,0.9,0.4,1.6,1.4,1.6c0.6,0,1.1-0.4,1.2-1h0.5c-0.3,1-0.9,1.4-1.8,1.4
				c-1.2,0-1.8-1-1.8-2.2c0-1.1,0.6-2.2,1.8-2.2c1.4,0,1.9,1,1.9,2.3H167.1z M169.7,189.2c-0.1-0.8-0.5-1.4-1.3-1.4
				c-0.8,0-1.2,0.7-1.3,1.4H169.7z"/>
			<path fill="#3B4C5D" d="M171.8,191.6h-0.5v-3.2c0-0.3,0-0.6,0-0.9h0.5l0,0.6l0,0c0.3-0.5,0.7-0.7,1.3-0.7c1.3,0,1.4,1.2,1.4,1.7
				v2.6h-0.5v-2.6c0-0.7-0.4-1.1-1.1-1.1c-0.8,0-1.2,0.7-1.2,1.4V191.6z"/>
			<path fill="#3B4C5D" d="M176.2,187.9h-0.8v-0.4h0.8v-0.9l0.5-0.2v1.1h0.9v0.4h-0.9v2.7c0,0.4,0.2,0.6,0.6,0.6c0.1,0,0.3,0,0.4,0
				v0.4c-0.2,0-0.3,0.1-0.5,0.1c-1,0-1-0.7-1-1.2V187.9z"/>
			<path fill="#3B4C5D" d="M178.9,189.6c0,0.9,0.4,1.6,1.4,1.6c0.6,0,1.1-0.4,1.2-1h0.5c-0.3,1-0.9,1.4-1.8,1.4
				c-1.2,0-1.8-1-1.8-2.2c0-1.1,0.6-2.2,1.8-2.2c1.4,0,1.9,1,1.9,2.3H178.9z M181.5,189.2c-0.1-0.8-0.5-1.4-1.3-1.4
				c-0.8,0-1.2,0.7-1.3,1.4H181.5z"/>
			<path fill="#3B4C5D" d="M183.6,191.6h-0.5v-3.2c0-0.3,0-0.6,0-0.9h0.5l0,0.6l0,0c0.3-0.5,0.7-0.7,1.3-0.7c1.3,0,1.4,1.2,1.4,1.7
				v2.6h-0.5v-2.6c0-0.7-0.4-1.1-1.1-1.1c-0.8,0-1.2,0.7-1.2,1.4V191.6z"/>
			<path fill="#3B4C5D" d="M190.2,188.7c0-0.6-0.4-0.9-1.1-0.9c-0.7,0-1.2,0.8-1.2,1.7c0,0.9,0.5,1.7,1.2,1.7c0.6,0,1.1-0.4,1.1-1
				h0.5c-0.1,0.9-0.7,1.4-1.6,1.4c-1.2,0-1.8-1-1.8-2.2c0-1.1,0.6-2.2,1.8-2.2c0.8,0,1.5,0.5,1.6,1.4H190.2z"/>
			<path fill="#3B4C5D" d="M192,189.6c0,0.9,0.4,1.6,1.4,1.6c0.6,0,1.1-0.4,1.2-1h0.5c-0.3,1-0.9,1.4-1.8,1.4c-1.2,0-1.8-1-1.8-2.2
				c0-1.1,0.6-2.2,1.8-2.2c1.4,0,1.9,1,1.9,2.3H192z M194.6,189.2c-0.1-0.8-0.5-1.4-1.3-1.4c-0.8,0-1.2,0.7-1.3,1.4H194.6z"/>
			<path fill="#3B4C5D" d="M197.6,187.3c0.8,0,1.4,0.3,1.5,1.1h-0.5c0-0.5-0.5-0.7-1-0.7c-0.5,0-0.9,0.2-0.9,0.7
				c0,0.6,0.8,0.5,1.9,0.9c0.4,0.1,0.7,0.5,0.7,1c0,0.9-0.9,1.3-1.7,1.3c-0.7,0-1.5-0.3-1.5-1.2h0.5c0,0.6,0.6,0.8,1.1,0.8
				c0.5,0,1.1-0.2,1.1-0.8c0-0.6-0.6-0.7-1.3-0.8c-0.6-0.2-1.3-0.3-1.3-1.1C196.1,187.6,196.9,187.3,197.6,187.3z"/>
			<path fill="#3B4C5D" d="M200.4,191.6v-0.7h0.7v0.7H200.4z"/>
		</g>
	</g>
	<g>
		<rect x="87.6" y="138.3" fill="none" width="43.7" height="3.6"/>
		<g>
			<path fill="#3B4C5D" d="M88,141.3v-2.9l1.1,0c0.4,0,0.8,0.3,0.8,0.7c0,0.3-0.2,0.6-0.5,0.7v0c0.4,0.1,0.7,0.3,0.7,0.7
				c0,0.4-0.2,0.8-0.9,0.8H88z M88.9,139.6c0.3,0,0.7-0.1,0.7-0.5c0-0.4-0.4-0.5-0.7-0.5h-0.6v1.1H88.9z M88.2,141h0.6
				c0.5,0,0.8-0.1,0.8-0.6c0-0.5-0.4-0.6-1-0.6h-0.5V141z"/>
			<path fill="#3B4C5D" d="M92.3,140.2c0,0.5-0.3,1.1-1,1.1s-1-0.5-1-1.1s0.3-1.1,1-1.1S92.3,139.7,92.3,140.2z M91.3,139.4
				c-0.5,0-0.7,0.5-0.7,0.9s0.2,0.9,0.7,0.9c0.5,0,0.7-0.5,0.7-0.9S91.8,139.4,91.3,139.4z"/>
			<path fill="#3B4C5D" d="M94.2,140.9L94.2,140.9c-0.2,0.2-0.4,0.4-0.7,0.4c-0.6,0-0.8-0.6-0.8-1.1c0-0.5,0.2-1.1,0.8-1.1
				c0.3,0,0.6,0.1,0.7,0.4l0,0v-1.2h0.2v2.5c0,0.2,0,0.3,0,0.5h-0.3L94.2,140.9z M93.5,139.4c-0.5,0-0.6,0.4-0.6,0.8
				c0,0.4,0.1,0.9,0.6,0.9c0.5,0,0.7-0.4,0.7-0.9C94.2,139.8,94,139.4,93.5,139.4z"/>
			<path fill="#3B4C5D" d="M95.1,139.2l0.7,1.7l0.7-1.7h0.3l-1.1,2.8h-0.3l0.3-0.8l-0.8-2H95.1z"/>
			<path fill="#3B4C5D" d="M98.4,138.6h-0.9v-0.2h2.2v0.2h-0.9l0,2.7h-0.3L98.4,138.6z"/>
			<path fill="#3B4C5D" d="M99.7,140.3c0,0.4,0.2,0.8,0.7,0.8c0.3,0,0.5-0.2,0.6-0.5h0.3c-0.1,0.5-0.4,0.7-0.9,0.7
				c-0.6,0-0.9-0.5-0.9-1.1c0-0.6,0.3-1.1,0.9-1.1c0.7,0,0.9,0.5,0.9,1.1H99.7z M101,140.1c0-0.4-0.2-0.7-0.7-0.7
				c-0.4,0-0.6,0.3-0.6,0.7H101z"/>
			<path fill="#3B4C5D" d="M103,139.2h0.3l-0.7,1l0.8,1.1H103l-0.7-0.9l-0.6,0.9h-0.3l0,0l0.8-1l-0.8-1h0.3l0.6,0.8L103,139.2z"/>
			<path fill="#3B4C5D" d="M103.9,139.4h-0.4v-0.2h0.4v-0.4l0.2-0.1v0.5h0.5v0.2h-0.5v1.4c0,0.2,0.1,0.3,0.3,0.3c0.1,0,0.1,0,0.2,0
				v0.2c-0.1,0-0.2,0-0.2,0c-0.5,0-0.5-0.3-0.5-0.6V139.4z"/>
			<path fill="#3B4C5D" d="M106.1,141.3V141c0.4-0.3,1.5-1.4,1.5-1.9c0-0.3-0.3-0.5-0.6-0.5c-0.3,0-0.6,0.2-0.6,0.6h-0.3
				c0-0.5,0.4-0.8,0.9-0.8c0.5,0,0.8,0.2,0.8,0.7c0,0.7-1,1.5-1.4,1.9h1.5v0.2H106.1z"/>
			<path fill="#3B4C5D" d="M108.4,141.3V141c0.4-0.3,1.5-1.4,1.5-1.9c0-0.3-0.3-0.5-0.6-0.5c-0.3,0-0.6,0.2-0.6,0.6h-0.3
				c0-0.5,0.4-0.8,0.9-0.8c0.5,0,0.8,0.2,0.8,0.7c0,0.7-1,1.5-1.4,1.9h1.5v0.2H108.4z"/>
			<path fill="#3B4C5D" d="M110.9,142h-0.2v-2.4c0-0.2,0-0.3,0-0.5h0.3l0,0.3l0,0c0.1-0.2,0.4-0.4,0.7-0.4c0.6,0,0.8,0.5,0.8,1.1
				c0,0.5-0.2,1.1-0.8,1.1c-0.3,0-0.5-0.1-0.7-0.4h0V142z M111.6,141.1c0.5,0,0.6-0.5,0.6-0.9c0-0.4-0.2-0.8-0.6-0.8
				c-0.5,0-0.7,0.4-0.7,0.8C110.9,140.6,111.1,141.1,111.6,141.1z"/>
			<path fill="#3B4C5D" d="M114.3,139.2h0.3l-0.7,1l0.8,1.1h-0.3l-0.7-0.9l-0.6,0.9h-0.3l0,0l0.8-1l-0.8-1h0.3l0.6,0.8L114.3,139.2z
				"/>
			<path fill="#3B4C5D" d="M115.7,138.3h0.3l-1.1,3.3h-0.3L115.7,138.3z"/>
			<path fill="#3B4C5D" d="M116.3,138.9c0.2-0.1,0.5-0.3,0.6-0.4h0.3v2.8H117v-2.5c-0.2,0.2-0.4,0.3-0.6,0.4V138.9z"/>
			<path fill="#3B4C5D" d="M117.9,141.3v-0.4h0.3v0.4H117.9z"/>
			<path fill="#3B4C5D" d="M120.1,140.6h-1.3v-0.3l1.2-1.9h0.4v1.9h0.5v0.2h-0.5v0.7h-0.3V140.6z M120.1,138.7L120.1,138.7l-1.1,1.7
				h1.1V138.7z"/>
			<path fill="#3B4C5D" d="M121.4,140.3c0,0.4,0.2,0.8,0.7,0.8c0.3,0,0.5-0.2,0.6-0.5h0.3c-0.1,0.5-0.4,0.7-0.9,0.7
				c-0.6,0-0.9-0.5-0.9-1.1c0-0.6,0.3-1.1,0.9-1.1c0.7,0,0.9,0.5,0.9,1.1H121.4z M122.7,140.1c0-0.4-0.2-0.7-0.7-0.7
				c-0.4,0-0.6,0.3-0.6,0.7H122.7z"/>
			<path fill="#3B4C5D" d="M123.8,139.5L123.8,139.5c0.2-0.2,0.4-0.4,0.6-0.4c0.3,0,0.6,0.2,0.7,0.4c0.2-0.2,0.4-0.4,0.7-0.4
				c0.7,0,0.7,0.6,0.7,0.8v1.3h-0.2v-1.3c0-0.4-0.2-0.6-0.5-0.6c-0.4,0-0.6,0.3-0.6,0.7v1.2h-0.2v-1.3c0-0.4-0.2-0.6-0.5-0.6
				c-0.4,0-0.6,0.3-0.6,0.7v1.2h-0.2v-1.6c0-0.2,0-0.3,0-0.5h0.3L123.8,139.5z"/>
		</g>
	</g>
	<g>
		<path fill="#3B4C5D" d="M213.5,214.5c-0.5,0-0.9-0.3-0.9-0.8h0.3c0,0.5,0.3,0.6,0.7,0.6c0.3,0,0.7-0.2,0.7-0.6
			c0-0.3-0.2-0.4-0.5-0.5c-0.5-0.2-1.2-0.3-1.2-0.9c0-0.5,0.5-0.8,0.9-0.8c0.4,0,0.9,0.1,1,0.7h-0.3c0-0.4-0.3-0.5-0.6-0.5
			c-0.3,0-0.7,0.2-0.7,0.5c0,0.8,1.7,0.5,1.7,1.5C214.6,214.3,214,214.5,213.5,214.5z"/>
		<path fill="#3B4C5D" d="M216.4,213c0-0.3-0.2-0.5-0.6-0.5c-0.4,0-0.6,0.4-0.6,0.9c0,0.5,0.2,0.9,0.6,0.9c0.3,0,0.5-0.2,0.6-0.5
			h0.3c-0.1,0.5-0.3,0.7-0.8,0.7c-0.6,0-0.9-0.5-0.9-1.1c0-0.6,0.3-1.1,0.9-1.1c0.4,0,0.8,0.3,0.8,0.7H216.4z"/>
		<path fill="#3B4C5D" d="M218.3,213c0-0.3-0.2-0.4-0.5-0.4c-0.3,0-0.5,0.1-0.5,0.4h-0.3c0.1-0.4,0.4-0.6,0.8-0.6
			c0.5,0,0.7,0.2,0.7,0.7v1c0,0.2,0,0.3,0,0.5h-0.3l0-0.3h0l0,0c-0.1,0.2-0.4,0.3-0.6,0.3c-0.4,0-0.7-0.2-0.7-0.6
			c0-0.3,0.2-0.5,0.4-0.6c0.3-0.1,0.6-0.1,0.9-0.1V213z M217.7,214.3c0.5,0,0.6-0.4,0.6-0.9c-0.3,0-1.1-0.1-1.1,0.5
			C217.3,214.1,217.5,214.3,217.7,214.3z"/>
		<path fill="#3B4C5D" d="M219.5,214.4h-0.2v-2.9h0.2V214.4z"/>
		<path fill="#3B4C5D" d="M220.3,213.5c0,0.4,0.2,0.8,0.7,0.8c0.3,0,0.5-0.2,0.6-0.5h0.3c-0.1,0.5-0.4,0.7-0.9,0.7
			c-0.6,0-0.9-0.5-0.9-1.1c0-0.6,0.3-1.1,0.9-1.1c0.7,0,0.9,0.5,0.9,1.1H220.3z M221.6,213.2c0-0.4-0.2-0.7-0.7-0.7
			c-0.4,0-0.6,0.3-0.6,0.7H221.6z"/>
		<path fill="#3B4C5D" d="M222.8,212.4v0.3h-0.3v-0.3H222.8z M222.8,214.1v0.4h-0.3v-0.4H222.8z"/>
		<path fill="#3B4C5D" d="M224.8,212.1c0.2-0.1,0.5-0.3,0.6-0.4h0.3v2.8h-0.3v-2.5c-0.2,0.2-0.4,0.3-0.6,0.4V212.1z"/>
		<path fill="#3B4C5D" d="M226.4,214.4v-0.4h0.3v0.4H226.4z"/>
		<path fill="#3B4C5D" d="M228.6,213.8h-1.3v-0.3l1.2-1.9h0.4v1.9h0.5v0.2h-0.5v0.7h-0.3V213.8z M228.6,211.9L228.6,211.9l-1.1,1.7
			h1.1V211.9z"/>
		<path fill="#3B4C5D" d="M229.9,212.1c0.2-0.1,0.5-0.3,0.6-0.4h0.3v2.8h-0.3v-2.5c-0.2,0.2-0.4,0.3-0.6,0.4V212.1z"/>
		<path fill="#3B4C5D" d="M232.9,213.8h-1.3v-0.3l1.2-1.9h0.4v1.9h0.5v0.2h-0.5v0.7h-0.3V213.8z M232.9,211.9L232.9,211.9l-1.1,1.7
			h1.1V211.9z"/>
		<path fill="#3B4C5D" d="M234.8,214.4l1.2-2.9h0.3l1.2,2.9h-0.3l-0.3-0.8h-1.5l-0.3,0.8H234.8z M236.7,213.4l-0.6-1.7l-0.6,1.7
			H236.7z"/>
		<path fill="#3B4C5D" d="M239.1,212.4h0.2v1.6c0,0.2,0,0.3,0,0.5h-0.3l0-0.3l0,0c-0.1,0.3-0.4,0.4-0.6,0.4c-0.7,0-0.7-0.6-0.7-0.8
			v-1.3h0.2v1.3c0,0.4,0.2,0.6,0.5,0.6c0.4,0,0.6-0.3,0.6-0.7V212.4z"/>
		<path fill="#3B4C5D" d="M241.4,212.4h0.3c0,0.1,0,0.3,0,0.5v1.2c0,0.4,0,0.8-0.4,1c-0.2,0.1-0.3,0.1-0.5,0.1
			c-0.4,0-0.8-0.1-0.8-0.5h0.3c0,0.2,0.3,0.3,0.6,0.3c0.3,0,0.6-0.2,0.6-0.6V214h0c-0.1,0.2-0.4,0.4-0.7,0.4c-0.6,0-0.9-0.5-0.9-1
			c0-0.6,0.2-1.1,0.9-1.1c0.3,0,0.5,0.1,0.7,0.4l0,0L241.4,212.4z M240.7,212.5c-0.4,0-0.6,0.4-0.6,0.8c0,0.4,0.2,0.8,0.6,0.8
			c0.5,0,0.6-0.4,0.6-0.8C241.4,213,241.1,212.5,240.7,212.5z"/>
		<path fill="#3B4C5D" d="M242.5,212.7L242.5,212.7c0.2-0.2,0.4-0.4,0.6-0.4c0.3,0,0.6,0.2,0.7,0.4c0.2-0.2,0.4-0.4,0.7-0.4
			c0.7,0,0.7,0.6,0.7,0.8v1.3h-0.2v-1.3c0-0.4-0.2-0.6-0.5-0.6c-0.4,0-0.6,0.3-0.6,0.7v1.2h-0.2v-1.3c0-0.4-0.2-0.6-0.5-0.6
			c-0.4,0-0.6,0.3-0.6,0.7v1.2h-0.2v-1.6c0-0.2,0-0.3,0-0.5h0.3L242.5,212.7z"/>
		<path fill="#3B4C5D" d="M246,213.5c0,0.4,0.2,0.8,0.7,0.8c0.3,0,0.5-0.2,0.6-0.5h0.3c-0.1,0.5-0.4,0.7-0.9,0.7
			c-0.6,0-0.9-0.5-0.9-1.1c0-0.6,0.3-1.1,0.9-1.1c0.7,0,0.9,0.5,0.9,1.1H246z M247.3,213.2c0-0.4-0.2-0.7-0.7-0.7
			c-0.4,0-0.6,0.3-0.6,0.7H247.3z"/>
		<path fill="#3B4C5D" d="M248.3,214.4h-0.2v-1.6c0-0.2,0-0.3,0-0.5h0.3l0,0.3l0,0c0.1-0.3,0.4-0.4,0.6-0.4c0.7,0,0.7,0.6,0.7,0.8
			v1.3h-0.2v-1.3c0-0.4-0.2-0.6-0.5-0.6c-0.4,0-0.6,0.3-0.6,0.7V214.4z"/>
		<path fill="#3B4C5D" d="M250.5,212.6h-0.4v-0.2h0.4v-0.4l0.2-0.1v0.5h0.5v0.2h-0.5v1.4c0,0.2,0.1,0.3,0.3,0.3c0.1,0,0.1,0,0.2,0
			v0.2c-0.1,0-0.2,0-0.2,0c-0.5,0-0.5-0.3-0.5-0.6V212.6z"/>
		<path fill="#3B4C5D" d="M251.8,213.5c0,0.4,0.2,0.8,0.7,0.8c0.3,0,0.5-0.2,0.6-0.5h0.3c-0.1,0.5-0.4,0.7-0.9,0.7
			c-0.6,0-0.9-0.5-0.9-1.1c0-0.6,0.3-1.1,0.9-1.1c0.7,0,0.9,0.5,0.9,1.1H251.8z M253.2,213.2c0-0.4-0.2-0.7-0.7-0.7
			c-0.4,0-0.6,0.3-0.6,0.7H253.2z"/>
		<path fill="#3B4C5D" d="M255.4,214.1L255.4,214.1c-0.2,0.2-0.4,0.4-0.7,0.4c-0.6,0-0.8-0.6-0.8-1.1c0-0.5,0.2-1.1,0.8-1.1
			c0.3,0,0.6,0.1,0.7,0.4l0,0v-1.2h0.2v2.5c0,0.2,0,0.3,0,0.5h-0.3L255.4,214.1z M254.7,212.5c-0.5,0-0.6,0.4-0.6,0.8
			c0,0.4,0.1,0.9,0.6,0.9c0.5,0,0.7-0.4,0.7-0.9C255.4,212.9,255.2,212.5,254.7,212.5z"/>
		<path fill="#3B4C5D" d="M257.4,214.4v-2.9h1.7v0.2h-1.4v1h1.3v0.2h-1.3v1.4H257.4z"/>
		<path fill="#3B4C5D" d="M261.2,213.4c0,0.5-0.3,1.1-1,1.1s-1-0.5-1-1.1s0.3-1.1,1-1.1S261.2,212.9,261.2,213.4z M260.3,212.5
			c-0.5,0-0.7,0.5-0.7,0.9s0.2,0.9,0.7,0.9c0.5,0,0.7-0.5,0.7-0.9S260.8,212.5,260.3,212.5z"/>
		<path fill="#3B4C5D" d="M263.1,212.4h0.2v1.6c0,0.2,0,0.3,0,0.5h-0.3l0-0.3l0,0c-0.1,0.3-0.4,0.4-0.6,0.4c-0.7,0-0.7-0.6-0.7-0.8
			v-1.3h0.2v1.3c0,0.4,0.2,0.6,0.5,0.6c0.4,0,0.6-0.3,0.6-0.7V212.4z"/>
		<path fill="#3B4C5D" d="M264.2,214.4H264v-1.6c0-0.2,0-0.3,0-0.5h0.3l0,0.3h0c0.1-0.2,0.3-0.4,0.5-0.4c0.1,0,0.2,0,0.2,0v0.2
			c0,0-0.1,0-0.2,0c-0.4,0-0.6,0.3-0.6,0.7V214.4z"/>
		<path fill="#3B4C5D" d="M265.5,212.6h-0.4v-0.2h0.4v-0.4l0.2-0.1v0.5h0.5v0.2h-0.5v1.4c0,0.2,0.1,0.3,0.3,0.3c0.1,0,0.1,0,0.2,0
			v0.2c-0.1,0-0.2,0-0.2,0c-0.5,0-0.5-0.3-0.5-0.6V212.6z"/>
		<path fill="#3B4C5D" d="M266.9,212.7L266.9,212.7c0.2-0.3,0.4-0.4,0.6-0.4c0.7,0,0.7,0.6,0.7,0.8v1.3h-0.2v-1.3
			c0-0.4-0.2-0.6-0.5-0.6c-0.4,0-0.6,0.3-0.6,0.7v1.2h-0.2v-2.9h0.2V212.7z"/>
	</g>
	<g>
		<path fill="#3B4C5D" d="M213.5,219.4c-0.5,0-0.9-0.3-0.9-0.8h0.3c0,0.5,0.3,0.6,0.7,0.6c0.3,0,0.7-0.2,0.7-0.6
			c0-0.3-0.2-0.4-0.5-0.5c-0.5-0.2-1.2-0.3-1.2-0.9c0-0.5,0.5-0.8,0.9-0.8c0.4,0,0.9,0.1,1,0.7h-0.3c0-0.4-0.3-0.5-0.6-0.5
			c-0.3,0-0.7,0.2-0.7,0.5c0,0.8,1.7,0.5,1.7,1.5C214.6,219.2,214,219.4,213.5,219.4z"/>
		<path fill="#3B4C5D" d="M216.9,218.3c0,0.5-0.3,1.1-1,1.1s-1-0.5-1-1.1s0.3-1.1,1-1.1S216.9,217.7,216.9,218.3z M216,217.4
			c-0.5,0-0.7,0.5-0.7,0.9s0.2,0.9,0.7,0.9c0.5,0,0.7-0.5,0.7-0.9S216.5,217.4,216,217.4z"/>
		<path fill="#3B4C5D" d="M218.8,217.3h0.2v1.6c0,0.2,0,0.3,0,0.5h-0.3l0-0.3l0,0c-0.1,0.3-0.4,0.4-0.6,0.4c-0.7,0-0.7-0.6-0.7-0.8
			v-1.3h0.2v1.3c0,0.4,0.2,0.6,0.5,0.6c0.4,0,0.6-0.3,0.6-0.7V217.3z"/>
		<path fill="#3B4C5D" d="M219.9,219.3h-0.2v-1.6c0-0.2,0-0.3,0-0.5h0.3l0,0.3h0c0.1-0.2,0.3-0.4,0.5-0.4c0.1,0,0.2,0,0.2,0v0.2
			c0,0-0.1,0-0.2,0c-0.4,0-0.6,0.3-0.6,0.7V219.3z"/>
		<path fill="#3B4C5D" d="M222.3,217.9c0-0.3-0.2-0.5-0.6-0.5c-0.4,0-0.6,0.4-0.6,0.9c0,0.5,0.2,0.9,0.6,0.9c0.3,0,0.5-0.2,0.6-0.5
			h0.3c-0.1,0.5-0.3,0.7-0.8,0.7c-0.6,0-0.9-0.5-0.9-1.1c0-0.6,0.3-1.1,0.9-1.1c0.4,0,0.8,0.3,0.8,0.7H222.3z"/>
		<path fill="#3B4C5D" d="M223.2,218.3c0,0.4,0.2,0.8,0.7,0.8c0.3,0,0.5-0.2,0.6-0.5h0.3c-0.1,0.5-0.4,0.7-0.9,0.7
			c-0.6,0-0.9-0.5-0.9-1.1c0-0.6,0.3-1.1,0.9-1.1c0.7,0,0.9,0.5,0.9,1.1H223.2z M224.5,218.1c0-0.4-0.2-0.7-0.7-0.7
			c-0.4,0-0.6,0.3-0.6,0.7H224.5z"/>
		<path fill="#3B4C5D" d="M225.7,217.3v0.4h-0.3v-0.4H225.7z M225.7,219v0.4h-0.3V219H225.7z"/>
		<path fill="#3B4C5D" d="M227.8,217.6L227.8,217.6c0.2-0.3,0.4-0.4,0.6-0.4c0.7,0,0.7,0.6,0.7,0.8v1.3H229V218
			c0-0.4-0.2-0.6-0.5-0.6c-0.4,0-0.6,0.3-0.6,0.7v1.2h-0.2v-2.9h0.2V217.6z"/>
		<path fill="#3B4C5D" d="M230,217.5h-0.4v-0.2h0.4v-0.4l0.2-0.1v0.5h0.5v0.2h-0.5v1.4c0,0.2,0.1,0.3,0.3,0.3c0.1,0,0.1,0,0.2,0v0.2
			c-0.1,0-0.2,0-0.2,0c-0.5,0-0.5-0.3-0.5-0.6V217.5z"/>
		<path fill="#3B4C5D" d="M231.2,217.5h-0.4v-0.2h0.4v-0.4l0.2-0.1v0.5h0.5v0.2h-0.5v1.4c0,0.2,0.1,0.3,0.3,0.3c0.1,0,0.1,0,0.2,0
			v0.2c-0.1,0-0.2,0-0.2,0c-0.5,0-0.5-0.3-0.5-0.6V217.5z"/>
		<path fill="#3B4C5D" d="M232.6,220.1h-0.2v-2.4c0-0.2,0-0.3,0-0.5h0.3l0,0.3l0,0c0.1-0.2,0.4-0.4,0.7-0.4c0.6,0,0.8,0.5,0.8,1.1
			c0,0.5-0.2,1.1-0.8,1.1c-0.3,0-0.5-0.1-0.7-0.4h0V220.1z M233.3,219.1c0.5,0,0.6-0.5,0.6-0.9c0-0.4-0.2-0.8-0.6-0.8
			c-0.5,0-0.7,0.4-0.7,0.8C232.6,218.7,232.7,219.1,233.3,219.1z"/>
		<path fill="#3B4C5D" d="M235,217.3v0.4h-0.3v-0.4H235z M235,219v0.4h-0.3V219H235z"/>
		<path fill="#3B4C5D" d="M236.4,216.4h0.3l-1.1,3.3h-0.3L236.4,216.4z"/>
		<path fill="#3B4C5D" d="M237.5,216.4h0.3l-1.1,3.3h-0.3L237.5,216.4z"/>
		<path fill="#3B4C5D" d="M238.2,217.5h-0.4v-0.2h0.4v-0.4l0.2-0.1v0.5h0.5v0.2h-0.5v1.4c0,0.2,0.1,0.3,0.3,0.3c0.1,0,0.1,0,0.2,0
			v0.2c-0.1,0-0.2,0-0.2,0c-0.5,0-0.5-0.3-0.5-0.6V217.5z"/>
		<path fill="#3B4C5D" d="M239.4,217.3l0.7,1.7l0.7-1.7h0.3l-1.1,2.8h-0.3l0.3-0.8l-0.8-2H239.4z"/>
		<path fill="#3B4C5D" d="M241.7,220.1h-0.2v-2.4c0-0.2,0-0.3,0-0.5h0.3l0,0.3l0,0c0.1-0.2,0.4-0.4,0.7-0.4c0.6,0,0.8,0.5,0.8,1.1
			c0,0.5-0.2,1.1-0.8,1.1c-0.3,0-0.5-0.1-0.7-0.4h0V220.1z M242.4,219.1c0.5,0,0.6-0.5,0.6-0.9c0-0.4-0.2-0.8-0.6-0.8
			c-0.5,0-0.7,0.4-0.7,0.8C241.7,218.7,241.8,219.1,242.4,219.1z"/>
		<path fill="#3B4C5D" d="M243.9,218.3c0,0.4,0.2,0.8,0.7,0.8c0.3,0,0.5-0.2,0.6-0.5h0.3c-0.1,0.5-0.4,0.7-0.9,0.7
			c-0.6,0-0.9-0.5-0.9-1.1c0-0.6,0.3-1.1,0.9-1.1c0.7,0,0.9,0.5,0.9,1.1H243.9z M245.2,218.1c0-0.4-0.2-0.7-0.7-0.7
			c-0.4,0-0.6,0.3-0.6,0.7H245.2z"/>
		<path fill="#3B4C5D" d="M245.7,218.1h1v0.2h-1V218.1z"/>
		<path fill="#3B4C5D" d="M247.8,217.2c0.4,0,0.7,0.1,0.7,0.6h-0.3c0-0.3-0.3-0.3-0.5-0.3c-0.2,0-0.5,0.1-0.5,0.3
			c0,0.3,0.4,0.3,0.9,0.5c0.2,0.1,0.3,0.3,0.3,0.5c0,0.5-0.4,0.7-0.9,0.7c-0.4,0-0.8-0.2-0.8-0.6h0.3c0,0.3,0.3,0.4,0.6,0.4
			c0.3,0,0.5-0.1,0.5-0.4c0-0.3-0.3-0.3-0.6-0.4c-0.3-0.1-0.6-0.2-0.6-0.5C247.1,217.3,247.5,217.2,247.8,217.2z"/>
		<path fill="#3B4C5D" d="M250.5,217.9c0-0.3-0.2-0.5-0.6-0.5c-0.4,0-0.6,0.4-0.6,0.9c0,0.5,0.2,0.9,0.6,0.9c0.3,0,0.5-0.2,0.6-0.5
			h0.3c-0.1,0.5-0.3,0.7-0.8,0.7c-0.6,0-0.9-0.5-0.9-1.1c0-0.6,0.3-1.1,0.9-1.1c0.4,0,0.8,0.3,0.8,0.7H250.5z"/>
		<path fill="#3B4C5D" d="M252.4,217.9c0-0.3-0.2-0.4-0.5-0.4c-0.3,0-0.5,0.1-0.5,0.4h-0.3c0.1-0.4,0.4-0.6,0.8-0.6
			c0.5,0,0.7,0.2,0.7,0.7v1c0,0.2,0,0.3,0,0.5h-0.3l0-0.3h0l0,0c-0.1,0.2-0.4,0.3-0.6,0.3c-0.4,0-0.7-0.2-0.7-0.6
			c0-0.3,0.2-0.5,0.4-0.6c0.3-0.1,0.6-0.1,0.9-0.1V217.9z M251.7,219.1c0.5,0,0.6-0.4,0.6-0.9c-0.3,0-1.1-0.1-1.1,0.5
			C251.3,219,251.5,219.1,251.7,219.1z"/>
		<path fill="#3B4C5D" d="M253.5,219.3h-0.2v-2.9h0.2V219.3z"/>
		<path fill="#3B4C5D" d="M254.3,218.3c0,0.4,0.2,0.8,0.7,0.8c0.3,0,0.5-0.2,0.6-0.5h0.3c-0.1,0.5-0.4,0.7-0.9,0.7
			c-0.6,0-0.9-0.5-0.9-1.1c0-0.6,0.3-1.1,0.9-1.1c0.7,0,0.9,0.5,0.9,1.1H254.3z M255.6,218.1c0-0.4-0.2-0.7-0.7-0.7
			c-0.4,0-0.6,0.3-0.6,0.7H255.6z"/>
		<path fill="#3B4C5D" d="M256.5,219.3V219h0.3v0.4H256.5z"/>
		<path fill="#3B4C5D" d="M258.8,217.9c0-0.3-0.2-0.5-0.6-0.5c-0.4,0-0.6,0.4-0.6,0.9c0,0.5,0.2,0.9,0.6,0.9c0.3,0,0.5-0.2,0.6-0.5
			h0.3c-0.1,0.5-0.3,0.7-0.8,0.7c-0.6,0-0.9-0.5-0.9-1.1c0-0.6,0.3-1.1,0.9-1.1c0.4,0,0.8,0.3,0.8,0.7H258.8z"/>
		<path fill="#3B4C5D" d="M261.3,218.3c0,0.5-0.3,1.1-1,1.1s-1-0.5-1-1.1s0.3-1.1,1-1.1S261.3,217.7,261.3,218.3z M260.4,217.4
			c-0.5,0-0.7,0.5-0.7,0.9s0.2,0.9,0.7,0.9c0.5,0,0.7-0.5,0.7-0.9S260.9,217.4,260.4,217.4z"/>
		<path fill="#3B4C5D" d="M262.1,217.6L262.1,217.6c0.2-0.2,0.4-0.4,0.6-0.4c0.3,0,0.6,0.2,0.7,0.4c0.2-0.2,0.4-0.4,0.7-0.4
			c0.7,0,0.7,0.6,0.7,0.8v1.3h-0.2V218c0-0.4-0.2-0.6-0.5-0.6c-0.4,0-0.6,0.3-0.6,0.7v1.2h-0.2V218c0-0.4-0.2-0.6-0.5-0.6
			c-0.4,0-0.6,0.3-0.6,0.7v1.2h-0.2v-1.6c0-0.2,0-0.3,0-0.5h0.3L262.1,217.6z"/>
	</g>
</g>
<g>
	<rect x="334.9" y="10.1" fill="none" width="204.8" height="62"/>
	<g>
		<path fill="#D9DAD5" d="M335.1,27.1l4.7-17.1h4.7l4.6,17.1h-3.8l-0.9-3.8h-4.9l-1,3.8H335.1z M342,13.3L342,13.3l-1.7,7.4h3.4
			L342,13.3z"/>
		<path fill="#D9DAD5" d="M350.7,10h3.3v6.3h0c0.7-1,1.5-1.4,2.7-1.4c3.4,0,3.3,3.7,3.3,6.1c0,2.5,0.1,6.3-3.3,6.3
			c-1.3,0-2.2-0.4-2.8-1.6h0v1.3h-3.2V10z M356.8,21c0-2.4,0-4-1.4-4c-1.4,0-1.3,1.7-1.3,4c0,3,0.2,4.3,1.3,4.3
			C356.6,25.3,356.8,24.1,356.8,21z"/>
		<path fill="#D9DAD5" d="M368.6,19.4c0-1.8-0.4-2.4-1.5-2.4c-1.4,0-1.5,1.3-1.5,3.7c0,3.6,0.3,4.4,1.5,4.4c1,0,1.5-0.9,1.5-2.5h3.3
			c0,3.2-1.8,4.6-4.9,4.6c-4.3,0-4.9-2.6-4.9-6.4c0-3.3,0.5-6.1,4.9-6.1c3.1,0,4.8,1.4,4.8,4.5H368.6z"/>
		<path fill="#D9DAD5" d="M383.1,18.8c0,5.2-0.3,8.5-4.8,8.5s-4.8-3.3-4.8-8.5c0-6.3,0.7-8.4,4.8-8.4S383.1,12.5,383.1,18.8z
			 M376.8,18.9c0,5,0.1,6.1,1.4,6.1s1.4-1.1,1.4-6.1c0-5.1,0-6.1-1.4-6.1S376.8,13.8,376.8,18.9z"/>
		<path fill="#D9DAD5" d="M384.7,13.2c1.2-0.7,2.3-1.4,3.2-2.6h3.2v16.5h-3.6V14.4c-0.9,0.7-1.8,1.3-2.8,1.8V13.2z"/>
		<path fill="#D9DAD5" d="M394.3,27.1v-2.9c5.2-6.9,6.3-7.7,6.3-9.8c0-0.8-0.3-1.6-1.3-1.6c-1.4,0-1.4,1.3-1.4,2.4h-3.3
			c-0.2-3.1,1.5-4.8,4.5-4.8c2.9,0,4.8,1.2,4.8,4.3c0,3.7-4.3,7.9-6.1,9.9h6.3v2.6H394.3z"/>
	</g>
	<g>
		<path fill="#D9DAD5" d="M340.1,35.9l2.9,8.3h-1.8l-0.6-1.8h-3.3l-0.6,1.8H335l3-8.3H340.1z M340.1,41.1l-1.1-3.5l-1.2,3.5H340.1z"
			/>
		<path fill="#D9DAD5" d="M344,35.9h3.1c0.5,0,1.4,0,2,0.4c0.8,0.5,0.9,1.3,0.9,1.8c0,0.3-0.1,0.8-0.5,1.2c-0.1,0.1-0.5,0.4-0.9,0.6
			v0c1.3,0.2,1.8,1.1,1.8,2c0,1-0.6,1.6-1.2,1.9c-0.6,0.3-1.8,0.3-2.1,0.3H344V35.9z M345.7,39.3h1.2c0.5,0,1.4,0,1.4-1.1
			c0-1-0.9-1-1.5-1h-1.2V39.3z M345.7,42.9h1.2c0.8,0,1.7,0,1.7-1.1c0-1.2-1.1-1.2-1.9-1.2h-1V42.9z"/>
		<path fill="#D9DAD5" d="M356.3,38.6c0-0.3-0.1-1.5-1.3-1.5c-1.3,0-1.9,1.4-1.9,3.1c0,0.5,0,2.8,1.7,2.8c0.7,0,1.5-0.5,1.5-1.6h1.9
			c0,0.5-0.1,1.3-0.7,1.9c-0.7,0.8-1.7,0.9-2.4,0.9c-2.9,0-3.8-2.1-3.8-4.2c0-2.6,1.5-4.4,3.8-4.4c1.8,0,3.1,1.1,3.1,2.8H356.3z"/>
		<path fill="#D9DAD5" d="M359.2,35.9l2.7,0c0.5,0,1.9,0,2.9,0.7c1,0.8,1.4,2.1,1.4,3.3c0,2.5-1.4,3.9-2.9,4.2
			c-0.3,0.1-0.7,0.1-1.5,0.1h-2.6V35.9z M361,42.8c0.2,0,0.5,0,0.7,0c0.8,0,1.4-0.1,1.9-0.6c0.7-0.7,0.7-1.9,0.7-2.3
			c0-1.2-0.4-2.2-1.5-2.6c-0.4-0.1-0.8-0.2-1.9-0.1V42.8z"/>
		<path fill="#D9DAD5" d="M367.6,35.9h5.5v1.4h-3.8v2h3.5v1.4h-3.5v2.2h3.9v1.4h-5.7V35.9z"/>
		<path fill="#D9DAD5" d="M374.6,35.9h5.3v1.3h-3.6v2h3.3v1.4h-3.3v3.5h-1.8V35.9z"/>
		<path fill="#D9DAD5" d="M386.5,38.5c0-0.2,0-0.5-0.2-0.8c-0.3-0.5-1-0.6-1.4-0.6c-2,0-2.4,1.9-2.4,3.2c0,0.6,0.1,1.6,0.7,2.2
			c0.4,0.5,1,0.7,1.9,0.7c0.9,0,1.2-0.1,1.4-0.2v-1.7h-1.6v-1.4h3.4v4.1c-0.5,0.2-1.4,0.5-3,0.5c-1.9,0-2.9-0.5-3.5-1.1
			c-0.9-0.9-1.1-2.2-1.1-3.1c0-2.9,1.8-4.5,4.3-4.5c1.1,0,2.2,0.3,2.8,1c0.5,0.6,0.6,1.3,0.6,1.7H386.5z"/>
		<path fill="#D9DAD5" d="M389.8,35.9h1.8v3.3h3.1v-3.3h1.8v8.3h-1.8v-3.6h-3.2v3.6h-1.8V35.9z"/>
		<path fill="#D9DAD5" d="M398,35.9h1.8v8.3H398V35.9z"/>
		<path fill="#D9DAD5" d="M402.4,41.5c0,0.9,0.2,1.5,1,1.5c0.7,0,0.8-0.5,0.9-0.7c0.1-0.3,0.1-0.9,0.1-1.3v-5.1h1.8V41
			c0,1.3-0.2,2.3-1.3,2.9c-0.3,0.2-0.8,0.4-1.6,0.4c-0.9,0-1.6-0.2-2.2-1c-0.4-0.6-0.4-1.3-0.4-1.8H402.4z"/>
		<path fill="#D9DAD5" d="M407.7,35.9h1.8v3.6l2.8-3.6h2.1l-3,3.7l3.3,4.6h-2.2l-2.9-4.2v4.2h-1.8V35.9z"/>
		<path fill="#D9DAD5" d="M415.3,35.9h1.8v6.9h3.6v1.4h-5.4V35.9z"/>
		<path fill="#D9DAD5" d="M421.6,35.9h2.9l1.8,6l1.9-6h2.8v8.3h-1.8v-7.1l-2.3,7.1h-1.5l-2.2-7.1v7.1h-1.7V35.9z"/>
		<path fill="#D9DAD5" d="M432.6,35.9h2.6l3.1,6.5v-6.5h1.7v8.3h-2.4l-3.2-6.9v6.9h-1.7V35.9z"/>
		<path fill="#D9DAD5" d="M445.1,35.8c0.9,0,2.1,0.2,2.9,1.1c0.9,1,1.1,2.3,1.1,3.1c0,1.2-0.4,2.5-1,3.2c-0.9,1-2.3,1.2-2.9,1.2
			c-1.1,0-2.2-0.3-2.9-1.1c-0.9-1-1-2.3-1-3.1C441.1,38,442.1,35.8,445.1,35.8z M443.6,42.4c0.3,0.3,0.7,0.7,1.5,0.7
			c0.7,0,1.2-0.3,1.5-0.8c0.3-0.4,0.6-1.1,0.6-2.4c0-0.4,0-1-0.2-1.5c-0.3-1-1-1.5-1.9-1.5c-0.7,0-1.2,0.3-1.5,0.7
			c-0.5,0.6-0.6,1.5-0.6,2.4C443,40.9,443.1,41.8,443.6,42.4z"/>
		<path fill="#D9DAD5" d="M450.3,35.9h2.6c1.2,0,2.2,0.1,2.9,0.9c0.4,0.5,0.5,1.1,0.5,1.5c0,1-0.4,1.8-1.1,2.2
			c-0.6,0.4-1.4,0.4-1.9,0.4h-1.2v3.2h-1.8V35.9z M452.1,39.7h0.7c0.6,0,1.6,0,1.6-1.3c0-1.1-1-1.1-1.5-1.1h-0.9V39.7z"/>
		<path fill="#D9DAD5" d="M465.3,44.2c-0.5,0-1.5,0-2,0c-0.2,0-0.8,0-1.3,0.1c-0.6,0-1.1,0.1-1.3,0.1c-3.1,0-3.6-2.9-3.6-4.2
			c0-2.3,1.2-4.4,4-4.4c2.1,0,3.7,1.5,3.7,4.2c0,1.9-0.9,2.7-1.2,3.1c0.4-0.1,1.1-0.1,1.9-0.1V44.2z M460.8,43.1
			c1.7,0,2.1-1.8,2.1-3.1c0-1.2-0.3-1.7-0.5-2.1c-0.2-0.3-0.7-0.8-1.5-0.8c-1.6,0-2.1,1.5-2.1,3C458.8,41.2,459.2,43.1,460.8,43.1z"
			/>
		<path fill="#D9DAD5" d="M466.2,35.9h3.2c0.9,0,1.8,0,2.5,0.6c0.5,0.4,0.7,1.1,0.7,1.6c0,1.5-1.3,1.9-1.7,2
			c1.2,0.1,1.3,0.8,1.5,1.9c0.1,1,0.2,1.4,0.3,1.6c0.1,0.4,0.2,0.5,0.3,0.6h-2c-0.1-0.5-0.3-2.6-0.4-2.9c-0.2-0.5-0.6-0.5-0.9-0.5
			H468v3.3h-1.8V35.9z M468,39.5h1.4c0.2,0,0.6,0,0.9-0.2c0.1-0.1,0.5-0.4,0.5-1c0-0.6-0.3-0.8-0.4-0.9c-0.3-0.2-0.6-0.2-1.2-0.2
			H468V39.5z"/>
		<path fill="#D9DAD5" d="M475.3,41.6c0,0.4,0,1.6,1.5,1.6c1,0,1.6-0.5,1.6-1.2c0-0.7-0.5-0.9-1.6-1.1c-2-0.5-3-1.1-3-2.5
			c0-1.4,1-2.6,3.3-2.6c0.9,0,1.9,0.2,2.5,1c0.5,0.6,0.5,1.3,0.5,1.5h-1.7c0-0.3-0.1-1.3-1.3-1.3c-0.8,0-1.4,0.4-1.4,1.1
			c0,0.8,0.6,0.9,1.8,1.2c1.4,0.3,2.8,0.7,2.8,2.3c0,1.5-1.2,2.7-3.5,2.7c-3.2,0-3.2-2-3.2-2.8H475.3z"/>
		<path fill="#D9DAD5" d="M483.1,37.3h-2.5v-1.4h6.7v1.4h-2.5v6.9h-1.8V37.3z"/>
		<path fill="#D9DAD5" d="M490.1,35.9v5c0,0.9,0.1,2,1.8,2c0.3,0,1.1,0,1.6-0.7c0.2-0.3,0.3-0.6,0.3-1.4v-5h1.7v5.2
			c0,2.5-2,3.3-3.6,3.3c-0.8,0-2.3-0.2-3.1-1.4c-0.4-0.6-0.4-1.3-0.4-2v-5H490.1z"/>
		<path fill="#D9DAD5" d="M498.5,36l2.2,6.5l2.2-6.5h1.8l-3,8.3h-1.9l-3-8.3H498.5z"/>
		<path fill="#D9DAD5" d="M506.7,36l1.3,6.2l1.6-6.2h2l1.5,6.2l1.3-6.2h1.7l-2.1,8.3h-2l-1.5-6.3l-1.6,6.3h-2l-2-8.3H506.7z"/>
		<path fill="#D9DAD5" d="M518.7,35.9l1.7,2.8l1.8-2.8h1.9l-2.7,4l2.9,4.3H522l-1.8-3.1l-2,3.1h-1.9l2.9-4.3l-2.7-4H518.7z"/>
		<path fill="#D9DAD5" d="M526.7,36l1.7,3.8l1.7-3.8h1.8l-2.8,5.2v3h-1.8v-3l-2.8-5.2H526.7z"/>
		<path fill="#D9DAD5" d="M532.4,42.7l4.3-5.4l-4.1,0V36h6v1.6l-4.3,5.4l4.4-0.1v1.4h-6.3V42.7z"/>
	</g>
	<g>
		<path fill="#D9DAD5" d="M339.1,53.2c-0.1-0.9-0.5-1.2-1.4-1.2c-0.7,0-1.3,0.2-1.4,1h-0.7c0.2-1.2,1.1-1.6,2.2-1.6
			c1.3,0,2.1,0.6,2,1.9v2.7c0,0.4,0,0.9,0.1,1.3h-0.7l0-0.8h0l0,0.1c-0.3,0.5-1,0.9-1.8,0.9c-1.1,0-1.9-0.7-1.9-1.8
			c0-0.8,0.5-1.4,1.2-1.7c0.8-0.3,1.8-0.2,2.6-0.3V53.2z M337.4,56.8c1.5,0,1.8-1.2,1.7-2.4c-1,0-3-0.1-3,1.3
			C336.1,56.4,336.7,56.8,337.4,56.8z"/>
		<path fill="#D9DAD5" d="M342.1,57.2h-0.7c0-0.4,0.1-0.8,0.1-1.3v-7h0.7v3.4l0,0c0.4-0.7,1.2-1,2-1c1.7,0,2.4,1.5,2.4,3
			c0,1.4-0.7,3.1-2.3,3.1c-0.8,0-1.5-0.4-2-1.1l0,0L342.1,57.2z M342.1,54.2c0,1.3,0.5,2.5,2,2.5c1.3,0,1.7-1.4,1.7-2.5
			c0-1.1-0.4-2.3-1.8-2.3C342.6,51.9,342.1,53.1,342.1,54.2z"/>
		<path fill="#D9DAD5" d="M351.6,53.2c-0.1-0.9-0.6-1.3-1.6-1.3c-1.1,0-1.7,1.1-1.7,2.4c0,1.3,0.7,2.4,1.7,2.4
			c0.9,0,1.5-0.6,1.6-1.3h0.7c-0.2,1.3-0.9,2-2.2,2c-1.7,0-2.5-1.5-2.5-3c0-1.6,0.9-3,2.6-3c1.2,0,2.1,0.7,2.2,1.9H351.6z"/>
		<path fill="#D9DAD5" d="M357.6,56.4L357.6,56.4c-0.5,0.6-1.2,1-2,1c-1.7,0-2.4-1.6-2.4-3.1c0-1.5,0.7-3,2.4-3c0.8,0,1.6,0.4,2,1
			l0,0v-3.4h0.7v7c0,0.4,0,0.9,0.1,1.3h-0.7L357.6,56.4z M355.7,51.9c-1.3,0-1.7,1.2-1.7,2.3c0,1.1,0.3,2.5,1.6,2.5
			c1.5,0,2-1.2,2-2.6C357.6,53,357.1,51.9,355.7,51.9z"/>
		<path fill="#D9DAD5" d="M360.4,54.5c0,1.2,0.6,2.3,2,2.3c0.8,0,1.5-0.6,1.7-1.4h0.7c-0.4,1.4-1.2,2-2.6,2c-1.7,0-2.5-1.5-2.5-3
			c0-1.6,0.9-3,2.6-3c1.9,0,2.6,1.4,2.6,3.2H360.4z M364.1,53.9c-0.1-1.1-0.7-1.9-1.9-1.9c-1.1,0-1.7,0.9-1.8,1.9H364.1z"/>
		<path fill="#D9DAD5" d="M366.9,57.2v-5.1h-1.2v-0.6h1.2v-1.2c0-1,0.4-1.4,1.4-1.4c0.2,0,0.4,0.1,0.7,0.1v0.5c-0.1,0-0.3,0-0.4,0
			c-0.9,0-1,0.5-0.9,1.3v0.7h1.3v0.6h-1.3v5.1H366.9z"/>
		<path fill="#D9DAD5" d="M374.2,51.5h0.7c0,0.4-0.1,0.8-0.1,1.3v3.4c0,1.1,0.1,2.3-1.2,2.9c-0.5,0.2-0.8,0.3-1.3,0.3
			c-1,0-2.3-0.4-2.3-1.5h0.7c0.1,0.7,0.9,0.9,1.6,0.9c0.9,0,1.7-0.6,1.7-1.6v-1.1h0c-0.3,0.7-1.1,1.1-1.9,1.1
			c-1.7,0-2.5-1.3-2.5-2.9c0-1.6,0.7-3,2.5-3c0.8,0,1.4,0.4,1.9,1.1l0,0L374.2,51.5z M372.3,51.9c-1.2,0-1.8,1.3-1.8,2.3
			s0.5,2.3,1.8,2.3c1.3,0,1.8-1.2,1.8-2.3C374.2,53.1,373.6,51.9,372.3,51.9z"/>
		<path fill="#D9DAD5" d="M377.3,52.3L377.3,52.3c0.4-0.7,1.1-1,1.8-1c1.9,0,2,1.7,2,2.3v3.6h-0.7v-3.7c0-1-0.6-1.6-1.5-1.6
			c-1.1,0-1.7,1-1.7,2v3.3h-0.7v-8.3h0.7V52.3z"/>
		<path fill="#D9DAD5" d="M383.7,49.8h-0.8v-0.9h0.8V49.8z M383.7,51.5v5.8H383v-5.8H383.7z"/>
		<path fill="#D9DAD5" d="M384.6,58.8c1,0,0.9-0.3,0.9-1.8v-5.6h0.7v6c0,1.5,0,2-1.6,1.9V58.8z M386.3,49.8h-0.8v-0.9h0.8V49.8z"/>
		<path fill="#D9DAD5" d="M388.8,53.8l2.8-2.3h0.9l-2.9,2.5l3.1,3.3h-0.9l-3-3.1v3.1h-0.7v-8.3h0.7V53.8z"/>
		<path fill="#D9DAD5" d="M394.5,57.2h-0.7v-8.3h0.7V57.2z"/>
		<path fill="#D9DAD5" d="M397,52.3L397,52.3c0.4-0.7,1.1-1,1.8-1c0.9,0,1.6,0.5,1.9,1.3c0.4-0.7,1.1-1.3,2-1.3c1.9,0,2,1.7,2,2.3
			v3.6H404v-3.7c0-1-0.6-1.6-1.5-1.6c-1.1,0-1.7,1-1.7,2v3.3h-0.7v-3.7c0-1-0.6-1.6-1.5-1.6c-1.1,0-1.7,1-1.7,2v3.3h-0.7v-4.5
			c0-0.4,0-0.9-0.1-1.3h0.7L397,52.3z"/>
		<path fill="#D9DAD5" d="M407.2,57.2h-0.7v-4.5c0-0.4,0-0.9-0.1-1.3h0.7l0,0.8l0,0c0.4-0.7,1.1-1,1.8-1c1.9,0,2,1.7,2,2.3v3.6h-0.7
			v-3.7c0-1-0.6-1.6-1.5-1.6c-1.1,0-1.7,1-1.7,2V57.2z"/>
		<path fill="#D9DAD5" d="M417.9,54.3c0,1.5-0.8,3-2.7,3c-1.8,0-2.7-1.5-2.7-3s0.8-3,2.7-3C417,51.3,417.9,52.8,417.9,54.3z
			 M415.2,51.9c-1.4,0-1.9,1.4-1.9,2.4c0,1.1,0.5,2.4,1.9,2.4s1.9-1.4,1.9-2.4C417.1,53.3,416.6,51.9,415.2,51.9z"/>
		<path fill="#D9DAD5" d="M419.9,59.4h-0.7v-6.7c0-0.4,0-0.9-0.1-1.3h0.7l0,0.8l0,0c0.4-0.7,1.2-1,2-1c1.7,0,2.4,1.5,2.4,3
			c0,1.4-0.7,3.1-2.3,3.1c-0.8,0-1.5-0.4-2-1.1h0V59.4z M421.8,56.8c1.3,0,1.7-1.5,1.7-2.5c0-1.1-0.4-2.3-1.8-2.3
			c-1.3,0-1.9,1.1-1.9,2.3C419.9,55.5,420.3,56.8,421.8,56.8z"/>
		<path fill="#D9DAD5" d="M429.7,51.5h0.7c0,0.4-0.1,0.8-0.1,1.3v6.6h-0.7v-3.1h0c-0.5,0.7-1.2,1.1-2,1.1c-1.7,0-2.3-1.6-2.3-3.1
			c0-1.5,0.7-3,2.4-3c0.8,0,1.6,0.4,2,1v0h0v0L429.7,51.5z M427.8,51.9c-1.3,0-1.8,1.2-1.8,2.3c0,1.1,0.3,2.5,1.6,2.5
			c1.5,0,2-1.2,2-2.6C429.6,53,429.1,51.9,427.8,51.9z"/>
		<path fill="#D9DAD5" d="M432.7,57.2H432v-4.5c0-0.4,0-0.9-0.1-1.3h0.7l0,0.8h0c0.2-0.6,0.7-1,1.3-1c0.2,0,0.5,0,0.7,0V52
			c-0.1,0-0.3,0-0.4,0c-1,0-1.6,0.7-1.6,1.8V57.2z"/>
		<path fill="#D9DAD5" d="M437.8,51.3c1.1,0,2,0.4,2.1,1.6h-0.7c-0.1-0.7-0.7-1-1.4-1c-0.6,0-1.3,0.3-1.3,0.9c0,0.8,1.1,0.8,2.7,1.3
			c0.6,0.2,1,0.7,1,1.3c0,1.3-1.2,1.9-2.4,1.9c-1,0-2.1-0.5-2.2-1.7h0.7c0.1,0.9,0.8,1.1,1.6,1.1c0.7,0,1.5-0.3,1.5-1.1
			c0-0.8-0.9-1-1.8-1.2c-0.9-0.2-1.8-0.5-1.8-1.5C435.7,51.7,436.8,51.3,437.8,51.3z"/>
		<path fill="#D9DAD5" d="M442.1,52.1h-1.1v-0.6h1.1v-1.2l0.7-0.3v1.5h1.3v0.6h-1.3v3.8c0,0.5,0.3,0.8,0.8,0.8c0.2,0,0.4,0,0.6-0.1
			v0.6c-0.2,0.1-0.5,0.1-0.7,0.1c-1.5,0-1.4-0.9-1.4-1.7V52.1z"/>
		<path fill="#D9DAD5" d="M449,51.5h0.7v4.5c0,0.4,0,0.9,0.1,1.3H449l0-0.8l0,0c-0.4,0.7-1.1,1-1.8,1c-1.9,0-2-1.7-2-2.3v-3.6h0.7
			v3.7c0,1,0.6,1.6,1.5,1.6c1.1,0,1.7-1,1.7-2V51.5z"/>
		<path fill="#D9DAD5" d="M451.3,51.5l2,4.8l1.9-4.8h0.8l-2.3,5.8h-0.8l-2.3-5.8H451.3z"/>
		<path fill="#D9DAD5" d="M458.7,56.3L458.7,56.3l1.8-4.8h0.8l1.7,4.8h0l1.7-4.8h0.8l-2.1,5.8h-0.7l-1.8-5h0l-1.8,5h-0.7l-2.1-5.8
			h0.8L458.7,56.3z"/>
		<path fill="#D9DAD5" d="M470.3,51.5h0.7l-2.1,2.8l2.2,3h-0.9l-1.8-2.5l-1.8,2.5h-0.8l0,0l2.2-2.9l-2.1-2.8h0.9l1.7,2.3L470.3,51.5
			z"/>
		<path fill="#D9DAD5" d="M472.3,51.5l1.9,4.8l1.9-4.8h0.7l-3.2,8H473l0.9-2.2l-2.4-5.8H472.3z"/>
		<path fill="#D9DAD5" d="M477.6,56.6l3.4-4.5h-3.4v-0.6h4.2v0.6l-3.3,4.5h3.3v0.6h-4.2V56.6z"/>
	</g>
	<g>
		<path fill="#D9DAD5" d="M337.7,64.4c0.7-0.3,1.5-0.7,2.1-1.2h0.7l-1.7,7.9H338l1.5-7.1c-0.6,0.5-1.3,0.9-2,1.2L337.7,64.4z"/>
		<path fill="#D9DAD5" d="M341.3,71l0.2-0.8c1.2-0.9,4.9-3.8,5.2-5.2c0.2-0.9-0.4-1.4-1.3-1.4c-1,0-1.8,0.7-1.9,1.6h-0.8
			c0.3-1.4,1.5-2.3,2.9-2.3c1.3,0,2.2,0.7,1.9,2.1c-0.4,1.9-3.6,4.2-5.1,5.4h4.1l-0.1,0.7H341.3z"/>
		<path fill="#D9DAD5" d="M350.6,66.6c1,0.1,2.3-0.3,2.5-1.5c0.2-0.9-0.5-1.4-1.4-1.4c-1,0-1.7,0.5-2,1.4h-0.8
			c0.3-1.3,1.6-2.1,2.9-2.1c1.3,0,2.5,0.6,2.2,2.2c-0.2,1-1.1,1.6-2,1.8v0c1,0.2,1.5,0.9,1.3,2c-0.3,1.5-1.9,2.3-3.2,2.3
			c-1.4,0-2.4-0.8-2.1-2.3h0.8c-0.2,1,0.5,1.6,1.5,1.6c1.1,0,2-0.6,2.3-1.7c0.3-1.3-0.9-1.7-2-1.6L350.6,66.6z"/>
		<path fill="#D9DAD5" d="M357.8,69.2h-3.7l0.2-0.7l4.6-5.4h1l-1.2,5.5h1.3l-0.1,0.6h-1.3l-0.4,1.8h-0.7L357.8,69.2z M359,63.9
			L359,63.9l-4.1,4.7h3.1L359,63.9z"/>
		<path fill="#D9DAD5" d="M362.6,63.1h4.4l-0.1,0.7h-3.7l-0.7,2.8l0,0c0.6-0.5,1.2-0.8,1.9-0.8c1.5,0,2.2,1.2,1.9,2.6
			c-0.3,1.5-1.6,2.8-3.1,2.8c-1.3,0-2.4-0.6-2.1-2.1h0.8c-0.2,1,0.5,1.4,1.4,1.4c1.2,0,2-1,2.3-2.1c0.3-1.1-0.2-1.9-1.4-1.9
			c-0.8,0-1.5,0.5-1.9,1.2h-0.8L362.6,63.1z"/>
		<path fill="#D9DAD5" d="M373.3,65h-0.8c0.1-0.8-0.4-1.3-1.2-1.3c-1.9,0-2.6,2.1-2.9,3.6h0c0.5-0.9,1.4-1.3,2.4-1.3
			c1.6,0,2.2,1.1,1.9,2.6c-0.3,1.5-1.5,2.7-3.1,2.7c-2.2,0-2.5-1.8-2.1-3.7c0.4-2,1.3-4.5,3.8-4.5C372.6,62.9,373.5,63.6,373.3,65z
			 M368.2,68.6c-0.2,1,0.4,1.9,1.4,1.9c1.2,0,2-0.8,2.2-2c0.2-1,0-2-1.2-2C369.3,66.5,368.4,67.4,368.2,68.6z"/>
		<path fill="#D9DAD5" d="M379.8,63.8l-4.6,7.3h-0.9l4.7-7.2h-4.3l0.1-0.7h5.1L379.8,63.8z"/>
		<path fill="#D9DAD5" d="M382.1,66.9c-0.9-0.1-1.4-0.9-1.2-1.8c0.3-1.5,1.8-2.1,3-2.1c1.3,0,2.4,0.7,2.1,2.1c-0.2,1-1,1.6-2,1.8v0
			c1,0.3,1.5,0.9,1.3,2c-0.3,1.6-1.9,2.3-3.2,2.3s-2.5-0.7-2.2-2.3C380.1,67.9,381,67.1,382.1,66.9L382.1,66.9z M382.3,70.5
			c1,0,2-0.5,2.2-1.6c0.2-1.1-0.6-1.6-1.5-1.6c-1,0-2,0.5-2.2,1.6C380.5,70,381.3,70.5,382.3,70.5z M383.1,66.6
			c1.1,0,1.9-0.5,2.2-1.5c0.2-1.1-0.6-1.5-1.5-1.5c-0.9,0-1.9,0.4-2.2,1.5C381.4,66.1,382,66.6,383.1,66.6z"/>
		<path fill="#D9DAD5" d="M387.1,69.1c-0.2,1,0.4,1.4,1.4,1.4c1.8,0,2.5-2.5,2.8-3.7h0c-0.5,0.8-1.4,1.2-2.3,1.2
			c-1.4,0-2.2-1-1.9-2.5c0.3-1.5,1.5-2.6,3.1-2.6c2.3,0,2.4,1.9,2,3.9c-0.5,2.1-1.4,4.4-3.9,4.4c-1.4,0-2-0.9-1.9-2.1H387.1z
			 M387.8,65.6c-0.2,1,0.3,1.8,1.3,1.8c1.1,0,2.1-0.8,2.3-1.9c0.2-1.1-0.4-1.9-1.5-1.9C388.8,63.6,388,64.5,387.8,65.6z"/>
		<path fill="#D9DAD5" d="M398.4,67.1c-0.4,2-1.4,4.1-3.5,4.1s-2.2-2.1-1.8-4.1c0.4-2,1.3-4.1,3.5-4.1
			C398.8,62.9,398.8,65.1,398.4,67.1z M393.9,67.1c-0.3,1.2-0.6,3.4,1.1,3.4c1.7,0,2.3-2.3,2.6-3.4c0.2-1.2,0.6-3.4-1.1-3.4
			C394.8,63.6,394.1,65.9,393.9,67.1z"/>
		<path fill="#D9DAD5" d="M401,70.1l-0.2,1h-0.9l0.2-1H401z M400.4,69.1l1.2-6.3h0.9l-1.5,6.3H400.4z"/>
		<path fill="#D9DAD5" d="M407.2,62.8l-1.3,2.3h-0.6l1-2.3H407.2z M409.3,62.8l-1.3,2.3h-0.6l1-2.3H409.3z"/>
		<path fill="#D9DAD5" d="M416,66.2h-1.2l-0.6,1.6h1.2l-0.1,0.7h-1.3L413,71h-0.7l0.9-2.6h-1.6l-0.9,2.6h-0.7l0.9-2.6h-1.2l0.1-0.7
			h1.4l0.6-1.6h-1.3l0.1-0.7h1.4l0.9-2.4h0.7l-0.9,2.4h1.5l0.8-2.4h0.7l-0.9,2.4h1.1L416,66.2z M412.5,66.2l-0.6,1.6h1.6l0.6-1.6
			H412.5z"/>
		<path fill="#D9DAD5" d="M418.6,71.8H418l0.1-0.6c-1.2,0-2.3-0.7-1.9-2.2h0.8c-0.3,1,0.4,1.4,1.3,1.5l0.7-3.2
			c-0.5-0.3-2.1-0.5-1.8-2.2c0.3-1.2,1.6-2.2,2.7-2.2l0.1-0.5h0.6l-0.1,0.5c1.1,0,2.1,0.7,1.9,2h-0.8c0.2-1-0.5-1.3-1.2-1.3
			l-0.7,3.2c1.1,0.4,2.3,0.7,2,2.3c-0.3,1.5-1.7,2.2-2.9,2.2L418.6,71.8z M419.7,63.6c-0.8,0-1.6,0.6-1.8,1.5
			c-0.2,0.9,0.5,1.2,1.1,1.5L419.7,63.6z M418.9,70.5c0.8-0.1,1.8-0.6,2-1.5c0.2-1-0.6-1.3-1.3-1.5L418.9,70.5z"/>
		<path fill="#D9DAD5" d="M427.9,65.1c-0.2,1.1-1.1,2.2-2.3,2.2s-1.6-1-1.4-2.2c0.2-1.1,1.1-2.2,2.3-2.2
			C427.7,62.9,428.2,64,427.9,65.1z M431.5,62.9l-6.2,8.1h-0.7l6.2-8.1H431.5z M424.9,65.1c-0.2,0.7-0.1,1.6,0.8,1.6
			c0.9,0,1.4-0.9,1.5-1.6c0.2-0.7,0.1-1.7-0.8-1.7S425.1,64.4,424.9,65.1z M432.2,69c-0.2,1.1-1.1,2.2-2.3,2.2s-1.6-1-1.4-2.2
			c0.2-1.1,1.1-2.2,2.3-2.2C432,66.9,432.4,67.9,432.2,69z M429.2,69c-0.2,0.7-0.1,1.7,0.8,1.7c0.9,0,1.4-0.9,1.5-1.7
			c0.2-0.7,0.1-1.7-0.8-1.7S429.3,68.3,429.2,69z"/>
		<path fill="#D9DAD5" d="M434.6,68.3l3.7-5.2h0.6l1.5,5.2h-0.7l-1.4-4.5l-3.2,4.5H434.6z"/>
		<path fill="#D9DAD5" d="M444.4,66.2c-0.4-0.6-0.8-1.2-0.7-2.1c0.2-1,1.2-1.5,2.1-1.5c0.9,0,1.7,0.4,1.5,1.5c-0.2,1-1.1,1.6-2,2.2
			l1.9,2.6c0.6-0.9,1-2.1,1.2-3.1h0.8c-0.4,1.2-0.7,2.5-1.6,3.6l1.2,1.7h-1.1l-0.8-1.1c-0.9,0.8-1.7,1.3-2.8,1.3
			c-1.7,0-2.8-0.9-2.5-2.4C442.1,67.5,443.3,66.8,444.4,66.2C444.4,66.2,444.4,66.2,444.4,66.2z M444.8,66.7c-0.6,0.4-2,1.2-2.1,1.9
			c-0.3,1.2,0.6,1.9,1.8,1.9c0.9,0,1.6-0.4,2.4-1.1L444.8,66.7z M446.6,64.1c0.1-0.6-0.3-0.8-0.8-0.8c-0.5,0-1.1,0.2-1.2,0.8
			s0.3,1.2,0.5,1.6C445.7,65.3,446.5,64.8,446.6,64.1z"/>
		<path fill="#D9DAD5" d="M453.6,64.3l1.1-1.6l0.5,0.3l-1.3,1.5l1.7-0.1l-0.1,0.7l-1.6-0.1l0.7,1.5l-0.7,0.3l-0.4-1.6l-1.1,1.6
			l-0.5-0.3l1.3-1.5l-1.7,0.1l0.1-0.7l1.6,0.1l-0.7-1.4l0.7-0.3L453.6,64.3z"/>
		<path fill="#D9DAD5" d="M457.2,72.1c-0.3-1.5-0.6-3-0.2-4.7c0.3-1.6,1.3-3.2,2.2-4.7h0.6c-0.9,1.5-1.7,3.2-2,4.7
			c-0.3,1.6-0.2,3.3,0,4.7H457.2z"/>
		<path fill="#D9DAD5" d="M458.8,72.1c0.8-1.4,1.7-3.1,2-4.7c0.3-1.5,0.3-3.1,0-4.7h0.6c0.3,1.5,0.6,3.1,0.3,4.7
			c-0.4,1.7-1.4,3.2-2.2,4.7H458.8z"/>
		<path fill="#D9DAD5" d="M468.7,69.6h-5.7l0.1-0.7h5.7L468.7,69.6z M469.2,67.4h-5.7l0.1-0.7h5.7L469.2,67.4z"/>
		<path fill="#D9DAD5" d="M472.3,70.1l-0.2,1h-0.9l0.2-1H472.3z M471.7,69.1l0.3-1.2c0.3-1.1,2.5-1.8,2.8-3.2
			c0.2-1.1-0.6-1.4-1.6-1.4c-0.4,0-0.7,0.1-1.1,0.2l0.1-0.7c0.4-0.1,0.9-0.2,1.3-0.2c1.3,0,2.3,0.7,2,2.1c-0.2,1-0.9,1.5-1.6,2.1
			c-1,0.8-1.3,0.9-1.3,1.6l-0.2,0.8H471.7z"/>
	</g>
	<rect x="334.9" y="0.1" fill="none" width="32.7" height="3.6"/>
	<g>
		<path fill="#D9DAD5" d="M335.6,0.1V2c0,0.5,0.3,0.9,0.8,0.9s0.8-0.3,0.8-0.9V0.1h0.3V2c0,0.6-0.4,1.1-1.1,1.1s-1.1-0.5-1.1-1.1
			V0.1H335.6z"/>
		<path fill="#D9DAD5" d="M338.2,0.1h0.3l1.6,2.6h0V0.1h0.3V3h-0.3l-1.6-2.5h0V3h-0.3V0.1z"/>
		<path fill="#D9DAD5" d="M341.2,3V0h0.3v3H341.2z"/>
		<path fill="#D9DAD5" d="M343.2,2.7L343.2,2.7l0.9-2.7h0.3L343.3,3H343l-1.1-2.9h0.3L343.2,2.7z"/>
		<path fill="#D9DAD5" d="M344.8,3V0.1h1.7v0.2h-1.5v1.1h1.4v0.2h-1.4v1.2h1.5V3H344.8z"/>
		<path fill="#D9DAD5" d="M347.6,3h-0.3V0.1h1c0.3,0,0.5,0,0.7,0.2c0.2,0.1,0.3,0.3,0.3,0.6c0,0.3-0.2,0.5-0.6,0.6v0
			c0.4,0.1,0.5,0.3,0.5,0.7c0.1,0.5,0,0.7,0.2,0.9H349c-0.1-0.2-0.1-0.4-0.1-0.6c-0.1-0.7-0.1-0.8-0.6-0.8h-0.7V3z M348.1,1.4
			c0.4,0,0.8,0,0.8-0.5c0-0.6-0.5-0.5-0.8-0.5h-0.6v1.1H348.1z"/>
		<path fill="#D9DAD5" d="M350.6,3.1c-0.5,0-0.9-0.3-0.9-0.8h0.3c0,0.5,0.3,0.6,0.7,0.6c0.3,0,0.7-0.2,0.7-0.6
			c0-0.3-0.2-0.4-0.5-0.5c-0.5-0.2-1.2-0.3-1.2-0.9c0-0.5,0.5-0.8,0.9-0.8c0.4,0,0.9,0.1,1,0.7h-0.3c0-0.4-0.3-0.5-0.6-0.5
			c-0.3,0-0.7,0.2-0.7,0.5c0,0.8,1.7,0.5,1.7,1.5C351.8,2.9,351.2,3.1,350.6,3.1z"/>
		<path fill="#D9DAD5" d="M353.5,3V0.1h0.3v2.7h1.5V3H353.5z"/>
		<path fill="#D9DAD5" d="M356,0.3h-0.9V0.1h2.2v0.2h-0.9l0,2.7H356L356,0.3z"/>
		<path fill="#D9DAD5" d="M359.5,3.1c-0.5,0-0.9-0.3-0.9-0.8h0.3c0,0.5,0.3,0.6,0.7,0.6c0.3,0,0.7-0.2,0.7-0.6
			c0-0.3-0.2-0.4-0.5-0.5c-0.5-0.2-1.2-0.3-1.2-0.9c0-0.5,0.5-0.8,0.9-0.8c0.4,0,0.9,0.1,1,0.7h-0.3c0-0.4-0.3-0.5-0.6-0.5
			c-0.3,0-0.7,0.2-0.7,0.5c0,0.8,1.7,0.5,1.7,1.5C360.6,2.9,360.1,3.1,359.5,3.1z"/>
		<path fill="#D9DAD5" d="M361.8,0.3h-0.9V0.1h2.2v0.2h-0.9l0,2.7h-0.3L361.8,0.3z"/>
		<path fill="#D9DAD5" d="M364.2,0.1c1,0,1.5,0.5,1.5,1.5S365.2,3,364.2,3h-0.8V0.1H364.2z M364.3,2.8c0.8,0,1.2-0.5,1.2-1.2
			c0-0.9-0.5-1.3-1.3-1.2h-0.4v2.5H364.3z"/>
	</g>
</g>
</svg>
