<?xml version="1.0" standalone="no"?>
<!DOCTYPE svg PUBLIC "-//W3C//DTD SVG 1.1//EN" "http://www.w3.org/Graphics/SVG/1.1/DTD/svg11.dtd" >
<svg xmlns="http://www.w3.org/2000/svg" xmlns:xlink="http://www.w3.org/1999/xlink" version="1.1">
<metadata>
Created by FontForge 20170731 at Tue Nov 17 16:38:36 2020
 By Aleksey,,,
Copyright 2020, Kris Sowersby, Klim Type Foundry.
</metadata>
<defs>
<font id="Sohne-Buch" horiz-adv-x="608" >
  <font-face 
    font-family="So:hne"
    font-weight="400"
    font-stretch="normal"
    units-per-em="1000"
    panose-1="2 11 5 3 3 2 2 6 2 3"
    ascent="780"
    descent="-220"
    x-height="523"
    cap-height="718"
    bbox="-202 -197 1019 985"
    underline-thickness="75"
    underline-position="-225"
    unicode-range="U+000D-F6C3"
  />
<missing-glyph horiz-adv-x="600" 
d="M0 0v718h600v-718h-600zM132 242l51 -51l117 117l118 -117l50 51l-116 118l116 117l-50 51l-118 -117l-117 117l-51 -51l117 -117z" />
    <glyph glyph-name="f_idieresis" unicode="f&#xef;" horiz-adv-x="547" 
d="M276 729q20 0 43 -3t43 -9v-79q-21 5 -44.5 8t-43.5 3q-46 0 -69 -23.5t-23 -70.5v-32h116v-77h-116v-446h-90v446h-79v77h79v38q0 80 48 124t136 44zM563 610h-100v104h100v-104zM382 523h90v-523h-90v523z" />
    <glyph glyph-name=".notdef" horiz-adv-x="600" 
d="M0 0v718h600v-718h-600zM132 242l51 -51l117 117l118 -117l50 51l-116 118l116 117l-50 51l-118 -117l-117 117l-51 -51l117 -117z" />
    <glyph glyph-name=".null" horiz-adv-x="0" 
 />
    <glyph glyph-name=".null" horiz-adv-x="0" 
 />
    <glyph glyph-name="nonmarkingreturn" unicode="&#xd;" horiz-adv-x="211" 
 />
    <glyph glyph-name="space" unicode=" " horiz-adv-x="211" 
 />
    <glyph glyph-name="exclam" unicode="!" horiz-adv-x="222" 
d="M145 213h-67l-23 505h113zM168 0h-114v118h114v-118z" />
    <glyph glyph-name="quotedbl" unicode="&#x22;" horiz-adv-x="330" 
d="M119 446h-63l-22 272h106zM274 446h-63l-22 272h106z" />
    <glyph glyph-name="numbersign" unicode="#" horiz-adv-x="660" 
d="M163 0h-81l49 207h-96v73h113l38 158h-115v73h132l49 207h83l-50 -207h162l50 207h81l-49 -207h97v-73h-114l-38 -158h116v-73h-133l-49 -207h-83l50 207h-162zM268 438l-38 -158h162l38 158h-162z" />
    <glyph glyph-name="dollar" unicode="$" horiz-adv-x="577" 
d="M6 147l72 60q30 -58 76 -91t107 -40v257q-60 13 -93.5 25t-57.5 27q-36 24 -53 57.5t-17 78.5q0 83 62 139t159 64v95h73v-96q76 -9 133 -44.5t85 -92.5l-69 -58q-25 48 -62.5 77t-86.5 38v-238q60 -12 94.5 -25t59.5 -30q35 -24 52 -59.5t17 -82.5q0 -86 -61.5 -144
t-161.5 -69v-97h-73v96q-86 8 -153.5 48.5t-101.5 104.5zM128 527q0 -40 30 -65t103 -41v224q-60 -6 -96.5 -38t-36.5 -80zM469 202q0 43 -30.5 70t-104.5 45v-241q64 8 99.5 41t35.5 85z" />
    <glyph glyph-name="percent" unicode="%" horiz-adv-x="769" 
d="M180 367q-66 0 -104 49t-38 132t38 132t104 49t104 -49t38 -132t-38 -132t-104 -49zM580 718h88l-479 -718h-88zM180 666q-31 0 -49 -31.5t-18 -86.5t18 -87t49 -32t49 32t18 87t-18 86.5t-49 31.5zM589 351q66 0 104.5 -49t38.5 -132t-38.5 -132t-104.5 -49t-104 49
t-38 132t38 132t104 49zM589 289q-31 0 -49 -32t-18 -87q0 -54 18 -86t49 -32q32 0 50 32t18 86q0 55 -18 87t-50 32z" />
    <glyph glyph-name="ampersand" unicode="&#x26;" horiz-adv-x="700" 
d="M556 376l89 -15q-6 -62 -27 -119.5t-56 -104.5l138 -137h-122l-74 73q-48 -41 -106 -62.5t-123 -21.5q-104 0 -171 55t-67 142q0 64 35 112t115 89q-41 45 -59 83.5t-18 78.5q0 38 15.5 72t44.5 59q27 23 62 35.5t76 12.5q84 0 135.5 -46.5t51.5 -119.5q0 -58 -37 -100
t-134 -88l178 -177q22 37 35.5 82t18.5 97zM310 658q-47 0 -77 -29t-30 -76q0 -30 14.5 -58t53.5 -69q82 35 109.5 63.5t27.5 71.5q0 41 -27.5 69t-70.5 28zM134 195q0 -55 42.5 -90.5t105.5 -35.5q48 0 89.5 15.5t74.5 45.5l-206 204q-57 -31 -81.5 -63.5t-24.5 -75.5z" />
    <glyph glyph-name="quotesingle" unicode="'" horiz-adv-x="175" 
d="M119 446h-63l-22 272h106z" />
    <glyph glyph-name="parenleft" unicode="(" horiz-adv-x="313" 
d="M144 320q0 -114 43 -223.5t119 -194.5h-94q-83 88 -127 195.5t-44 222.5t44 222.5t127 195.5h94q-77 -86 -119.5 -195t-42.5 -223z" />
    <glyph glyph-name="parenright" unicode=")" horiz-adv-x="313" 
d="M169 320q0 114 -42.5 223t-119.5 195h94q83 -88 127 -195.5t44 -222.5t-44 -222.5t-127 -195.5h-94q76 85 119 194.5t43 223.5z" />
    <glyph glyph-name="asterisk" unicode="*" horiz-adv-x="432" 
d="M360 401l-56 -40l-88 121l-89 -121l-55 40l88 121l-143 47l21 65l143 -46v150h69v-150l144 46l20 -65l-143 -47z" />
    <glyph glyph-name="plus" unicode="+" 
d="M558 382v-80h-214v-214h-80v214h-214v80h214v215h80v-215h214z" />
    <glyph glyph-name="comma" unicode="," horiz-adv-x="223" 
d="M106 0h-52v118h114v-124q0 -58 -34.5 -91.5t-95.5 -35.5v52q34 2 51 20t17 53v8z" />
    <glyph glyph-name="hyphen" unicode="-" horiz-adv-x="375" 
d="M324 251h-273v81h273v-81z" />
    <glyph glyph-name="period" unicode="." horiz-adv-x="223" 
d="M168 0h-114v118h114v-118z" />
    <glyph glyph-name="slash" unicode="/" horiz-adv-x="402" 
d="M102 -98h-92l290 836h92z" />
    <glyph glyph-name="zero" unicode="0" horiz-adv-x="623" 
d="M98 111q-29 48 -44.5 111t-15.5 137t15.5 137t44.5 111q37 60 91.5 91t122.5 31t122.5 -31.5t90.5 -90.5q29 -48 44.5 -111t15.5 -137t-15.5 -137t-44.5 -111q-36 -59 -90.5 -90.5t-122.5 -31.5t-122.5 31t-91.5 91zM312 645q-84 0 -131 -76.5t-47 -209.5t47 -209.5
t131 -76.5q83 0 130.5 77t47.5 209t-47.5 209t-130.5 77z" />
    <glyph glyph-name="one" unicode="1" horiz-adv-x="376" 
d="M220 722h72v-722h-96v528h-173v71l77 5q63 4 89 29.5t31 88.5z" />
    <glyph glyph-name="two" unicode="2" horiz-adv-x="559" 
d="M34 0v79l212 176q45 37 70.5 60.5t43.5 44.5q31 36 45.5 70t14.5 69q0 67 -40 107.5t-105 40.5q-63 0 -104 -42.5t-41 -105.5q0 -19 4 -38.5t12 -39.5h-90q-9 24 -12.5 43.5t-3.5 39.5q0 47 18.5 89t52.5 73q33 30 75.5 46.5t90.5 16.5q107 0 172 -61.5t65 -162.5
q0 -73 -41 -138.5t-146 -150.5l-162 -132h363v-84h-494z" />
    <glyph glyph-name="three" unicode="3" horiz-adv-x="570" 
d="M461 43q-33 -26 -76.5 -40t-93.5 -14q-108 0 -180.5 58t-88.5 160l93 20q10 -73 57.5 -115.5t117.5 -42.5t112 37.5t42 99.5q0 59 -43 93t-117 34h-77v81h78q64 0 101.5 30.5t37.5 83.5q0 55 -35.5 87.5t-97.5 32.5q-64 0 -107 -39t-55 -108l-86 17q15 95 83 153t167 58
q101 0 161 -53.5t60 -142.5q0 -55 -31 -98.5t-80 -59.5q63 -18 98.5 -63t35.5 -111q0 -47 -19.5 -88t-56.5 -70z" />
    <glyph glyph-name="four" unicode="4" horiz-adv-x="602" 
d="M451 187v-187h-89v187h-347v75l315 456h122v-451h139v-80h-140zM361 626l-248 -359h248v359z" />
    <glyph glyph-name="five" unicode="5" horiz-adv-x="570" 
d="M293 395q-41 0 -75.5 -16.5t-54.5 -44.5l-88 15l31 369h391v-84h-317l-19 -217q27 27 64 41.5t79 14.5q51 0 94 -17.5t75 -51.5q30 -33 46.5 -77t16.5 -94t-19 -95.5t-54 -79.5q-35 -33 -81 -51t-97 -18q-103 0 -171.5 56t-86.5 156l92 19q11 -70 55.5 -110.5
t110.5 -40.5q68 0 114.5 46.5t46.5 115.5q0 70 -43.5 117t-109.5 47z" />
    <glyph glyph-name="six" unicode="6" horiz-adv-x="589" 
d="M325 729q86 0 144 -42.5t83 -123.5l-79 -33q-17 58 -55.5 88.5t-95.5 30.5q-46 0 -86 -24.5t-66 -70.5q-22 -36 -33 -82.5t-11 -99.5v-4.5v-5.5q27 52 79 82.5t115 30.5q49 0 92 -18t76 -52q32 -33 49 -76.5t17 -92.5q0 -51 -18.5 -96.5t-53.5 -79.5q-34 -34 -80 -52.5
t-97 -18.5q-126 0 -196.5 98t-70.5 265q0 74 17 138.5t49 114.5q39 60 96 92t125 32zM305 68q69 0 115 47t46 116q0 70 -46 117.5t-114 47.5t-115 -48t-47 -117t46 -116t115 -47z" />
    <glyph glyph-name="seven" unicode="7" horiz-adv-x="533" 
d="M421 635h-327v-123h-84v206h513v-83q-122 -136 -174.5 -280t-52.5 -355h-97q0 200 54 354t168 281z" />
    <glyph glyph-name="eight" unicode="8" horiz-adv-x="598" 
d="M71 537q0 85 64 138.5t164 53.5t164.5 -53.5t64.5 -138.5q0 -54 -29.5 -94.5t-83.5 -61.5q69 -21 109.5 -70t40.5 -113q0 -93 -74 -150.5t-192 -57.5q-117 0 -191 57.5t-74 150.5q0 64 40.5 113t108.5 70q-54 21 -83 61.5t-29 94.5zM157 536q0 -53 39 -85t103 -32t103 32
t39 85t-39 85t-103 32q-63 0 -102.5 -32.5t-39.5 -84.5zM472 204q0 60 -48.5 98t-124.5 38t-123.5 -38t-47.5 -98q0 -61 47.5 -99.5t123.5 -38.5t124.5 38.5t48.5 99.5z" />
    <glyph glyph-name="nine" unicode="9" horiz-adv-x="589" 
d="M264 -11q-86 0 -144 42.5t-83 123.5l79 33q17 -58 55.5 -88.5t95.5 -30.5q46 0 86 24.5t66 70.5q22 36 33 82.5t11 99.5v5.5v4.5q-27 -52 -79 -82.5t-115 -30.5q-49 0 -92 18t-76 52q-32 33 -49 76.5t-17 92.5q0 51 18.5 96.5t53.5 79.5q34 34 80 52.5t97 18.5
q126 0 196.5 -98t70.5 -265q0 -74 -17 -138.5t-49 -114.5q-39 -60 -96 -92t-125 -32zM284 650q-69 0 -115 -47t-46 -116q0 -70 46 -117.5t114 -47.5t115 48t47 117t-46 116t-115 47z" />
    <glyph glyph-name="colon" unicode=":" horiz-adv-x="223" 
d="M168 0h-114v118h114v-118zM168 364h-114v118h114v-118z" />
    <glyph glyph-name="semicolon" unicode=";" horiz-adv-x="223" 
d="M106 0h-52v118h114v-124q0 -58 -34.5 -91.5t-95.5 -35.5v52q34 2 51 20t17 53v8zM168 364h-114v118h114v-118z" />
    <glyph glyph-name="less" unicode="&#x3c;" 
d="M546 75l-484 218v101l484 218v-91l-405 -178l405 -178v-90z" />
    <glyph glyph-name="equal" unicode="=" 
d="M551 407h-494v79h494v-79zM551 197h-494v79h494v-79z" />
    <glyph glyph-name="greater" unicode="&#x3e;" 
d="M546 394v-101l-484 -218v90l405 178l-405 178v91z" />
    <glyph glyph-name="question" unicode="?" horiz-adv-x="514" 
d="M401 513q0 60 -39 97t-102 37q-66 0 -108.5 -40t-53.5 -112l-91 15q14 98 84 158.5t173 60.5t167.5 -59t64.5 -152q0 -41 -14.5 -77t-41.5 -65q-27 -27 -62.5 -44.5t-75.5 -22.5v-96h-87v160q86 0 136 37.5t50 102.5zM316 0h-114v118h114v-118z" />
    <glyph glyph-name="at" unicode="@" horiz-adv-x="887" 
d="M651 108q28 0 53 19t42 54q12 25 18 56.5t6 67.5q0 63 -22 114.5t-65 88.5q-40 35 -94 53t-118 18q-72 0 -136.5 -27t-113.5 -77q-48 -50 -74 -115t-26 -138q0 -71 24.5 -130t70.5 -101q45 -40 106 -61t133 -21q69 0 126.5 16.5t107.5 50.5l37 -60q-54 -39 -122 -59
t-148 -20q-88 0 -163.5 26t-131.5 76q-59 52 -89.5 124.5t-30.5 159.5t33 165.5t93 138.5q61 59 140 90.5t167 31.5q76 0 143.5 -23t118.5 -67q54 -46 82.5 -110t28.5 -139q0 -53 -12.5 -98.5t-35.5 -81.5q-29 -42 -70 -65.5t-87 -23.5q-45 0 -73.5 17t-39.5 50
q-20 -33 -55.5 -51.5t-77.5 -18.5q-69 0 -111.5 46.5t-42.5 124.5q0 46 13.5 89t38.5 78q29 39 67.5 60.5t81.5 21.5q42 0 74 -19.5t43 -51.5l13 63h81l-49 -269q-6 -37 5 -55t41 -18zM416 111q40 0 69 31t40 85q6 31 8.5 48t2.5 28q0 36 -21.5 59.5t-56.5 23.5
q-54 0 -90 -50.5t-36 -124.5q0 -47 22.5 -73.5t61.5 -26.5z" />
    <glyph glyph-name="A" unicode="A" horiz-adv-x="692" 
d="M16 0l277 718h106l277 -718h-97l-73 189h-322l-72 -189h-96zM474 273l-130 337l-128 -337h258z" />
    <glyph glyph-name="B" unicode="B" horiz-adv-x="639" 
d="M365 0h-286v718h265q113 0 173 -48t60 -139q0 -58 -29 -98.5t-82 -58.5q63 -17 99 -63.5t36 -112.5q0 -93 -63 -145.5t-173 -52.5zM172 637v-227h164q74 0 111.5 28.5t37.5 84.5t-37.5 85t-111.5 29h-164zM361 328h-189v-247h189q69 0 108.5 33t39.5 91q0 57 -39.5 90
t-108.5 33z" />
    <glyph glyph-name="C" unicode="C" horiz-adv-x="659" 
d="M187 553q-26 -38 -40 -87.5t-14 -106.5t14 -106.5t40 -87.5q31 -44 75.5 -67.5t97.5 -23.5q69 0 117.5 38t68.5 107l91 -30q-32 -95 -104.5 -147.5t-172.5 -52.5q-72 0 -134 29.5t-106 83.5q-41 50 -62 116t-21 141t21 141t62 116q44 54 106 83.5t134 29.5
q100 0 172.5 -52.5t104.5 -147.5l-91 -30q-20 69 -68.5 107t-117.5 38q-53 0 -97.5 -23.5t-75.5 -67.5z" />
    <glyph glyph-name="D" unicode="D" horiz-adv-x="701" 
d="M307 0h-228v718h228q80 0 146 -25t114 -72q47 -48 71.5 -114.5t24.5 -147.5t-24.5 -147.5t-71.5 -114.5q-48 -47 -114 -72t-146 -25zM173 635v-552h134q121 0 191.5 74.5t70.5 201.5t-70.5 201.5t-192.5 74.5h-133z" />
    <glyph glyph-name="E" unicode="E" horiz-adv-x="595" 
d="M79 0v718h469v-84h-374v-221h317v-84h-317v-245h374v-84h-469z" />
    <glyph glyph-name="F" unicode="F" horiz-adv-x="581" 
d="M174 319v-319h-95v718h464v-84h-369v-231h312v-84h-312z" />
    <glyph glyph-name="G" unicode="G" horiz-adv-x="720" 
d="M653 0h-88v107q-23 -53 -80 -85.5t-129 -32.5q-71 0 -132.5 29.5t-104.5 83.5q-40 50 -61 115t-21 140q0 76 21.5 142t62.5 116q44 55 106.5 84.5t134.5 29.5q101 0 173.5 -52t105.5 -147l-92 -30q-20 69 -68 106.5t-118 37.5q-54 0 -99 -23.5t-76 -67.5q-27 -38 -41 -88
t-14 -107t14 -107t42 -88q31 -44 76 -67.5t99 -23.5q86 0 140 60t56 157h-206v84h299v-373z" />
    <glyph glyph-name="H" unicode="H" horiz-adv-x="735" 
d="M560 413v305h96v-718h-96v329h-385v-329h-96v718h96v-305h385z" />
    <glyph glyph-name="I" unicode="I" horiz-adv-x="254" 
d="M79 718h96v-718h-96v718z" />
    <glyph glyph-name="J" unicode="J" horiz-adv-x="414" 
d="M129 -8q-28 0 -52 2.5t-50 7.5v86q28 -6 48 -8t43 -2q72 0 103 30.5t31 98.5v511h96v-518q0 -104 -55 -156t-164 -52z" />
    <glyph glyph-name="K" unicode="K" horiz-adv-x="643" 
d="M79 718h96v-363l334 363h115l-291 -313l305 -405h-113l-256 336l-94 -101v-235h-96v718z" />
    <glyph glyph-name="L" unicode="L" horiz-adv-x="550" 
d="M533 0h-454v718h96v-634h358v-84z" />
    <glyph glyph-name="M" unicode="M" horiz-adv-x="854" 
d="M685 591l-220 -591h-77l-219 591v-591h-90v718h131l218 -590l219 590h127v-718h-89v591z" />
    <glyph glyph-name="N" unicode="N" horiz-adv-x="725" 
d="M553 718h93v-718h-83l-392 578v-578h-92v718h101l373 -555v555z" />
    <glyph glyph-name="O" unicode="O" horiz-adv-x="726" 
d="M121 102q-41 50 -62.5 115.5t-21.5 141.5t21.5 141.5t62.5 115.5q45 55 107.5 84t134.5 29t134.5 -29t106.5 -84q41 -50 62.5 -115.5t21.5 -141.5t-21.5 -141.5t-62.5 -115.5q-44 -55 -106.5 -84t-134.5 -29t-134.5 29t-107.5 84zM538 165q27 38 41 87.5t14 106.5
t-14 106.5t-41 87.5q-32 44 -77 67.5t-98 23.5t-98 -23.5t-77 -67.5q-27 -38 -41 -87.5t-14 -106.5t14 -106.5t41 -87.5q32 -44 77 -67.5t98 -23.5t98 23.5t77 67.5z" />
    <glyph glyph-name="P" unicode="P" horiz-adv-x="622" 
d="M353 301h-178v-301h-96v718h274q118 0 183.5 -54.5t65.5 -153.5t-66 -154t-183 -55zM175 635v-251h173q77 0 118 32.5t41 93.5q0 60 -41 92.5t-118 32.5h-173z" />
    <glyph glyph-name="Q" unicode="Q" horiz-adv-x="726" 
d="M121 102q-41 50 -62.5 115.5t-21.5 141.5t21.5 141.5t62.5 115.5q45 55 107.5 84t134.5 29t134.5 -29t106.5 -84q41 -50 62.5 -115.5t21.5 -141.5q0 -102 -38.5 -184.5t-107.5 -130.5q21 -30 58.5 -54t81.5 -35l-56 -69q-49 14 -93.5 47t-66.5 72q-25 -8 -51 -12t-52 -4
q-72 0 -134.5 29t-107.5 84zM538 165q27 38 41 87.5t14 106.5t-14 106.5t-41 87.5q-32 44 -77 67.5t-98 23.5t-98 -23.5t-77 -67.5q-27 -38 -41 -87.5t-14 -106.5t14 -106.5t41 -87.5q32 -44 77 -67.5t98 -23.5t98 23.5t77 67.5z" />
    <glyph glyph-name="R" unicode="R" horiz-adv-x="648" 
d="M314 301h-139v-301h-96v718h274q118 0 183.5 -54.5t65.5 -153.5q0 -84 -48 -136.5t-136 -67.5l199 -306h-110zM175 635v-251h173q77 0 118 32.5t41 93.5q0 60 -41 92.5t-118 32.5h-173z" />
    <glyph glyph-name="S" unicode="S" horiz-adv-x="587" 
d="M296 -11q-95 0 -175.5 44t-116.5 115l75 60q34 -64 91.5 -100t127.5 -36q74 0 119.5 35t45.5 93q0 33 -16.5 55.5t-53.5 38.5q-15 6 -34.5 12t-87.5 22q-64 15 -97 27.5t-56 27.5q-37 24 -54.5 58t-17.5 80q0 47 19.5 86.5t56.5 68.5q33 26 76.5 39.5t92.5 13.5
q87 0 155 -37.5t103 -103.5l-73 -58q-31 59 -77.5 87.5t-109.5 28.5q-66 0 -108 -33t-42 -84q0 -30 14.5 -50t45.5 -35q15 -6 36.5 -12.5t71.5 -18.5q84 -20 115.5 -31t54.5 -25q41 -25 60.5 -61.5t19.5 -87.5q0 -49 -21 -91t-61 -72q-35 -27 -81.5 -41.5t-97.5 -14.5z" />
    <glyph glyph-name="T" unicode="T" horiz-adv-x="616" 
d="M599 718v-84h-243v-634h-96v634h-243v84h582z" />
    <glyph glyph-name="U" unicode="U" horiz-adv-x="697" 
d="M348 -10q-131 0 -206.5 77.5t-75.5 216.5v434h96v-431q0 -102 48.5 -156.5t137.5 -54.5t138 54.5t49 156.5v431h96v-434q0 -139 -75.5 -216.5t-207.5 -77.5z" />
    <glyph glyph-name="V" unicode="V" horiz-adv-x="678" 
d="M661 718l-271 -718h-101l-273 718h103l222 -598l222 598h98z" />
    <glyph glyph-name="W" unicode="W" horiz-adv-x="921" 
d="M268 143l151 575h85l152 -575l153 575h95l-197 -718h-94l-153 559l-152 -559h-94l-198 718h99z" />
    <glyph glyph-name="X" unicode="X" horiz-adv-x="654" 
d="M523 718h106l-246 -353l254 -365h-108l-203 294l-204 -294h-106l255 364l-247 354h108l196 -282z" />
    <glyph glyph-name="Y" unicode="Y" horiz-adv-x="626" 
d="M109 718l205 -329l205 329h102l-260 -416v-302h-96v302l-260 416h104z" />
    <glyph glyph-name="Z" unicode="Z" horiz-adv-x="620" 
d="M159 84h426v-84h-547v74l422 560h-417v84h538v-74z" />
    <glyph glyph-name="bracketleft" unicode="[" horiz-adv-x="315" 
d="M298 663h-146v-687h146v-74h-237v836h237v-75z" />
    <glyph glyph-name="backslash" unicode="\" horiz-adv-x="402" 
d="M300.006 -98h91.9951l-289.982 836h-91.9951z" />
    <glyph glyph-name="bracketright" unicode="]" horiz-adv-x="315" 
d="M163 -24v687h-146v75h237v-836h-237v74h146z" />
    <glyph glyph-name="asciicircum" unicode="^" horiz-adv-x="456" 
d="M20 417l164 301h88l163 -301h-94l-113 213l-115 -213h-93z" />
    <glyph glyph-name="underscore" unicode="_" horiz-adv-x="430" 
d="M379 -134h-328v77h328v-77z" />
    <glyph glyph-name="grave" unicode="`" horiz-adv-x="600" 
d="M333 718l59 -139h-71l-101 139h113z" />
    <glyph glyph-name="a" unicode="a" horiz-adv-x="526" 
d="M367 59q-25 -32 -67.5 -50t-93.5 -18q-75 0 -123.5 41.5t-48.5 108.5t46.5 108t151.5 63l127 26v22q0 46 -26 70t-77 24q-48 0 -78.5 -22t-42.5 -67l-85 22q20 67 76 106.5t133 39.5q91 0 140 -44t49 -125v-255q0 -24 14.5 -33.5t41.5 -3.5v-72q-61 -8 -95 7t-42 52z
M217 64q60 0 101 32.5t41 81.5v90l-102 -22q-75 -15 -104.5 -38.5t-29.5 -62.5q0 -38 25 -59.5t69 -21.5z" />
    <glyph glyph-name="b" unicode="b" horiz-adv-x="594" 
d="M498 73q-31 -41 -74.5 -62.5t-96.5 -21.5q-52 0 -95 23t-67 64v-76h-90v718h90v-271q25 40 67.5 63t94.5 23q53 0 97 -21.5t75 -62.5q27 -37 41.5 -85t14.5 -103q0 -54 -14.5 -102.5t-42.5 -85.5zM311 454q-65 0 -106.5 -47t-41.5 -128v-37q0 -80 41.5 -127t106.5 -47
q70 0 111.5 52.5t41.5 140.5t-41 140.5t-112 52.5z" />
    <glyph glyph-name="c" unicode="c" horiz-adv-x="520" 
d="M286 455q-71 0 -114 -53t-43 -141t43 -140.5t114 -52.5q50 0 84 29t46 82l80 -37q-20 -70 -76.5 -111.5t-133.5 -41.5q-55 0 -102 20.5t-80 59.5q-32 37 -48.5 86t-16.5 106t16.5 106t48.5 86q33 39 80 59.5t102 20.5q77 0 132.5 -40.5t75.5 -109.5l-78 -39
q-12 53 -46 82t-84 29z" />
    <glyph glyph-name="d" unicode="d" horiz-adv-x="593" 
d="M267 -11q-53 0 -96.5 21.5t-74.5 62.5q-28 37 -42.5 85.5t-14.5 102.5q0 55 14.5 103t41.5 85q31 41 75 62.5t97 21.5q52 0 94.5 -23t67.5 -63v271h90v-718h-90v76q-24 -41 -67 -64t-95 -23zM431 242v37q0 81 -41.5 128t-106.5 47q-71 0 -112 -52.5t-41 -140.5
t41.5 -140.5t111.5 -52.5q65 0 106.5 47t41.5 127z" />
    <glyph glyph-name="e" unicode="e" horiz-adv-x="540" 
d="M284 -11q-55 0 -101.5 20.5t-79.5 60.5q-31 36 -47.5 85t-16.5 106q0 55 16 104t47 86q33 40 79 61t99 21q103 0 163 -70t60 -186v-30h-378q4 -82 47 -131t112 -49q52 0 88 26.5t48 73.5l79 -28q-24 -71 -81 -110.5t-134 -39.5zM279 456q-58 0 -97.5 -37t-51.5 -103h282
q-2 64 -37 102t-96 38z" />
    <glyph glyph-name="f" unicode="f" horiz-adv-x="307" 
d="M255 729q13 0 29 -1t19 -1v-80q-8 1 -15.5 1.5t-23.5 0.5q-43 0 -62.5 -21.5t-19.5 -68.5v-36h116v-77h-116v-446h-90v446h-79v77h79v42q0 78 42.5 121t120.5 43z" />
    <glyph glyph-name="g" unicode="g" horiz-adv-x="593" 
d="M518 523v-476q0 -110 -66 -174t-177 -64q-87 0 -147 39t-81 110l84 32q13 -50 51 -78t93 -28q75 0 114 40t39 116v59q-22 -40 -65 -63.5t-95 -23.5t-95 20.5t-74 58.5q-28 36 -43 82.5t-15 99.5t15 99.5t43 81.5q31 39 74 59t95 20t95 -23.5t65 -63.5v77h90zM429 262v19
q0 79 -40.5 126t-104.5 47q-71 0 -112 -49t-41 -132t41.5 -132.5t111.5 -49.5q64 0 104.5 46.5t40.5 124.5z" />
    <glyph glyph-name="h" unicode="h" horiz-adv-x="564" 
d="M165 0h-90v718h90v-266q27 39 67.5 60t88.5 21q80 0 127 -51t47 -137v-345h-90v321q0 62 -28 95t-81 33q-54 0 -92.5 -38.5t-38.5 -98.5v-312z" />
    <glyph glyph-name="i" unicode="i" horiz-adv-x="240" 
d="M169 614h-98v104h98v-104zM75 523h90v-523h-90v523z" />
    <glyph glyph-name="j" unicode="j" horiz-adv-x="240" 
d="M169 614h-98v104h98v-104zM3 -105q38 0 55 18.5t17 59.5v550h90v-566q0 -67 -38.5 -103.5t-108.5 -36.5q-14 0 -25 0.5t-25 2.5v78q9 -2 17 -2.5t18 -0.5z" />
    <glyph glyph-name="k" unicode="k" horiz-adv-x="534" 
d="M75 718h90v-439l232 244h112l-204 -206l221 -317h-105l-180 252l-76 -77v-175h-90v718z" />
    <glyph glyph-name="l" unicode="l" horiz-adv-x="240" 
d="M75 718h90v-718h-90v718z" />
    <glyph glyph-name="m" unicode="m" horiz-adv-x="871" 
d="M199 408q-16 -19 -25 -43t-9 -52v-313h-90v523h90v-71q25 39 64 60t87 21q50 0 87 -23t58 -66q28 42 72 65.5t95 23.5q79 0 126 -51.5t47 -136.5v-345h-90v321q0 61 -27 94.5t-77 33.5q-25 0 -48.5 -11t-41.5 -30q-16 -19 -25 -43t-9 -52v-313h-90v321q0 61 -27 94.5
t-77 33.5q-25 0 -48.5 -11t-41.5 -30z" />
    <glyph glyph-name="n" unicode="n" horiz-adv-x="564" 
d="M165 0h-90v523h90v-71q27 39 67.5 60t88.5 21q80 0 127 -51t47 -137v-345h-90v321q0 62 -28 95t-81 33q-54 0 -92.5 -38.5t-38.5 -98.5v-312z" />
    <glyph glyph-name="o" unicode="o" horiz-adv-x="564" 
d="M462 452q31 -36 47 -85t16 -106t-16 -106t-47 -85q-33 -39 -79.5 -60t-100.5 -21t-100.5 21t-79.5 60q-31 36 -47 85t-16 106t16 106t47 85q33 39 79.5 60t100.5 21t100.5 -21t79.5 -60zM282 457q-69 0 -110.5 -53t-41.5 -143q0 -89 41.5 -142t110.5 -53t110.5 53
t41.5 142q0 90 -41.5 143t-110.5 53z" />
    <glyph glyph-name="p" unicode="p" horiz-adv-x="594" 
d="M498 73q-31 -41 -74.5 -62.5t-96.5 -21.5q-52 0 -95 23t-67 64v-256h-90v703h90v-76q25 40 67.5 63t94.5 23q53 0 97 -21.5t75 -62.5q27 -37 41.5 -85t14.5 -103q0 -54 -14.5 -102.5t-42.5 -85.5zM311 454q-65 0 -106.5 -47t-41.5 -128v-37q0 -80 41.5 -127t106.5 -47
q70 0 111.5 52.5t41.5 140.5t-41 140.5t-112 52.5z" />
    <glyph glyph-name="q" unicode="q" horiz-adv-x="594" 
d="M267 -11q-53 0 -96.5 21.5t-74.5 62.5q-28 37 -42.5 85.5t-14.5 102.5q0 55 14.5 103t41.5 85q31 41 75 62.5t97 21.5q52 0 94.5 -23t67.5 -63v76h90v-703h-90v256q-24 -41 -67 -64t-95 -23zM431 242v37q0 81 -41.5 128t-106.5 47q-71 0 -112 -52.5t-41 -140.5
t41.5 -140.5t111.5 -52.5q65 0 106.5 47t41.5 127z" />
    <glyph glyph-name="r" unicode="r" horiz-adv-x="370" 
d="M310 527q9 0 18 -0.5t18 -1.5v-91q-11 2 -21 3t-23 1q-59 0 -98 -42.5t-39 -109.5v-286h-90v523h90v-89q19 43 57.5 68t87.5 25z" />
    <glyph glyph-name="s" unicode="s" horiz-adv-x="486" 
d="M247 -11q-77 0 -139.5 32.5t-90.5 89.5l70 51q21 -45 64.5 -71.5t95.5 -26.5t83.5 22t31.5 61q0 23 -11.5 38t-38.5 24q-11 4 -25 7.5t-61 13.5q-55 12 -79 20.5t-41 19.5q-29 17 -42.5 43t-13.5 62q0 69 54 113.5t138 44.5q68 0 123 -29.5t79 -78.5l-64 -51
q-21 41 -58 63t-84 22q-45 0 -72.5 -21t-27.5 -56q0 -20 10.5 -33t33.5 -22q10 -3 23.5 -7t51.5 -12q67 -16 89.5 -23.5t39.5 -17.5q33 -19 48.5 -46.5t15.5 -65.5q0 -72 -58 -119t-145 -47z" />
    <glyph glyph-name="t" unicode="t" horiz-adv-x="340" 
d="M229 -5q-75 0 -107.5 31t-32.5 99v321h-81v77h81v153h89v-153h119v-77h-119v-307q0 -35 15.5 -50t57.5 -15q18 0 30.5 1.5t26.5 4.5v-77q-18 -4 -38 -6t-41 -2z" />
    <glyph glyph-name="u" unicode="u" horiz-adv-x="564" 
d="M400 523h90v-523h-90v72q-27 -40 -67 -61.5t-88 -21.5q-81 0 -128 51t-47 137v346h90v-327q0 -61 27.5 -92.5t81.5 -31.5q55 0 93 38.5t38 97.5v315z" />
    <glyph glyph-name="v" unicode="v" horiz-adv-x="507" 
d="M494 523l-196 -523h-89l-196 523h95l147 -413l145 413h94z" />
    <glyph glyph-name="w" unicode="w" horiz-adv-x="720" 
d="M216 134l108 389h76l108 -390l109 390h90l-159 -523h-79l-109 388l-109 -388h-79l-159 523h93z" />
    <glyph glyph-name="x" unicode="x" horiz-adv-x="508" 
d="M499 0h-102l-145 206l-144 -206h-98l191 273l-175 250h103l126 -183l128 183h99l-175 -250z" />
    <glyph glyph-name="y" unicode="y" horiz-adv-x="507" 
d="M494 523l-225 -580q-27 -70 -65 -99.5t-97 -29.5q-16 0 -26.5 1t-22.5 3v78q12 -3 21.5 -4t21.5 -1q31 0 48.5 14.5t32.5 51.5l25 62l-194 504h95l147 -400l145 400h94z" />
    <glyph glyph-name="z" unicode="z" horiz-adv-x="495" 
d="M154 77h299v-77h-412v68l302 378h-298v77h405v-69z" />
    <glyph glyph-name="braceleft" unicode="{" horiz-adv-x="365" 
d="M67 283h-47v74h47q30 0 45.5 20t15.5 59v134q0 79 47.5 123.5t131.5 44.5h40v-75h-25q-57 0 -83.5 -27t-26.5 -86v-114q0 -44 -16.5 -72.5t-51.5 -43.5q35 -15 51.5 -43.5t16.5 -72.5v-114q0 -59 26.5 -86t83.5 -27h25v-75h-40q-84 0 -131.5 44.5t-47.5 123.5v134
q0 39 -15.5 59t-45.5 20z" />
    <glyph glyph-name="bar" unicode="|" horiz-adv-x="250" 
d="M169 -98h-88v836h88v-836z" />
    <glyph glyph-name="braceright" unicode="}" horiz-adv-x="365" 
d="M345 357v-74h-47q-30 0 -45.5 -20t-15.5 -59v-134q0 -79 -47.5 -123.5t-131.5 -44.5h-40v75h25q57 0 83.5 27t26.5 86v114q0 44 16.5 72.5t51.5 43.5q-35 15 -51.5 43.5t-16.5 72.5v114q0 59 -26.5 86t-83.5 27h-25v75h40q84 0 131.5 -44.5t47.5 -123.5v-134
q0 -39 15.5 -59t45.5 -20h47z" />
    <glyph glyph-name="asciitilde" unicode="~" horiz-adv-x="481" 
d="M169 392q17 0 34 -7.5t45 -30.5q23 -19 34.5 -24.5t22.5 -5.5q23 0 35.5 16t19.5 53h71q-6 -76 -37.5 -119t-81.5 -43q-17 0 -33.5 7.5t-44.5 30.5q-23 20 -34.5 25.5t-22.5 5.5q-23 0 -35.5 -16t-19.5 -53h-71q6 75 37.5 118t80.5 43z" />
    <glyph glyph-name="uni00A0" unicode="&#xa0;" horiz-adv-x="211" 
 />
    <glyph glyph-name="exclamdown" unicode="&#xa1;" horiz-adv-x="222" 
d="M145 505.013h-67l-23 -504.969h113zM168 718h-114v-117.993h114v117.993z" />
    <glyph glyph-name="cent" unicode="&#xa2;" horiz-adv-x="541" 
d="M316 -106h-70v98q-97 15 -155.5 89.5t-58.5 184.5q0 109 58.5 183.5t155.5 89.5v107h70v-105q71 -6 122.5 -46.5t73.5 -107.5l-75 -39q-12 50 -43 80.5t-78 36.5v-399q47 6 78 36.5t43 80.5l75 -39q-22 -67 -73.5 -107.5t-122.5 -46.5v-96zM118 266q0 -78 34 -130t94 -67
v393q-60 -15 -94 -67t-34 -129z" />
    <glyph glyph-name="sterling" unicode="&#xa3;" horiz-adv-x="613" 
d="M187 295h-117v72h79q-24 45 -33 74.5t-9 58.5q0 49 17.5 91.5t49.5 73.5t75 47.5t93 16.5q99 0 161 -62.5t62 -161.5q0 -22 -3.5 -42t-10.5 -42h-88q8 18 12 38.5t4 40.5q0 67 -37 108t-100 41q-65 0 -105 -42.5t-40 -110.5q0 -26 8 -52.5t35 -76.5h158v-72h-125
q8 -22 11.5 -43.5t3.5 -44.5q0 -14 -2 -30.5t-6 -32.5q28 -23 41.5 -32t24.5 -16q21 -12 40 -17.5t38 -5.5q46 0 68 28.5t24 88.5h80q0 -92 -43.5 -146.5t-116.5 -54.5q-46 0 -88 19t-95 66q-23 -41 -56.5 -63t-73.5 -22q-53 0 -86 31.5t-32 81.5q0 49 35.5 81t89.5 32
q20 0 39.5 -5.5t41.5 -16.5v4.5v4.5q0 22 -6 44.5t-18 48.5zM131 151q-24 0 -38.5 -13t-14.5 -35q0 -20 13 -33t34 -13q24 0 43 17t30 48q-19 15 -35.5 22t-31.5 7z" />
    <glyph glyph-name="yen" unicode="&#xa5;" horiz-adv-x="618" 
d="M264 189h-180v69h180v82h-180v69h139l-214 309h105l196 -292l197 292h103l-214 -309h139v-69h-181v-82h181v-69h-181v-189h-90v189z" />
    <glyph glyph-name="section" unicode="&#xa7;" horiz-adv-x="506" 
d="M247 -11q-77 0 -140 32.5t-92 89.5l71 51q20 -44 64.5 -71t97.5 -27t84.5 21.5t31.5 59.5q0 24 -12 39t-40 25q-10 4 -25 7.5t-63 13.5q-55 12 -79 20.5t-42 19.5q-28 17 -42 43t-14 62q0 31 13 57.5t39 46.5q-19 18 -28.5 40.5t-9.5 51.5q0 69 54.5 113.5t139.5 44.5
q68 0 123.5 -30t79.5 -79l-65 -51q-21 41 -57.5 63t-85.5 22q-46 0 -73.5 -20.5t-27.5 -55.5q0 -20 11 -33t35 -22q10 -4 24.5 -8t51.5 -12q63 -14 87.5 -22t41.5 -19q33 -18 48.5 -46t15.5 -66q0 -31 -11.5 -57.5t-34.5 -46.5q18 -18 26.5 -40.5t8.5 -50.5
q0 -73 -58 -119.5t-148 -46.5zM180 327q10 -3 23.5 -7t51.5 -12q47 -11 63.5 -15t29.5 -9q14 11 21 25t7 31q0 24 -11.5 39t-38.5 25q-10 4 -23 7.5t-63 14.5q-33 7 -46 10.5t-23 6.5q-18 -10 -27 -25.5t-9 -35.5t10.5 -33t34.5 -22z" />
    <glyph glyph-name="dieresis" unicode="&#xa8;" horiz-adv-x="600" 
d="M264 610h-100v104h100v-104zM436 610h-100v104h100v-104z" />
    <glyph glyph-name="copyright" unicode="&#xa9;" horiz-adv-x="823" 
d="M675 623q52 -51 79 -119t27 -145q0 -76 -27.5 -144t-78.5 -119q-51 -52 -119 -79.5t-144 -27.5t-144 27.5t-120 78.5q-51 51 -78.5 119t-27.5 145t27.5 145t78.5 119t119.5 78.5t144.5 27.5t144 -27.5t119 -78.5zM637 133q43 44 66.5 102.5t23.5 123.5q0 66 -23 124
t-67 102t-102 68t-123 24t-123.5 -23.5t-102.5 -68.5q-43 -44 -66.5 -102t-23.5 -124q0 -65 23.5 -123.5t67.5 -102.5t102 -68t123 -24q64 0 122.5 24t102.5 68zM417 150q-84 0 -136 57.5t-52 152.5q0 94 52 152t136 58q60 0 101 -29t60 -83l-74 -28q-8 33 -31 51t-56 18
q-49 0 -78 -37.5t-29 -101.5t29 -102t78 -38q33 0 56 18t31 51l74 -27q-18 -55 -59.5 -83.5t-101.5 -28.5z" />
    <glyph glyph-name="ordfeminine" unicode="&#xaa;" horiz-adv-x="399" 
d="M270 384q-18 -23 -48 -35.5t-66 -12.5q-55 0 -89.5 30t-34.5 79t34.5 79t111.5 44l86 16v14q0 31 -17.5 47t-51.5 16q-32 0 -52 -15t-28 -45l-72 15q13 50 55 79.5t100 29.5q68 0 104.5 -32t36.5 -91v-174q0 -17 9.5 -23.5t29.5 -2.5v-59q-44 -7 -72 3.5t-36 37.5z
M169 396q40 0 67.5 21.5t27.5 54.5v57l-70 -14q-48 -9 -67.5 -24.5t-19.5 -41.5q0 -25 16.5 -39t45.5 -14zM374 204h-341v69h341v-69z" />
    <glyph glyph-name="guillemotleft" unicode="&#xab;" horiz-adv-x="392" 
d="M180 84l-153 137v90l153 137v-94l-88 -88l88 -88v-94zM365 84l-153 137v90l153 137v-94l-88 -88l88 -88v-94z" />
    <glyph glyph-name="registered" unicode="&#xae;" horiz-adv-x="514" 
d="M410 667q30 -30 46 -69.5t16 -83.5q0 -45 -16 -84.5t-46 -68.5q-30 -30 -69.5 -46t-83.5 -16t-83.5 16t-69.5 46t-46 69.5t-16 83.5t16 83.5t46 69.5t69.5 46t83.5 16t83.5 -16t69.5 -46zM388 382q25 26 38.5 60t13.5 72t-13.5 72t-38.5 60q-26 26 -59.5 40t-71.5 14
t-71.5 -14t-59.5 -40q-25 -26 -38.5 -60t-13.5 -72t13.5 -72t38.5 -60q26 -26 59.5 -40t71.5 -14t71.5 14t59.5 40zM300 498l59 -89h-56l-51 78h-35v-78h-50v216h100q39 0 61 -17.5t22 -49.5q0 -21 -13 -36.5t-37 -23.5zM298 555q0 14 -10 22t-28 8h-43v-60h43
q19 0 28.5 7.5t9.5 22.5z" />
    <glyph glyph-name="macron" unicode="&#xaf;" horiz-adv-x="600" 
d="M437 678v-72h-274v72h274z" />
    <glyph glyph-name="degree" unicode="&#xb0;" horiz-adv-x="316" 
d="M17 588q0 59 41 100t100 41t100 -41t41 -100q0 -60 -41 -101.5t-100 -41.5q-58 0 -99.5 42t-41.5 101zM81 588q0 -32 22.5 -55t54.5 -23q33 0 55 22.5t22 55.5q0 32 -22.5 54.5t-54.5 22.5t-54.5 -23t-22.5 -54z" />
    <glyph glyph-name="twosuperior" unicode="&#xb2;" horiz-adv-x="380" 
d="M46 320v61l135 107q38 30 53 53.5t15 50.5q0 29 -18 46.5t-47 17.5t-47 -18.5t-18 -47.5q0 -12 2.5 -23.5t7.5 -19.5h-74q-4 13 -6.5 25t-2.5 23q0 55 40.5 92t99.5 37q62 0 99.5 -34.5t37.5 -92.5q0 -41 -22 -76.5t-72 -74.5l-78 -60h181v-66h-286z" />
    <glyph glyph-name="threesuperior" unicode="&#xb3;" horiz-adv-x="380" 
d="M334 432q0 -51 -39.5 -84.5t-101.5 -33.5q-63 0 -104 32.5t-50 90.5l77 12q4 -32 24.5 -51t51.5 -19t49.5 16.5t18.5 44.5q0 26 -19.5 41.5t-51.5 15.5h-41v55h40q29 0 47.5 14.5t18.5 38.5t-17 39t-44 15q-28 0 -47.5 -17.5t-24.5 -46.5l-72 8q8 54 48 87.5t99 33.5
q60 0 96 -31.5t36 -82.5q0 -30 -20 -54t-49 -30q35 -10 55 -34.5t20 -59.5z" />
    <glyph glyph-name="acute" unicode="&#xb4;" horiz-adv-x="600" 
d="M279 579h-71l59 139h113z" />
    <glyph glyph-name="paragraph" unicode="&#xb6;" horiz-adv-x="575" 
d="M461 0h-90v636h-72v-274h-69q-90 0 -143.5 48t-53.5 128q0 82 56 131t150 49h303v-82h-81v-636z" />
    <glyph glyph-name="periodcentered" unicode="&#xb7;" horiz-adv-x="215" 
d="M164 232h-114v118h114v-118z" />
    <glyph glyph-name="cedilla" unicode="&#xb8;" horiz-adv-x="600" 
d="M402 -106q0 -37 -31.5 -60.5t-78.5 -23.5q-31 0 -57 10t-42 29l34 47q13 -16 28.5 -24t33.5 -8q22 0 34.5 8.5t12.5 24.5q0 17 -18.5 26.5t-60.5 12.5l22 74h49l-11 -37q40 -5 62.5 -25.5t22.5 -53.5z" />
    <glyph glyph-name="onesuperior" unicode="&#xb9;" horiz-adv-x="380" 
d="M166 386v215h-100v52l42 2q38 2 55 16t22 49h57v-334h85v-66h-259v66h98z" />
    <glyph glyph-name="ordmasculine" unicode="&#xba;" horiz-adv-x="428" 
d="M213 725q79 0 128 -54t49 -141t-49 -141t-128 -54t-128 54t-49 141t49 141t128 54zM213 661q-46 0 -73 -35.5t-27 -95.5t27 -95t73 -35t73.5 35t27.5 95t-27.5 95.5t-73.5 35.5zM377 204h-325v69h325v-69z" />
    <glyph glyph-name="guillemotright" unicode="&#xbb;" horiz-adv-x="392" 
d="M365 311v-90l-153 -137v94l88 88l-88 88v94zM180 311v-90l-153 -137v94l88 88l-88 88v94z" />
    <glyph glyph-name="onequarter" unicode="&#xbc;" horiz-adv-x="880" 
d="M786 98v-98h-71v98h-188v55l164 245h95v-241h69v-59h-69zM714 336l-123 -179h123v179zM178 0l512 718h79l-511 -718h-80zM166 386v215h-100v52l42 2q38 2 55 16t22 49h57v-334h85v-66h-259v66h98z" />
    <glyph glyph-name="onehalf" unicode="&#xbd;" horiz-adv-x="906" 
d="M178 0l512 718h79l-511 -718h-80zM583 0v61l135 107q38 30 53 53.5t15 50.5q0 29 -18 46.5t-47 17.5t-47 -18.5t-18 -47.5q0 -12 2.5 -23.5t7.5 -19.5h-74q-4 13 -6.5 25t-2.5 23q0 55 40.5 92t99.5 37q62 0 99.5 -34.5t37.5 -92.5q0 -41 -22 -76.5t-72 -74.5l-78 -60
h181v-66h-286zM166 386v215h-100v52l42 2q38 2 55 16t22 49h57v-334h85v-66h-259v66h98z" />
    <glyph glyph-name="threequarters" unicode="&#xbe;" horiz-adv-x="860" 
d="M780 98v-98h-71v98h-188v55l164 245h95v-241h69v-59h-69zM708 336l-123 -179h123v179zM172 0l512 718h79l-511 -718h-80zM334 432q0 -51 -39.5 -84.5t-101.5 -33.5q-63 0 -104 32.5t-50 90.5l77 12q4 -32 24.5 -51t51.5 -19t49.5 16.5t18.5 44.5q0 26 -19.5 41.5
t-51.5 15.5h-41v55h40q29 0 47.5 14.5t18.5 38.5t-17 39t-44 15q-28 0 -47.5 -17.5t-24.5 -46.5l-72 8q8 54 48 87.5t99 33.5q60 0 96 -31.5t36 -82.5q0 -30 -20 -54t-49 -30q35 -10 55 -34.5t20 -59.5z" />
    <glyph glyph-name="questiondown" unicode="&#xbf;" horiz-adv-x="514" 
d="M113.024 212.031q0 -59.9961 38.998 -96.9941q38.9971 -36.998 101.993 -36.998q65.9961 0 108.493 39.998q42.498 39.9971 53.4971 111.993l90.9941 -14.999q-13.999 -97.9941 -83.9941 -158.49q-69.9961 -60.4961 -172.99 -60.4961q-102.993 0 -167.489 58.9961
t-64.4961 151.99q0 40.998 14.499 76.9961q14.499 35.9971 41.498 64.9961q26.998 26.998 62.4961 44.4971q35.4971 17.499 75.4951 22.498v95.9941h86.9941v-159.99q-85.9941 0 -135.991 -37.4971q-49.9971 -37.498 -49.9971 -102.494zM198.02 725h113.993v-117.993
h-113.993v117.993z" />
    <glyph glyph-name="Agrave" unicode="&#xc0;" horiz-adv-x="692" 
d="M16 0l277 718h106l277 -718h-97l-73 189h-322l-72 -189h-96zM474 273l-130 337l-128 -337h258zM284 910l101 -145h-72l-155 145h126z" />
    <glyph glyph-name="Aacute" unicode="&#xc1;" horiz-adv-x="692" 
d="M16 0l277 718h106l277 -718h-97l-73 189h-322l-72 -189h-96zM474 273l-130 337l-128 -337h258zM375 765h-72l101 145h126z" />
    <glyph glyph-name="Acircumflex" unicode="&#xc2;" horiz-adv-x="692" 
d="M16 0l277 718h106l277 -718h-97l-73 189h-322l-72 -189h-96zM474 273l-130 337l-128 -337h258zM291 910h108l117 -145h-73l-98 87l-98 -87h-73z" />
    <glyph glyph-name="Atilde" unicode="&#xc3;" horiz-adv-x="692" 
d="M16 0l277 718h106l277 -718h-97l-73 189h-322l-72 -189h-96zM474 273l-130 337l-128 -337h258zM274 905q18 0 35.5 -7t46.5 -30q22 -17 33.5 -22t21.5 -5q21 0 33 16t17 49h63q-5 -65 -33.5 -102.5t-74.5 -37.5q-18 0 -36 7.5t-47 29.5q-22 18 -33 23t-21 5
q-21 0 -33 -16t-17 -49h-63q4 65 32.5 102t75.5 37z" />
    <glyph glyph-name="Adieresis" unicode="&#xc4;" horiz-adv-x="692" 
d="M16 0l277 718h106l277 -718h-97l-73 189h-322l-72 -189h-96zM474 273l-130 337l-128 -337h258zM306 769h-100v104h100v-104zM484 769h-100v104h100v-104z" />
    <glyph glyph-name="Aring" unicode="&#xc5;" horiz-adv-x="692" 
d="M228 791q0 47 34 80t83 33q50 0 83.5 -32.5t33.5 -80.5q0 -30 -14.5 -55.5t-39.5 -40.5l268 -695h-97l-73 189h-322l-72 -189h-96l268 694q-26 15 -41 41t-15 56zM345 848q-24 0 -40 -16.5t-16 -40.5q0 -25 16 -41t40 -16t40 16t16 41q0 24 -16 40.5t-40 16.5zM474 273
l-130 337l-128 -337h258z" />
    <glyph glyph-name="AE" unicode="&#xc6;" horiz-adv-x="1029" 
d="M10 0l449 718h523v-84h-375v-221h317v-84h-317v-245h375v-84h-469v195h-278l-121 -195h-104zM513 641l-225 -362h225v362z" />
    <glyph glyph-name="Ccedilla" unicode="&#xc7;" horiz-adv-x="659" 
d="M187 553q-26 -38 -40 -87.5t-14 -106.5t14 -106.5t40 -87.5q31 -44 75.5 -67.5t97.5 -23.5q69 0 117.5 38t68.5 107l91 -30q-32 -95 -104 -147.5t-171 -52.5l-5 -16q40 -5 62.5 -25.5t22.5 -53.5q0 -37 -31.5 -60.5t-78.5 -23.5q-31 0 -57 10t-42 29l34 47
q13 -16 28.5 -24t33.5 -8q22 0 34.5 8.5t12.5 24.5q0 17 -18.5 26.5t-60.5 12.5l17 56q-64 9 -117 42t-91 87q-34 48 -51.5 109t-17.5 129q0 75 21 141t62 116q44 54 106 83.5t134 29.5q100 0 172.5 -52.5t104.5 -147.5l-91 -30q-20 69 -68.5 107t-117.5 38
q-53 0 -97.5 -23.5t-75.5 -67.5z" />
    <glyph glyph-name="Egrave" unicode="&#xc8;" horiz-adv-x="595" 
d="M79 0v718h469v-84h-374v-221h317v-84h-317v-245h374v-84h-469zM284 910l101 -145h-72l-155 145h126z" />
    <glyph glyph-name="Eacute" unicode="&#xc9;" horiz-adv-x="595" 
d="M79 0v718h469v-84h-374v-221h317v-84h-317v-245h374v-84h-469zM317 765h-72l101 145h126z" />
    <glyph glyph-name="Ecircumflex" unicode="&#xca;" horiz-adv-x="595" 
d="M79 0v718h469v-84h-374v-221h317v-84h-317v-245h374v-84h-469zM265 910h108l117 -145h-73l-98 87l-98 -87h-73z" />
    <glyph glyph-name="Edieresis" unicode="&#xcb;" horiz-adv-x="595" 
d="M79 0v718h469v-84h-374v-221h317v-84h-317v-245h374v-84h-469zM276 769h-100v104h100v-104zM454 769h-100v104h100v-104z" />
    <glyph glyph-name="Igrave" unicode="&#xcc;" horiz-adv-x="254" 
d="M79 718h96v-718h-96v718zM75 910l101 -145h-72l-155 145h126z" />
    <glyph glyph-name="Iacute" unicode="&#xcd;" horiz-adv-x="254" 
d="M79 718h96v-718h-96v718zM155 765h-72l101 145h126z" />
    <glyph glyph-name="Icircumflex" unicode="&#xce;" horiz-adv-x="254" 
d="M79 718h96v-718h-96v718zM73 910h108l117 -145h-73l-98 87l-98 -87h-73z" />
    <glyph glyph-name="Idieresis" unicode="&#xcf;" horiz-adv-x="254" 
d="M79 718h96v-718h-96v718zM88 769h-100v104h100v-104zM266 769h-100v104h100v-104z" />
    <glyph glyph-name="Eth" unicode="&#xd0;" horiz-adv-x="711" 
d="M317 0h-228v328h-67v84h67v306h228q80 0 146 -25t114 -72q47 -48 71.5 -114.5t24.5 -147.5t-24.5 -147.5t-71.5 -114.5q-48 -47 -114 -72t-146 -25zM183 328v-245h134q121 0 191.5 74.5t70.5 201.5t-70.5 201.5t-192.5 74.5h-133v-223h143v-84h-143z" />
    <glyph glyph-name="Ntilde" unicode="&#xd1;" horiz-adv-x="725" 
d="M553 718h93v-718h-83l-392 578v-578h-92v718h101l373 -555v555zM295 905q18 0 35.5 -7t46.5 -30q22 -17 33.5 -22t21.5 -5q21 0 33 16t17 49h63q-5 -65 -33.5 -102.5t-74.5 -37.5q-18 0 -36 7.5t-47 29.5q-22 18 -33 23t-21 5q-21 0 -33 -16t-17 -49h-63q4 65 32.5 102
t75.5 37z" />
    <glyph glyph-name="Ograve" unicode="&#xd2;" horiz-adv-x="726" 
d="M121 102q-41 50 -62.5 115.5t-21.5 141.5t21.5 141.5t62.5 115.5q45 55 107.5 84t134.5 29t134.5 -29t106.5 -84q41 -50 62.5 -115.5t21.5 -141.5t-21.5 -141.5t-62.5 -115.5q-44 -55 -106.5 -84t-134.5 -29t-134.5 29t-107.5 84zM538 165q27 38 41 87.5t14 106.5
t-14 106.5t-41 87.5q-32 44 -77 67.5t-98 23.5t-98 -23.5t-77 -67.5q-27 -38 -41 -87.5t-14 -106.5t14 -106.5t41 -87.5q32 -44 77 -67.5t98 -23.5t98 23.5t77 67.5zM318 910l101 -145h-72l-155 145h126z" />
    <glyph glyph-name="Oacute" unicode="&#xd3;" horiz-adv-x="726" 
d="M121 102q-41 50 -62.5 115.5t-21.5 141.5t21.5 141.5t62.5 115.5q45 55 107.5 84t134.5 29t134.5 -29t106.5 -84q41 -50 62.5 -115.5t21.5 -141.5t-21.5 -141.5t-62.5 -115.5q-44 -55 -106.5 -84t-134.5 -29t-134.5 29t-107.5 84zM538 165q27 38 41 87.5t14 106.5
t-14 106.5t-41 87.5q-32 44 -77 67.5t-98 23.5t-98 -23.5t-77 -67.5q-27 -38 -41 -87.5t-14 -106.5t14 -106.5t41 -87.5q32 -44 77 -67.5t98 -23.5t98 23.5t77 67.5zM395 765h-72l101 145h126z" />
    <glyph glyph-name="Ocircumflex" unicode="&#xd4;" horiz-adv-x="726" 
d="M121 102q-41 50 -62.5 115.5t-21.5 141.5t21.5 141.5t62.5 115.5q45 55 107.5 84t134.5 29t134.5 -29t106.5 -84q41 -50 62.5 -115.5t21.5 -141.5t-21.5 -141.5t-62.5 -115.5q-44 -55 -106.5 -84t-134.5 -29t-134.5 29t-107.5 84zM538 165q27 38 41 87.5t14 106.5
t-14 106.5t-41 87.5q-32 44 -77 67.5t-98 23.5t-98 -23.5t-77 -67.5q-27 -38 -41 -87.5t-14 -106.5t14 -106.5t41 -87.5q32 -44 77 -67.5t98 -23.5t98 23.5t77 67.5zM309 910h108l117 -145h-73l-98 87l-98 -87h-73z" />
    <glyph glyph-name="Otilde" unicode="&#xd5;" horiz-adv-x="726" 
d="M121 102q-41 50 -62.5 115.5t-21.5 141.5t21.5 141.5t62.5 115.5q45 55 107.5 84t134.5 29t134.5 -29t106.5 -84q41 -50 62.5 -115.5t21.5 -141.5t-21.5 -141.5t-62.5 -115.5q-44 -55 -106.5 -84t-134.5 -29t-134.5 29t-107.5 84zM538 165q27 38 41 87.5t14 106.5
t-14 106.5t-41 87.5q-32 44 -77 67.5t-98 23.5t-98 -23.5t-77 -67.5q-27 -38 -41 -87.5t-14 -106.5t14 -106.5t41 -87.5q32 -44 77 -67.5t98 -23.5t98 23.5t77 67.5zM292 905q18 0 35.5 -7t46.5 -30q22 -17 33.5 -22t21.5 -5q21 0 33 16t17 49h63q-5 -65 -33.5 -102.5
t-74.5 -37.5q-18 0 -36 7.5t-47 29.5q-22 18 -33 23t-21 5q-21 0 -33 -16t-17 -49h-63q4 65 32.5 102t75.5 37z" />
    <glyph glyph-name="Odieresis" unicode="&#xd6;" horiz-adv-x="726" 
d="M121 102q-41 50 -62.5 115.5t-21.5 141.5t21.5 141.5t62.5 115.5q45 55 107.5 84t134.5 29t134.5 -29t106.5 -84q41 -50 62.5 -115.5t21.5 -141.5t-21.5 -141.5t-62.5 -115.5q-44 -55 -106.5 -84t-134.5 -29t-134.5 29t-107.5 84zM538 165q27 38 41 87.5t14 106.5
t-14 106.5t-41 87.5q-32 44 -77 67.5t-98 23.5t-98 -23.5t-77 -67.5q-27 -38 -41 -87.5t-14 -106.5t14 -106.5t41 -87.5q32 -44 77 -67.5t98 -23.5t98 23.5t77 67.5zM324 769h-100v104h100v-104zM502 769h-100v104h100v-104z" />
    <glyph glyph-name="multiply" unicode="&#xd7;" 
d="M77 169l172 173l-172 172l56 56l172 -173l171 172l56 -55l-171 -172l171 -172l-56 -56l-171 172l-172 -173z" />
    <glyph glyph-name="Oslash" unicode="&#xd8;" horiz-adv-x="726" 
d="M103 -21l-56 45l69 84q-39 50 -59 113.5t-20 137.5q0 76 21.5 141.5t62.5 115.5q45 55 107.5 84t134.5 29q59 0 111 -19t94 -56l59 71l56 -45l-66 -80q35 -49 53 -110t18 -131q0 -76 -21.5 -141.5t-62.5 -115.5q-44 -55 -106.5 -84t-134.5 -29q-55 0 -105 17t-91 50z
M188 553q-27 -38 -41 -87.5t-14 -106.5q0 -51 11 -96t33 -82l334 404q-30 29 -67.5 44t-80.5 15q-53 0 -98 -23.5t-77 -67.5zM538 165q27 38 41 87.5t14 106.5q0 47 -9.5 89t-28.5 77l-331 -400q29 -25 64 -38t75 -13q53 0 98 23.5t77 67.5z" />
    <glyph glyph-name="Ugrave" unicode="&#xd9;" horiz-adv-x="697" 
d="M348 -10q-131 0 -206.5 77.5t-75.5 216.5v434h96v-431q0 -102 48.5 -156.5t137.5 -54.5t138 54.5t49 156.5v431h96v-434q0 -139 -75.5 -216.5t-207.5 -77.5zM315 910l101 -145h-72l-155 145h126z" />
    <glyph glyph-name="Uacute" unicode="&#xda;" horiz-adv-x="697" 
d="M348 -10q-131 0 -206.5 77.5t-75.5 216.5v434h96v-431q0 -102 48.5 -156.5t137.5 -54.5t138 54.5t49 156.5v431h96v-434q0 -139 -75.5 -216.5t-207.5 -77.5zM361 765h-72l101 145h126z" />
    <glyph glyph-name="Ucircumflex" unicode="&#xdb;" horiz-adv-x="697" 
d="M348 -10q-131 0 -206.5 77.5t-75.5 216.5v434h96v-431q0 -102 48.5 -156.5t137.5 -54.5t138 54.5t49 156.5v431h96v-434q0 -139 -75.5 -216.5t-207.5 -77.5zM294 910h108l117 -145h-73l-98 87l-98 -87h-73z" />
    <glyph glyph-name="Udieresis" unicode="&#xdc;" horiz-adv-x="697" 
d="M348 -10q-131 0 -206.5 77.5t-75.5 216.5v434h96v-431q0 -102 48.5 -156.5t137.5 -54.5t138 54.5t49 156.5v431h96v-434q0 -139 -75.5 -216.5t-207.5 -77.5zM309 769h-100v104h100v-104zM487 769h-100v104h100v-104z" />
    <glyph glyph-name="Yacute" unicode="&#xdd;" horiz-adv-x="626" 
d="M109 718l205 -329l205 329h102l-260 -416v-302h-96v302l-260 416h104zM330 765h-72l101 145h126z" />
    <glyph glyph-name="Thorn" unicode="&#xde;" horiz-adv-x="625" 
d="M602 374q0 -99 -66 -153.5t-183 -54.5h-178v-166h-96v718h96v-135h178q118 0 183.5 -54.5t65.5 -154.5zM348 502h-173v-255h173q76 0 117.5 33t41.5 94q0 62 -41.5 95t-117.5 33z" />
    <glyph glyph-name="germandbls" unicode="&#xdf;" horiz-adv-x="575" 
d="M299 729q88 0 142.5 -48t54.5 -125q0 -54 -26 -92.5t-75 -56.5q72 -18 112 -68.5t40 -125.5q0 -50 -17 -91t-49 -70q-31 -29 -73.5 -44t-90.5 -15q-25 0 -46.5 2t-44.5 7v77q19 -5 38 -7.5t42 -2.5q69 0 110.5 38.5t41.5 105.5q0 71 -45 109.5t-127 38.5h-53v79h45
q61 0 96 29.5t35 81.5q0 47 -30.5 74t-81.5 27q-63 0 -97.5 -42t-34.5 -119v-491h-90v495q0 106 61 170t163 64z" />
    <glyph glyph-name="agrave" unicode="&#xe0;" horiz-adv-x="526" 
d="M367 59q-25 -32 -67.5 -50t-93.5 -18q-75 0 -123.5 41.5t-48.5 108.5t46.5 108t151.5 63l127 26v22q0 46 -26 70t-77 24q-48 0 -78.5 -22t-42.5 -67l-85 22q20 67 76 106.5t133 39.5q91 0 140 -44t49 -125v-255q0 -24 14.5 -33.5t41.5 -3.5v-72q-61 -8 -95 7t-42 52z
M217 64q60 0 101 32.5t41 81.5v90l-102 -22q-75 -15 -104.5 -38.5t-29.5 -62.5q0 -38 25 -59.5t69 -21.5zM243 718l59 -139h-71l-101 139h113z" />
    <glyph glyph-name="aacute" unicode="&#xe1;" horiz-adv-x="526" 
d="M367 59q-25 -32 -67.5 -50t-93.5 -18q-75 0 -123.5 41.5t-48.5 108.5t46.5 108t151.5 63l127 26v22q0 46 -26 70t-77 24q-48 0 -78.5 -22t-42.5 -67l-85 22q20 67 76 106.5t133 39.5q91 0 140 -44t49 -125v-255q0 -24 14.5 -33.5t41.5 -3.5v-72q-61 -8 -95 7t-42 52z
M217 64q60 0 101 32.5t41 81.5v90l-102 -22q-75 -15 -104.5 -38.5t-29.5 -62.5q0 -38 25 -59.5t69 -21.5zM298 579h-71l59 139h113z" />
    <glyph glyph-name="acircumflex" unicode="&#xe2;" horiz-adv-x="526" 
d="M367 59q-25 -32 -67.5 -50t-93.5 -18q-75 0 -123.5 41.5t-48.5 108.5t46.5 108t151.5 63l127 26v22q0 46 -26 70t-77 24q-48 0 -78.5 -22t-42.5 -67l-85 22q20 67 76 106.5t133 39.5q91 0 140 -44t49 -125v-255q0 -24 14.5 -33.5t41.5 -3.5v-72q-61 -8 -95 7t-42 52z
M217 64q60 0 101 32.5t41 81.5v90l-102 -22q-75 -15 -104.5 -38.5t-29.5 -62.5q0 -38 25 -59.5t69 -21.5zM212 718h98l98 -139h-70l-77 78l-77 -78h-70z" />
    <glyph glyph-name="atilde" unicode="&#xe3;" horiz-adv-x="526" 
d="M367 59q-25 -32 -67.5 -50t-93.5 -18q-75 0 -123.5 41.5t-48.5 108.5t46.5 108t151.5 63l127 26v22q0 46 -26 70t-77 24q-48 0 -78.5 -22t-42.5 -67l-85 22q20 67 76 106.5t133 39.5q91 0 140 -44t49 -125v-255q0 -24 14.5 -33.5t41.5 -3.5v-72q-61 -8 -95 7t-42 52z
M217 64q60 0 101 32.5t41 81.5v90l-102 -22q-75 -15 -104.5 -38.5t-29.5 -62.5q0 -38 25 -59.5t69 -21.5zM197 719q16 0 32 -7.5t41 -29.5q19 -17 28 -22t18 -5q19 0 29 14.5t15 49.5h59q-5 -63 -30.5 -99t-66.5 -36q-16 0 -32 7t-41 30q-19 16 -28 21t-18 5q-19 0 -29 -15
t-14 -48h-59q4 64 29 99.5t67 35.5z" />
    <glyph glyph-name="adieresis" unicode="&#xe4;" horiz-adv-x="526" 
d="M367 59q-25 -32 -67.5 -50t-93.5 -18q-75 0 -123.5 41.5t-48.5 108.5t46.5 108t151.5 63l127 26v22q0 46 -26 70t-77 24q-48 0 -78.5 -22t-42.5 -67l-85 22q20 67 76 106.5t133 39.5q91 0 140 -44t49 -125v-255q0 -24 14.5 -33.5t41.5 -3.5v-72q-61 -8 -95 7t-42 52z
M217 64q60 0 101 32.5t41 81.5v90l-102 -22q-75 -15 -104.5 -38.5t-29.5 -62.5q0 -38 25 -59.5t69 -21.5zM223 610h-100v104h100v-104zM395 610h-100v104h100v-104z" />
    <glyph glyph-name="aring" unicode="&#xe5;" horiz-adv-x="526" 
d="M367 59q-25 -32 -67.5 -50t-93.5 -18q-75 0 -123.5 41.5t-48.5 108.5t46.5 108t151.5 63l127 26v22q0 46 -26 70t-77 24q-48 0 -78.5 -22t-42.5 -67l-85 22q20 67 76 106.5t133 39.5q91 0 140 -44t49 -125v-255q0 -24 14.5 -33.5t41.5 -3.5v-72q-61 -8 -95 7t-42 52z
M217 64q60 0 101 32.5t41 81.5v90l-102 -22q-75 -15 -104.5 -38.5t-29.5 -62.5q0 -38 25 -59.5t69 -21.5zM258 568q-43 0 -72 28.5t-29 70.5q0 41 29 69t72 28t72 -28t29 -69q0 -42 -29 -70.5t-72 -28.5zM258 717q-20 0 -35 -15t-15 -35q0 -21 14.5 -36.5t35.5 -15.5
t35.5 15.5t14.5 36.5q0 20 -15 35t-35 15z" />
    <glyph glyph-name="ae" unicode="&#xe6;" horiz-adv-x="857" 
d="M34 143q0 81 64.5 127t175.5 46h87v40q0 49 -26.5 73.5t-78.5 24.5q-50 0 -80 -23.5t-39 -70.5l-85 23q17 69 73 109.5t135 40.5q59 0 100.5 -21t62.5 -62q33 40 77.5 61.5t96.5 21.5q103 0 162.5 -69.5t59.5 -186.5v-30h-377q4 -82 47 -131t112 -49q52 0 88 26.5
t48 73.5l78 -28q-23 -70 -80 -110t-134 -40q-63 0 -114.5 27.5t-83.5 78.5q-27 -49 -78.5 -76.5t-115.5 -27.5q-76 0 -125.5 42t-49.5 110zM596 456q-58 0 -97.5 -37t-51.5 -103h281q-1 64 -36 102t-96 38zM123 149q0 -39 26.5 -61.5t72.5 -22.5q59 0 99 38t40 95v49h-85
q-79 0 -116 -24t-37 -74z" />
    <glyph glyph-name="ccedilla" unicode="&#xe7;" horiz-adv-x="520" 
d="M286 455q-71 0 -114 -53t-43 -141t43 -140.5t114 -52.5q50 0 84 29t46 82l80 -37q-20 -70 -76.5 -111.5t-133.5 -41.5h-1l-5 -16q40 -5 62.5 -25.5t22.5 -53.5q0 -37 -31.5 -60.5t-78.5 -23.5q-31 0 -57 10t-42 29l34 47q13 -16 28.5 -24t33.5 -8q22 0 34.5 8.5
t12.5 24.5q0 17 -18.5 26.5t-60.5 12.5l17 57q-90 17 -144 89.5t-54 178.5q0 57 16.5 106t48.5 86q33 39 80 59.5t102 20.5q77 0 132.5 -40.5t75.5 -109.5l-78 -39q-12 53 -46 82t-84 29z" />
    <glyph glyph-name="egrave" unicode="&#xe8;" horiz-adv-x="540" 
d="M284 -11q-55 0 -101.5 20.5t-79.5 60.5q-31 36 -47.5 85t-16.5 106q0 55 16 104t47 86q33 40 79 61t99 21q103 0 163 -70t60 -186v-30h-378q4 -82 47 -131t112 -49q52 0 88 26.5t48 73.5l79 -28q-24 -71 -81 -110.5t-134 -39.5zM279 456q-58 0 -97.5 -37t-51.5 -103h282
q-2 64 -37 102t-96 38zM267 718l59 -139h-71l-101 139h113z" />
    <glyph glyph-name="eacute" unicode="&#xe9;" horiz-adv-x="540" 
d="M284 -11q-55 0 -101.5 20.5t-79.5 60.5q-31 36 -47.5 85t-16.5 106q0 55 16 104t47 86q33 40 79 61t99 21q103 0 163 -70t60 -186v-30h-378q4 -82 47 -131t112 -49q52 0 88 26.5t48 73.5l79 -28q-24 -71 -81 -110.5t-134 -39.5zM279 456q-58 0 -97.5 -37t-51.5 -103h282
q-2 64 -37 102t-96 38zM314 579h-71l59 139h113z" />
    <glyph glyph-name="ecircumflex" unicode="&#xea;" horiz-adv-x="540" 
d="M284 -11q-55 0 -101.5 20.5t-79.5 60.5q-31 36 -47.5 85t-16.5 106q0 55 16 104t47 86q33 40 79 61t99 21q103 0 163 -70t60 -186v-30h-378q4 -82 47 -131t112 -49q52 0 88 26.5t48 73.5l79 -28q-24 -71 -81 -110.5t-134 -39.5zM279 456q-58 0 -97.5 -37t-51.5 -103h282
q-2 64 -37 102t-96 38zM233 718h98l98 -139h-70l-77 78l-77 -78h-70z" />
    <glyph glyph-name="edieresis" unicode="&#xeb;" horiz-adv-x="540" 
d="M284 -11q-55 0 -101.5 20.5t-79.5 60.5q-31 36 -47.5 85t-16.5 106q0 55 16 104t47 86q33 40 79 61t99 21q103 0 163 -70t60 -186v-30h-378q4 -82 47 -131t112 -49q52 0 88 26.5t48 73.5l79 -28q-24 -71 -81 -110.5t-134 -39.5zM279 456q-58 0 -97.5 -37t-51.5 -103h282
q-2 64 -37 102t-96 38zM247 610h-100v104h100v-104zM419 610h-100v104h100v-104z" />
    <glyph glyph-name="igrave" unicode="&#xec;" horiz-adv-x="240" 
d="M75 523h90v-523h-90v523zM95 718l59 -139h-71l-101 139h113z" />
    <glyph glyph-name="iacute" unicode="&#xed;" horiz-adv-x="240" 
d="M75 523h90v-523h-90v523zM158 579h-71l59 139h113z" />
    <glyph glyph-name="icircumflex" unicode="&#xee;" horiz-adv-x="240" 
d="M71 718h98l98 -139h-70l-77 78l-77 -78h-70zM75 523h90v-523h-90v523z" />
    <glyph glyph-name="idieresis" unicode="&#xef;" horiz-adv-x="240" 
d="M84 610h-100v104h100v-104zM256 610h-100v104h100v-104zM75 523h90v-523h-90v523z" />
    <glyph glyph-name="eth" unicode="&#xf0;" horiz-adv-x="564" 
d="M282 530q34 0 63.5 -12.5t47.5 -33.5q-13 28 -37.5 57t-57.5 56l-166 -49v65l102 30q-23 15 -50 29.5t-58 28.5l94 27q25 -11 50 -25.5t53 -32.5l129 38v-65l-70 -21q72 -67 107.5 -153t35.5 -191q0 -60 -15 -111t-44 -89q-33 -43 -80 -66t-104 -23q-54 0 -100.5 21
t-79.5 60q-31 36 -47 85t-16 106t16 105.5t47 84.5q33 38 79 58.5t101 20.5zM282 457q-69 0 -110.5 -53t-41.5 -143q0 -89 41.5 -142t110.5 -53t110.5 53t41.5 142q0 90 -41.5 143t-110.5 53z" />
    <glyph glyph-name="ntilde" unicode="&#xf1;" horiz-adv-x="564" 
d="M165 0h-90v523h90v-71q27 39 67.5 60t88.5 21q80 0 127 -51t47 -137v-345h-90v321q0 62 -28 95t-81 33q-54 0 -92.5 -38.5t-38.5 -98.5v-312zM228 719q16 0 32 -7.5t41 -29.5q19 -17 28 -22t18 -5q19 0 29 14.5t15 49.5h59q-5 -63 -30.5 -99t-66.5 -36q-16 0 -32 7
t-41 30q-19 16 -28 21t-18 5q-19 0 -29 -15t-14 -48h-59q4 64 29 99.5t67 35.5z" />
    <glyph glyph-name="ograve" unicode="&#xf2;" horiz-adv-x="564" 
d="M462 452q31 -36 47 -85t16 -106t-16 -106t-47 -85q-33 -39 -79.5 -60t-100.5 -21t-100.5 21t-79.5 60q-31 36 -47 85t-16 106t16 106t47 85q33 39 79.5 60t100.5 21t100.5 -21t79.5 -60zM282 457q-69 0 -110.5 -53t-41.5 -143q0 -89 41.5 -142t110.5 -53t110.5 53
t41.5 142q0 90 -41.5 143t-110.5 53zM268 718l59 -139h-71l-101 139h113z" />
    <glyph glyph-name="oacute" unicode="&#xf3;" horiz-adv-x="564" 
d="M462 452q31 -36 47 -85t16 -106t-16 -106t-47 -85q-33 -39 -79.5 -60t-100.5 -21t-100.5 21t-79.5 60q-31 36 -47 85t-16 106t16 106t47 85q33 39 79.5 60t100.5 21t100.5 -21t79.5 -60zM282 457q-69 0 -110.5 -53t-41.5 -143q0 -89 41.5 -142t110.5 -53t110.5 53
t41.5 142q0 90 -41.5 143t-110.5 53zM312 579h-71l59 139h113z" />
    <glyph glyph-name="ocircumflex" unicode="&#xf4;" horiz-adv-x="564" 
d="M462 452q31 -36 47 -85t16 -106t-16 -106t-47 -85q-33 -39 -79.5 -60t-100.5 -21t-100.5 21t-79.5 60q-31 36 -47 85t-16 106t16 106t47 85q33 39 79.5 60t100.5 21t100.5 -21t79.5 -60zM282 457q-69 0 -110.5 -53t-41.5 -143q0 -89 41.5 -142t110.5 -53t110.5 53
t41.5 142q0 90 -41.5 143t-110.5 53zM233 718h98l98 -139h-70l-77 78l-77 -78h-70z" />
    <glyph glyph-name="otilde" unicode="&#xf5;" horiz-adv-x="564" 
d="M462 452q31 -36 47 -85t16 -106t-16 -106t-47 -85q-33 -39 -79.5 -60t-100.5 -21t-100.5 21t-79.5 60q-31 36 -47 85t-16 106t16 106t47 85q33 39 79.5 60t100.5 21t100.5 -21t79.5 -60zM282 457q-69 0 -110.5 -53t-41.5 -143q0 -89 41.5 -142t110.5 -53t110.5 53
t41.5 142q0 90 -41.5 143t-110.5 53zM219 719q16 0 32 -7.5t41 -29.5q19 -17 28 -22t18 -5q19 0 29 14.5t15 49.5h59q-5 -63 -30.5 -99t-66.5 -36q-16 0 -32 7t-41 30q-19 16 -28 21t-18 5q-19 0 -29 -15t-14 -48h-59q4 64 29 99.5t67 35.5z" />
    <glyph glyph-name="odieresis" unicode="&#xf6;" horiz-adv-x="564" 
d="M462 452q31 -36 47 -85t16 -106t-16 -106t-47 -85q-33 -39 -79.5 -60t-100.5 -21t-100.5 21t-79.5 60q-31 36 -47 85t-16 106t16 106t47 85q33 39 79.5 60t100.5 21t100.5 -21t79.5 -60zM282 457q-69 0 -110.5 -53t-41.5 -143q0 -89 41.5 -142t110.5 -53t110.5 53
t41.5 142q0 90 -41.5 143t-110.5 53zM246 610h-100v104h100v-104zM418 610h-100v104h100v-104z" />
    <glyph glyph-name="divide" unicode="&#xf7;" 
d="M358 491h-110v108h110v-108zM558 302h-508v80h508v-80zM358 86h-110v108h110v-108z" />
    <glyph glyph-name="oslash" unicode="&#xf8;" horiz-adv-x="564" 
d="M39 261q0 57 16 106t47 85q33 39 79.5 60t100.5 21q39 0 75 -11t65 -33l42 52l53 -42l-46 -58q26 -36 40 -82t14 -98q0 -57 -16 -106t-47 -85q-33 -39 -79.5 -60t-100.5 -21q-39 0 -74 11t-65 32l-42 -53l-53 42l47 58q-28 36 -42 82t-14 100zM282 457q-69 0 -110.5 -53
t-41.5 -143q0 -31 5.5 -59t16.5 -51l220 275q-19 15 -41.5 23t-48.5 8zM282 66q69 0 110.5 53t41.5 142q0 32 -5 59t-16 49l-219 -273q18 -15 40 -22.5t48 -7.5z" />
    <glyph glyph-name="ugrave" unicode="&#xf9;" horiz-adv-x="564" 
d="M400 523h90v-523h-90v72q-27 -40 -67 -61.5t-88 -21.5q-81 0 -128 51t-47 137v346h90v-327q0 -61 27.5 -92.5t81.5 -31.5q55 0 93 38.5t38 97.5v315zM263 718l59 -139h-71l-101 139h113z" />
    <glyph glyph-name="uacute" unicode="&#xfa;" horiz-adv-x="564" 
d="M400 523h90v-523h-90v72q-27 -40 -67 -61.5t-88 -21.5q-81 0 -128 51t-47 137v346h90v-327q0 -61 27.5 -92.5t81.5 -31.5q55 0 93 38.5t38 97.5v315zM310 579h-71l59 139h113z" />
    <glyph glyph-name="ucircumflex" unicode="&#xfb;" horiz-adv-x="564" 
d="M400 523h90v-523h-90v72q-27 -40 -67 -61.5t-88 -21.5q-81 0 -128 51t-47 137v346h90v-327q0 -61 27.5 -92.5t81.5 -31.5q55 0 93 38.5t38 97.5v315zM230 718h98l98 -139h-70l-77 78l-77 -78h-70z" />
    <glyph glyph-name="udieresis" unicode="&#xfc;" horiz-adv-x="564" 
d="M400 523h90v-523h-90v72q-27 -40 -67 -61.5t-88 -21.5q-81 0 -128 51t-47 137v346h90v-327q0 -61 27.5 -92.5t81.5 -31.5q55 0 93 38.5t38 97.5v315zM243 610h-100v104h100v-104zM415 610h-100v104h100v-104z" />
    <glyph glyph-name="yacute" unicode="&#xfd;" horiz-adv-x="507" 
d="M494 523l-225 -580q-27 -70 -65 -99.5t-97 -29.5q-16 0 -26.5 1t-22.5 3v78q12 -3 21.5 -4t21.5 -1q31 0 48.5 14.5t32.5 51.5l25 62l-194 504h95l147 -400l145 400h94zM286 579h-71l59 139h113z" />
    <glyph glyph-name="thorn" unicode="&#xfe;" horiz-adv-x="594" 
d="M498 73q-31 -41 -74.5 -62.5t-96.5 -21.5q-52 0 -95 23t-67 64v-256h-90v898h90v-271q25 40 67.5 63t94.5 23q53 0 97 -21.5t75 -62.5q27 -37 41.5 -85t14.5 -103q0 -54 -14.5 -102.5t-42.5 -85.5zM311 454q-65 0 -106.5 -47t-41.5 -128v-37q0 -80 41.5 -127t106.5 -47
q70 0 111 52.5t41 140.5q0 89 -41 141t-111 52z" />
    <glyph glyph-name="ydieresis" unicode="&#xff;" horiz-adv-x="507" 
d="M494 523l-225 -580q-27 -70 -65 -99.5t-97 -29.5q-16 0 -26.5 1t-22.5 3v78q12 -3 21.5 -4t21.5 -1q31 0 48.5 14.5t32.5 51.5l25 62l-194 504h95l147 -400l145 400h94zM218 610h-100v104h100v-104zM390 610h-100v104h100v-104z" />
    <glyph glyph-name="Amacron" unicode="&#x100;" horiz-adv-x="692" 
d="M16 0l277 718h106l277 -718h-97l-73 189h-322l-72 -189h-96zM474 273l-130 337l-128 -337h258zM501 855v-75h-312v75h312z" />
    <glyph glyph-name="amacron" unicode="&#x101;" horiz-adv-x="526" 
d="M367 59q-25 -32 -67.5 -50t-93.5 -18q-75 0 -123.5 41.5t-48.5 108.5t46.5 108t151.5 63l127 26v22q0 46 -26 70t-77 24q-48 0 -78.5 -22t-42.5 -67l-85 22q20 67 76 106.5t133 39.5q91 0 140 -44t49 -125v-255q0 -24 14.5 -33.5t41.5 -3.5v-72q-61 -8 -95 7t-42 52z
M217 64q60 0 101 32.5t41 81.5v90l-102 -22q-75 -15 -104.5 -38.5t-29.5 -62.5q0 -38 25 -59.5t69 -21.5zM398 678v-72h-274v72h274z" />
    <glyph glyph-name="Abreve" unicode="&#x102;" horiz-adv-x="692" 
d="M16 0l277 718h106l277 -718h-97l-73 189h-322l-72 -189h-96zM474 273l-130 337l-128 -337h258zM345 825q38 0 62 23.5t24 61.5h68q0 -67 -42 -107t-112 -40t-112 40t-42 107h68q0 -38 24 -61.5t62 -23.5z" />
    <glyph glyph-name="abreve" unicode="&#x103;" horiz-adv-x="526" 
d="M367 59q-25 -32 -67.5 -50t-93.5 -18q-75 0 -123.5 41.5t-48.5 108.5t46.5 108t151.5 63l127 26v22q0 46 -26 70t-77 24q-48 0 -78.5 -22t-42.5 -67l-85 22q20 67 76 106.5t133 39.5q91 0 140 -44t49 -125v-255q0 -24 14.5 -33.5t41.5 -3.5v-72q-61 -8 -95 7t-42 52z
M217 64q60 0 101 32.5t41 81.5v90l-102 -22q-75 -15 -104.5 -38.5t-29.5 -62.5q0 -38 25 -59.5t69 -21.5zM261 639q32 0 51.5 21t19.5 58h63q0 -67 -36 -105.5t-98 -38.5t-98 38.5t-36 105.5h63q0 -37 19.5 -58t51.5 -21z" />
    <glyph glyph-name="Aogonek" unicode="&#x104;" horiz-adv-x="692" 
d="M594 -186q-39 0 -64.5 22.5t-25.5 57.5q0 31 16.5 58.5t54.5 58.5l-69 178h-322l-72 -189h-96l277 718h106l277 -718h-40q-38 -33 -52 -53t-14 -39q0 -16 11 -25.5t29 -9.5q11 0 19.5 1.5t20.5 4.5v-58q-14 -4 -25.5 -5.5t-30.5 -1.5zM474 273l-130 337l-128 -337h258z
" />
    <glyph glyph-name="aogonek" unicode="&#x105;" horiz-adv-x="526" 
d="M367 59q-25 -32 -67.5 -50t-93.5 -18q-75 0 -123.5 41.5t-48.5 108.5t46.5 108t151.5 63l127 26v22q0 46 -26 70t-77 24q-48 0 -78.5 -22t-42.5 -67l-85 22q20 67 76 106.5t133 39.5q91 0 140 -44t49 -125v-255q0 -24 14.5 -33.5t41.5 -3.5v-72q-3 -1 -9 -1.5t-9 -0.5
q-37 -33 -50.5 -52.5t-13.5 -37.5q0 -16 11 -25.5t29 -9.5q11 0 19.5 1.5t20.5 4.5v-58q-14 -4 -25.5 -5.5t-30.5 -1.5q-39 0 -64.5 22.5t-25.5 57.5q0 29 14.5 55t47.5 55q-21 6 -33.5 20t-17.5 35zM217 64q60 0 101 32.5t41 81.5v90l-102 -22q-75 -15 -104.5 -38.5
t-29.5 -62.5q0 -38 25 -59.5t69 -21.5z" />
    <glyph glyph-name="Cacute" unicode="&#x106;" horiz-adv-x="659" 
d="M187 553q-26 -38 -40 -87.5t-14 -106.5t14 -106.5t40 -87.5q31 -44 75.5 -67.5t97.5 -23.5q69 0 117.5 38t68.5 107l91 -30q-32 -95 -104.5 -147.5t-172.5 -52.5q-72 0 -134 29.5t-106 83.5q-41 50 -62 116t-21 141t21 141t62 116q44 54 106 83.5t134 29.5
q100 0 172.5 -52.5t104.5 -147.5l-91 -30q-20 69 -68.5 107t-117.5 38q-53 0 -97.5 -23.5t-75.5 -67.5zM382 765h-72l101 145h126z" />
    <glyph glyph-name="cacute" unicode="&#x107;" horiz-adv-x="520" 
d="M286 455q-71 0 -114 -53t-43 -141t43 -140.5t114 -52.5q50 0 84 29t46 82l80 -37q-20 -70 -76.5 -111.5t-133.5 -41.5q-55 0 -102 20.5t-80 59.5q-32 37 -48.5 86t-16.5 106t16.5 106t48.5 86q33 39 80 59.5t102 20.5q77 0 132.5 -40.5t75.5 -109.5l-78 -39
q-12 53 -46 82t-84 29zM315 579h-71l59 139h113z" />
    <glyph glyph-name="Ccircumflex" unicode="&#x108;" horiz-adv-x="659" 
d="M187 553q-26 -38 -40 -87.5t-14 -106.5t14 -106.5t40 -87.5q31 -44 75.5 -67.5t97.5 -23.5q69 0 117.5 38t68.5 107l91 -30q-32 -95 -104.5 -147.5t-172.5 -52.5q-72 0 -134 29.5t-106 83.5q-41 50 -62 116t-21 141t21 141t62 116q44 54 106 83.5t134 29.5
q100 0 172.5 -52.5t104.5 -147.5l-91 -30q-20 69 -68.5 107t-117.5 38q-53 0 -97.5 -23.5t-75.5 -67.5zM308 910h108l117 -145h-73l-98 87l-98 -87h-73z" />
    <glyph glyph-name="ccircumflex" unicode="&#x109;" horiz-adv-x="520" 
d="M286 455q-71 0 -114 -53t-43 -141t43 -140.5t114 -52.5q50 0 84 29t46 82l80 -37q-20 -70 -76.5 -111.5t-133.5 -41.5q-55 0 -102 20.5t-80 59.5q-32 37 -48.5 86t-16.5 106t16.5 106t48.5 86q33 39 80 59.5t102 20.5q77 0 132.5 -40.5t75.5 -109.5l-78 -39
q-12 53 -46 82t-84 29zM236 718h98l98 -139h-70l-77 78l-77 -78h-70z" />
    <glyph glyph-name="Cdotaccent" unicode="&#x10a;" horiz-adv-x="659" 
d="M187 553q-26 -38 -40 -87.5t-14 -106.5t14 -106.5t40 -87.5q31 -44 75.5 -67.5t97.5 -23.5q69 0 117.5 38t68.5 107l91 -30q-32 -95 -104.5 -147.5t-172.5 -52.5q-72 0 -134 29.5t-106 83.5q-41 50 -62 116t-21 141t21 141t62 116q44 54 106 83.5t134 29.5
q100 0 172.5 -52.5t104.5 -147.5l-91 -30q-20 69 -68.5 107t-117.5 38q-53 0 -97.5 -23.5t-75.5 -67.5zM413 769h-100v104h100v-104z" />
    <glyph glyph-name="cdotaccent" unicode="&#x10b;" horiz-adv-x="520" 
d="M286 455q-71 0 -114 -53t-43 -141t43 -140.5t114 -52.5q50 0 84 29t46 82l80 -37q-20 -70 -76.5 -111.5t-133.5 -41.5q-55 0 -102 20.5t-80 59.5q-32 37 -48.5 86t-16.5 106t16.5 106t48.5 86q33 39 80 59.5t102 20.5q77 0 132.5 -40.5t75.5 -109.5l-78 -39
q-12 53 -46 82t-84 29zM333 614h-98v104h98v-104z" />
    <glyph glyph-name="Ccaron" unicode="&#x10c;" horiz-adv-x="659" 
d="M187 553q-26 -38 -40 -87.5t-14 -106.5t14 -106.5t40 -87.5q31 -44 75.5 -67.5t97.5 -23.5q69 0 117.5 38t68.5 107l91 -30q-32 -95 -104.5 -147.5t-172.5 -52.5q-72 0 -134 29.5t-106 83.5q-41 50 -62 116t-21 141t21 141t62 116q44 54 106 83.5t134 29.5
q100 0 172.5 -52.5t104.5 -147.5l-91 -30q-20 69 -68.5 107t-117.5 38q-53 0 -97.5 -23.5t-75.5 -67.5zM534 911l-117 -145h-108l-117 145h73l98 -87l98 87h73z" />
    <glyph glyph-name="ccaron" unicode="&#x10d;" horiz-adv-x="520" 
d="M286 455q-71 0 -114 -53t-43 -141t43 -140.5t114 -52.5q50 0 84 29t46 82l80 -37q-20 -70 -76.5 -111.5t-133.5 -41.5q-55 0 -102 20.5t-80 59.5q-32 37 -48.5 86t-16.5 106t16.5 106t48.5 86q33 39 80 59.5t102 20.5q77 0 132.5 -40.5t75.5 -109.5l-78 -39
q-12 53 -46 82t-84 29zM436 718l-98 -139h-98l-98 139h70l77 -78l77 78h70z" />
    <glyph glyph-name="Dcaron" unicode="&#x10e;" horiz-adv-x="701" 
d="M307 0h-228v718h228q80 0 146 -25t114 -72q47 -48 71.5 -114.5t24.5 -147.5t-24.5 -147.5t-71.5 -114.5q-48 -47 -114 -72t-146 -25zM173 635v-552h134q121 0 191.5 74.5t70.5 201.5t-70.5 201.5t-192.5 74.5h-133zM496 911l-117 -145h-108l-117 145h73l98 -87l98 87h73z
" />
    <glyph glyph-name="dcaron" unicode="&#x10f;" horiz-adv-x="683" 
d="M267 -11q-53 0 -96.5 21.5t-74.5 62.5q-28 37 -42.5 85.5t-14.5 102.5q0 55 14.5 103t41.5 85q31 41 75 62.5t97 21.5q52 0 94.5 -23t67.5 -63v271h90v-718h-90v76q-24 -41 -67 -64t-95 -23zM431 242v37q0 81 -41.5 128t-106.5 47q-71 0 -112 -52.5t-41 -140.5
t41.5 -140.5t111.5 -52.5q65 0 106.5 47t41.5 127zM641 542h-61l23 176h103z" />
    <glyph glyph-name="Dcroat" unicode="&#x110;" horiz-adv-x="711" 
d="M317 0h-228v328h-67v84h67v306h228q80 0 146 -25t114 -72q47 -48 71.5 -114.5t24.5 -147.5t-24.5 -147.5t-71.5 -114.5q-48 -47 -114 -72t-146 -25zM183 328v-245h134q121 0 191.5 74.5t70.5 201.5t-70.5 201.5t-192.5 74.5h-133v-223h143v-84h-143z" />
    <glyph glyph-name="dcroat" unicode="&#x111;" horiz-adv-x="593" 
d="M267 -11q-53 0 -96.5 21.5t-74.5 62.5q-28 37 -42.5 85.5t-14.5 102.5q0 55 14.5 103t41.5 85q31 41 75 62.5t97 21.5q52 0 94.5 -23t67.5 -63v129h-146v72h146v70h90v-70h60v-72h-60v-576h-90v76q-24 -41 -67 -64t-95 -23zM431 242v37q0 81 -41.5 128t-106.5 47
q-71 0 -112 -52.5t-41 -140.5t41.5 -140.5t111.5 -52.5q65 0 106.5 47t41.5 127z" />
    <glyph glyph-name="Emacron" unicode="&#x112;" horiz-adv-x="595" 
d="M79 0v718h469v-84h-374v-221h317v-84h-317v-245h374v-84h-469zM469 855v-75h-312v75h312z" />
    <glyph glyph-name="emacron" unicode="&#x113;" horiz-adv-x="540" 
d="M284 -11q-55 0 -101.5 20.5t-79.5 60.5q-31 36 -47.5 85t-16.5 106q0 55 16 104t47 86q33 40 79 61t99 21q103 0 163 -70t60 -186v-30h-378q4 -82 47 -131t112 -49q52 0 88 26.5t48 73.5l79 -28q-24 -71 -81 -110.5t-134 -39.5zM279 456q-58 0 -97.5 -37t-51.5 -103h282
q-2 64 -37 102t-96 38zM417 678v-72h-274v72h274z" />
    <glyph glyph-name="Ebreve" unicode="&#x114;" horiz-adv-x="595" 
d="M79 0v718h469v-84h-374v-221h317v-84h-317v-245h374v-84h-469zM320 825q38 0 62 23.5t24 61.5h68q0 -67 -42 -107t-112 -40t-112 40t-42 107h68q0 -38 24 -61.5t62 -23.5z" />
    <glyph glyph-name="ebreve" unicode="&#x115;" horiz-adv-x="540" 
d="M284 -11q-55 0 -101.5 20.5t-79.5 60.5q-31 36 -47.5 85t-16.5 106q0 55 16 104t47 86q33 40 79 61t99 21q103 0 163 -70t60 -186v-30h-378q4 -82 47 -131t112 -49q52 0 88 26.5t48 73.5l79 -28q-24 -71 -81 -110.5t-134 -39.5zM279 456q-58 0 -97.5 -37t-51.5 -103h282
q-2 64 -37 102t-96 38zM280 639q32 0 51.5 21t19.5 58h63q0 -67 -36 -105.5t-98 -38.5t-98 38.5t-36 105.5h63q0 -37 19.5 -58t51.5 -21z" />
    <glyph glyph-name="Edotaccent" unicode="&#x116;" horiz-adv-x="595" 
d="M79 0v718h469v-84h-374v-221h317v-84h-317v-245h374v-84h-469zM369 769h-100v104h100v-104z" />
    <glyph glyph-name="edotaccent" unicode="&#x117;" horiz-adv-x="540" 
d="M284 -11q-55 0 -101.5 20.5t-79.5 60.5q-31 36 -47.5 85t-16.5 106q0 55 16 104t47 86q33 40 79 61t99 21q103 0 163 -70t60 -186v-30h-378q4 -82 47 -131t112 -49q52 0 88 26.5t48 73.5l79 -28q-24 -71 -81 -110.5t-134 -39.5zM279 456q-58 0 -97.5 -37t-51.5 -103h282
q-2 64 -37 102t-96 38zM329 614h-98v104h98v-104z" />
    <glyph glyph-name="Eogonek" unicode="&#x118;" horiz-adv-x="595" 
d="M450 -186q-39 0 -64.5 22.5t-25.5 57.5q0 29 13.5 53.5t44.5 52.5h-339v718h469v-84h-374v-221h317v-84h-317v-245h374v-84h-56q-38 -33 -52 -53t-14 -39q0 -16 11 -25.5t29 -9.5q11 0 19.5 1.5t20.5 4.5v-58q-14 -4 -25.5 -5.5t-30.5 -1.5z" />
    <glyph glyph-name="eogonek" unicode="&#x119;" horiz-adv-x="540" 
d="M320 -186q-39 0 -64.5 22.5t-25.5 57.5q0 26 11 49t35 46q-53 2 -98 23.5t-78 60.5q-30 36 -45.5 84t-15.5 104q0 55 16 104t47 86q33 40 79 61t99 21q103 0 163 -70t60 -186v-30h-378q4 -82 47 -131t112 -49q52 0 88 26.5t48 73.5l79 -28q-17 -50 -52 -85.5t-83 -51.5
q-39 -34 -53.5 -54.5t-14.5 -39.5q0 -16 11 -25.5t29 -9.5q11 0 19.5 1.5t20.5 4.5v-58q-14 -4 -25.5 -5.5t-30.5 -1.5zM279 456q-58 0 -97.5 -37t-51.5 -103h282q-2 64 -37 102t-96 38z" />
    <glyph glyph-name="Ecaron" unicode="&#x11a;" horiz-adv-x="595" 
d="M79 0v718h469v-84h-374v-221h317v-84h-317v-245h374v-84h-469zM491 911l-117 -145h-108l-117 145h73l98 -87l98 87h73z" />
    <glyph glyph-name="ecaron" unicode="&#x11b;" horiz-adv-x="540" 
d="M284 -11q-55 0 -101.5 20.5t-79.5 60.5q-31 36 -47.5 85t-16.5 106q0 55 16 104t47 86q33 40 79 61t99 21q103 0 163 -70t60 -186v-30h-378q4 -82 47 -131t112 -49q52 0 88 26.5t48 73.5l79 -28q-24 -71 -81 -110.5t-134 -39.5zM279 456q-58 0 -97.5 -37t-51.5 -103h282
q-2 64 -37 102t-96 38zM430 718l-98 -139h-98l-98 139h70l77 -78l77 78h70z" />
    <glyph glyph-name="Gcircumflex" unicode="&#x11c;" horiz-adv-x="720" 
d="M653 0h-88v107q-23 -53 -80 -85.5t-129 -32.5q-71 0 -132.5 29.5t-104.5 83.5q-40 50 -61 115t-21 140q0 76 21.5 142t62.5 116q44 55 106.5 84.5t134.5 29.5q101 0 173.5 -52t105.5 -147l-92 -30q-20 69 -68 106.5t-118 37.5q-54 0 -99 -23.5t-76 -67.5q-27 -38 -41 -88
t-14 -107t14 -107t42 -88q31 -44 76 -67.5t99 -23.5q86 0 140 60t56 157h-206v84h299v-373zM311 910h108l117 -145h-73l-98 87l-98 -87h-73z" />
    <glyph glyph-name="gcircumflex" unicode="&#x11d;" horiz-adv-x="593" 
d="M518 523v-476q0 -110 -66 -174t-177 -64q-87 0 -147 39t-81 110l84 32q13 -50 51 -78t93 -28q75 0 114 40t39 116v59q-22 -40 -65 -63.5t-95 -23.5t-95 20.5t-74 58.5q-28 36 -43 82.5t-15 99.5t15 99.5t43 81.5q31 39 74 59t95 20t95 -23.5t65 -63.5v77h90zM429 262v19
q0 79 -40.5 126t-104.5 47q-71 0 -112 -49t-41 -132t41.5 -132.5t111.5 -49.5q64 0 104.5 46.5t40.5 124.5zM251 718h98l98 -139h-70l-77 78l-77 -78h-70z" />
    <glyph glyph-name="Gbreve" unicode="&#x11e;" horiz-adv-x="720" 
d="M653 0h-88v107q-23 -53 -80 -85.5t-129 -32.5q-71 0 -132.5 29.5t-104.5 83.5q-40 50 -61 115t-21 140q0 76 21.5 142t62.5 116q44 55 106.5 84.5t134.5 29.5q101 0 173.5 -52t105.5 -147l-92 -30q-20 69 -68 106.5t-118 37.5q-54 0 -99 -23.5t-76 -67.5q-27 -38 -41 -88
t-14 -107t14 -107t42 -88q31 -44 76 -67.5t99 -23.5q86 0 140 60t56 157h-206v84h299v-373zM365 825q38 0 62 23.5t24 61.5h68q0 -67 -42 -107t-112 -40t-112 40t-42 107h68q0 -38 24 -61.5t62 -23.5z" />
    <glyph glyph-name="gbreve" unicode="&#x11f;" horiz-adv-x="593" 
d="M518 523v-476q0 -110 -66 -174t-177 -64q-87 0 -147 39t-81 110l84 32q13 -50 51 -78t93 -28q75 0 114 40t39 116v59q-22 -40 -65 -63.5t-95 -23.5t-95 20.5t-74 58.5q-28 36 -43 82.5t-15 99.5t15 99.5t43 81.5q31 39 74 59t95 20t95 -23.5t65 -63.5v77h90zM429 262v19
q0 79 -40.5 126t-104.5 47q-71 0 -112 -49t-41 -132t41.5 -132.5t111.5 -49.5q64 0 104.5 46.5t40.5 124.5zM299 639q32 0 51.5 21t19.5 58h63q0 -67 -36 -105.5t-98 -38.5t-98 38.5t-36 105.5h63q0 -37 19.5 -58t51.5 -21z" />
    <glyph glyph-name="Gdotaccent" unicode="&#x120;" horiz-adv-x="720" 
d="M653 0h-88v107q-23 -53 -80 -85.5t-129 -32.5q-71 0 -132.5 29.5t-104.5 83.5q-40 50 -61 115t-21 140q0 76 21.5 142t62.5 116q44 55 106.5 84.5t134.5 29.5q101 0 173.5 -52t105.5 -147l-92 -30q-20 69 -68 106.5t-118 37.5q-54 0 -99 -23.5t-76 -67.5q-27 -38 -41 -88
t-14 -107t14 -107t42 -88q31 -44 76 -67.5t99 -23.5q86 0 140 60t56 157h-206v84h299v-373zM415 769h-100v104h100v-104z" />
    <glyph glyph-name="gdotaccent" unicode="&#x121;" horiz-adv-x="593" 
d="M518 523v-476q0 -110 -66 -174t-177 -64q-87 0 -147 39t-81 110l84 32q13 -50 51 -78t93 -28q75 0 114 40t39 116v59q-22 -40 -65 -63.5t-95 -23.5t-95 20.5t-74 58.5q-28 36 -43 82.5t-15 99.5t15 99.5t43 81.5q31 39 74 59t95 20t95 -23.5t65 -63.5v77h90zM429 262v19
q0 79 -40.5 126t-104.5 47q-71 0 -112 -49t-41 -132t41.5 -132.5t111.5 -49.5q64 0 104.5 46.5t40.5 124.5zM345 614h-98v104h98v-104z" />
    <glyph glyph-name="Gcommaaccent" unicode="&#x122;" horiz-adv-x="720" 
d="M653 0h-88v107q-23 -53 -80 -85.5t-129 -32.5q-71 0 -132.5 29.5t-104.5 83.5q-40 50 -61 115t-21 140q0 76 21.5 142t62.5 116q44 55 106.5 84.5t134.5 29.5q101 0 173.5 -52t105.5 -147l-92 -30q-20 69 -68 106.5t-118 37.5q-54 0 -99 -23.5t-76 -67.5q-27 -38 -41 -88
t-14 -107t14 -107t42 -88q31 -44 76 -67.5t99 -23.5q86 0 140 60t56 157h-206v84h299v-373zM354 -115h-39v72h97v-61q0 -42 -29.5 -67.5t-78.5 -25.5v41q25 1 37 10.5t13 30.5z" />
    <glyph glyph-name="gcommaaccent" unicode="&#x123;" horiz-adv-x="593" 
d="M518 523v-476q0 -110 -66 -174t-177 -64q-87 0 -147 39t-81 110l84 32q13 -50 51 -78t93 -28q75 0 114 40t39 116v59q-22 -40 -65 -63.5t-95 -23.5t-95 20.5t-74 58.5q-28 36 -43 82.5t-15 99.5t15 99.5t43 81.5q31 39 74 59t95 20t95 -23.5t65 -63.5v77h90zM429 262v19
q0 79 -40.5 126t-104.5 47q-71 0 -112 -49t-41 -132t41.5 -132.5t111.5 -49.5q64 0 104.5 46.5t40.5 124.5zM307 651h39v-72h-97v61q0 42 29.5 67.5t78.5 25.5v-41q-25 -1 -37 -10.5t-13 -30.5z" />
    <glyph glyph-name="Hcircumflex" unicode="&#x124;" horiz-adv-x="735" 
d="M560 413v305h96v-718h-96v329h-385v-329h-96v718h96v-305h385zM314 910h108l117 -145h-73l-98 87l-98 -87h-73z" />
    <glyph glyph-name="hcircumflex" unicode="&#x125;" horiz-adv-x="564" 
d="M165 0h-90v718h90v-266q27 39 67.5 60t88.5 21q80 0 127 -51t47 -137v-345h-90v321q0 62 -28 95t-81 33q-54 0 -92.5 -38.5t-38.5 -98.5v-312zM242 910h108l117 -145h-73l-98 87l-98 -87h-73z" />
    <glyph glyph-name="Hbar" unicode="&#x126;" horiz-adv-x="755" 
d="M733 567v-82h-67v-485h-96v276h-385v-276h-96v485h-67v82h67v151h96v-151h385v151h96v-151h67zM185 485v-126h385v126h-385z" />
    <glyph glyph-name="hbar" unicode="&#x127;" horiz-adv-x="564" 
d="M165 0h-90v576h-64v72h64v70h90v-70h142v-72h-142v-124q27 39 67.5 60t88.5 21q80 0 127 -51t47 -137v-345h-90v321q0 62 -28 95t-81 33q-54 0 -92.5 -38.5t-38.5 -98.5v-312z" />
    <glyph glyph-name="Itilde" unicode="&#x128;" horiz-adv-x="254" 
d="M79 718h96v-718h-96v718zM56 905q18 0 35.5 -7t46.5 -30q22 -17 33.5 -22t21.5 -5q21 0 33 16t17 49h63q-5 -65 -33.5 -102.5t-74.5 -37.5q-18 0 -36 7.5t-47 29.5q-22 18 -33 23t-21 5q-21 0 -33 -16t-17 -49h-63q4 65 32.5 102t75.5 37z" />
    <glyph glyph-name="itilde" unicode="&#x129;" horiz-adv-x="240" 
d="M63 719q16 0 30.5 -7.5t36.5 -29.5q16 -17 24.5 -22t17.5 -5q18 0 27.5 14t14.5 50h59q-5 -64 -30 -99.5t-66 -35.5q-16 0 -30.5 7t-36.5 30q-16 16 -24.5 21t-17.5 5q-18 0 -27.5 -14.5t-13.5 -48.5h-59q4 65 28.5 100t66.5 35zM75 523h90v-523h-90v523z" />
    <glyph glyph-name="Imacron" unicode="&#x12a;" horiz-adv-x="254" 
d="M79 718h96v-718h-96v718zM283 855v-75h-312v75h312z" />
    <glyph glyph-name="imacron" unicode="&#x12b;" horiz-adv-x="240" 
d="M250 678v-72h-261v72h261zM75 523h90v-523h-90v523z" />
    <glyph glyph-name="Ibreve" unicode="&#x12c;" horiz-adv-x="254" 
d="M79 718h96v-718h-96v718zM127 825q38 0 62 23.5t24 61.5h68q0 -67 -42 -107t-112 -40t-112 40t-42 107h68q0 -38 24 -61.5t62 -23.5z" />
    <glyph glyph-name="ibreve" unicode="&#x12d;" horiz-adv-x="240" 
d="M120 639q32 0 51 21t20 58h63q0 -67 -36 -105.5t-98 -38.5t-98 38.5t-36 105.5h63q0 -37 19.5 -58t51.5 -21zM75 523h90v-523h-90v523z" />
    <glyph glyph-name="Iogonek" unicode="&#x12e;" horiz-adv-x="254" 
d="M125 -186q-39 0 -64.5 22.5t-25.5 57.5q0 29 13.5 53.5t44.5 52.5h-14v718h96v-718h-8q-38 -33 -52 -53t-14 -39q0 -16 11 -25.5t29 -9.5q11 0 19.5 1.5t20.5 4.5v-58q-14 -4 -25.5 -5.5t-30.5 -1.5z" />
    <glyph glyph-name="iogonek" unicode="&#x12f;" horiz-adv-x="240" 
d="M169 614h-98v104h98v-104zM115 -186q-39 0 -64.5 22.5t-25.5 57.5q0 29 13.5 53.5t44.5 52.5h-8v523h90v-523h-8q-38 -33 -52 -53t-14 -39q0 -16 11 -25.5t29 -9.5q11 0 19.5 1.5t20.5 4.5v-58q-14 -4 -25.5 -5.5t-30.5 -1.5z" />
    <glyph glyph-name="Idotaccent" unicode="&#x130;" horiz-adv-x="254" 
d="M79 718h96v-718h-96v718zM177 769h-100v104h100v-104z" />
    <glyph glyph-name="dotlessi" unicode="&#x131;" horiz-adv-x="240" 
d="M75 523h90v-523h-90v523z" />
    <glyph glyph-name="Jcircumflex" unicode="&#x134;" horiz-adv-x="414" 
d="M129 -8q-28 0 -52 2.5t-50 7.5v86q28 -6 48 -8t43 -2q72 0 103 30.5t31 98.5v511h96v-518q0 -104 -55 -156t-164 -52zM242 910h108l117 -145h-73l-98 87l-98 -87h-73z" />
    <glyph glyph-name="jcircumflex" unicode="&#x135;" horiz-adv-x="240" 
d="M3 -105q38 0 55 18.5t17 59.5v550h90v-566q0 -67 -38.5 -103.5t-108.5 -36.5q-14 0 -25 0.5t-25 2.5v78q9 -2 17 -2.5t18 -0.5zM71 718h98l98 -139h-70l-77 78l-77 -78h-70z" />
    <glyph glyph-name="Kcommaaccent" unicode="&#x136;" horiz-adv-x="643" 
d="M79 718h96v-363l334 363h115l-291 -313l305 -405h-113l-256 336l-94 -101v-235h-96v718zM318 -115h-39v72h97v-61q0 -42 -29.5 -67.5t-78.5 -25.5v41q25 1 37 10.5t13 30.5z" />
    <glyph glyph-name="kcommaaccent" unicode="&#x137;" horiz-adv-x="534" 
d="M75 718h90v-439l232 244h112l-204 -206l221 -317h-105l-180 252l-76 -77v-175h-90v718zM270 -115h-39v72h97v-61q0 -42 -29.5 -67.5t-78.5 -25.5v41q25 1 37 10.5t13 30.5z" />
    <glyph glyph-name="kgreenlandic" unicode="&#x138;" horiz-adv-x="534" 
d="M75 523h90v-246l234 246h110l-204 -206l221 -317h-105l-180 252l-76 -77v-175h-90v523z" />
    <glyph glyph-name="Lacute" unicode="&#x139;" horiz-adv-x="550" 
d="M533 0h-454v718h96v-634h358v-84zM163 765h-72l101 145h126z" />
    <glyph glyph-name="lacute" unicode="&#x13a;" horiz-adv-x="240" 
d="M75 718h90v-718h-90v718zM152 765h-72l101 145h126z" />
    <glyph glyph-name="Lcommaaccent" unicode="&#x13b;" horiz-adv-x="550" 
d="M533 0h-454v718h96v-634h358v-84zM301 -115h-39v72h97v-61q0 -42 -29.5 -67.5t-78.5 -25.5v41q25 1 37 10.5t13 30.5z" />
    <glyph glyph-name="lcommaaccent" unicode="&#x13c;" horiz-adv-x="240" 
d="M75 718h90v-718h-90v718zM112 -115h-39v72h97v-61q0 -42 -29.5 -67.5t-78.5 -25.5v41q25 1 37 10.5t13 30.5z" />
    <glyph glyph-name="Lcaron" unicode="&#x13d;" horiz-adv-x="550" 
d="M533 0h-454v718h96v-634h358v-84zM408 542h-61l23 176h103z" />
    <glyph glyph-name="lcaron" unicode="&#x13e;" horiz-adv-x="328" 
d="M75 718h90v-718h-90v718zM287 542h-61l23 176h103z" />
    <glyph glyph-name="Ldot" unicode="&#x13f;" horiz-adv-x="550" 
d="M533 0h-454v718h96v-634h358v-84zM460 330h-98v104h98v-104z" />
    <glyph glyph-name="ldot" unicode="&#x140;" horiz-adv-x="364" 
d="M75 718h90v-718h-90v718zM346 316h-98v104h98v-104z" />
    <glyph glyph-name="Lslash" unicode="&#x141;" horiz-adv-x="564" 
d="M543 0h-454v260l-67 -29v82l67 29v376h96v-334l171 75v-82l-171 -75v-218h358v-84z" />
    <glyph glyph-name="lslash" unicode="&#x142;" horiz-adv-x="295" 
d="M274 524v-87l-81 -53v-384h-90v335l-82 -53v87l82 52v297h90v-247z" />
    <glyph glyph-name="Nacute" unicode="&#x143;" horiz-adv-x="725" 
d="M553 718h93v-718h-83l-392 578v-578h-92v718h101l373 -555v555zM368 765h-72l101 145h126z" />
    <glyph glyph-name="nacute" unicode="&#x144;" horiz-adv-x="564" 
d="M165 0h-90v523h90v-71q27 39 67.5 60t88.5 21q80 0 127 -51t47 -137v-345h-90v321q0 62 -28 95t-81 33q-54 0 -92.5 -38.5t-38.5 -98.5v-312zM315 579h-71l59 139h113z" />
    <glyph glyph-name="Ncommaaccent" unicode="&#x145;" horiz-adv-x="725" 
d="M553 718h93v-718h-83l-392 578v-578h-92v718h101l373 -555v555zM355 -115h-39v72h97v-61q0 -42 -29.5 -67.5t-78.5 -25.5v41q25 1 37 10.5t13 30.5z" />
    <glyph glyph-name="ncommaaccent" unicode="&#x146;" horiz-adv-x="564" 
d="M165 0h-90v523h90v-71q27 39 67.5 60t88.5 21q80 0 127 -51t47 -137v-345h-90v321q0 62 -28 95t-81 33q-54 0 -92.5 -38.5t-38.5 -98.5v-312zM278 -115h-39v72h97v-61q0 -42 -29.5 -67.5t-78.5 -25.5v41q25 1 37 10.5t13 30.5z" />
    <glyph glyph-name="Ncaron" unicode="&#x147;" horiz-adv-x="725" 
d="M553 718h93v-718h-83l-392 578v-578h-92v718h101l373 -555v555zM542 911l-117 -145h-108l-117 145h73l98 -87l98 87h73z" />
    <glyph glyph-name="ncaron" unicode="&#x148;" horiz-adv-x="564" 
d="M165 0h-90v523h90v-71q27 39 67.5 60t88.5 21q80 0 127 -51t47 -137v-345h-90v321q0 62 -28 95t-81 33q-54 0 -92.5 -38.5t-38.5 -98.5v-312zM441 718l-98 -139h-98l-98 139h70l77 -78l77 78h70z" />
    <glyph glyph-name="Eng" unicode="&#x14a;" horiz-adv-x="725" 
d="M553 166v552h93v-761q0 -67 -38.5 -103.5t-108.5 -36.5q-14 0 -25 0.5t-26 2.5v78q10 -2 18 -2.5t18 -0.5q37 0 54 18.5t17 59.5v38l-384 565v-576h-92v718h101z" />
    <glyph glyph-name="eng" unicode="&#x14b;" horiz-adv-x="564" 
d="M321 533q80 0 127 -51t47 -137v-388q0 -67 -38.5 -103.5t-108.5 -36.5q-14 0 -25 0.5t-26 2.5v78q10 -2 18 -2.5t18 -0.5q38 0 55 18.5t17 59.5v348q0 62 -28 95t-81 33q-54 0 -92.5 -38.5t-38.5 -98.5v-312h-90v523h90v-71q27 39 67.5 60t88.5 21z" />
    <glyph glyph-name="Omacron" unicode="&#x14c;" horiz-adv-x="726" 
d="M121 102q-41 50 -62.5 115.5t-21.5 141.5t21.5 141.5t62.5 115.5q45 55 107.5 84t134.5 29t134.5 -29t106.5 -84q41 -50 62.5 -115.5t21.5 -141.5t-21.5 -141.5t-62.5 -115.5q-44 -55 -106.5 -84t-134.5 -29t-134.5 29t-107.5 84zM538 165q27 38 41 87.5t14 106.5
t-14 106.5t-41 87.5q-32 44 -77 67.5t-98 23.5t-98 -23.5t-77 -67.5q-27 -38 -41 -87.5t-14 -106.5t14 -106.5t41 -87.5q32 -44 77 -67.5t98 -23.5t98 23.5t77 67.5zM519 855v-75h-312v75h312z" />
    <glyph glyph-name="omacron" unicode="&#x14d;" horiz-adv-x="564" 
d="M462 452q31 -36 47 -85t16 -106t-16 -106t-47 -85q-33 -39 -79.5 -60t-100.5 -21t-100.5 21t-79.5 60q-31 36 -47 85t-16 106t16 106t47 85q33 39 79.5 60t100.5 21t100.5 -21t79.5 -60zM282 457q-69 0 -110.5 -53t-41.5 -143q0 -89 41.5 -142t110.5 -53t110.5 53
t41.5 142q0 90 -41.5 143t-110.5 53zM419 678v-72h-274v72h274z" />
    <glyph glyph-name="Obreve" unicode="&#x14e;" horiz-adv-x="726" 
d="M121 102q-41 50 -62.5 115.5t-21.5 141.5t21.5 141.5t62.5 115.5q45 55 107.5 84t134.5 29t134.5 -29t106.5 -84q41 -50 62.5 -115.5t21.5 -141.5t-21.5 -141.5t-62.5 -115.5q-44 -55 -106.5 -84t-134.5 -29t-134.5 29t-107.5 84zM538 165q27 38 41 87.5t14 106.5
t-14 106.5t-41 87.5q-32 44 -77 67.5t-98 23.5t-98 -23.5t-77 -67.5q-27 -38 -41 -87.5t-14 -106.5t14 -106.5t41 -87.5q32 -44 77 -67.5t98 -23.5t98 23.5t77 67.5zM363 825q38 0 62 23.5t24 61.5h68q0 -67 -42 -107t-112 -40t-112 40t-42 107h68q0 -38 24 -61.5t62 -23.5z
" />
    <glyph glyph-name="obreve" unicode="&#x14f;" horiz-adv-x="564" 
d="M462 452q31 -36 47 -85t16 -106t-16 -106t-47 -85q-33 -39 -79.5 -60t-100.5 -21t-100.5 21t-79.5 60q-31 36 -47 85t-16 106t16 106t47 85q33 39 79.5 60t100.5 21t100.5 -21t79.5 -60zM282 457q-69 0 -110.5 -53t-41.5 -143q0 -89 41.5 -142t110.5 -53t110.5 53
t41.5 142q0 90 -41.5 143t-110.5 53zM282 639q32 0 51.5 21t19.5 58h63q0 -67 -36 -105.5t-98 -38.5t-98 38.5t-36 105.5h63q0 -37 19.5 -58t51.5 -21z" />
    <glyph glyph-name="Ohungarumlaut" unicode="&#x150;" horiz-adv-x="726" 
d="M121 102q-41 50 -62.5 115.5t-21.5 141.5t21.5 141.5t62.5 115.5q45 55 107.5 84t134.5 29t134.5 -29t106.5 -84q41 -50 62.5 -115.5t21.5 -141.5t-21.5 -141.5t-62.5 -115.5q-44 -55 -106.5 -84t-134.5 -29t-134.5 29t-107.5 84zM538 165q27 38 41 87.5t14 106.5
t-14 106.5t-41 87.5q-32 44 -77 67.5t-98 23.5t-98 -23.5t-77 -67.5q-27 -38 -41 -87.5t-14 -106.5t14 -106.5t41 -87.5q32 -44 77 -67.5t98 -23.5t98 23.5t77 67.5zM485 765h-71l91 145h109zM301 765h-72l92 145h109z" />
    <glyph glyph-name="ohungarumlaut" unicode="&#x151;" horiz-adv-x="564" 
d="M462 452q31 -36 47 -85t16 -106t-16 -106t-47 -85q-33 -39 -79.5 -60t-100.5 -21t-100.5 21t-79.5 60q-31 36 -47 85t-16 106t16 106t47 85q33 39 79.5 60t100.5 21t100.5 -21t79.5 -60zM282 457q-69 0 -110.5 -53t-41.5 -143q0 -89 41.5 -142t110.5 -53t110.5 53
t41.5 142q0 90 -41.5 143t-110.5 53zM388 579h-65l61 139h102zM232 579h-64l61 139h102z" />
    <glyph glyph-name="OE" unicode="&#x152;" horiz-adv-x="1045" 
d="M133 97q-47 48 -71.5 114.5t-24.5 147.5t24.5 147.5t71.5 114.5q48 47 114 72t147 25h603v-84h-374v-221h317v-84h-317v-245h374v-84h-603q-81 0 -147 25t-114 72zM528 82v554h-134q-121 0 -191.5 -75t-70.5 -202q0 -128 71 -202.5t192 -74.5h133z" />
    <glyph glyph-name="oe" unicode="&#x153;" horiz-adv-x="937" 
d="M681 -11q-55 0 -101.5 20.5t-79.5 60.5q-11 12 -20 25q-8 -13 -18 -25q-33 -39 -79.5 -60t-100.5 -21t-100.5 21t-79.5 60q-31 36 -47 85t-16 106t16 106t47 85q33 39 79.5 60t100.5 21t100.5 -21t79.5 -60q10 -12 19 -26q8 13 18 25q33 40 79 61t99 21q103 0 163 -70
t60 -186v-30h-375q-1 -11 -2 -21q8 -68 46 -110q43 -49 112 -49q52 0 88 26.5t48 73.5l79 -28q-24 -71 -81 -110.5t-134 -39.5zM282 457q-69 0 -110.5 -53t-41.5 -143q0 -89 41.5 -142t110.5 -53t110.5 53t41.5 142q0 90 -41.5 143t-110.5 53zM676 456q-58 0 -97.5 -37
t-51.5 -103h282q-2 64 -37 102t-96 38z" />
    <glyph glyph-name="Racute" unicode="&#x154;" horiz-adv-x="648" 
d="M314 301h-139v-301h-96v718h274q118 0 183.5 -54.5t65.5 -153.5q0 -84 -48 -136.5t-136 -67.5l199 -306h-110zM175 635v-251h173q77 0 118 32.5t41 93.5q0 60 -41 92.5t-118 32.5h-173zM320 765h-72l101 145h126z" />
    <glyph glyph-name="racute" unicode="&#x155;" horiz-adv-x="370" 
d="M310 527q9 0 18 -0.5t18 -1.5v-91q-11 2 -21 3t-23 1q-59 0 -98 -42.5t-39 -109.5v-286h-90v523h90v-89q19 43 57.5 68t87.5 25zM242 579h-71l59 139h113z" />
    <glyph glyph-name="Rcommaaccent" unicode="&#x156;" horiz-adv-x="648" 
d="M314 301h-139v-301h-96v718h274q118 0 183.5 -54.5t65.5 -153.5q0 -84 -48 -136.5t-136 -67.5l199 -306h-110zM175 635v-251h173q77 0 118 32.5t41 93.5q0 60 -41 92.5t-118 32.5h-173zM313 -115h-39v72h97v-61q0 -42 -29.5 -67.5t-78.5 -25.5v41q25 1 37 10.5t13 30.5z
" />
    <glyph glyph-name="rcommaaccent" unicode="&#x157;" horiz-adv-x="370" 
d="M310 527q9 0 18 -0.5t18 -1.5v-91q-11 2 -21 3t-23 1q-59 0 -98 -42.5t-39 -109.5v-286h-90v523h90v-89q19 43 57.5 68t87.5 25zM110 -115h-39v72h97v-61q0 -42 -29.5 -67.5t-78.5 -25.5v41q25 1 37 10.5t13 30.5z" />
    <glyph glyph-name="Rcaron" unicode="&#x158;" horiz-adv-x="648" 
d="M314 301h-139v-301h-96v718h274q118 0 183.5 -54.5t65.5 -153.5q0 -84 -48 -136.5t-136 -67.5l199 -306h-110zM175 635v-251h173q77 0 118 32.5t41 93.5q0 60 -41 92.5t-118 32.5h-173zM493 911l-117 -145h-108l-117 145h73l98 -87l98 87h73z" />
    <glyph glyph-name="rcaron" unicode="&#x159;" horiz-adv-x="370" 
d="M310 527q9 0 18 -0.5t18 -1.5v-91q-11 2 -21 3t-23 1q-59 0 -98 -42.5t-39 -109.5v-286h-90v523h90v-89q19 43 57.5 68t87.5 25zM366 718l-98 -139h-98l-98 139h70l77 -78l77 78h70z" />
    <glyph glyph-name="Sacute" unicode="&#x15a;" horiz-adv-x="587" 
d="M296 -11q-95 0 -175.5 44t-116.5 115l75 60q34 -64 91.5 -100t127.5 -36q74 0 119.5 35t45.5 93q0 33 -16.5 55.5t-53.5 38.5q-15 6 -34.5 12t-87.5 22q-64 15 -97 27.5t-56 27.5q-37 24 -54.5 58t-17.5 80q0 47 19.5 86.5t56.5 68.5q33 26 76.5 39.5t92.5 13.5
q87 0 155 -37.5t103 -103.5l-73 -58q-31 59 -77.5 87.5t-109.5 28.5q-66 0 -108 -33t-42 -84q0 -30 14.5 -50t45.5 -35q15 -6 36.5 -12.5t71.5 -18.5q84 -20 115.5 -31t54.5 -25q41 -25 60.5 -61.5t19.5 -87.5q0 -49 -21 -91t-61 -72q-35 -27 -81.5 -41.5t-97.5 -14.5z
M324 765h-72l101 145h126z" />
    <glyph glyph-name="sacute" unicode="&#x15b;" horiz-adv-x="486" 
d="M247 -11q-77 0 -139.5 32.5t-90.5 89.5l70 51q21 -45 64.5 -71.5t95.5 -26.5t83.5 22t31.5 61q0 23 -11.5 38t-38.5 24q-11 4 -25 7.5t-61 13.5q-55 12 -79 20.5t-41 19.5q-29 17 -42.5 43t-13.5 62q0 69 54 113.5t138 44.5q68 0 123 -29.5t79 -78.5l-64 -51
q-21 41 -58 63t-84 22q-45 0 -72.5 -21t-27.5 -56q0 -20 10.5 -33t33.5 -22q10 -3 23.5 -7t51.5 -12q67 -16 89.5 -23.5t39.5 -17.5q33 -19 48.5 -46.5t15.5 -65.5q0 -72 -58 -119t-145 -47zM272 579h-71l59 139h113z" />
    <glyph glyph-name="Scircumflex" unicode="&#x15c;" horiz-adv-x="587" 
d="M296 -11q-95 0 -175.5 44t-116.5 115l75 60q34 -64 91.5 -100t127.5 -36q74 0 119.5 35t45.5 93q0 33 -16.5 55.5t-53.5 38.5q-15 6 -34.5 12t-87.5 22q-64 15 -97 27.5t-56 27.5q-37 24 -54.5 58t-17.5 80q0 47 19.5 86.5t56.5 68.5q33 26 76.5 39.5t92.5 13.5
q87 0 155 -37.5t103 -103.5l-73 -58q-31 59 -77.5 87.5t-109.5 28.5q-66 0 -108 -33t-42 -84q0 -30 14.5 -50t45.5 -35q15 -6 36.5 -12.5t71.5 -18.5q84 -20 115.5 -31t54.5 -25q41 -25 60.5 -61.5t19.5 -87.5q0 -49 -21 -91t-61 -72q-35 -27 -81.5 -41.5t-97.5 -14.5z
M245 910h108l117 -145h-73l-98 87l-98 -87h-73z" />
    <glyph glyph-name="scircumflex" unicode="&#x15d;" horiz-adv-x="486" 
d="M247 -11q-77 0 -139.5 32.5t-90.5 89.5l70 51q21 -45 64.5 -71.5t95.5 -26.5t83.5 22t31.5 61q0 23 -11.5 38t-38.5 24q-11 4 -25 7.5t-61 13.5q-55 12 -79 20.5t-41 19.5q-29 17 -42.5 43t-13.5 62q0 69 54 113.5t138 44.5q68 0 123 -29.5t79 -78.5l-64 -51
q-21 41 -58 63t-84 22q-45 0 -72.5 -21t-27.5 -56q0 -20 10.5 -33t33.5 -22q10 -3 23.5 -7t51.5 -12q67 -16 89.5 -23.5t39.5 -17.5q33 -19 48.5 -46.5t15.5 -65.5q0 -72 -58 -119t-145 -47zM196 718h98l98 -139h-70l-77 78l-77 -78h-70z" />
    <glyph glyph-name="Scedilla" unicode="&#x15e;" horiz-adv-x="587" 
d="M4 148l75 60q34 -64 91.5 -100t127.5 -36q74 0 119.5 35t45.5 93q0 33 -16.5 55.5t-53.5 38.5q-15 6 -34.5 12t-87.5 22q-64 15 -97 27.5t-56 27.5q-37 24 -54.5 58t-17.5 80q0 47 19.5 86.5t56.5 68.5q33 26 76.5 39.5t92.5 13.5q87 0 155 -37.5t103 -103.5l-73 -58
q-31 59 -77.5 87.5t-109.5 28.5q-66 0 -108 -33t-42 -84q0 -30 14.5 -50t45.5 -35q15 -6 36.5 -12.5t71.5 -18.5q84 -20 115.5 -31t54.5 -25q41 -25 60.5 -61.5t19.5 -87.5q0 -49 -20.5 -90.5t-59.5 -71.5q-35 -28 -80.5 -42.5t-95.5 -14.5l-5 -16q40 -5 62.5 -25.5
t22.5 -53.5q0 -37 -31.5 -60.5t-78.5 -23.5q-31 0 -57 10t-42 29l34 47q13 -16 28.5 -24t33.5 -8q22 0 34.5 8.5t12.5 24.5q0 17 -18.5 26.5t-60.5 12.5l17 56q-83 9 -150.5 51t-98.5 105z" />
    <glyph glyph-name="scedilla" unicode="&#x15f;" horiz-adv-x="486" 
d="M17 111l70 51q21 -45 64.5 -71.5t95.5 -26.5t83.5 22t31.5 61q0 23 -11.5 38t-38.5 24q-11 4 -25 7.5t-61 13.5q-55 12 -79 20.5t-41 19.5q-29 17 -42.5 43t-13.5 62q0 69 54 113.5t138 44.5q68 0 123 -29.5t79 -78.5l-64 -51q-21 41 -58 63t-84 22q-45 0 -72.5 -21
t-27.5 -56q0 -20 10.5 -33t33.5 -22q10 -3 23.5 -7t51.5 -12q67 -16 89.5 -23.5t39.5 -17.5q33 -19 48.5 -46.5t15.5 -65.5q0 -72 -58 -119t-145 -47h-2l-5 -16q40 -5 62.5 -25.5t22.5 -53.5q0 -37 -31.5 -60.5t-78.5 -23.5q-31 0 -57 10t-42 29l34 47q13 -16 28.5 -24
t33.5 -8q22 0 34.5 8.5t12.5 24.5q0 17 -18.5 26.5t-60.5 12.5l17 57q-63 10 -110 40.5t-70 77.5z" />
    <glyph glyph-name="Scaron" unicode="&#x160;" horiz-adv-x="587" 
d="M296 -11q-95 0 -175.5 44t-116.5 115l75 60q34 -64 91.5 -100t127.5 -36q74 0 119.5 35t45.5 93q0 33 -16.5 55.5t-53.5 38.5q-15 6 -34.5 12t-87.5 22q-64 15 -97 27.5t-56 27.5q-37 24 -54.5 58t-17.5 80q0 47 19.5 86.5t56.5 68.5q33 26 76.5 39.5t92.5 13.5
q87 0 155 -37.5t103 -103.5l-73 -58q-31 59 -77.5 87.5t-109.5 28.5q-66 0 -108 -33t-42 -84q0 -30 14.5 -50t45.5 -35q15 -6 36.5 -12.5t71.5 -18.5q84 -20 115.5 -31t54.5 -25q41 -25 60.5 -61.5t19.5 -87.5q0 -49 -21 -91t-61 -72q-35 -27 -81.5 -41.5t-97.5 -14.5z
M469 911l-117 -145h-108l-117 145h73l98 -87l98 87h73z" />
    <glyph glyph-name="scaron" unicode="&#x161;" horiz-adv-x="486" 
d="M247 -11q-77 0 -139.5 32.5t-90.5 89.5l70 51q21 -45 64.5 -71.5t95.5 -26.5t83.5 22t31.5 61q0 23 -11.5 38t-38.5 24q-11 4 -25 7.5t-61 13.5q-55 12 -79 20.5t-41 19.5q-29 17 -42.5 43t-13.5 62q0 69 54 113.5t138 44.5q68 0 123 -29.5t79 -78.5l-64 -51
q-21 41 -58 63t-84 22q-45 0 -72.5 -21t-27.5 -56q0 -20 10.5 -33t33.5 -22q10 -3 23.5 -7t51.5 -12q67 -16 89.5 -23.5t39.5 -17.5q33 -19 48.5 -46.5t15.5 -65.5q0 -72 -58 -119t-145 -47zM395 718l-98 -139h-98l-98 139h70l77 -78l77 78h70z" />
    <glyph glyph-name="Tcommaaccent" unicode="&#x162;" horiz-adv-x="616" 
d="M405 -106q0 -37 -31.5 -60.5t-78.5 -23.5q-31 0 -57 10t-42 29l34 47q13 -16 28.5 -24t33.5 -8q22 0 34.5 8.5t12.5 24.5q0 17 -18.5 26.5t-60.5 12.5l19 64h-19v634h-243v84h582v-84h-243v-634h-28l-8 -27q40 -5 62.5 -25.5t22.5 -53.5z" />
    <glyph glyph-name="tcommaaccent" unicode="&#x163;" horiz-adv-x="341" 
d="M89 125v321h-81v77h81v153h89v-153h119v-77h-119v-307q0 -35 15.5 -50t57.5 -15q18 0 30.5 1.5t26.5 4.5v-77q-18 -4 -38 -6t-41 -2h-3.5h-3.5l-7 -22q40 -5 62.5 -25.5t22.5 -53.5q0 -37 -31.5 -60.5t-78.5 -23.5q-31 0 -57 10t-42 29l34 47q13 -16 28.5 -24t33.5 -8
q22 0 34.5 8.5t12.5 24.5q0 17 -18.5 26.5t-60.5 12.5l19 64q-44 10 -64.5 40t-20.5 85z" />
    <glyph glyph-name="Tcaron" unicode="&#x164;" horiz-adv-x="616" 
d="M599 718v-84h-243v-634h-96v634h-243v84h582zM479 911l-117 -145h-108l-117 145h73l98 -87l98 87h73z" />
    <glyph glyph-name="tcaron" unicode="&#x165;" horiz-adv-x="341" 
d="M229 -5q-75 0 -107.5 31t-32.5 99v321h-81v77h81v153h89v-153h119v-77h-119v-307q0 -35 15.5 -50t57.5 -15q18 0 30.5 1.5t26.5 4.5v-77q-18 -4 -38 -6t-41 -2zM282 575h-61l23 176h103z" />
    <glyph glyph-name="Tbar" unicode="&#x166;" horiz-adv-x="616" 
d="M469 412v-84h-113v-328h-96v328h-113v84h113v222h-243v84h582v-84h-243v-222h113z" />
    <glyph glyph-name="tbar" unicode="&#x167;" horiz-adv-x="362" 
d="M245 -6q-75 0 -109 31.5t-34 98.5v133h-87v77h87v112h-87v77h87v153h89v-153h123v-77h-123v-112h123v-77h-123v-115q0 -34 17 -49.5t59 -15.5q17 0 31 1.5t30 5.5v-81q-18 -5 -38.5 -7t-44.5 -2z" />
    <glyph glyph-name="Utilde" unicode="&#x168;" horiz-adv-x="697" 
d="M348 -10q-131 0 -206.5 77.5t-75.5 216.5v434h96v-431q0 -102 48.5 -156.5t137.5 -54.5t138 54.5t49 156.5v431h96v-434q0 -139 -75.5 -216.5t-207.5 -77.5zM277 905q18 0 35.5 -7t46.5 -30q22 -17 33.5 -22t21.5 -5q21 0 33 16t17 49h63q-5 -65 -33.5 -102.5
t-74.5 -37.5q-18 0 -36 7.5t-47 29.5q-22 18 -33 23t-21 5q-21 0 -33 -16t-17 -49h-63q4 65 32.5 102t75.5 37z" />
    <glyph glyph-name="utilde" unicode="&#x169;" horiz-adv-x="564" 
d="M400 523h90v-523h-90v72q-27 -40 -67 -61.5t-88 -21.5q-81 0 -128 51t-47 137v346h90v-327q0 -61 27.5 -92.5t81.5 -31.5q55 0 93 38.5t38 97.5v315zM216 719q16 0 32 -7.5t41 -29.5q19 -17 28 -22t18 -5q19 0 29 14.5t15 49.5h59q-5 -63 -30.5 -99t-66.5 -36
q-16 0 -32 7t-41 30q-19 16 -28 21t-18 5q-19 0 -29 -15t-14 -48h-59q4 64 29 99.5t67 35.5z" />
    <glyph glyph-name="Umacron" unicode="&#x16a;" horiz-adv-x="697" 
d="M348 -10q-131 0 -206.5 77.5t-75.5 216.5v434h96v-431q0 -102 48.5 -156.5t137.5 -54.5t138 54.5t49 156.5v431h96v-434q0 -139 -75.5 -216.5t-207.5 -77.5zM504 855v-75h-312v75h312z" />
    <glyph glyph-name="umacron" unicode="&#x16b;" horiz-adv-x="564" 
d="M400 523h90v-523h-90v72q-27 -40 -67 -61.5t-88 -21.5q-81 0 -128 51t-47 137v346h90v-327q0 -61 27.5 -92.5t81.5 -31.5q55 0 93 38.5t38 97.5v315zM416 678v-72h-274v72h274z" />
    <glyph glyph-name="Ubreve" unicode="&#x16c;" horiz-adv-x="697" 
d="M348 -10q-131 0 -206.5 77.5t-75.5 216.5v434h96v-431q0 -102 48.5 -156.5t137.5 -54.5t138 54.5t49 156.5v431h96v-434q0 -139 -75.5 -216.5t-207.5 -77.5zM348 825q38 0 62 23.5t24 61.5h68q0 -67 -42 -107t-112 -40t-112 40t-42 107h68q0 -38 24 -61.5t62 -23.5z" />
    <glyph glyph-name="ubreve" unicode="&#x16d;" horiz-adv-x="564" 
d="M400 523h90v-523h-90v72q-27 -40 -67 -61.5t-88 -21.5q-81 0 -128 51t-47 137v346h90v-327q0 -61 27.5 -92.5t81.5 -31.5q55 0 93 38.5t38 97.5v315zM279 639q32 0 51.5 21t19.5 58h63q0 -67 -36 -105.5t-98 -38.5t-98 38.5t-36 105.5h63q0 -37 19.5 -58t51.5 -21z" />
    <glyph glyph-name="Uring" unicode="&#x16e;" horiz-adv-x="697" 
d="M348 -10q-131 0 -206.5 77.5t-75.5 216.5v434h96v-431q0 -102 48.5 -156.5t137.5 -54.5t138 54.5t49 156.5v431h96v-434q0 -139 -75.5 -216.5t-207.5 -77.5zM348 728q-49 0 -83 33.5t-34 80.5t34 80t83 33q50 0 83.5 -32.5t33.5 -80.5q0 -47 -34 -80.5t-83 -33.5z
M348 899q-24 0 -40 -16.5t-16 -40.5q0 -25 16 -41t40 -16t40 16t16 41q0 24 -16 40.5t-40 16.5z" />
    <glyph glyph-name="uring" unicode="&#x16f;" horiz-adv-x="564" 
d="M400 523h90v-523h-90v72q-27 -40 -67 -61.5t-88 -21.5q-81 0 -128 51t-47 137v346h90v-327q0 -61 27.5 -92.5t81.5 -31.5q55 0 93 38.5t38 97.5v315zM279 568q-43 0 -72 28.5t-29 70.5q0 41 29 69t72 28t72 -28t29 -69q0 -42 -29 -70.5t-72 -28.5zM279 717q-20 0 -35 -15
t-15 -35q0 -21 14.5 -36.5t35.5 -15.5t35.5 15.5t14.5 36.5q0 20 -15 35t-35 15z" />
    <glyph glyph-name="Uhungarumlaut" unicode="&#x170;" horiz-adv-x="697" 
d="M348 -10q-131 0 -206.5 77.5t-75.5 216.5v434h96v-431q0 -102 48.5 -156.5t137.5 -54.5t138 54.5t49 156.5v431h96v-434q0 -139 -75.5 -216.5t-207.5 -77.5zM465 765h-71l91 145h109zM281 765h-72l92 145h109z" />
    <glyph glyph-name="uhungarumlaut" unicode="&#x171;" horiz-adv-x="564" 
d="M400 523h90v-523h-90v72q-27 -40 -67 -61.5t-88 -21.5q-81 0 -128 51t-47 137v346h90v-327q0 -61 27.5 -92.5t81.5 -31.5q55 0 93 38.5t38 97.5v315zM390 579h-65l61 139h102zM234 579h-64l61 139h102z" />
    <glyph glyph-name="Uogonek" unicode="&#x172;" horiz-adv-x="697" 
d="M397 -186q-39 0 -64.5 22.5t-25.5 57.5q0 26 11 49t36 47h-2.5h-3.5q-131 0 -206.5 77.5t-75.5 216.5v434h96v-431q0 -102 48.5 -156.5t137.5 -54.5t138 54.5t49 156.5v431h96v-434q0 -112 -49.5 -184.5t-140.5 -97.5q-39 -34 -53.5 -54.5t-14.5 -39.5q0 -16 11 -25.5
t29 -9.5q11 0 19.5 1.5t20.5 4.5v-58q-14 -4 -25.5 -5.5t-30.5 -1.5z" />
    <glyph glyph-name="uogonek" unicode="&#x173;" horiz-adv-x="564" 
d="M425 -186q-39 0 -64.5 22.5t-25.5 57.5q0 30 15 56.5t50 55.5v66q-27 -40 -67 -61.5t-88 -21.5q-81 0 -128 51t-47 137v346h90v-327q0 -61 27.5 -92.5t81.5 -31.5q55 0 93 38.5t38 97.5v315h90v-523h-23q-38 -33 -52 -53t-14 -39q0 -16 11 -25.5t29 -9.5q11 0 19.5 1.5
t20.5 4.5v-58q-14 -4 -25.5 -5.5t-30.5 -1.5z" />
    <glyph glyph-name="Wcircumflex" unicode="&#x174;" horiz-adv-x="921" 
d="M268 143l151 575h85l152 -575l153 575h95l-197 -718h-94l-153 559l-152 -559h-94l-198 718h99zM406 910h108l117 -145h-73l-98 87l-98 -87h-73z" />
    <glyph glyph-name="wcircumflex" unicode="&#x175;" horiz-adv-x="720" 
d="M216 134l108 389h76l108 -390l109 390h90l-159 -523h-79l-109 388l-109 -388h-79l-159 523h93zM315 718h98l98 -139h-70l-77 78l-77 -78h-70z" />
    <glyph glyph-name="Ycircumflex" unicode="&#x176;" horiz-adv-x="626" 
d="M109 718l205 -329l205 329h102l-260 -416v-302h-96v302l-260 416h104zM258 910h108l117 -145h-73l-98 87l-98 -87h-73z" />
    <glyph glyph-name="ycircumflex" unicode="&#x177;" horiz-adv-x="507" 
d="M494 523l-225 -580q-27 -70 -65 -99.5t-97 -29.5q-16 0 -26.5 1t-22.5 3v78q12 -3 21.5 -4t21.5 -1q31 0 48.5 14.5t32.5 51.5l25 62l-194 504h95l147 -400l145 400h94zM205 718h98l98 -139h-70l-77 78l-77 -78h-70z" />
    <glyph glyph-name="Ydieresis" unicode="&#x178;" horiz-adv-x="626" 
d="M109 718l205 -329l205 329h102l-260 -416v-302h-96v302l-260 416h104zM273 769h-100v104h100v-104zM451 769h-100v104h100v-104z" />
    <glyph glyph-name="Zacute" unicode="&#x179;" horiz-adv-x="620" 
d="M159 84h426v-84h-547v74l422 560h-417v84h538v-74zM318 765h-72l101 145h126z" />
    <glyph glyph-name="zacute" unicode="&#x17a;" horiz-adv-x="495" 
d="M154 77h299v-77h-412v68l302 378h-298v77h405v-69zM268 579h-71l59 139h113z" />
    <glyph glyph-name="Zdotaccent" unicode="&#x17b;" horiz-adv-x="620" 
d="M159 84h426v-84h-547v74l422 560h-417v84h538v-74zM365 769h-100v104h100v-104z" />
    <glyph glyph-name="zdotaccent" unicode="&#x17c;" horiz-adv-x="495" 
d="M154 77h299v-77h-412v68l302 378h-298v77h405v-69zM293 614h-98v104h98v-104z" />
    <glyph glyph-name="Zcaron" unicode="&#x17d;" horiz-adv-x="620" 
d="M159 84h426v-84h-547v74l422 560h-417v84h538v-74zM489 911l-117 -145h-108l-117 145h73l98 -87l98 87h73z" />
    <glyph glyph-name="zcaron" unicode="&#x17e;" horiz-adv-x="495" 
d="M154 77h299v-77h-412v68l302 378h-298v77h405v-69zM396 718l-98 -139h-98l-98 139h70l77 -78l77 78h70z" />
    <glyph glyph-name="florin" unicode="&#x192;" horiz-adv-x="548" 
d="M227 359h-104v66h114l17 115q14 92 60 140.5t122 48.5q34 0 63.5 -11.5t51.5 -33.5l-36 -66q-13 16 -31 25t-38 9q-39 0 -64 -29t-33 -85l-17 -113h120v-66h-130l-28 -181q-12 -92 -58.5 -140.5t-122.5 -48.5q-34 0 -64.5 12t-51.5 33l37 66q13 -16 31.5 -25.5t37.5 -9.5
q39 0 63.5 29t33.5 86z" />
    <glyph glyph-name="AEacute" unicode="&#x1fc;" horiz-adv-x="1029" 
d="M10 0l449 718h523v-84h-375v-221h317v-84h-317v-245h375v-84h-469v195h-278l-121 -195h-104zM513 641l-225 -362h225v362zM752 765h-72l101 145h126z" />
    <glyph glyph-name="aeacute" unicode="&#x1fd;" horiz-adv-x="857" 
d="M34 143q0 81 64.5 127t175.5 46h87v40q0 49 -26.5 73.5t-78.5 24.5q-50 0 -80 -23.5t-39 -70.5l-85 23q17 69 73 109.5t135 40.5q59 0 100.5 -21t62.5 -62q33 40 77.5 61.5t96.5 21.5q103 0 162.5 -69.5t59.5 -186.5v-30h-377q4 -82 47 -131t112 -49q52 0 88 26.5
t48 73.5l78 -28q-23 -70 -80 -110t-134 -40q-63 0 -114.5 27.5t-83.5 78.5q-27 -49 -78.5 -76.5t-115.5 -27.5q-76 0 -125.5 42t-49.5 110zM596 456q-58 0 -97.5 -37t-51.5 -103h281q-1 64 -36 102t-96 38zM123 149q0 -39 26.5 -61.5t72.5 -22.5q59 0 99 38t40 95v49h-85
q-79 0 -116 -24t-37 -74zM459 579h-71l59 139h113z" />
    <glyph glyph-name="Oslashacute" unicode="&#x1fe;" horiz-adv-x="726" 
d="M103 -21l-56 45l69 84q-39 50 -59 113.5t-20 137.5q0 76 21.5 141.5t62.5 115.5q45 55 107.5 84t134.5 29q59 0 111 -19t94 -56l59 71l56 -45l-66 -80q35 -49 53 -110t18 -131q0 -76 -21.5 -141.5t-62.5 -115.5q-44 -55 -106.5 -84t-134.5 -29q-55 0 -105 17t-91 50z
M188 553q-27 -38 -41 -87.5t-14 -106.5q0 -51 11 -96t33 -82l334 404q-30 29 -67.5 44t-80.5 15q-53 0 -98 -23.5t-77 -67.5zM538 165q27 38 41 87.5t14 106.5q0 47 -9.5 89t-28.5 77l-331 -400q29 -25 64 -38t75 -13q53 0 98 23.5t77 67.5zM375 765h-72l101 145h126z" />
    <glyph glyph-name="oslashacute" unicode="&#x1ff;" horiz-adv-x="564" 
d="M39 261q0 57 16 106t47 85q33 39 79.5 60t100.5 21q39 0 75 -11t65 -33l42 52l53 -42l-46 -58q26 -36 40 -82t14 -98q0 -57 -16 -106t-47 -85q-33 -39 -79.5 -60t-100.5 -21q-39 0 -74 11t-65 32l-42 -53l-53 42l47 58q-28 36 -42 82t-14 100zM282 457q-69 0 -110.5 -53
t-41.5 -143q0 -31 5.5 -59t16.5 -51l220 275q-19 15 -41.5 23t-48.5 8zM282 66q69 0 110.5 53t41.5 142q0 32 -5 59t-16 49l-219 -273q18 -15 40 -22.5t48 -7.5zM312 579h-71l59 139h113z" />
    <glyph glyph-name="Scommaaccent" unicode="&#x218;" horiz-adv-x="587" 
d="M296 -11q-95 0 -175.5 44t-116.5 115l75 60q34 -64 91.5 -100t127.5 -36q74 0 119.5 35t45.5 93q0 33 -16.5 55.5t-53.5 38.5q-15 6 -34.5 12t-87.5 22q-64 15 -97 27.5t-56 27.5q-37 24 -54.5 58t-17.5 80q0 47 19.5 86.5t56.5 68.5q33 26 76.5 39.5t92.5 13.5
q87 0 155 -37.5t103 -103.5l-73 -58q-31 59 -77.5 87.5t-109.5 28.5q-66 0 -108 -33t-42 -84q0 -30 14.5 -50t45.5 -35q15 -6 36.5 -12.5t71.5 -18.5q84 -20 115.5 -31t54.5 -25q41 -25 60.5 -61.5t19.5 -87.5q0 -49 -21 -91t-61 -72q-35 -27 -81.5 -41.5t-97.5 -14.5z
M288 -115h-39v72h97v-61q0 -42 -29.5 -67.5t-78.5 -25.5v41q25 1 37 10.5t13 30.5z" />
    <glyph glyph-name="scommaaccent" unicode="&#x219;" horiz-adv-x="486" 
d="M247 -11q-77 0 -139.5 32.5t-90.5 89.5l70 51q21 -45 64.5 -71.5t95.5 -26.5t83.5 22t31.5 61q0 23 -11.5 38t-38.5 24q-11 4 -25 7.5t-61 13.5q-55 12 -79 20.5t-41 19.5q-29 17 -42.5 43t-13.5 62q0 69 54 113.5t138 44.5q68 0 123 -29.5t79 -78.5l-64 -51
q-21 41 -58 63t-84 22q-45 0 -72.5 -21t-27.5 -56q0 -20 10.5 -33t33.5 -22q10 -3 23.5 -7t51.5 -12q67 -16 89.5 -23.5t39.5 -17.5q33 -19 48.5 -46.5t15.5 -65.5q0 -72 -58 -119t-145 -47zM237 -115h-39v72h97v-61q0 -42 -29.5 -67.5t-78.5 -25.5v41q25 1 37 10.5t13 30.5
z" />
    <glyph glyph-name="uni021A" unicode="&#x21a;" horiz-adv-x="616" 
d="M599 718v-84h-243v-634h-96v634h-243v84h582zM298 -115h-39v72h97v-61q0 -42 -29.5 -67.5t-78.5 -25.5v41q25 1 37 10.5t13 30.5z" />
    <glyph glyph-name="uni021B" unicode="&#x21b;" horiz-adv-x="341" 
d="M229 -5q-75 0 -107.5 31t-32.5 99v321h-81v77h81v153h89v-153h119v-77h-119v-307q0 -35 15.5 -50t57.5 -15q18 0 30.5 1.5t26.5 4.5v-77q-18 -4 -38 -6t-41 -2zM196 -115h-39v72h97v-61q0 -42 -29.5 -67.5t-78.5 -25.5v41q25 1 37 10.5t13 30.5z" />
    <glyph glyph-name="uni0237" unicode="&#x237;" horiz-adv-x="240" 
d="M3 -105q38 0 55 18.5t17 59.5v550h90v-566q0 -67 -38.5 -103.5t-108.5 -36.5q-14 0 -25 0.5t-25 2.5v78q9 -2 17 -2.5t18 -0.5z" />
    <glyph glyph-name="circumflex" unicode="&#x2c6;" horiz-adv-x="600" 
d="M251 718h98l98 -139h-70l-77 78l-77 -78h-70z" />
    <glyph glyph-name="caron" unicode="&#x2c7;" horiz-adv-x="600" 
d="M447 718l-98 -139h-98l-98 139h70l77 -78l77 78h70z" />
    <glyph glyph-name="breve" unicode="&#x2d8;" horiz-adv-x="600" 
d="M300 639q32 0 51.5 21t19.5 58h63q0 -67 -36 -105.5t-98 -38.5t-98 38.5t-36 105.5h63q0 -37 19.5 -58t51.5 -21z" />
    <glyph glyph-name="dotaccent" unicode="&#x2d9;" horiz-adv-x="600" 
d="M349 614h-98v104h98v-104z" />
    <glyph glyph-name="ring" unicode="&#x2da;" horiz-adv-x="600" 
d="M300 568q-43 0 -72 28.5t-29 70.5q0 41 29 69t72 28t72 -28t29 -69q0 -42 -29 -70.5t-72 -28.5zM300 717q-20 0 -35 -15t-15 -35q0 -21 14.5 -36.5t35.5 -15.5t35.5 15.5t14.5 36.5q0 20 -15 35t-35 15z" />
    <glyph glyph-name="ogonek" unicode="&#x2db;" horiz-adv-x="600" 
d="M313 -186q-39 0 -64.5 22.5t-25.5 57.5q0 36 22.5 67.5t87.5 78.5l28 -35q-43 -37 -57.5 -57t-14.5 -40q0 -16 11 -25.5t29 -9.5q11 0 19.5 1.5t20.5 4.5v-58q-14 -4 -25.5 -5.5t-30.5 -1.5z" />
    <glyph glyph-name="tilde" unicode="&#x2dc;" horiz-adv-x="600" 
d="M237 719q16 0 32 -7.5t41 -29.5q19 -17 28 -22t18 -5q19 0 29 14.5t15 49.5h59q-5 -63 -30.5 -99t-66.5 -36q-16 0 -32 7t-41 30q-19 16 -28 21t-18 5q-19 0 -29 -15t-14 -48h-59q4 64 29 99.5t67 35.5z" />
    <glyph glyph-name="hungarumlaut" unicode="&#x2dd;" horiz-adv-x="600" 
d="M359 579h-65l61 139h102zM203 579h-64l61 139h102z" />
    <glyph glyph-name="gravecmb" unicode="&#x300;" horiz-adv-x="0" 
d="M27 718l59 -139h-71l-101 139h113z" />
    <glyph glyph-name="acutecmb" unicode="&#x301;" horiz-adv-x="0" 
d="M-15 579h-71l59 139h113z" />
    <glyph glyph-name="circumflexcmb" unicode="&#x302;" horiz-adv-x="0" 
d="M-49 718h98l98 -139h-70l-77 78l-77 -78h-70z" />
    <glyph glyph-name="tildecmb" unicode="&#x303;" horiz-adv-x="0" 
d="M-63 719q16 0 32 -7.5t41 -29.5q19 -17 28 -22t18 -5q19 0 29 14.5t15 49.5h59q-5 -63 -30.5 -99t-66.5 -36q-16 0 -32 7t-41 30q-19 16 -28 21t-18 5q-19 0 -29 -15t-14 -48h-59q4 64 29 99.5t67 35.5z" />
    <glyph glyph-name="macroncmb" unicode="&#x304;" horiz-adv-x="0" 
d="M137 678v-72h-274v72h274z" />
    <glyph glyph-name="brevecmb" unicode="&#x306;" horiz-adv-x="0" 
d="M0 639q32 0 51.5 21t19.5 58h63q0 -67 -36 -105.5t-98 -38.5t-98 38.5t-36 105.5h63q0 -37 19.5 -58t51.5 -21z" />
    <glyph glyph-name="dotaccentcmb" unicode="&#x307;" horiz-adv-x="0" 
d="M49 614h-98v104h98v-104z" />
    <glyph glyph-name="dieresiscmb" unicode="&#x308;" horiz-adv-x="0" 
d="M-36 610h-100v104h100v-104zM136 610h-100v104h100v-104z" />
    <glyph glyph-name="ringcmb" unicode="&#x30a;" horiz-adv-x="0" 
d="M0 568q-43 0 -72 28.5t-29 70.5q0 41 29 69t72 28t72 -28t29 -69q0 -42 -29 -70.5t-72 -28.5zM0 717q-20 0 -35 -15t-15 -35q0 -21 14.5 -36.5t35.5 -15.5t35.5 15.5t14.5 36.5q0 20 -15 35t-35 15z" />
    <glyph glyph-name="hungarumlautcmb" unicode="&#x30b;" horiz-adv-x="0" 
d="M61 579h-65l61 139h102zM-95 579h-64l61 139h102z" />
    <glyph glyph-name="caroncmb" unicode="&#x30c;" horiz-adv-x="0" 
d="M147 718l-98 -139h-98l-98 139h70l77 -78l77 78h70z" />
    <glyph glyph-name="commaaboverightcmb" unicode="&#x315;" horiz-adv-x="0" 
d="M-2 542h-61l23 176h103z" />
    <glyph glyph-name="cedillacmb" unicode="&#x327;" horiz-adv-x="0" 
d="M104 -106q0 -37 -31.5 -60.5t-78.5 -23.5q-31 0 -57 10t-42 29l34 47q13 -16 28.5 -24t33.5 -8q22 0 34.5 8.5t12.5 24.5q0 17 -18.5 26.5t-60.5 12.5l22 74h49l-11 -37q40 -5 62.5 -25.5t22.5 -53.5z" />
    <glyph glyph-name="ogonekcmb" unicode="&#x328;" horiz-adv-x="0" 
d="M17 -186q-39 0 -64.5 22.5t-25.5 57.5q0 36 22.5 67.5t87.5 78.5l28 -35q-43 -37 -57.5 -57t-14.5 -40q0 -16 11 -25.5t29 -9.5q11 0 19.5 1.5t20.5 4.5v-58q-14 -4 -25.5 -5.5t-30.5 -1.5z" />
    <glyph glyph-name="baht" unicode="&#xe3f;" horiz-adv-x="646" 
d="M294 0h-215v718h215v101h73v-101q105 -4 160.5 -52t55.5 -135q0 -58 -29 -98.5t-82 -58.5q64 -17 99.5 -63.5t35.5 -112.5q0 -93 -62.5 -145.5t-172.5 -52.5h-5v-102h-73v102zM167 639v-231h127v231h-127zM499 523q0 53 -33.5 82.5t-98.5 33.5v-231q65 4 98.5 33t33.5 82
zM294 330h-127v-251h127v251zM522 205q0 58 -39 91.5t-108 33.5h-8v-251h8q69 0 108 34t39 92z" />
    <glyph glyph-name="Wgrave" unicode="&#x1e80;" horiz-adv-x="921" 
d="M268 143l151 575h85l152 -575l153 575h95l-197 -718h-94l-153 559l-152 -559h-94l-198 718h99zM401 910l101 -145h-72l-155 145h126z" />
    <glyph glyph-name="wgrave" unicode="&#x1e81;" horiz-adv-x="720" 
d="M216 134l108 389h76l108 -390l109 390h90l-159 -523h-79l-109 388l-109 -388h-79l-159 523h93zM334 718l59 -139h-71l-101 139h113z" />
    <glyph glyph-name="Wacute" unicode="&#x1e82;" horiz-adv-x="921" 
d="M268 143l151 575h85l152 -575l153 575h95l-197 -718h-94l-153 559l-152 -559h-94l-198 718h99zM487 765h-72l101 145h126z" />
    <glyph glyph-name="wacute" unicode="&#x1e83;" horiz-adv-x="720" 
d="M216 134l108 389h76l108 -390l109 390h90l-159 -523h-79l-109 388l-109 -388h-79l-159 523h93zM407 579h-71l59 139h113z" />
    <glyph glyph-name="Wdieresis" unicode="&#x1e84;" horiz-adv-x="921" 
d="M268 143l151 575h85l152 -575l153 575h95l-197 -718h-94l-153 559l-152 -559h-94l-198 718h99zM421 769h-100v104h100v-104zM599 769h-100v104h100v-104z" />
    <glyph glyph-name="wdieresis" unicode="&#x1e85;" horiz-adv-x="720" 
d="M216 134l108 389h76l108 -390l109 390h90l-159 -523h-79l-109 388l-109 -388h-79l-159 523h93zM328 610h-100v104h100v-104zM500 610h-100v104h100v-104z" />
    <glyph glyph-name="Germandbls" unicode="&#x1e9e;" horiz-adv-x="723" 
d="M702 220q0 -101 -70 -166t-173 -65q-72 0 -130 31.5t-92 89.5l66 61q25 -48 66 -75t91 -27q66 0 108.5 41t42.5 108q0 73 -55.5 114t-154.5 41h-35v62l161 200h-352v-635h-96v718h555v-78l-158 -193q104 -11 165 -72t61 -155z" />
    <glyph glyph-name="Ygrave" unicode="&#x1ef2;" horiz-adv-x="626" 
d="M109 718l205 -329l205 329h102l-260 -416v-302h-96v302l-260 416h104zM277 910l101 -145h-72l-155 145h126z" />
    <glyph glyph-name="ygrave" unicode="&#x1ef3;" horiz-adv-x="507" 
d="M494 523l-225 -580q-27 -70 -65 -99.5t-97 -29.5q-16 0 -26.5 1t-22.5 3v78q12 -3 21.5 -4t21.5 -1q31 0 48.5 14.5t32.5 51.5l25 62l-194 504h95l147 -400l145 400h94zM241 718l59 -139h-71l-101 139h113z" />
    <glyph glyph-name="thinspace" unicode="&#x2009;" horiz-adv-x="100" 
 />
    <glyph glyph-name="endash" unicode="&#x2013;" horiz-adv-x="563" 
d="M513 255h-462v74h462v-74z" />
    <glyph glyph-name="emdash" unicode="&#x2014;" horiz-adv-x="997" 
d="M947 255h-896v74h896v-74z" />
    <glyph glyph-name="quoteleft" unicode="&#x2018;" horiz-adv-x="192" 
d="M100 584h52v-116h-114v123q0 57 35 91.5t95 35.5v-52q-34 -3 -51 -21t-17 -50v-11z" />
    <glyph glyph-name="quoteright" unicode="&#x2019;" horiz-adv-x="192" 
d="M92 602h-52v116h114v-123q0 -57 -35 -91.5t-95 -35.5v52q34 3 51 21t17 50v11z" />
    <glyph glyph-name="quotesinglbase" unicode="&#x201a;" horiz-adv-x="192" 
d="M92 11h-52v116h114v-123q0 -57 -35 -91.5t-95 -35.5v52q34 3 51 21t17 50v11z" />
    <glyph glyph-name="quotedblleft" unicode="&#x201c;" horiz-adv-x="366" 
d="M100 584h52v-116h-114v123q0 57 35 91.5t95 35.5v-52q-34 -3 -51 -21t-17 -50v-11zM274 584h52v-116h-114v123q0 57 35 91.5t95 35.5v-52q-34 -3 -51 -21t-17 -50v-11z" />
    <glyph glyph-name="quotedblright" unicode="&#x201d;" horiz-adv-x="366" 
d="M266 602h-52v116h114v-123q0 -57 -35 -91.5t-95 -35.5v52q34 3 51 21t17 50v11zM92 602h-52v116h114v-123q0 -57 -35 -91.5t-95 -35.5v52q34 3 51 21t17 50v11z" />
    <glyph glyph-name="quotedblbase" unicode="&#x201e;" horiz-adv-x="366" 
d="M266 11h-52v116h114v-123q0 -57 -35 -91.5t-95 -35.5v52q34 3 51 21t17 50v11zM92 11h-52v116h114v-123q0 -57 -35 -91.5t-95 -35.5v52q34 3 51 21t17 50v11z" />
    <glyph glyph-name="dagger" unicode="&#x2020;" horiz-adv-x="386" 
d="M229 295h-72v245h-130v73h130v125h72v-125h130v-73h-130v-245z" />
    <glyph glyph-name="daggerdbl" unicode="&#x2021;" horiz-adv-x="386" 
d="M229 295h-72v105h-130v69h130v96h-130v69h130v104h72v-104h130v-69h-130v-96h130v-69h-130v-105z" />
    <glyph glyph-name="bullet" unicode="&#x2022;" horiz-adv-x="405" 
d="M51 291q0 66 43.5 109.5t108.5 43.5t108 -43.5t43 -109.5q0 -65 -43 -108t-108 -43t-108.5 43t-43.5 108z" />
    <glyph glyph-name="ellipsis" unicode="&#x2026;" horiz-adv-x="627" 
d="M168 0h-114v118h114v-118zM370 0h-114v118h114v-118zM572 0h-114v118h114v-118z" />
    <glyph glyph-name="guilsinglleft" unicode="&#x2039;" horiz-adv-x="207" 
d="M180 84l-153 137v90l153 137v-94l-88 -88l88 -88v-94z" />
    <glyph glyph-name="guilsinglright" unicode="&#x203a;" horiz-adv-x="207" 
d="M180 311v-90l-153 -137v94l88 88l-88 88v94z" />
    <glyph glyph-name="fraction" unicode="&#x2044;" horiz-adv-x="187" 
d="M-202 0l512 718h79l-511 -718h-80z" />
    <glyph glyph-name="uni2070" unicode="&#x2070;" horiz-adv-x="380" 
d="M189 314q-69 0 -110 56t-41 149t41 149t110 56t110 -56t41 -149t-41 -149t-110 -56zM189 657q-35 0 -55.5 -37t-20.5 -101t20.5 -101t55.5 -37q36 0 56.5 37t20.5 101t-20.5 101t-56.5 37z" />
    <glyph glyph-name="uni2074" unicode="&#x2074;" horiz-adv-x="380" 
d="M286 418v-98h-71v98h-188v55l164 245h95v-241h69v-59h-69zM214 656l-123 -179h123v179z" />
    <glyph glyph-name="uni2075" unicode="&#x2075;" horiz-adv-x="380" 
d="M192 524q-18 0 -33.5 -7.5t-24.5 -21.5l-71 10l18 213h226v-64h-169l-10 -106q18 16 38.5 24.5t43.5 8.5q55 0 89 -36t34 -93q0 -59 -41.5 -98.5t-103.5 -39.5q-61 0 -101 32t-48 88l76 13q4 -31 23.5 -49.5t49.5 -18.5q31 0 51.5 20.5t20.5 51.5t-19 52t-49 21z" />
    <glyph glyph-name="uni2076" unicode="&#x2076;" horiz-adv-x="380" 
d="M208 724q49 0 82.5 -23.5t48.5 -69.5l-62 -24q-8 27 -26 41t-44 14q-40 0 -64.5 -32.5t-24.5 -87.5v-15t1 -10q8 28 33 45.5t59 17.5q55 0 91.5 -36t36.5 -91q0 -60 -40 -99.5t-102 -39.5q-71 0 -112.5 54.5t-41.5 144.5q0 94 46.5 152.5t118.5 58.5zM196 374
q31 0 52 21.5t21 54.5t-20.5 54.5t-51.5 21.5q-32 0 -53 -21.5t-21 -54.5t20.5 -54.5t52.5 -21.5z" />
    <glyph glyph-name="uni2077" unicode="&#x2077;" horiz-adv-x="380" 
d="M265 655h-158v-61h-64v124h298v-63q-62 -67 -88.5 -142.5t-26.5 -192.5h-81q0 103 29.5 185t90.5 150z" />
    <glyph glyph-name="uni2078" unicode="&#x2078;" horiz-adv-x="380" 
d="M58 613q0 49 37 80t94 31t94.5 -31t37.5 -80q0 -28 -15 -50t-43 -35q36 -11 57 -37t21 -60q0 -52 -43 -84.5t-109 -32.5t-109 32.5t-43 84.5q0 33 21.5 59t56.5 38q-27 13 -42 35t-15 50zM125 611q0 -25 17.5 -40.5t46.5 -15.5t47 15.5t18 40.5t-18 40.5t-47 15.5
t-46.5 -15.5t-17.5 -40.5zM267 437q0 28 -22 46.5t-56 18.5t-56 -18.5t-22 -46.5q0 -29 21.5 -46.5t56.5 -17.5t56.5 17.5t21.5 46.5z" />
    <glyph glyph-name="uni2079" unicode="&#x2079;" horiz-adv-x="380" 
d="M171 314q-49 0 -82.5 23.5t-48.5 69.5l62 24q7 -27 25 -41t45 -14q40 0 64.5 32.5t24.5 87.5v14.5t-1 9.5q-9 -28 -34 -45t-58 -17q-55 0 -91.5 36t-36.5 91q0 60 40 99.5t102 39.5q71 0 112.5 -54.5t41.5 -144.5q0 -94 -46.5 -152.5t-118.5 -58.5zM183 664
q-31 0 -52 -21.5t-21 -54.5t20.5 -55t51.5 -22q32 0 53 22t21 55t-20.5 54.5t-52.5 21.5z" />
    <glyph glyph-name="uni2080" unicode="&#x2080;" horiz-adv-x="380" 
d="M189 -126q-69 0 -110 56t-41 149t41 149t110 56t110 -56t41 -149t-41 -149t-110 -56zM189 217q-35 0 -55.5 -37t-20.5 -101t20.5 -101t55.5 -37q36 0 56.5 37t20.5 101t-20.5 101t-56.5 37z" />
    <glyph glyph-name="uni2081" unicode="&#x2081;" horiz-adv-x="380" 
d="M166 -54v215h-100v52l42 2q38 2 55 16t22 49h57v-334h85v-66h-259v66h98z" />
    <glyph glyph-name="uni2082" unicode="&#x2082;" horiz-adv-x="380" 
d="M46 -120v61l135 107q38 30 53 53.5t15 50.5q0 29 -18 46.5t-47 17.5t-47 -18.5t-18 -47.5q0 -12 2.5 -23.5t7.5 -19.5h-74q-4 13 -6.5 25t-2.5 23q0 55 40.5 92t99.5 37q62 0 99.5 -34.5t37.5 -92.5q0 -41 -22 -76.5t-72 -74.5l-78 -60h181v-66h-286z" />
    <glyph glyph-name="uni2083" unicode="&#x2083;" horiz-adv-x="380" 
d="M334 -8q0 -51 -39.5 -84.5t-101.5 -33.5q-63 0 -104 32.5t-50 90.5l77 12q4 -32 24.5 -51t51.5 -19t49.5 16.5t18.5 44.5q0 26 -19.5 41.5t-51.5 15.5h-41v55h40q29 0 47.5 14.5t18.5 38.5t-17 39t-44 15q-28 0 -47.5 -17.5t-24.5 -46.5l-72 8q8 54 48 87.5t99 33.5
q60 0 96 -31.5t36 -82.5q0 -30 -20 -54t-49 -30q35 -10 55 -34.5t20 -59.5z" />
    <glyph glyph-name="uni2084" unicode="&#x2084;" horiz-adv-x="380" 
d="M286 -22v-98h-71v98h-188v55l164 245h95v-241h69v-59h-69zM214 216l-123 -179h123v179z" />
    <glyph glyph-name="uni2085" unicode="&#x2085;" horiz-adv-x="380" 
d="M192 84q-18 0 -33.5 -7.5t-24.5 -21.5l-71 10l18 213h226v-64h-169l-10 -106q18 16 38.5 24.5t43.5 8.5q55 0 89 -36t34 -93q0 -59 -41.5 -98.5t-103.5 -39.5q-61 0 -101 32t-48 88l76 13q4 -31 23.5 -49.5t49.5 -18.5q31 0 51.5 20.5t20.5 51.5t-19 52t-49 21z" />
    <glyph glyph-name="uni2086" unicode="&#x2086;" horiz-adv-x="380" 
d="M208 284q49 0 82.5 -23.5t48.5 -69.5l-62 -24q-8 27 -26 41t-44 14q-40 0 -64.5 -32.5t-24.5 -87.5v-15t1 -10q8 28 33 45.5t59 17.5q55 0 91.5 -36t36.5 -91q0 -60 -40 -99.5t-102 -39.5q-71 0 -112.5 54.5t-41.5 144.5q0 94 46.5 152.5t118.5 58.5zM196 -66
q31 0 52 21.5t21 54.5t-20.5 54.5t-51.5 21.5q-32 0 -53 -21.5t-21 -54.5t20.5 -54.5t52.5 -21.5z" />
    <glyph glyph-name="uni2087" unicode="&#x2087;" horiz-adv-x="380" 
d="M265 215h-158v-61h-64v124h298v-63q-62 -67 -88.5 -142.5t-26.5 -192.5h-81q0 103 29.5 185t90.5 150z" />
    <glyph glyph-name="uni2088" unicode="&#x2088;" horiz-adv-x="380" 
d="M58 173q0 49 37 80t94 31t94.5 -31t37.5 -80q0 -28 -15 -50t-43 -35q36 -11 57 -37t21 -60q0 -52 -43 -84.5t-109 -32.5t-109 32.5t-43 84.5q0 33 21.5 59t56.5 38q-27 13 -42 35t-15 50zM125 171q0 -25 17.5 -40.5t46.5 -15.5t47 15.5t18 40.5t-18 40.5t-47 15.5
t-46.5 -15.5t-17.5 -40.5zM267 -3q0 28 -22 46.5t-56 18.5t-56 -18.5t-22 -46.5q0 -29 21.5 -46.5t56.5 -17.5t56.5 17.5t21.5 46.5z" />
    <glyph glyph-name="uni2089" unicode="&#x2089;" horiz-adv-x="380" 
d="M171 -126q-49 0 -82.5 23.5t-48.5 69.5l62 24q7 -27 25 -41t45 -14q40 0 64.5 32.5t24.5 87.5v14.5t-1 9.5q-9 -28 -34 -45t-58 -17q-55 0 -91.5 36t-36.5 91q0 60 40 99.5t102 39.5q71 0 112.5 -54.5t41.5 -144.5q0 -94 -46.5 -152.5t-118.5 -58.5zM183 224
q-31 0 -52 -21.5t-21 -54.5t20.5 -55t51.5 -22q32 0 53 22t21 55t-20.5 54.5t-52.5 21.5z" />
    <glyph glyph-name="franc" unicode="&#x20a3;" horiz-adv-x="611" 
d="M120 182h-100v78h100v458h464v-84h-370v-205h313v-84h-313v-85h175v-78h-175v-182h-94v182z" />
    <glyph glyph-name="naira" unicode="&#x20a6;" horiz-adv-x="765" 
d="M141 250h-121v69h121v86h-121v68h121v245h98l296 -532v532h90v-245h119v-68h-119v-86h120v-69h-120v-250h-81l-314 564v-564h-89v250z" />
    <glyph glyph-name="peseta" unicode="&#x20a7;" horiz-adv-x="740" 
d="M351 239h-121v-239h-96v442h-114v73h114v203h217q112 0 180 -53t79 -150h110v-73h-110q-12 -96 -80.5 -149.5t-178.5 -53.5zM349 643h-119v-128h291q-10 62 -54.5 95t-117.5 33zM230 442v-128h119q72 0 117 33.5t55 94.5h-291z" />
    <glyph glyph-name="won" unicode="&#x20a9;" horiz-adv-x="876" 
d="M168 270h-148v68h133l-19 86h-114v69h99l-50 225h90l122 -579l118 579h83l117 -579l124 579h87l-50 -225h96v-69h-111l-19 -86h130v-68h-145l-59 -270h-94l-118 580l-117 -580h-96z" />
    <glyph glyph-name="dong" unicode="&#x20ab;" horiz-adv-x="561" 
d="M230 80q-84 0 -136.5 59t-52.5 151t52.5 151.5t136.5 59.5q43 0 77 -17t53 -47v119h-165v70h165v92h89v-92h92v-70h-92v-468h-89v56q-19 -30 -53 -47t-77 -17zM362 277v26q0 58 -32 92.5t-83 34.5q-55 0 -86 -37.5t-31 -102.5q0 -64 31.5 -101.5t85.5 -37.5q51 0 83 34
t32 92zM449 -70h-375v70h375v-70z" />
    <glyph glyph-name="Euro" unicode="&#x20ac;" horiz-adv-x="628" 
d="M95 250h-79v69h70q-1 7 -1 15v25q0 8 0.5 17.5l1.5 28.5h-71v68h80q23 121 94.5 188.5t175.5 67.5q88 0 150 -46t90 -131l-86 -34q-20 67 -57.5 98.5t-96.5 31.5q-66 0 -111.5 -45t-63.5 -130h221l-15 -68h-215l-1.5 -28.5t-0.5 -17.5v-25t1 -15h198l-15 -69h-174
q17 -87 62.5 -133.5t113.5 -46.5q59 0 96.5 31.5t57.5 98.5l86 -34q-28 -85 -90 -131t-150 -46q-105 0 -176.5 69t-94.5 192z" />
    <glyph glyph-name="peso" unicode="&#x20b1;" horiz-adv-x="725" 
d="M141 360h-121v69h121v86h-121v68h121v135h193q89 0 152 -35t91 -100h127v-68h-110q1 -13 1.5 -21t0.5 -15q0 -15 -1 -27t-3 -23h113v-69h-135q-30 -58 -91.5 -89.5t-144.5 -31.5h-98v-239h-95v360zM236 643v-329h97q82 0 128 43.5t46 122.5q0 78 -45.5 120.5t-128.5 42.5
h-97z" />
    <glyph glyph-name="uni20B9" unicode="&#x20b9;" horiz-adv-x="567" 
d="M344 450h-298v77h298q-11 55 -52 85t-106 30h-140v76h487v-76h-171q27 -19 44.5 -49t24.5 -66h102v-77h-102q-10 -63 -49.5 -108.5t-102.5 -66.5l223 -275h-110l-210 259h-136v77h140q65 0 106 30t52 84z" />
    <glyph glyph-name="uni20BA" unicode="&#x20ba;" horiz-adv-x="643" 
d="M223 86h77q118 0 174.5 60t56.5 183h86q0 -157 -83 -243t-234 -86h-166v252l-114 -53v80l114 53v87l-114 -53v79l114 53v220h89v-185l194 89v-80l-194 -89v-87l194 89v-80l-194 -89v-200z" />
    <glyph glyph-name="uni20BD" unicode="&#x20bd;" horiz-adv-x="645" 
d="M141 163h-121v68h121v86h-121v69h121v332h239q115 0 179.5 -53t64.5 -149q0 -95 -64.5 -147t-179.5 -52h-144v-86h139v-68h-139v-163h-95v163zM236 639v-253h137q75 0 116 33t41 94t-40.5 93.5t-116.5 32.5h-137z" />
    <glyph glyph-name="trademark" unicode="&#x2122;" horiz-adv-x="721" 
d="M199 653v-251h-72v251h-100v65h271v-65h-99zM605 627l-78 -226h-44l-77 226v-225h-64v316h95l70 -215l70 215h93v-316h-65v225z" />
    <glyph glyph-name="uni2153" unicode="&#x2153;" horiz-adv-x="894" 
d="M868 112q0 -51 -39.5 -84.5t-101.5 -33.5q-63 0 -104 32.5t-50 90.5l77 12q4 -32 24.5 -51t51.5 -19t49.5 16.5t18.5 44.5q0 26 -19.5 41.5t-51.5 15.5h-41v55h40q29 0 47.5 14.5t18.5 38.5t-17 39t-44 15q-28 0 -47.5 -17.5t-24.5 -46.5l-72 8q8 54 48 87.5t99 33.5
q60 0 96 -31.5t36 -82.5q0 -30 -20 -54t-49 -30q35 -10 55 -34.5t20 -59.5zM178 0l512 718h79l-511 -718h-80zM166 386v215h-100v52l42 2q38 2 55 16t22 49h57v-334h85v-66h-259v66h98z" />
    <glyph glyph-name="uni2154" unicode="&#x2154;" horiz-adv-x="904" 
d="M878 112q0 -51 -39.5 -84.5t-101.5 -33.5q-63 0 -104 32.5t-50 90.5l77 12q4 -32 24.5 -51t51.5 -19t49.5 16.5t18.5 44.5q0 26 -19.5 41.5t-51.5 15.5h-41v55h40q29 0 47.5 14.5t18.5 38.5t-17 39t-44 15q-28 0 -47.5 -17.5t-24.5 -46.5l-72 8q8 54 48 87.5t99 33.5
q60 0 96 -31.5t36 -82.5q0 -30 -20 -54t-49 -30q35 -10 55 -34.5t20 -59.5zM188 0l512 718h79l-511 -718h-80zM46 320v61l135 107q38 30 53 53.5t15 50.5q0 29 -18 46.5t-47 17.5t-47 -18.5t-18 -47.5q0 -12 2.5 -23.5t7.5 -19.5h-74q-4 13 -6.5 25t-2.5 23q0 55 40.5 92
t99.5 37q62 0 99.5 -34.5t37.5 -92.5q0 -41 -22 -76.5t-72 -74.5l-78 -60h181v-66h-286z" />
    <glyph glyph-name="uni215B" unicode="&#x215b;" horiz-adv-x="899" 
d="M588 293q0 49 37 80t94 31t94.5 -31t37.5 -80q0 -28 -15 -50t-43 -35q36 -11 57 -37t21 -60q0 -52 -43 -84.5t-109 -32.5t-109 32.5t-43 84.5q0 33 21.5 59t56.5 38q-27 13 -42 35t-15 50zM655 291q0 -25 17.5 -40.5t46.5 -15.5t47 15.5t18 40.5t-18 40.5t-47 15.5
t-46.5 -15.5t-17.5 -40.5zM797 117q0 28 -22 46.5t-56 18.5t-56 -18.5t-22 -46.5q0 -29 21.5 -46.5t56.5 -17.5t56.5 17.5t21.5 46.5zM178 0l512 718h79l-511 -718h-80zM166 386v215h-100v52l42 2q38 2 55 16t22 49h57v-334h85v-66h-259v66h98z" />
    <glyph glyph-name="uni215C" unicode="&#x215c;" horiz-adv-x="881" 
d="M585 293q0 49 37 80t94 31t94.5 -31t37.5 -80q0 -28 -15 -50t-43 -35q36 -11 57 -37t21 -60q0 -52 -43 -84.5t-109 -32.5t-109 32.5t-43 84.5q0 33 21.5 59t56.5 38q-27 13 -42 35t-15 50zM652 291q0 -25 17.5 -40.5t46.5 -15.5t47 15.5t18 40.5t-18 40.5t-47 15.5
t-46.5 -15.5t-17.5 -40.5zM794 117q0 28 -22 46.5t-56 18.5t-56 -18.5t-22 -46.5q0 -29 21.5 -46.5t56.5 -17.5t56.5 17.5t21.5 46.5zM172 0l512 718h79l-511 -718h-80zM334 432q0 -51 -39.5 -84.5t-101.5 -33.5q-63 0 -104 32.5t-50 90.5l77 12q4 -32 24.5 -51t51.5 -19
t49.5 16.5t18.5 44.5q0 26 -19.5 41.5t-51.5 15.5h-41v55h40q29 0 47.5 14.5t18.5 38.5t-17 39t-44 15q-28 0 -47.5 -17.5t-24.5 -46.5l-72 8q8 54 48 87.5t99 33.5q60 0 96 -31.5t36 -82.5q0 -30 -20 -54t-49 -30q35 -10 55 -34.5t20 -59.5z" />
    <glyph glyph-name="uni215D" unicode="&#x215d;" horiz-adv-x="881" 
d="M570 293q0 49 37 80t94 31t94.5 -31t37.5 -80q0 -28 -15 -50t-43 -35q36 -11 57 -37t21 -60q0 -52 -43 -84.5t-109 -32.5t-109 32.5t-43 84.5q0 33 21.5 59t56.5 38q-27 13 -42 35t-15 50zM637 291q0 -25 17.5 -40.5t46.5 -15.5t47 15.5t18 40.5t-18 40.5t-47 15.5
t-46.5 -15.5t-17.5 -40.5zM779 117q0 28 -22 46.5t-56 18.5t-56 -18.5t-22 -46.5q0 -29 21.5 -46.5t56.5 -17.5t56.5 17.5t21.5 46.5zM158 0l512 718h79l-511 -718h-80zM192 524q-18 0 -33.5 -7.5t-24.5 -21.5l-71 10l18 213h226v-64h-169l-10 -106q18 16 38.5 24.5
t43.5 8.5q55 0 89 -36t34 -93q0 -59 -41.5 -98.5t-103.5 -39.5q-61 0 -101 32t-48 88l76 13q4 -31 23.5 -49.5t49.5 -18.5q31 0 51.5 20.5t20.5 51.5t-19 52t-49 21z" />
    <glyph glyph-name="uni215E" unicode="&#x215e;" horiz-adv-x="841" 
d="M530 293q0 49 37 80t94 31t94.5 -31t37.5 -80q0 -28 -15 -50t-43 -35q36 -11 57 -37t21 -60q0 -52 -43 -84.5t-109 -32.5t-109 32.5t-43 84.5q0 33 21.5 59t56.5 38q-27 13 -42 35t-15 50zM597 291q0 -25 17.5 -40.5t46.5 -15.5t47 15.5t18 40.5t-18 40.5t-47 15.5
t-46.5 -15.5t-17.5 -40.5zM739 117q0 28 -22 46.5t-56 18.5t-56 -18.5t-22 -46.5q0 -29 21.5 -46.5t56.5 -17.5t56.5 17.5t21.5 46.5zM118 0l512 718h79l-511 -718h-80zM265 655h-158v-61h-64v124h298v-63q-62 -67 -88.5 -142.5t-26.5 -192.5h-81q0 103 29.5 185t90.5 150z
" />
    <glyph glyph-name="arrowleft" unicode="&#x2190;" horiz-adv-x="749" 
d="M169 317l191 -210l-64 -62l-286 317l286 317l64 -62l-191 -210h570v-90h-570z" />
    <glyph glyph-name="arrowup" unicode="&#x2191;" horiz-adv-x="654" 
d="M327 729l317 -287l-62 -63l-210 192v-571h-90v571l-210 -192l-62 63z" />
    <glyph glyph-name="arrowright" unicode="&#x2192;" horiz-adv-x="749" 
d="M453 45l-64 62l191 210h-570v90h570l-191 210l64 62l286 -317z" />
    <glyph glyph-name="arrowdown" unicode="&#x2193;" horiz-adv-x="654" 
d="M582 339l62 -63l-317 -287l-317 287l62 63l210 -192v571h90v-571z" />
    <glyph glyph-name="minus" unicode="&#x2212;" 
d="M558 302h-508v80h508v-80z" />
    <glyph glyph-name="commaaccent" unicode="&#xf6c3;" horiz-adv-x="600" 
d="M294 -115h-39v72h97v-61q0 -42 -29.5 -67.5t-78.5 -25.5v41q25 1 37 10.5t13 30.5z" />
    <glyph glyph-name="a.1" horiz-adv-x="522" 
d="M452 384v-270q0 -29 2 -59t6 -55h-89q-1 9 -2 20.5t-2 33.5q-25 -29 -67 -46t-91 -17q-75 0 -124 42t-49 109q0 68 47.5 109.5t151.5 61.5l130 26v32q0 41 -27 62t-79 21q-51 0 -80 -21.5t-34 -63.5h-88q6 78 61 121t146 43q89 0 138.5 -39t49.5 -110zM221 64
q60 0 102 33t42 81v91l-106 -22q-75 -15 -104 -38t-29 -63q0 -38 26 -60t69 -22z" />
    <glyph glyph-name="aogonek.1" horiz-adv-x="522" 
d="M402 -186q-39 0 -64.5 22.5t-25.5 57.5q0 29 14 54.5t45 52.5q-1 8 -2 19.5t-2 33.5q-25 -29 -67 -46t-91 -17q-75 0 -124 42t-49 109q0 68 47.5 109.5t151.5 61.5l130 26v32q0 41 -27 62t-79 21q-51 0 -80 -21.5t-34 -63.5h-88q6 78 61 121t146 43q89 0 138.5 -39
t49.5 -110v-270q0 -29 2 -59t6 -55h-16q-38 -33 -52 -53t-14 -39q0 -16 11 -25.5t29 -9.5q11 0 19.5 1.5t20.5 4.5v-58q-14 -4 -25.5 -5.5t-30.5 -1.5zM221 64q60 0 102 33t42 81v91l-106 -22q-75 -15 -104 -38t-29 -63q0 -38 26 -60t69 -22z" />
    <glyph glyph-name="aacute.1" horiz-adv-x="522" 
d="M298 579h-71l59 139h113zM452 384v-270q0 -29 2 -59t6 -55h-89q-1 9 -2 20.5t-2 33.5q-25 -29 -67 -46t-91 -17q-75 0 -124 42t-49 109q0 68 47.5 109.5t151.5 61.5l130 26v32q0 41 -27 62t-79 21q-51 0 -80 -21.5t-34 -63.5h-88q6 78 61 121t146 43q89 0 138.5 -39
t49.5 -110zM221 64q60 0 102 33t42 81v91l-106 -22q-75 -15 -104 -38t-29 -63q0 -38 26 -60t69 -22z" />
    <glyph glyph-name="adieresis.1" horiz-adv-x="522" 
d="M222 610h-100v104h100v-104zM394 610h-100v104h100v-104zM452 384v-270q0 -29 2 -59t6 -55h-89q-1 9 -2 20.5t-2 33.5q-25 -29 -67 -46t-91 -17q-75 0 -124 42t-49 109q0 68 47.5 109.5t151.5 61.5l130 26v32q0 41 -27 62t-79 21q-51 0 -80 -21.5t-34 -63.5h-88
q6 78 61 121t146 43q89 0 138.5 -39t49.5 -110zM221 64q60 0 102 33t42 81v91l-106 -22q-75 -15 -104 -38t-29 -63q0 -38 26 -60t69 -22z" />
    <glyph glyph-name="acircumflex.1" horiz-adv-x="522" 
d="M211 718h98l98 -139h-70l-77 78l-77 -78h-70zM452 384v-270q0 -29 2 -59t6 -55h-89q-1 9 -2 20.5t-2 33.5q-25 -29 -67 -46t-91 -17q-75 0 -124 42t-49 109q0 68 47.5 109.5t151.5 61.5l130 26v32q0 41 -27 62t-79 21q-51 0 -80 -21.5t-34 -63.5h-88q6 78 61 121t146 43
q89 0 138.5 -39t49.5 -110zM221 64q60 0 102 33t42 81v91l-106 -22q-75 -15 -104 -38t-29 -63q0 -38 26 -60t69 -22z" />
    <glyph glyph-name="aring.1" horiz-adv-x="522" 
d="M258 568q-43 0 -72 28.5t-29 70.5q0 41 29 69t72 28t72 -28t29 -69q0 -42 -29 -70.5t-72 -28.5zM258 717q-20 0 -35 -15t-15 -35q0 -21 14.5 -36.5t35.5 -15.5t35.5 15.5t14.5 36.5q0 20 -15 35t-35 15zM452 384v-270q0 -29 2 -59t6 -55h-89q-1 9 -2 20.5t-2 33.5
q-25 -29 -67 -46t-91 -17q-75 0 -124 42t-49 109q0 68 47.5 109.5t151.5 61.5l130 26v32q0 41 -27 62t-79 21q-51 0 -80 -21.5t-34 -63.5h-88q6 78 61 121t146 43q89 0 138.5 -39t49.5 -110zM221 64q60 0 102 33t42 81v91l-106 -22q-75 -15 -104 -38t-29 -63q0 -38 26 -60
t69 -22z" />
    <glyph glyph-name="abreve.1" horiz-adv-x="522" 
d="M260 639q32 0 51.5 21t19.5 58h63q0 -67 -36 -105.5t-98 -38.5t-98 38.5t-36 105.5h63q0 -37 19.5 -58t51.5 -21zM452 384v-270q0 -29 2 -59t6 -55h-89q-1 9 -2 20.5t-2 33.5q-25 -29 -67 -46t-91 -17q-75 0 -124 42t-49 109q0 68 47.5 109.5t151.5 61.5l130 26v32
q0 41 -27 62t-79 21q-51 0 -80 -21.5t-34 -63.5h-88q6 78 61 121t146 43q89 0 138.5 -39t49.5 -110zM221 64q60 0 102 33t42 81v91l-106 -22q-75 -15 -104 -38t-29 -63q0 -38 26 -60t69 -22z" />
    <glyph glyph-name="agrave.1" horiz-adv-x="522" 
d="M242 718l59 -139h-71l-101 139h113zM452 384v-270q0 -29 2 -59t6 -55h-89q-1 9 -2 20.5t-2 33.5q-25 -29 -67 -46t-91 -17q-75 0 -124 42t-49 109q0 68 47.5 109.5t151.5 61.5l130 26v32q0 41 -27 62t-79 21q-51 0 -80 -21.5t-34 -63.5h-88q6 78 61 121t146 43
q89 0 138.5 -39t49.5 -110zM221 64q60 0 102 33t42 81v91l-106 -22q-75 -15 -104 -38t-29 -63q0 -38 26 -60t69 -22z" />
    <glyph glyph-name="atilde.1" horiz-adv-x="522" 
d="M197 719q16 0 32 -7.5t41 -29.5q19 -17 28 -22t18 -5q19 0 29 14.5t15 49.5h59q-5 -63 -30.5 -99t-66.5 -36q-16 0 -32 7t-41 30q-19 16 -28 21t-18 5q-19 0 -29 -15t-14 -48h-59q4 64 29 99.5t67 35.5zM452 384v-270q0 -29 2 -59t6 -55h-89q-1 9 -2 20.5t-2 33.5
q-25 -29 -67 -46t-91 -17q-75 0 -124 42t-49 109q0 68 47.5 109.5t151.5 61.5l130 26v32q0 41 -27 62t-79 21q-51 0 -80 -21.5t-34 -63.5h-88q6 78 61 121t146 43q89 0 138.5 -39t49.5 -110zM221 64q60 0 102 33t42 81v91l-106 -22q-75 -15 -104 -38t-29 -63q0 -38 26 -60
t69 -22z" />
    <glyph glyph-name="amacron.1" horiz-adv-x="522" 
d="M397 678v-72h-274v72h274zM452 384v-270q0 -29 2 -59t6 -55h-89q-1 9 -2 20.5t-2 33.5q-25 -29 -67 -46t-91 -17q-75 0 -124 42t-49 109q0 68 47.5 109.5t151.5 61.5l130 26v32q0 41 -27 62t-79 21q-51 0 -80 -21.5t-34 -63.5h-88q6 78 61 121t146 43q89 0 138.5 -39
t49.5 -110zM221 64q60 0 102 33t42 81v91l-106 -22q-75 -15 -104 -38t-29 -63q0 -38 26 -60t69 -22z" />
    <glyph glyph-name="idotaccent" horiz-adv-x="240" 
d="M169 614h-98v104h98v-104zM75 523h90v-523h-90v523z" />
    <glyph glyph-name="ordfeminine.1" horiz-adv-x="408" 
d="M342 615v-188q0 -27 1 -48t4 -36h-74q-1 6 -1.5 15t-1.5 22q-18 -21 -47.5 -32.5t-64.5 -11.5q-55 0 -90 30.5t-35 78.5q0 49 34.5 79t111.5 44l88 17v21q0 27 -17.5 41t-51.5 14q-35 0 -54 -14t-22 -43h-75q5 58 45.5 89.5t108.5 31.5q66 0 103.5 -29t37.5 -81zM171 396
q41 0 68.5 22t27.5 55v57l-71 -14q-48 -9 -67.5 -24.5t-19.5 -42.5q0 -25 16.5 -39t45.5 -14zM346 204h-313v69h313v-69z" />
    <glyph glyph-name="a.ord" horiz-adv-x="399" 
d="M270 384q-18 -23 -48 -35.5t-66 -12.5q-55 0 -89.5 30t-34.5 79t34.5 79t111.5 44l86 16v14q0 31 -17.5 47t-51.5 16q-32 0 -52 -15t-28 -45l-72 15q13 50 55 79.5t100 29.5q68 0 104.5 -32t36.5 -91v-174q0 -17 9.5 -23.5t29.5 -2.5v-59q-44 -7 -72 3.5t-36 37.5z
M169 396q40 0 67.5 21.5t27.5 54.5v57l-70 -14q-48 -9 -67.5 -24.5t-19.5 -41.5q0 -25 16.5 -39t45.5 -14z" />
    <glyph glyph-name="a.1.ord" horiz-adv-x="408" 
d="M342 615v-188q0 -27 1 -48t4 -36h-74q-1 6 -1.5 15t-1.5 22q-18 -21 -47.5 -32.5t-64.5 -11.5q-55 0 -90 30.5t-35 78.5q0 49 34.5 79t111.5 44l88 17v21q0 27 -17.5 41t-51.5 14q-35 0 -54 -14t-22 -43h-75q5 58 45.5 89.5t108.5 31.5q66 0 103.5 -29t37.5 -81zM171 396
q41 0 68.5 22t27.5 55v57l-71 -14q-48 -9 -67.5 -24.5t-19.5 -42.5q0 -25 16.5 -39t45.5 -14z" />
    <glyph glyph-name="b.ord" horiz-adv-x="460" 
d="M423 530q0 -86 -44.5 -140.5t-117.5 -54.5q-36 0 -65 15.5t-47 44.5v-52h-76v514h76v-191q17 28 46 43.5t66 15.5q73 0 117.5 -54.5t44.5 -140.5zM245 659q-43 0 -70 -31.5t-27 -85.5v-25q0 -53 27.5 -84.5t69.5 -31.5q46 0 73 35t27 94q0 60 -26.5 94.5t-73.5 34.5z" />
    <glyph glyph-name="c.ord" horiz-adv-x="394" 
d="M217 660q-48 0 -76.5 -35.5t-28.5 -94.5t28.5 -94t76.5 -35q34 0 56.5 19.5t30.5 55.5l66 -28q-14 -52 -55 -82.5t-99 -30.5q-79 0 -129 54.5t-50 140.5t50 140.5t129 54.5q58 0 98.5 -29.5t54.5 -80.5l-65 -30q-8 35 -31 55t-56 20z" />
    <glyph glyph-name="d.ord" horiz-adv-x="460" 
d="M199 335q-73 0 -117.5 54.5t-44.5 140.5t44.5 140.5t117.5 54.5q37 0 66 -15.5t46 -43.5v191h76v-514h-76v52q-18 -29 -47 -44.5t-65 -15.5zM312 517v25q0 54 -27 85.5t-70 31.5q-47 0 -73.5 -34.5t-26.5 -94.5q0 -59 27 -94t73 -35q42 0 69.5 31.5t27.5 84.5z" />
    <glyph glyph-name="e.ord" horiz-adv-x="412" 
d="M216 335q-80 0 -129.5 54t-49.5 141q0 85 50 140t127 55q75 0 119 -50.5t44 -134.5v-23h-267q4 -54 32.5 -86t73.5 -32q36 0 60 17.5t32 49.5l66 -23q-17 -50 -59.5 -79t-98.5 -29zM213 662q-39 0 -65 -24t-34 -68h186q-1 42 -24 67t-63 25z" />
    <glyph glyph-name="f.ord" horiz-adv-x="228" 
d="M188 864q15 0 22 -0.5t15 -1.5v-64q-10 1 -17 1.5t-11 0.5q-28 0 -41.5 -14.5t-13.5 -45.5v-22h81v-64h-81v-311h-76v311h-55v64h55v27q0 58 31.5 88.5t90.5 30.5z" />
    <glyph glyph-name="g.ord" horiz-adv-x="461" 
d="M387 718v-339q0 -80 -48.5 -126t-131.5 -46q-64 0 -107.5 28.5t-58.5 79.5l72 23q9 -33 34 -51.5t62 -18.5q49 0 75 27t26 78v39q-15 -27 -45 -43t-66 -16q-72 0 -116 52t-44 134t44 134t116 52q36 0 66 -16t45 -43v52h77zM311 531v14q0 53 -26.5 84t-68.5 31
q-47 0 -73.5 -32.5t-26.5 -88.5t26.5 -88.5t73.5 -32.5q42 0 68.5 31t26.5 82z" />
    <glyph glyph-name="h.ord" horiz-adv-x="452" 
d="M149 343h-76v514h76v-188q18 26 47.5 41t63.5 15q58 0 91.5 -36.5t33.5 -98.5v-247h-77v227q0 41 -18.5 63t-53.5 22q-36 0 -61.5 -25.5t-25.5 -65.5v-221z" />
    <glyph glyph-name="i.ord" horiz-adv-x="219" 
d="M150 777h-81v80h81v-80zM71 718h77v-375h-77v375z" />
    <glyph glyph-name="j.ord" horiz-adv-x="188" 
d="M119 777h-82v80h82v-80zM-9 276q26 0 37.5 12t11.5 39v391h76v-400q0 -51 -29 -78.5t-82 -27.5h-13t-26 2v63q4 -1 9 -1h16z" />
    <glyph glyph-name="k.ord" horiz-adv-x="415" 
d="M73 857h76v-305l156 166h93l-144 -147l155 -228h-88l-121 174l-51 -53v-121h-76v514z" />
    <glyph glyph-name="l.ord" horiz-adv-x="222" 
d="M73 857h76v-514h-76v514z" />
    <glyph glyph-name="m.ord" horiz-adv-x="673" 
d="M232 655q-34 0 -58.5 -25.5t-24.5 -64.5v-222h-76v375h76v-49q18 27 46 41.5t62 14.5q35 0 62.5 -16t41.5 -45q21 29 52 45t67 16q57 0 91 -37t34 -98v-247h-77v227q0 41 -17.5 63t-51.5 22t-58 -25.5t-24 -64.5v-222h-76v227q0 41 -17.5 63t-51.5 22z" />
    <glyph glyph-name="n.ord" horiz-adv-x="452" 
d="M149 343h-76v375h76v-49q18 26 47.5 41t63.5 15q58 0 91.5 -36.5t33.5 -98.5v-247h-77v227q0 41 -18.5 63t-53.5 22q-36 0 -61.5 -25.5t-25.5 -65.5v-221z" />
    <glyph glyph-name="o.ord" horiz-adv-x="428" 
d="M214 725q79 0 128 -54t49 -141t-49 -141t-128 -54t-128 54t-49 141t49 141t128 54zM214 661q-46 0 -73 -35.5t-27 -95.5t27 -95t73 -35t73.5 35t27.5 95t-27.5 95.5t-73.5 35.5z" />
    <glyph glyph-name="p.ord" horiz-adv-x="460" 
d="M423 530q0 -86 -44.5 -140.5t-117.5 -54.5q-36 0 -65 15.5t-47 44.5v-180h-76v503h76v-52q17 28 46 43.5t66 15.5q73 0 117.5 -54.5t44.5 -140.5zM245 659q-43 0 -70 -31.5t-27 -85.5v-25q0 -53 27.5 -84.5t69.5 -31.5q46 0 73 35t27 94q0 60 -26.5 94.5t-73.5 34.5z" />
    <glyph glyph-name="q.ord" horiz-adv-x="460" 
d="M199 335q-73 0 -117.5 54.5t-44.5 140.5t44.5 140.5t117.5 54.5q37 0 66 -15.5t46 -43.5v52h76v-503h-76v180q-18 -29 -47 -44.5t-65 -15.5zM312 517v25q0 54 -27 85.5t-70 31.5q-47 0 -73.5 -34.5t-26.5 -94.5q0 -59 27 -94t73 -35q42 0 69.5 31.5t27.5 84.5z" />
    <glyph glyph-name="r.ord" horiz-adv-x="299" 
d="M251 721q6 0 12 -0.5t14 -1.5v-75q-6 1 -12 1.5t-20 0.5q-42 0 -69 -29t-27 -74v-200h-76v375h76v-62q14 30 41 47.5t61 17.5z" />
    <glyph glyph-name="s.ord" horiz-adv-x="367" 
d="M180 335q-54 0 -99.5 22t-66.5 59l49 46q17 -30 49.5 -48t69.5 -18q34 0 54.5 14t20.5 39q0 15 -8 25t-27 16q-7 2 -15.5 4.5t-43.5 9.5q-38 8 -56 14t-31 14q-20 13 -30 32t-10 45q0 51 40.5 83.5t102.5 32.5q49 0 89 -20t59 -53l-47 -44q-17 28 -43.5 42.5t-59.5 14.5
q-30 0 -48 -13.5t-18 -35.5q0 -13 7.5 -21.5t23.5 -14.5q7 -3 16 -5t35 -8q45 -10 62.5 -16t30.5 -14q24 -13 35 -33t11 -48q0 -53 -43 -87t-109 -34z" />
    <glyph glyph-name="t.ord" horiz-adv-x="257" 
d="M168 339q-55 0 -80 23t-25 73v219h-56v64h56v107h75v-107h83v-64h-83v-204q0 -24 10.5 -34t39.5 -10q16 0 24 1t16 3v-65q-14 -3 -28.5 -4.5t-31.5 -1.5z" />
    <glyph glyph-name="u.ord" horiz-adv-x="452" 
d="M303 718h76v-375h-76v49q-19 -27 -47.5 -42t-62.5 -15q-58 0 -91.5 36.5t-33.5 98.5v248h76v-232q0 -39 19 -60.5t54 -21.5q36 0 61 25.5t25 64.5v224z" />
    <glyph glyph-name="v.ord" horiz-adv-x="376" 
d="M365 718l-140 -375h-74l-140 375h80l98 -281l98 281h78z" />
    <glyph glyph-name="w.ord" horiz-adv-x="531" 
d="M164 452l73 266h61l72 -266l74 266h76l-114 -375h-67l-73 261l-74 -261h-67l-114 375h78z" />
    <glyph glyph-name="x.ord" horiz-adv-x="376" 
d="M369 343h-87l-95 138l-96 -138h-83l136 195l-125 180h86l84 -124l85 124h83l-124 -180z" />
    <glyph glyph-name="y.ord" horiz-adv-x="376" 
d="M365 718l-156 -407q-22 -56 -50.5 -78.5t-74.5 -22.5q-10 0 -18 0.5t-20 2.5v64q9 -2 16 -3t15 -1q21 0 33.5 10t22.5 35l16 39l-138 361h80l98 -273l98 273h78z" />
    <glyph glyph-name="z.ord" horiz-adv-x="380" 
d="M136 407h204v-64h-301v57l207 254h-204v64h296v-57z" />
    <glyph glyph-name="caron.Slovak" horiz-adv-x="600" 
d="M297 542h-61l23 176h103z" />
    <glyph glyph-name="commaturn" horiz-adv-x="600" 
d="M305 651h39v-72h-97v61q0 42 29.5 67.5t78.5 25.5v-41q-25 -1 -37 -10.5t-13 -30.5z" />
    <glyph glyph-name="grave.cap" horiz-adv-x="600" 
d="M312 910l101 -145h-72l-155 145h126z" />
    <glyph glyph-name="acute.cap" horiz-adv-x="600" 
d="M239 765h-72l101 145h126z" />
    <glyph glyph-name="circumflex.cap" horiz-adv-x="600" 
d="M246 910h108l117 -145h-73l-98 87l-98 -87h-73z" />
    <glyph glyph-name="caron.cap" horiz-adv-x="600" 
d="M471 911l-117 -145h-108l-117 145h73l98 -87l98 87h73z" />
    <glyph glyph-name="tilde.cap" horiz-adv-x="600" 
d="M229 905q18 0 35.5 -7t46.5 -30q22 -17 33.5 -22t21.5 -5q21 0 33 16t17 49h63q-5 -65 -33.5 -102.5t-74.5 -37.5q-18 0 -36 7.5t-47 29.5q-22 18 -33 23t-21 5q-21 0 -33 -16t-17 -49h-63q4 65 32.5 102t75.5 37z" />
    <glyph glyph-name="macron.cap" horiz-adv-x="600" 
d="M456 855v-75h-312v75h312z" />
    <glyph glyph-name="breve.cap" horiz-adv-x="600" 
d="M300 825q38 0 62 23.5t24 61.5h68q0 -67 -42 -107t-112 -40t-112 40t-42 107h68q0 -38 24 -61.5t62 -23.5z" />
    <glyph glyph-name="dotaccent.cap" horiz-adv-x="600" 
d="M350 769h-100v104h100v-104z" />
    <glyph glyph-name="dieresis.cap" horiz-adv-x="600" 
d="M261 769h-100v104h100v-104zM439 769h-100v104h100v-104z" />
    <glyph glyph-name="ring.cap" horiz-adv-x="600" 
d="M300 758q-49 0 -83 33.5t-34 80.5t34 80t83 33q50 0 83.5 -32.5t33.5 -80.5q0 -47 -34 -80.5t-83 -33.5zM300 929q-24 0 -40 -16.5t-16 -40.5q0 -25 16 -41t40 -16t40 16t16 41q0 24 -16 40.5t-40 16.5z" />
    <glyph glyph-name="hungarumlaut.cap" horiz-adv-x="600" 
d="M370 765h-71l91 145h109zM186 765h-72l92 145h109z" />
    <glyph glyph-name="guilsinglleft.cap" horiz-adv-x="207" 
d="M180 153l-153 137v90l153 137v-94l-88 -88l88 -88v-94z" />
    <glyph glyph-name="guilsinglright.cap" horiz-adv-x="207" 
d="M27.0107 153l152.991 137v90l-152.991 137v-94l87.9951 -88l-87.9951 -88v-94z" />
    <glyph glyph-name="guillemotleft.cap" horiz-adv-x="392" 
d="M180 153l-153 137v90l153 137v-94l-88 -88l88 -88v-94zM365 153l-153 137v90l153 137v-94l-88 -88l88 -88v-94z" />
    <glyph glyph-name="guillemotright.cap" horiz-adv-x="392" 
d="M365 380v-90l-153 -137v94l88 88l-88 88v94zM180 380v-90l-153 -137v94l88 88l-88 88v94z" />
    <glyph glyph-name="slash.cap" horiz-adv-x="402" 
d="M102 -60h-92l290 836h92z" />
    <glyph glyph-name="backslash.cap" horiz-adv-x="402" 
d="M300.006 -60h91.9951l-289.982 836h-91.9951z" />
    <glyph glyph-name="bar.cap" horiz-adv-x="250" 
d="M169 -60h-88v836h88v-836z" />
    <glyph glyph-name="periodcentered.cap" horiz-adv-x="215" 
d="M164 300h-114v118h114v-118z" />
    <glyph glyph-name="bullet.cap" horiz-adv-x="405" 
d="M51 360q0 66 43.5 109.5t108.5 43.5t108 -43.5t43 -109.5q0 -65 -43 -108t-108 -43t-108.5 43t-43.5 108z" />
    <glyph glyph-name="hyphen.cap" horiz-adv-x="375" 
d="M324 320h-273v81h273v-81z" />
    <glyph glyph-name="endash.cap" horiz-adv-x="563" 
d="M513 324h-462v74h462v-74z" />
    <glyph glyph-name="emdash.cap" horiz-adv-x="997" 
d="M947 324h-896v74h896v-74z" />
    <glyph glyph-name="parenleft.cap" horiz-adv-x="313" 
d="M144 354q0 -114 43 -223.5t119 -194.5h-94q-83 88 -127 195.5t-44 222.5t44 222.5t127 195.5h94q-77 -86 -119.5 -195t-42.5 -223z" />
    <glyph glyph-name="parenright.cap" horiz-adv-x="313" 
d="M169.009 354q0 -114 -42.9971 -223.5q-42.998 -109.5 -118.993 -194.5h93.9941q82.9951 88 126.992 195.5q43.998 107.5 43.998 222.5t-43.998 222.5q-43.9971 107.5 -126.992 195.5h-93.9941q76.9951 -86 119.493 -195q42.4971 -109 42.4971 -223z" />
    <glyph glyph-name="bracketleft.cap" horiz-adv-x="315" 
d="M298 697h-146v-687h146v-74h-237v836h237v-75z" />
    <glyph glyph-name="bracketright.cap" horiz-adv-x="315" 
d="M17.0186 697h145.991v-687h-145.991v-74h236.985v836h-236.985v-75z" />
    <glyph glyph-name="braceleft.cap" horiz-adv-x="365" 
d="M67 317h-47v74h47q30 0 45.5 20t15.5 59v134q0 79 47.5 123.5t131.5 44.5h40v-75h-25q-57 0 -83.5 -27t-26.5 -86v-114q0 -44 -16.5 -72.5t-51.5 -43.5q35 -15 51.5 -43.5t16.5 -72.5v-114q0 -59 26.5 -86t83.5 -27h25v-75h-40q-84 0 -131.5 44.5t-47.5 123.5v134
q0 39 -15.5 59t-45.5 20z" />
    <glyph glyph-name="braceright.cap" horiz-adv-x="365" 
d="M298.004 317h46.9971v74h-46.9971q-29.998 0 -45.4971 20t-15.499 59v134q0 79 -47.4971 123.5t-131.492 44.5h-39.9971v-75h24.998q56.9971 0 83.4951 -27t26.498 -86v-114q0 -44 16.499 -72.5t51.4971 -43.5q-34.998 -15 -51.4971 -43.5t-16.499 -72.5v-114
q0 -59 -26.498 -86t-83.4951 -27h-24.998v-75h39.9971q83.9951 0 131.492 44.5t47.4971 123.5v134q0 39 15.499 59t45.4971 20z" />
    <glyph glyph-name="at.cap" horiz-adv-x="887" 
d="M651 220q28 0 53 19t42 54q12 25 18 56.5t6 67.5q0 63 -22 114.5t-65 88.5q-40 35 -94 53t-118 18q-72 0 -136.5 -27t-113.5 -77q-48 -50 -74 -115t-26 -138q0 -71 24.5 -130t70.5 -101q45 -40 106 -61t133 -21q69 0 126.5 16.5t107.5 50.5l37 -60q-54 -39 -122 -59
t-148 -20q-88 0 -163.5 26t-131.5 76q-59 52 -89.5 124.5t-30.5 159.5t33 165.5t93 138.5q61 59 140 90.5t167 31.5q76 0 143.5 -23t118.5 -67q54 -46 82.5 -110t28.5 -139q0 -53 -12.5 -98.5t-35.5 -81.5q-29 -42 -70 -65.5t-87 -23.5q-45 0 -73.5 17t-39.5 50
q-20 -33 -55.5 -51.5t-77.5 -18.5q-69 0 -111.5 46.5t-42.5 124.5q0 46 13.5 89t38.5 78q29 39 67.5 60.5t81.5 21.5q42 0 74 -19.5t43 -51.5l13 63h81l-49 -269q-6 -37 5 -55t41 -18zM416 223q40 0 69 31t40 85q6 31 8.5 48t2.5 28q0 36 -21.5 59.5t-56.5 23.5
q-54 0 -90 -50.5t-36 -124.5q0 -47 22.5 -73.5t61.5 -26.5z" />
    <glyph glyph-name="zero.dnom" horiz-adv-x="380" 
d="M189 -6q-69 0 -110 56t-41 149t41 149t110 56t110 -56t41 -149t-41 -149t-110 -56zM189 337q-35 0 -55.5 -37t-20.5 -101t20.5 -101t55.5 -37q36 0 56.5 37t20.5 101t-20.5 101t-56.5 37z" />
    <glyph glyph-name="one.dnom" horiz-adv-x="380" 
d="M166 66v215h-100v52l42 2q38 2 55 16t22 49h57v-334h85v-66h-259v66h98z" />
    <glyph glyph-name="two.dnom" horiz-adv-x="380" 
d="M46 0v61l135 107q38 30 53 53.5t15 50.5q0 29 -18 46.5t-47 17.5t-47 -18.5t-18 -47.5q0 -12 2.5 -23.5t7.5 -19.5h-74q-4 13 -6.5 25t-2.5 23q0 55 40.5 92t99.5 37q62 0 99.5 -34.5t37.5 -92.5q0 -41 -22 -76.5t-72 -74.5l-78 -60h181v-66h-286z" />
    <glyph glyph-name="three.dnom" horiz-adv-x="380" 
d="M334 112q0 -51 -39.5 -84.5t-101.5 -33.5q-63 0 -104 32.5t-50 90.5l77 12q4 -32 24.5 -51t51.5 -19t49.5 16.5t18.5 44.5q0 26 -19.5 41.5t-51.5 15.5h-41v55h40q29 0 47.5 14.5t18.5 38.5t-17 39t-44 15q-28 0 -47.5 -17.5t-24.5 -46.5l-72 8q8 54 48 87.5t99 33.5
q60 0 96 -31.5t36 -82.5q0 -30 -20 -54t-49 -30q35 -10 55 -34.5t20 -59.5z" />
    <glyph glyph-name="four.dnom" horiz-adv-x="380" 
d="M286 98v-98h-71v98h-188v55l164 245h95v-241h69v-59h-69zM214 336l-123 -179h123v179z" />
    <glyph glyph-name="five.dnom" horiz-adv-x="380" 
d="M192 204q-18 0 -33.5 -7.5t-24.5 -21.5l-71 10l18 213h226v-64h-169l-10 -106q18 16 38.5 24.5t43.5 8.5q55 0 89 -36t34 -93q0 -59 -41.5 -98.5t-103.5 -39.5q-61 0 -101 32t-48 88l76 13q4 -31 23.5 -49.5t49.5 -18.5q31 0 51.5 20.5t20.5 51.5t-19 52t-49 21z" />
    <glyph glyph-name="six.dnom" horiz-adv-x="380" 
d="M208 404q49 0 82.5 -23.5t48.5 -69.5l-62 -24q-8 27 -26 41t-44 14q-40 0 -64.5 -32.5t-24.5 -87.5v-15t1 -10q8 28 33 45.5t59 17.5q55 0 91.5 -36t36.5 -91q0 -60 -40 -99.5t-102 -39.5q-71 0 -112.5 54.5t-41.5 144.5q0 94 46.5 152.5t118.5 58.5zM196 54
q31 0 52 21.5t21 54.5t-20.5 54.5t-51.5 21.5q-32 0 -53 -21.5t-21 -54.5t20.5 -54.5t52.5 -21.5z" />
    <glyph glyph-name="seven.dnom" horiz-adv-x="380" 
d="M265 335h-158v-61h-64v124h298v-63q-62 -67 -88.5 -142.5t-26.5 -192.5h-81q0 103 29.5 185t90.5 150z" />
    <glyph glyph-name="eight.dnom" horiz-adv-x="380" 
d="M58 293q0 49 37 80t94 31t94.5 -31t37.5 -80q0 -28 -15 -50t-43 -35q36 -11 57 -37t21 -60q0 -52 -43 -84.5t-109 -32.5t-109 32.5t-43 84.5q0 33 21.5 59t56.5 38q-27 13 -42 35t-15 50zM125 291q0 -25 17.5 -40.5t46.5 -15.5t47 15.5t18 40.5t-18 40.5t-47 15.5
t-46.5 -15.5t-17.5 -40.5zM267 117q0 28 -22 46.5t-56 18.5t-56 -18.5t-22 -46.5q0 -29 21.5 -46.5t56.5 -17.5t56.5 17.5t21.5 46.5z" />
    <glyph glyph-name="nine.dnom" horiz-adv-x="380" 
d="M171 -6q-49 0 -82.5 23.5t-48.5 69.5l62 24q7 -27 25 -41t45 -14q40 0 64.5 32.5t24.5 87.5v14.5t-1 9.5q-9 -28 -34 -45t-58 -17q-55 0 -91.5 36t-36.5 91q0 60 40 99.5t102 39.5q71 0 112.5 -54.5t41.5 -144.5q0 -94 -46.5 -152.5t-118.5 -58.5zM183 344
q-31 0 -52 -21.5t-21 -54.5t20.5 -55t51.5 -22q32 0 53 22t21 55t-20.5 54.5t-52.5 21.5z" />
    <glyph glyph-name="colon.mid" horiz-adv-x="223" 
d="M168 475h-114v118h114v-118zM168 111h-114v118h114v-118z" />
    <glyph glyph-name="commaturncmb" horiz-adv-x="0" 
d="M4 651h39v-72h-97v61q0 42 29.5 67.5t78.5 25.5v-41q-25 -1 -37 -10.5t-13 -30.5z" />
    <glyph glyph-name="commaaccentcmb" horiz-adv-x="0" 
d="M-4 -115h-39v72h97v-61q0 -42 -29.5 -67.5t-78.5 -25.5v41q25 1 37 10.5t13 30.5z" />
    <glyph glyph-name="g.1" horiz-adv-x="550" 
d="M113 227q-28 25 -43 58t-15 71q0 78 56.5 127.5t146.5 49.5q50 0 92.5 -17t69.5 -48q15 37 52.5 54t80.5 9v-91q-33 15 -61 3t-35 -48q2 -8 3 -17.5t1 -21.5q0 -78 -57 -127.5t-146 -49.5q-24 0 -45.5 4t-41.5 11q-18 -3 -30 -15.5t-12 -27.5q0 -18 13.5 -29t35.5 -11
h191q79 0 120 -32.5t41 -93.5q0 -82 -74 -129t-201 -47q-113 0 -177.5 37t-64.5 104q0 36 19.5 64t55.5 43q-20 14 -30.5 34t-10.5 44q0 30 17.5 54.5t48.5 37.5zM258 251q52 0 83.5 28.5t31.5 76.5t-32 77t-83 29q-52 0 -83 -29t-31 -77t31 -76.5t83 -28.5zM100 -33
q0 -42 40 -63t119 -21q87 0 136.5 24.5t49.5 67.5q0 31 -20.5 45t-65.5 14h-174q-39 0 -62 -18t-23 -49z" />
    <glyph glyph-name="ae.1" horiz-adv-x="859" 
d="M739 167l79 -28q-24 -71 -81 -110.5t-134 -39.5q-63 0 -114 27t-84 78q-27 -48 -78 -75.5t-116 -27.5q-76 0 -125.5 42t-49.5 110q0 81 64.5 127t175.5 46h87v51q0 43 -26 65t-78 22q-51 0 -80 -21.5t-34 -63.5h-88q6 78 61 121t146 43q56 0 97.5 -21.5t63.5 -62.5
q33 41 77.5 62.5t96.5 21.5q103 0 163 -70t60 -186v-30h-377q4 -82 47 -131t111 -49q52 0 88 26.5t48 73.5zM599 456q-58 0 -97.5 -37t-51.5 -103h281q-2 64 -37 102t-95 38zM224 65q60 0 99.5 38t39.5 95v49h-84q-79 0 -116 -24t-37 -74q0 -39 26.5 -61.5t71.5 -22.5z" />
    <glyph glyph-name="aeacute.1" horiz-adv-x="859" 
d="M459 579h-71l59 139h113zM739 167l79 -28q-24 -71 -81 -110.5t-134 -39.5q-63 0 -114 27t-84 78q-27 -48 -78 -75.5t-116 -27.5q-76 0 -125.5 42t-49.5 110q0 81 64.5 127t175.5 46h87v51q0 43 -26 65t-78 22q-51 0 -80 -21.5t-34 -63.5h-88q6 78 61 121t146 43
q56 0 97.5 -21.5t63.5 -62.5q33 41 77.5 62.5t96.5 21.5q103 0 163 -70t60 -186v-30h-377q4 -82 47 -131t111 -49q52 0 88 26.5t48 73.5zM599 456q-58 0 -97.5 -37t-51.5 -103h281q-2 64 -37 102t-95 38zM224 65q60 0 99.5 38t39.5 95v49h-84q-79 0 -116 -24t-37 -74
q0 -39 26.5 -61.5t71.5 -22.5z" />
    <glyph glyph-name="gbreve.1" horiz-adv-x="550" 
d="M113 227q-28 25 -43 58t-15 71q0 78 56.5 127.5t146.5 49.5q50 0 92.5 -17t69.5 -48q15 37 52.5 54t80.5 9v-91q-33 15 -61 3t-35 -48q2 -8 3 -17.5t1 -21.5q0 -78 -57 -127.5t-146 -49.5q-24 0 -45.5 4t-41.5 11q-18 -3 -30 -15.5t-12 -27.5q0 -18 13.5 -29t35.5 -11
h191q79 0 120 -32.5t41 -93.5q0 -82 -74 -129t-201 -47q-113 0 -177.5 37t-64.5 104q0 36 19.5 64t55.5 43q-20 14 -30.5 34t-10.5 44q0 30 17.5 54.5t48.5 37.5zM258 251q52 0 83.5 28.5t31.5 76.5t-32 77t-83 29q-52 0 -83 -29t-31 -77t31 -76.5t83 -28.5zM100 -33
q0 -42 40 -63t119 -21q87 0 136.5 24.5t49.5 67.5q0 31 -20.5 45t-65.5 14h-174q-39 0 -62 -18t-23 -49zM269 639q32 0 51.5 21t19.5 58h63q0 -67 -36 -105.5t-98 -38.5t-98 38.5t-36 105.5h63q0 -37 19.5 -58t51.5 -21z" />
    <glyph glyph-name="gcircumflex.1" horiz-adv-x="550" 
d="M113 227q-28 25 -43 58t-15 71q0 78 56.5 127.5t146.5 49.5q50 0 92.5 -17t69.5 -48q15 37 52.5 54t80.5 9v-91q-33 15 -61 3t-35 -48q2 -8 3 -17.5t1 -21.5q0 -78 -57 -127.5t-146 -49.5q-24 0 -45.5 4t-41.5 11q-18 -3 -30 -15.5t-12 -27.5q0 -18 13.5 -29t35.5 -11
h191q79 0 120 -32.5t41 -93.5q0 -82 -74 -129t-201 -47q-113 0 -177.5 37t-64.5 104q0 36 19.5 64t55.5 43q-20 14 -30.5 34t-10.5 44q0 30 17.5 54.5t48.5 37.5zM258 251q52 0 83.5 28.5t31.5 76.5t-32 77t-83 29q-52 0 -83 -29t-31 -77t31 -76.5t83 -28.5zM100 -33
q0 -42 40 -63t119 -21q87 0 136.5 24.5t49.5 67.5q0 31 -20.5 45t-65.5 14h-174q-39 0 -62 -18t-23 -49zM221 718h98l98 -139h-70l-77 78l-77 -78h-70z" />
    <glyph glyph-name="gcommaaccent.1" horiz-adv-x="550" 
d="M113 227q-28 25 -43 58t-15 71q0 78 56.5 127.5t146.5 49.5q50 0 92.5 -17t69.5 -48q15 37 52.5 54t80.5 9v-91q-33 15 -61 3t-35 -48q2 -8 3 -17.5t1 -21.5q0 -78 -57 -127.5t-146 -49.5q-24 0 -45.5 4t-41.5 11q-18 -3 -30 -15.5t-12 -27.5q0 -18 13.5 -29t35.5 -11
h191q79 0 120 -32.5t41 -93.5q0 -82 -74 -129t-201 -47q-113 0 -177.5 37t-64.5 104q0 36 19.5 64t55.5 43q-20 14 -30.5 34t-10.5 44q0 30 17.5 54.5t48.5 37.5zM258 251q52 0 83.5 28.5t31.5 76.5t-32 77t-83 29q-52 0 -83 -29t-31 -77t31 -76.5t83 -28.5zM100 -33
q0 -42 40 -63t119 -21q87 0 136.5 24.5t49.5 67.5q0 31 -20.5 45t-65.5 14h-174q-39 0 -62 -18t-23 -49zM277 651h39v-72h-97v61q0 42 29.5 67.5t78.5 25.5v-41q-25 -1 -37 -10.5t-13 -30.5z" />
    <glyph glyph-name="gdotaccent.1" horiz-adv-x="550" 
d="M113 227q-28 25 -43 58t-15 71q0 78 56.5 127.5t146.5 49.5q50 0 92.5 -17t69.5 -48q15 37 52.5 54t80.5 9v-91q-33 15 -61 3t-35 -48q2 -8 3 -17.5t1 -21.5q0 -78 -57 -127.5t-146 -49.5q-24 0 -45.5 4t-41.5 11q-18 -3 -30 -15.5t-12 -27.5q0 -18 13.5 -29t35.5 -11
h191q79 0 120 -32.5t41 -93.5q0 -82 -74 -129t-201 -47q-113 0 -177.5 37t-64.5 104q0 36 19.5 64t55.5 43q-20 14 -30.5 34t-10.5 44q0 30 17.5 54.5t48.5 37.5zM258 251q52 0 83.5 28.5t31.5 76.5t-32 77t-83 29q-52 0 -83 -29t-31 -77t31 -76.5t83 -28.5zM100 -33
q0 -42 40 -63t119 -21q87 0 136.5 24.5t49.5 67.5q0 31 -20.5 45t-65.5 14h-174q-39 0 -62 -18t-23 -49zM315 614h-98v104h98v-104z" />
    <glyph glyph-name="g.1.ord" horiz-adv-x="400" 
d="M82 506q-20 17 -30.5 40.5t-10.5 51.5q0 56 41.5 91.5t107.5 35.5q37 0 67 -11.5t51 -32.5q12 26 39 37.5t58 5.5v-73q-23 11 -42.5 4t-25.5 -30q1 -6 2 -13t1 -14q0 -57 -41.5 -92.5t-108.5 -35.5q-18 0 -33 2.5t-28 7.5q-12 -3 -19 -10.5t-7 -17.5q0 -11 9 -18.5
t23 -7.5h140q56 0 86 -23.5t30 -68.5q0 -60 -54.5 -93.5t-148.5 -33.5q-84 0 -130.5 26t-46.5 74q0 24 14 44t39 31q-15 11 -22.5 25.5t-7.5 31.5q0 21 12.5 38.5t35.5 28.5zM191 528q34 0 54.5 19t20.5 51q0 31 -20.5 50t-54.5 19q-35 0 -55.5 -18.5t-20.5 -50.5t20.5 -51
t55.5 -19zM85 319q0 -27 27 -41t81 -14q59 0 91.5 16t32.5 44q0 20 -13 29.5t-42 9.5h-122q-25 0 -40 -12t-15 -32z" />
    <glyph glyph-name="Euro.lt" 
d="M99 250h-78v69h70q-1 7 -1 15v25q0 8 0.5 17.5l1.5 28.5h-71v68h79q23 121 92 188.5t168 67.5q85 0 144 -45.5t86 -131.5l-83 -34q-21 68 -56 99t-91 31q-64 0 -107.5 -45t-61.5 -130h226l-16 -68h-219l-1.5 -28.5t-0.5 -17.5v-25t1 -15h203l-15 -69h-179
q17 -87 61 -133.5t109 -46.5q56 0 91 31t56 99l83 -34q-27 -86 -86 -131.5t-144 -45.5q-100 0 -169 69t-92 192z" />
    <glyph glyph-name="dollar.lt" 
d="M18 147l72 60q30 -59 76 -93.5t106 -42.5v261q-60 13 -93.5 25.5t-57.5 27.5q-35 24 -52 57.5t-17 78.5q0 82 61.5 138t158.5 65v95h73v-96q76 -8 133 -43.5t85 -91.5l-68 -59q-24 49 -62.5 78.5t-87.5 38.5v-240q60 -13 95 -26t59 -30q36 -24 53 -59.5t17 -82.5
q0 -86 -62 -144.5t-162 -68.5v-97h-73v96q-85 7 -153 48t-101 105zM138 529q0 -41 30 -66t104 -42v227q-61 -6 -97.5 -38.5t-36.5 -80.5zM481 201q0 43 -30.5 70t-105.5 45v-245q63 9 99.5 43.5t36.5 86.5z" />
    <glyph glyph-name="cent.lt" 
d="M350 -106h-70v98q-97 15 -155.5 89.5t-58.5 184.5q0 109 58.5 183.5t155.5 89.5v107h70v-105q71 -6 122.5 -47t72.5 -107l-74 -39q-12 50 -43.5 80.5t-77.5 36.5v-399q46 6 77.5 36.5t43.5 80.5l74 -39q-21 -66 -72.5 -107t-122.5 -47v-96zM152 266q0 -78 34 -130t94 -67
v393q-60 -15 -94 -67t-34 -129z" />
    <glyph glyph-name="sterling.lt" 
d="M192 295h-117v72h79q-24 45 -33 74.5t-9 58.5q0 49 17.5 91.5t49.5 73.5t75 47.5t93 16.5q99 0 161 -62.5t62 -161.5q0 -22 -3.5 -42t-10.5 -42h-88q8 18 12 38.5t4 40.5q0 67 -37 108t-100 41q-65 0 -105 -42.5t-40 -110.5q0 -26 8 -52.5t35 -76.5h158v-72h-125
q8 -22 11.5 -43.5t3.5 -44.5q0 -15 -2 -31t-6 -34q51 -43 80 -56t59 -13q45 0 67.5 28.5t24.5 88.5h79q0 -92 -43 -146.5t-116 -54.5q-45 0 -86 18.5t-92 64.5q-24 -40 -57 -61.5t-73 -21.5q-53 0 -86 31.5t-32 81.5q0 49 35.5 81t89.5 32q21 0 41 -5.5t40 -17.5v5.5v4.5
q0 22 -6 44.5t-18 48.5zM136 151q-24 0 -38.5 -13t-14.5 -35q0 -20 13.5 -33t33.5 -13q24 0 42.5 17t30.5 48q-20 16 -36 22.5t-31 6.5z" />
    <glyph glyph-name="yen.lt" 
d="M260 189h-180v69h180v82h-180v69h142l-198 309h103l179 -292l179 292h100l-198 -309h143v-69h-181v-82h181v-69h-181v-189h-89v189z" />
    <glyph glyph-name="florin.lt" 
d="M262 359h-104v66h114l17 115q14 92 60 140.5t122 48.5q34 0 63.5 -11.5t51.5 -33.5l-36 -66q-13 16 -31 25t-38 9q-39 0 -64 -29t-33 -85l-17 -113h120v-66h-130l-28 -181q-12 -92 -58.5 -140.5t-122.5 -48.5q-34 0 -64.5 12t-51.5 33l37 66q13 -16 31.5 -25.5t37.5 -9.5
q39 0 63.5 29t33.5 86z" />
    <glyph glyph-name="zero.lt" 
d="M95 113q-28 48 -42.5 110.5t-14.5 135.5t14.5 135.5t42.5 110.5q36 61 89 92.5t120 31.5t120 -31.5t89 -92.5q28 -48 42.5 -110.5t14.5 -135.5t-14.5 -135.5t-42.5 -110.5q-36 -61 -89 -92.5t-120 -31.5t-120 31.5t-89 92.5zM304 646q-80 0 -126 -77.5t-46 -209.5
t46 -209.5t126 -77.5t126 77.5t46 209.5t-46 209.5t-126 77.5z" />
    <glyph glyph-name="one.lt" 
d="M305 722h72v-642h173v-80h-461v80h195v448h-187v70l90 5q62 4 88 30.5t30 88.5z" />
    <glyph glyph-name="two.lt" 
d="M54 0v79l212 176q45 37 70.5 60.5t43.5 44.5q31 36 45.5 70t14.5 69q0 66 -39.5 107t-104.5 41q-63 0 -104 -42t-41 -106q0 -20 4 -40t11 -38h-90q-8 22 -11.5 41.5t-3.5 41.5q0 47 18 89t52 73q33 31 76 47t91 16q107 0 172 -61.5t65 -162.5q0 -72 -41 -138t-147 -151
l-161 -132h363v-84h-495z" />
    <glyph glyph-name="three.lt" 
d="M480 43q-33 -26 -76.5 -40t-93.5 -14q-109 0 -181 58t-88 160l92 20q11 -73 58.5 -115.5t116.5 -42.5q70 0 112.5 37t42.5 100q0 59 -43.5 93t-116.5 34h-77v81h79q65 0 103 30t38 83q0 55 -36.5 88t-98.5 33q-64 0 -107.5 -39t-55.5 -108l-86 17q15 95 83 153t168 58
q102 0 162.5 -53.5t60.5 -142.5q0 -54 -32 -97.5t-82 -60.5q63 -18 98.5 -63.5t35.5 -110.5q0 -47 -19.5 -88t-56.5 -70z" />
    <glyph glyph-name="four.lt" 
d="M449 188v-188h-87v188h-340v74l308 456h121v-451h132v-79h-134zM361 627l-242 -360h242v360z" />
    <glyph glyph-name="five.lt" 
d="M307 395q-41 0 -75 -16t-55 -45l-87 15l31 369h391v-84h-317l-20 -217q28 27 64.5 41.5t78.5 14.5q51 0 94 -17.5t75 -51.5q30 -33 46.5 -77t16.5 -94t-19 -95.5t-54 -79.5q-35 -33 -80.5 -51t-96.5 -18q-104 0 -172 56t-86 156l92 19q11 -70 55.5 -110.5t110.5 -40.5
q68 0 114 46.5t46 115.5q0 71 -43 117.5t-110 46.5z" />
    <glyph glyph-name="six.lt" 
d="M338 729q86 0 144 -42.5t82 -123.5l-78 -33q-17 58 -55.5 88.5t-95.5 30.5q-46 0 -86 -24.5t-66 -70.5q-22 -36 -33 -82.5t-11 -99.5v-4.5v-5.5q27 52 79 82.5t115 30.5q49 0 92 -18t76 -52q32 -33 49 -76.5t17 -92.5q0 -51 -18.5 -96.5t-53.5 -79.5q-34 -34 -80 -52.5
t-97 -18.5q-126 0 -196.5 98t-70.5 265q0 75 17 139.5t49 113.5q39 60 96 92t125 32zM318 68q68 0 114.5 47t46.5 116q0 70 -46 117.5t-114 47.5t-115 -47.5t-47 -117.5q0 -69 46 -116t115 -47z" />
    <glyph glyph-name="seven.lt" 
d="M473 635h-344v-123h-84v206h530v-83q-122 -136 -174 -280t-52 -355h-97q0 199 53.5 353.5t167.5 281.5z" />
    <glyph glyph-name="eight.lt" 
d="M76 537q0 85 64 138.5t164 53.5t164 -53.5t64 -138.5q0 -54 -29 -94.5t-83 -61.5q69 -21 109.5 -70t40.5 -113q0 -93 -74 -150.5t-192 -57.5t-192 57.5t-74 150.5q0 64 40.5 113t109.5 70q-54 21 -83 61.5t-29 94.5zM162 536q0 -53 39 -85t103 -32t103 32t39 85t-39 85
t-103 32q-63 0 -102.5 -32.5t-39.5 -84.5zM476 204q0 60 -48 98t-124 38t-124 -38t-48 -98q0 -61 48 -99.5t124 -38.5t124 38.5t48 99.5z" />
    <glyph glyph-name="nine.lt" 
d="M270 -11q-86 0 -144 42.5t-82 123.5l78 33q17 -58 55.5 -88.5t95.5 -30.5q46 0 86 24.5t66 70.5q22 36 33 82.5t11 99.5v5.5v4.5q-27 -52 -79 -82.5t-115 -30.5q-49 0 -92 18t-76 52q-32 33 -49 76.5t-17 92.5q0 51 18.5 96.5t53.5 79.5q34 34 80 52.5t97 18.5
q126 0 196.5 -98t70.5 -265q0 -75 -17 -139.5t-49 -113.5q-39 -60 -96 -92t-125 -32zM290 650q-68 0 -114.5 -47t-46.5 -116q0 -70 46 -117.5t114 -47.5t115 47.5t47 117.5q0 69 -46 116t-115 47z" />
    <glyph glyph-name="period.tab" horiz-adv-x="304" 
d="M208 0h-114v118h114v-118z" />
    <glyph glyph-name="comma.tab" horiz-adv-x="304" 
d="M146 0h-52v118h114v-124q0 -58 -34.5 -91.5t-95.5 -35.5v52q34 2 51 20t17 53v8z" />
    <glyph glyph-name="colon.tab" horiz-adv-x="304" 
d="M208 0h-114v118h114v-118zM208 364h-114v118h114v-118z" />
    <glyph glyph-name="semicolon.tab" horiz-adv-x="304" 
d="M146 0h-52v118h114v-124q0 -58 -34.5 -91.5t-95.5 -35.5v52q34 2 51 20t17 53v8zM208 364h-114v118h114v-118z" />
    <glyph glyph-name="space.tab" horiz-adv-x="304" 
 />
    <glyph glyph-name="percent.lt" 
d="M139 382q-58 0 -91.5 47t-33.5 126q0 80 33.5 127t91.5 47t91.5 -47t33.5 -127q0 -79 -33.5 -126t-91.5 -47zM107 0h-85l479 718h85zM139 444q29 0 44 28.5t15 82.5t-15 83t-44 29t-44.5 -29.5t-15.5 -82.5t15.5 -82t44.5 -29zM469 336q58 0 91 -46.5t33 -126.5
t-33.5 -127t-90.5 -47q-58 0 -91.5 47t-33.5 127t33.5 126.5t91.5 46.5zM469 274q-29 0 -44.5 -28.5t-15.5 -82.5t15.5 -83t44.5 -29q28 0 43.5 29.5t15.5 82.5t-15.5 82t-43.5 29z" />
    <glyph glyph-name="baht.lt" 
d="M259 0h-198v718h198v101h73v-101q104 -4 158 -52t54 -135q0 -58 -28.5 -98.5t-81.5 -58.5q63 -17 99 -63.5t36 -112.5q0 -93 -63 -145.5t-173 -52.5h-1v-102h-73v102zM149 638v-229h110v229h-110zM457 523q0 52 -31.5 80.5t-93.5 33.5v-227q62 5 93.5 33.5t31.5 79.5z
M259 329h-110v-249h110v249zM480 205q0 58 -39 91t-108 33h-1v-249h1q69 0 108 33.5t39 91.5z" />
    <glyph glyph-name="dong.lt" 
d="M253 80q-85 0 -137.5 59t-52.5 151q0 93 52.5 152t137.5 59q43 0 77 -17t53 -47v119h-165v70h165v92h88v-92h93v-70h-93v-468h-88v56q-19 -30 -53 -47t-77 -17zM385 277v26q0 58 -32 92.5t-83 34.5q-55 0 -86 -37.5t-31 -102.5q0 -64 31 -101.5t86 -37.5q51 0 83 34
t32 92zM471 -70h-374v70h374v-70z" />
    <glyph glyph-name="franc.lt" 
d="M130 161h-100v78h100v479h440v-84h-346v-205h289v-84h-289v-106h158v-78h-158v-161h-94v161z" />
    <glyph glyph-name="naira.lt" 
d="M93 250h-77v69h77v86h-77v68h77v245h102l230 -506v506h89v-245h77v-68h-77v-86h78v-69h-78v-250h-82l-249 549v-549h-90v250z" />
    <glyph glyph-name="peseta.lt" 
d="M267 225h-72v-225h-96v435h-77v73h77v210h168q112 0 180 -55t79 -155h76v-73h-76q-11 -99 -80 -154.5t-179 -55.5zM265 643h-70v-135h243q-9 65 -54.5 100t-118.5 35zM195 435v-135h70q72 0 117 35t55 100h-242z" />
    <glyph glyph-name="peso.lt" 
d="M259 239h-64v-239h-96v360h-77v69h77v86h-77v68h77v135h160q89 0 152 -35t90 -100h90v-68h-73q1 -13 1.5 -21t0.5 -15q0 -15 -1 -27t-3 -23h76v-69h-98q-30 -58 -91 -89.5t-144 -31.5zM195 643v-329h62q82 0 128 43.5t46 122.5q0 78 -45.5 120.5t-128.5 42.5h-62z" />
    <glyph glyph-name="uni20BD.lt" 
d="M106 163h-77v68h77v86h-77v69h77v332h221q116 0 180 -53t64 -149q0 -95 -64.5 -147t-179.5 -52h-125v-86h138v-68h-138v-163h-96v163zM202 639v-253h118q75 0 116.5 33.5t41.5 93.5q0 61 -41 93.5t-117 32.5h-118z" />
    <glyph glyph-name="uni20B9.lt" 
d="M358 450h-304v77h304q-11 55 -52 85t-106 30h-146v76h500v-76h-178q27 -19 44.5 -49t24.5 -66h109v-77h-109q-10 -63 -49.5 -108.5t-102.5 -66.5l229 -275h-110l-215 259h-143v77h146q65 0 106 30t52 84z" />
    <glyph glyph-name="uni20BA.lt" 
d="M198 86h70q111 0 165.5 60.5t54.5 182.5h85q0 -156 -80 -242.5t-225 -86.5h-159v241l-86 -42v80l86 42v87l-86 -42v79l86 43v230h89v-193l168 82v-80l-168 -82v-87l168 82v-80l-168 -82v-192z" />
    <glyph glyph-name="won.lt" 
d="M110 250h-103v69h95l-11 86h-84v68h75l-31 245h77l64 -575l82 455h63l82 -455l63 575h75l-31 -245h75v-68h-84l-11 -86h95v-69h-103l-32 -250h-71l-91 499l-91 -499h-71z" />
    <glyph glyph-name="zero.slash" horiz-adv-x="623" 
d="M312 -11q-125 0 -199.5 101t-74.5 269t74.5 269t199.5 101t199 -101t74 -269t-74 -269t-199 -101zM312 648q-85 0 -133.5 -77.5t-48.5 -211.5q0 -31 2.5 -57.5t7.5 -49.5l320 291q-23 51 -61 78t-87 27zM312 70q85 0 133 77.5t48 211.5q0 31 -2.5 57.5t-7.5 49.5
l-319 -291q23 -51 61 -78t87 -27z" />
    <glyph glyph-name="zero.slash.lt" 
d="M304 -11q-122 0 -194 101t-72 269t72 269t194 101t194 -101t72 -269t-72 -269t-194 -101zM304 650q-81 0 -128 -78.5t-47 -212.5q0 -28 2 -53.5t7 -49.5l310 283q-23 54 -59.5 82.5t-84.5 28.5zM304 68q81 0 128 78.5t47 212.5q0 28 -2 53.5t-7 49.5l-310 -283
q23 -54 59.5 -82.5t84.5 -28.5z" />
    <glyph glyph-name="arrowNW" horiz-adv-x="811" 
d="M167 566v-304h-88v456h456v-88h-303l569 -569l-65 -65z" />
    <glyph glyph-name="arrowNE" horiz-adv-x="811" 
d="M732 262h-88v304l-569 -570l-65 65l569 569h-303v88h456v-456z" />
    <glyph glyph-name="arrowSE" horiz-adv-x="811" 
d="M644 152v304h88v-456h-456v88h303l-569 569l65 65z" />
    <glyph glyph-name="arrowSW" horiz-adv-x="811" 
d="M79 456h88v-304l569 570l65 -65l-569 -569h303v-88h-456v456z" />
    <glyph glyph-name="arrowupdown" horiz-adv-x="654" 
d="M582 159l62 -64l-317 -286l-317 286l62 64l210 -191v622l-210 -192l-62 64l317 287l317 -287l-62 -64l-210 192v-622z" />
    <glyph glyph-name="arrowleftright" horiz-adv-x="1029" 
d="M733 679l286 -317l-286 -317l-65 64l191 208h-689l191 -208l-65 -64l-286 317l286 317l65 -64l-191 -208h689l-191 208z" />
    </font>
</defs>
</svg>
