<?xml version="1.0" encoding="UTF-8" standalone="no"?>
<!DOCTYPE svg  PUBLIC '-//W3C//DTD SVG 1.1//EN'  'http://www.w3.org/Graphics/SVG/1.1/DTD/svg11.dtd'>
<svg xmlns="http://www.w3.org/2000/svg">
<defs>
<font id="AkkuratPro-BoldItalic" horiz-adv-x="568">
<font-face slope="-12" underline-position="-71" font-weight="700" descent="-200" panose-1="2 0 6 3 3 0 0 2 0 4" units-per-em="1000" unicode-range="U+0020-25CA" bbox="-138 -293 1127 970" x-height="520" underline-thickness="45" font-family="AkkuratPro" ascent="800" font-style="italic" cap-height="709"/>
<missing-glyph horiz-adv-x="1000"/>
<glyph glyph-name=".notdef" horiz-adv-x="1000"/>
<glyph glyph-name=".null" horiz-adv-x="0"/>
<glyph glyph-name="nonmarkingreturn" horiz-adv-x="333"/>
<glyph glyph-name="space" horiz-adv-x="207" unicode=" "/>
<glyph glyph-name="exclam" horiz-adv-x="339" unicode="!" d="M221 133l-24 -133h-132l24 133h132zM322 709l-40 -222l-76 -275h-75l20 275l40 222h131z"/>
<glyph glyph-name="quotedbl" horiz-adv-x="523" unicode='&quot;' d="M252 563l-55 -171h-83l5 171l26 146h133zM479 563l-55 -171h-83l5 171l26 146h133z"/>
<glyph glyph-name="numbersign" horiz-adv-x="754" unicode="#" d="M710 414h-136l-41 -133h121l-17 -96h-136l-58 -185h-103l58 185h-140l-58 -185h-103l58 185h-121l17 96h136l42 133h-122l17 97h136l59 184h102l-58 -184h140l59 184h102l-58 -184h121zM471 413h-138l-42 -131h138z"/>
<glyph glyph-name="dollar" d="M270 426l31 176q-48 -4 -78 -26q-39 -29 -39 -76q0 -22 18 -41t41 -25q26 -8 27 -8zM405 215q0 55 -69 76l-14 4l-34 -188q46 3 77 27q40 32 40 81zM410 799l-17 -100q83 -18 130 -75q45 -55 45 -120q0 -2 -0.5 -7.5t-0.5 -8.5h-123q0 1 0.5 5t0.5 6q0 30 -19 58 q-16 23 -52 36l-32 -183l33 -8q69 -17 111 -61.5t42 -110.5q0 -106 -82 -172q-70 -55 -176 -57l-16 -88h-74l17 94q-97 16 -155 85q-46 56 -46 126q0 7 2 23h122q-1 -6 -1 -18q0 -39 23 -69q25 -32 74 -42l34 200q-8 2 -47 12q-66 18 -100 56q-42 47 -42 106q0 100 84 165 q74 56 175 56l17 92h73z" unicode="$"/>
<glyph glyph-name="percent" horiz-adv-x="901" unicode="%" d="M622 267q-27 -24 -37 -81q-3 -14 -3 -42q0 -30 19 -51q17 -19 46 -19q25 0 45 18q26 24 37 82q3 14 3 42q0 30 -19 51q-17 19 -46 19q-24 0 -45 -19zM533 30q-48 46 -48 116v19q0 19 2 30q14 75 53 118q54 59 132 59q64 0 109 -42q48 -46 48 -116v-19q0 -19 -2 -30 q-14 -75 -53 -118q-54 -59 -132 -59q-64 0 -109 42zM211 618q-26 -24 -37 -82q-3 -14 -3 -42q0 -30 19 -51q17 -19 46 -19q25 0 45 18q26 24 37 82q3 14 3 42q0 30 -19 51q-17 19 -46 19q-25 0 -45 -18zM122 380q-48 46 -48 116v19q0 19 2 30q14 75 53 118q54 59 132 59 q64 0 109 -42q48 -46 48 -116v-19q0 -19 -2 -30q-14 -75 -53 -118q-54 -59 -132 -59q-64 0 -109 42zM796 664l-629 -685l-60 59l628 687z"/>
<glyph glyph-name="ampersand" horiz-adv-x="740" unicode="&amp;" d="M420 560q0 29 -18 47t-48 20h-9q-30 0 -53 -17.5t-29 -49.5q-1 -5 -1 -15q0 -8 1.5 -16t5 -16.5t5.5 -14t8.5 -14.5t8.5 -12.5t10 -14t9 -12.5q26 11 37 16.5t30 17.5t28 27.5t13 36.5q2 12 2 17zM385 131l-129 193q-24 -11 -37 -18.5t-29 -20t-24.5 -28.5t-12.5 -38 q-2 -14 -2 -21q0 -43 30.5 -69.5t77.5 -30.5q7 -1 22 -1q65 0 104 34zM704 399l-17 -99h-82q-28 -119 -75 -175l87 -125h-142l-30 46q-85 -58 -183 -58q-11 0 -29 2q-86 8 -142 61t-56 134q0 11 4 39q20 118 158 184q-51 75 -51 128q0 16 3 32q13 76 69.5 119t131.5 43 q15 0 22 -1q72 -6 119 -49t47 -110q0 -16 -3 -32q-11 -64 -53 -105t-113 -73l99 -144q19 25 38 104q4 14 6.5 28.5t4.5 29t3 21.5h184z"/>
<glyph glyph-name="quotesingle" horiz-adv-x="275" unicode="&apos;" d="M267 710l-26 -147l-55 -171h-83l4 171l26 147h134z"/>
<glyph glyph-name="parenleft" horiz-adv-x="326" unicode="(" d="M397 740q-119 -112 -177 -243.5t-58 -294.5q0 -143 85 -313l-79 -40q-107 178 -107 372q0 360 276 583z"/>
<glyph glyph-name="parenright" horiz-adv-x="326" unicode=")" d="M-77 -87q119 112 177 243.5t58 294.5q0 143 -85 313l79 40q107 -178 107 -372q0 -360 -276 -583z"/>
<glyph glyph-name="asterisk" horiz-adv-x="523" unicode="*" d="M506 504l-158 -38l78 -125l-94 -65l-62 139l-110 -139l-76 65l123 128l-142 42l48 101l133 -60l15 160h112l-39 -161l153 60z"/>
<glyph glyph-name="plus" horiz-adv-x="677" unicode="+" d="M611 255h-228v-250h-113v250h-228v107h228v234h113v-234h228v-107z"/>
<glyph glyph-name="comma" horiz-adv-x="290" unicode="," d="M197 156l-25 -144q-12 -69 -43.5 -112.5t-99.5 -69.5l-25 58q45 19 62.5 43.5t25.5 68.5h-76l28 156h153z"/>
<glyph glyph-name="hyphen" horiz-adv-x="461" unicode="-" d="M404 364l-20 -112h-343l20 112h343z"/>
<glyph glyph-name="period" horiz-adv-x="291" unicode="." d="M191 156l-28 -156h-153l28 156h153z"/>
<glyph glyph-name="slash" horiz-adv-x="387" unicode="/" d="M463 722l-437 -735h-92l437 735h92z"/>
<glyph glyph-name="zero" d="M230 552q-35 -40 -50 -112q-34 -156 -34 -217q0 -39 15 -69q12 -23 36 -37t52 -14q50 0 86 41q35 40 50 112q34 156 34 217q0 39 -15 69q-12 23 -36 37t-52 14q-50 0 -86 -41zM69 73q-42 60 -44 157v9q0 58 13 130q18 100 48.5 173t87.5 116q67 51 145 51q117 0 178 -86 q45 -64 45 -157q0 -49 -15 -139q-18 -100 -48.5 -173t-87.5 -116q-67 -51 -145 -51q-116 0 -177 86z" unicode="0"/>
<glyph glyph-name="one" d="M447 695l-123 -695h-126l96 540l-173 -111l25 143l193 123h108z" unicode="1"/>
<glyph glyph-name="two" d="M524 532q0 -103 -107 -201l-237 -218h282l-20 -113h-448l20 113l331 305q53 48 53 105q0 36 -23.5 56t-60.5 20q-40 0 -67.5 -25.5t-32.5 -66.5l-1 -8h-128l3 19q14 86 75 138.5t153 52.5q86 0 147 -46t61 -131z" unicode="2"/>
<glyph glyph-name="three" d="M526 529q0 -82 -54 -136q-30 -30 -76 -41q42 -16 65.5 -55t23.5 -87q0 -80 -59 -145q-34 -37 -87.5 -57.5t-112.5 -20.5q-93 0 -157 62q-57 55 -57 136q0 8 2 26h122q0 -2 -0.5 -5.5t-0.5 -5.5q0 -42 23 -68q30 -35 80 -35q52 0 84 29q36 33 36 85q0 42 -34.5 68.5 t-80.5 26.5h-42l19 109h52q53 0 89 26t36 74q0 34 -22 56q-28 28 -65 28q-48 0 -80 -27q-29 -26 -37 -63h-126q14 80 71 133q72 67 186 67q86 0 144 -51.5t58 -128.5z" unicode="3"/>
<glyph glyph-name="four" d="M532 253l-20 -113h-85l-24 -140h-126l25 140h-313l21 118l334 437h146l-337 -442h169l28 163h126l-29 -163h85z" unicode="4"/>
<glyph glyph-name="five" d="M561 695l-20 -112h-308l-37 -157q47 41 120 41q95 0 148 -56.5t53 -150.5q0 -95 -51 -168q-75 -106 -209 -106q-106 0 -169 59q-62 57 -62 148v10h125v-7q0 -40 26 -68q29 -31 79 -31q68 0 106 61q26 43 26 100q0 48 -27.5 74.5t-76.5 26.5q-60 0 -99 -47l-121 27l83 356 h414z" unicode="5"/>
<glyph glyph-name="six" d="M212 330q-48 -46 -48 -123q0 -47 26 -76q29 -32 75 -32q42 0 76 34q48 47 48 123q0 47 -26 76q-29 32 -75 32q-42 0 -76 -34zM545 524h-126q0 25 -15 45q-23 33 -74 33q-47 0 -82 -38q-34 -37 -52 -102q-8 -27 -11 -43q46 46 123 46q104 0 159 -66q49 -59 49 -138 q0 -115 -69.5 -194.5t-184.5 -79.5q-103 0 -163 67q-60 66 -60 173q0 70 11 130q17 99 46 174t85 121q66 56 156 56q114 0 170 -71q38 -47 38 -111v-2z" unicode="6"/>
<glyph glyph-name="seven" d="M574 695l-17 -100l-376 -595h-145l371 583h-332l20 112h479z" unicode="7"/>
<glyph glyph-name="eight" d="M143 194q0 -41 29 -68q31 -28 81 -28q52 0 85.5 32t33.5 82q0 41 -29 68q-31 28 -81 28q-52 0 -85.5 -32t-33.5 -82zM211 500q0 -37 29 -62q25 -22 68 -22q45 0 74 27.5t29 72.5q0 36 -29 61q-26 23 -68 23q-45 0 -74 -27.5t-29 -72.5zM538 528q0 -77 -50 -130 q-29 -30 -67 -45q36 -22 56 -61t20 -83q0 -100 -73.5 -161t-176.5 -61q-106 0 -172 61q-59 56 -59 137q0 75 50 130q38 41 87 59q-30 21 -48.5 57.5t-18.5 74.5q0 89 68.5 146.5t163.5 57.5q102 0 162 -56q58 -55 58 -126z" unicode="8"/>
<glyph glyph-name="nine" d="M516 339q-40 -221 -129 -295q-66 -56 -155 -56q-113 0 -170 74q-36 47 -36 105q0 2 0.5 6.5t0.5 6.5h124q-1 -4 -1 -12q0 -30 24 -54q20 -20 65 -20q36 0 65 22q22 17 37 43q30 49 42 119q-39 -47 -125 -47q-96 0 -151 56q-56 58 -56 149q0 115 70 194t184 79 q106 0 164 -64.5t58 -172.5q0 -71 -11 -133zM403 489q0 50 -26 79t-75 29q-59 0 -92 -48t-33 -110q0 -49 27.5 -78t75.5 -29q57 0 90 48.5t33 108.5z" unicode="9"/>
<glyph glyph-name="colon" horiz-adv-x="319" unicode=":" d="M204 151l-27 -151h-151l27 151h151zM269 520l-26 -151h-151l26 151h151z"/>
<glyph glyph-name="semicolon" horiz-adv-x="319" unicode=";" d="M202 151l-24 -139q-12 -70 -43 -112.5t-99 -68.5l-25 58q44 19 62.5 44t25.5 67h-76l27 151h152zM267 520l-27 -151h-152l27 151h152z"/>
<glyph glyph-name="less" horiz-adv-x="464" unicode="&lt;" d="M403 68l-69 -68l-322 323l321 322l70 -70l-254 -253z"/>
<glyph glyph-name="equal" horiz-adv-x="688" unicode="=" d="M585 129h-510v99h510v-99zM585 328h-510v98h510v-98z"/>
<glyph glyph-name="greater" horiz-adv-x="464" unicode="&gt;" d="M452 323l-322 -323l-69 68l254 254l-254 253l70 70z"/>
<glyph glyph-name="question" horiz-adv-x="520" unicode="?" d="M285 140l-25 -140h-140l25 140h140zM516 544q0 -18 -3 -36q-14 -84 -109 -148q-4 -3 -17 -11t-16.5 -11t-14 -10t-14.5 -10.5t-12 -11t-11.5 -12.5t-9 -13.5t-8.5 -16t-6.5 -17.5t-5.5 -21l-5 -24h-124q14 82 23 103q12 30 31.5 54t34.5 35.5t43.5 29.5t40.5 26 q44 30 51 69q1 6 1 15q0 36 -28 56.5t-68 20.5q-47 0 -78 -29q-29 -29 -31 -70h-130q15 95 66 145q68 67 181 67q91 0 155 -48.5t64 -131.5z"/>
<glyph glyph-name="at" horiz-adv-x="920" unicode="@" d="M539 349q0 29 -15 50.5t-48 21.5q-44 0 -68.5 -44.5t-24.5 -97.5q0 -76 63 -76q48 0 70.5 45.5t22.5 100.5zM628 111q-36 0 -59.5 20t-27.5 43q-17 -29 -50 -45.5t-69 -16.5q-70 0 -113 53q-34 41 -34 106q0 92 44 159q55 82 144 82q34 0 64 -16.5t41 -43.5l24 46h84 l-61 -248q-2 -12 -2 -18q0 -32 32 -32q48 0 83 67q29 57 29 142q0 101 -73.5 158.5t-184.5 57.5q-145 0 -235 -102.5t-90 -242.5q0 -114 68 -185q47 -49 105 -67.5t143 -18.5q41 0 98.5 15t98.5 35l-16 -95q-39 -23 -98 -37t-105 -14q-193 0 -306 116q-95 98 -95 245 q0 191 125 319t311 128q152 0 254.5 -87t102.5 -232q0 -74 -25 -138.5t-79.5 -108.5t-127.5 -44z"/>
<glyph glyph-name="A" horiz-adv-x="632" unicode="A" d="M400 252l-49 299l-155 -299h204zM576 0h-135l-22 136h-282l-70 -136h-137l374 709h148z"/>
<glyph glyph-name="B" horiz-adv-x="664" unicode="B" d="M471 228q0 41 -29 63t-76 22h-162l-35 -197h155q64 0 105.5 26.5t41.5 85.5zM505 521q0 33 -25.5 55t-73.5 22h-152l-31 -178h158q124 0 124 101zM640 539q0 -57 -30 -105t-84 -71q36 -18 56.5 -55.5t20.5 -79.5q0 -55 -26.5 -103.5t-71.5 -79.5q-42 -28 -89 -36.5 t-111 -8.5h-285l125 709h273q102 0 159 -42q28 -21 45.5 -56t17.5 -72z"/>
<glyph glyph-name="C" horiz-adv-x="628" unicode="C" d="M622 476h-132q0 57 -35 93q-32 35 -89 35q-62 0 -110 -48q-43 -42 -67 -129t-24 -161q0 -81 41 -123q38 -39 98 -39q61 0 102 38q32 30 46 74h132q-17 -84 -86 -151q-81 -78 -198 -78t-190 74q-75 75 -75 207q0 98 32.5 201.5t92.5 164.5q88 88 209 88q111 0 182 -68 t71 -178z"/>
<glyph glyph-name="D" horiz-adv-x="680" unicode="D" d="M518 442q0 60 -26 97q-38 54 -126 54h-112l-84 -477h140q77 0 121 46q39 41 63 127.5t24 152.5zM645 451q0 -105 -35 -218t-109 -172q-79 -61 -205 -61h-276l125 709h238q64 0 120.5 -24t91.5 -71q50 -68 50 -163z"/>
<glyph glyph-name="E" horiz-adv-x="628" unicode="E" d="M646 709l-21 -117h-370l-30 -165h327l-21 -116h-327l-34 -194h376l-21 -117h-505l126 709h500z"/>
<glyph glyph-name="F" horiz-adv-x="586" unicode="F" d="M631 709l-21 -117h-355l-34 -190h319l-20 -117h-320l-50 -285h-130l126 709h485z"/>
<glyph glyph-name="G" horiz-adv-x="671" unicode="G" d="M627 488h-132q0 44 -30 79q-32 37 -97 37t-113 -48q-43 -42 -67 -129t-24 -161q0 -81 41 -123q37 -39 98 -39q70 0 115 46q41 43 52 102q3 18 5 29h-169l19 107h292l-69 -388h-85v59q-23 -31 -68 -51t-100 -20q-114 0 -185 72q-75 75 -75 208q0 98 32.5 201.5t92.5 164.5 q88 88 211 88q121 0 190 -71q66 -68 66 -163z"/>
<glyph glyph-name="H" horiz-adv-x="714" unicode="H" d="M694 709l-125 -709h-130l54 309h-289l-54 -309h-130l125 709h130l-49 -277h289l49 277h130z"/>
<glyph glyph-name="I" horiz-adv-x="297" unicode="I" d="M277 709l-125 -709h-132l125 709h132z"/>
<glyph glyph-name="J" horiz-adv-x="500" unicode="J" d="M492 709l-92 -519q-16 -95 -76.5 -149t-148.5 -54q-111 0 -166 74q-35 48 -35 119q0 20 3 42h125q-3 -18 -3 -35q0 -39 21 -61t60 -22q36 0 60 24.5t31 62.5l91 518h130z"/>
<glyph glyph-name="K" horiz-adv-x="671" unicode="K" d="M715 709l-285 -275l185 -434h-145l-137 339l-150 -145l-34 -194h-129l125 709h130l-57 -319l331 319h166z"/>
<glyph glyph-name="L" horiz-adv-x="550" unicode="L" d="M500 122l-22 -122h-458l126 709h129l-104 -587h329z"/>
<glyph glyph-name="M" horiz-adv-x="877" unicode="M" d="M857 709l-125 -709h-126l95 515l-276 -505h-95l-99 502l-85 -512h-126l125 709h162l100 -512l280 512h170z"/>
<glyph glyph-name="N" horiz-adv-x="733" unicode="N" d="M712 709l-125 -709h-133l-222 509l-84 -509h-128l125 709h138l218 -503l84 503h127z"/>
<glyph glyph-name="O" horiz-adv-x="671" unicode="O" d="M504 442q0 81 -41 123q-39 39 -96 39q-63 0 -111 -48q-43 -42 -67 -129t-24 -161q0 -81 41 -123q39 -39 96 -39q65 0 112 47q43 42 66.5 129.5t23.5 161.5zM636 440q0 -98 -32 -201t-92 -164q-88 -88 -212 -88q-117 0 -190 74q-75 75 -75 207q0 97 32.5 200.5t92.5 164.5 q88 88 209 88q118 0 191 -74q76 -76 76 -207z"/>
<glyph glyph-name="P" horiz-adv-x="621" unicode="P" d="M502 496q0 45 -29 72.5t-83 27.5h-136l-40 -229h144q67 0 105.5 32t38.5 97zM635 509q0 -122 -78 -188.5t-204 -66.5h-159l-45 -254h-129l125 709h265q96 0 160.5 -55.5t64.5 -144.5z"/>
<glyph glyph-name="Q" horiz-adv-x="671" unicode="Q" d="M504 442q0 81 -41 123q-39 39 -96 39q-63 0 -111 -48q-43 -42 -67 -129t-24 -161q0 -81 41 -123q39 -39 96 -39q22 0 47 7l-62 100l83 51l59 -94q35 47 55 127.5t20 146.5zM636 440q0 -98 -32 -201t-92 -164l-16 -15l49 -77l-84 -53l-49 78q-52 -21 -112 -21 q-117 0 -190 74q-75 75 -75 207q0 97 32.5 200.5t92.5 164.5q88 88 209 88q118 0 191 -74q76 -76 76 -207z"/>
<glyph glyph-name="R" horiz-adv-x="667" unicode="R" d="M520 505q0 42 -30 66.5t-85 24.5h-151l-37 -211h159q64 0 104 29t40 91zM653 513q0 -87 -47 -146t-123 -79l87 -288h-134l-81 272h-158l-48 -272h-129l125 709h280q101 0 164.5 -55.5t63.5 -140.5z"/>
<glyph glyph-name="S" horiz-adv-x="622" unicode="S" d="M601 497h-133q0 54 -39.5 83.5t-95.5 29.5q-47 0 -85 -25q-44 -30 -44 -75q0 -29 17.5 -46.5t39.5 -23.5l147 -35q68 -16 113.5 -66t45.5 -123q0 -94 -67 -156q-79 -73 -210 -73q-136 0 -216 76q-70 67 -70 156v16h133q0 -46 28 -83q40 -52 131 -52q53 0 96 26.5t43 76.5 q0 30 -19 51t-49 28l-150 36q-62 15 -104 63t-42 113q0 102 84 168q78 60 187 60q125 0 196 -71q63 -63 63 -147v-7z"/>
<glyph glyph-name="T" horiz-adv-x="560" unicode="T" d="M612 709l-22 -120h-207l-103 -589h-130l104 589h-207l22 120h543z"/>
<glyph glyph-name="U" horiz-adv-x="694" unicode="U" d="M686 709l-81 -461q-22 -121 -97 -191t-193 -70q-120 0 -193 61.5t-73 179.5q0 33 6 69l72 412h131l-74 -422q-5 -28 -5 -49q0 -66 36.5 -100t102.5 -34q65 0 105 42t53 115l80 448h130z"/>
<glyph glyph-name="V" horiz-adv-x="592" unicode="V" d="M663 709l-359 -709h-144l-109 709h130l74 -550l269 550h139z"/>
<glyph glyph-name="W" horiz-adv-x="882" unicode="W" d="M923 709l-264 -709h-131l-62 494l-232 -494h-130l-20 709h119l12 -500l229 490h107l62 -490l184 500h126z"/>
<glyph glyph-name="X" horiz-adv-x="600" unicode="X" d="M661 709l-282 -349l159 -360h-136l-112 260l-203 -260h-148l285 361l-157 348h135l110 -250l200 250h149z"/>
<glyph glyph-name="Y" horiz-adv-x="590" unicode="Y" d="M663 709l-326 -437l-48 -272h-130l48 272l-168 437h132l118 -313l230 313h144z"/>
<glyph glyph-name="Z" horiz-adv-x="614" unicode="Z" d="M639 709l-23 -127l-457 -465h386l-21 -117h-555l23 127l458 465h-370l21 117h538z"/>
<glyph glyph-name="bracketleft" horiz-adv-x="361" unicode="[" d="M409 780l-15 -85h-140l-134 -758h140l-15 -85h-235l164 928h235z"/>
<glyph glyph-name="backslash" horiz-adv-x="387" unicode="\" d="M323 -13h-85l-177 735h85z"/>
<glyph glyph-name="bracketright" horiz-adv-x="361" unicode="]" d="M331 780l-164 -928h-235l15 85h140l134 758h-140l15 85h235z"/>
<glyph glyph-name="asciicircum" horiz-adv-x="538" unicode="^" d="M501 404h-138l-83 163l-84 -163h-133l170 318h99z"/>
<glyph glyph-name="underscore" horiz-adv-x="585" unicode="_" d="M508 -90h-539v88h539v-88z"/>
<glyph glyph-name="grave" horiz-adv-x="253" unicode="`" d="M307 631l-40 -65l-200 112l56 91z"/>
<glyph glyph-name="a" horiz-adv-x="590" unicode="a" d="M386 313q0 49 -24 82t-72 33q-44 0 -81 -37q-29 -29 -45 -81t-16 -101q0 -51 24.5 -83.5t73.5 -32.5q40 0 78 38q62 63 62 182zM546 520l-92 -520h-101v59q-24 -35 -62.5 -53.5t-77.5 -18.5q-81 0 -133 55q-59 62 -59 166q0 70 24 140.5t69 115.5q69 69 155 69 q49 0 88.5 -20t55.5 -51l23 58h110z"/>
<glyph glyph-name="b" horiz-adv-x="594" unicode="b" d="M413 308q0 51 -25.5 85.5t-72.5 34.5q-43 0 -79 -36q-29 -30 -45 -81.5t-16 -99.5q0 -55 23 -83q26 -35 78 -35q41 0 77 36q29 29 44.5 79.5t15.5 99.5zM541 312q0 -88 -35 -169t-103 -124q-50 -32 -111 -32q-96 0 -144 68l-26 -55h-107l127 721h126l-40 -233 q49 45 120 45q82 0 135 -56q58 -61 58 -165z"/>
<glyph glyph-name="c" horiz-adv-x="529" unicode="c" d="M491 332q0 -1 -0.5 -3.5t-0.5 -3.5h-123v8q0 35 -15 57q-23 35 -70 35q-39 0 -71 -27t-48.5 -80t-16.5 -105q0 -50 24 -84t73 -34q36 0 64.5 21.5t35.5 54.5h123q-16 -82 -81.5 -133t-150.5 -51q-58 0 -105.5 27t-75.5 74q-32 55 -32 133q0 69 24 134.5t70 109.5 q72 68 171 68q103 0 158 -65q47 -55 47 -136z"/>
<glyph glyph-name="d" horiz-adv-x="591" unicode="d" d="M386 309q0 53 -24.5 86t-76.5 33q-40 0 -76 -36q-29 -29 -45 -80.5t-16 -99.5q0 -52 23.5 -85.5t74.5 -33.5q41 0 78 37q29 30 45.5 81t16.5 98zM582 722l-127 -722h-102v59q-22 -36 -61 -54t-79 -18q-80 0 -133 56q-59 62 -59 165q0 88 35 169t103 124q50 32 110 32 q49 0 87.5 -19t55.5 -49l46 257h124z"/>
<glyph glyph-name="e" horiz-adv-x="557" unicode="e" d="M392 326q0 46 -27 76q-28 30 -77 30q-45 0 -82 -31q-36 -31 -53 -89h238q0 3 0.5 7.5t0.5 6.5zM510 303q0 -31 -6 -64q-1 -4 -2.5 -9.5t-1.5 -8.5h-360q0 -61 20 -90q30 -43 87 -43q77 0 102 60h120q-18 -59 -62 -100q-64 -61 -166 -61q-93 0 -156 63q-30 30 -47 76 t-17 91q0 34 6 67q19 109 94 180q73 69 177 69q64 0 113.5 -30.5t72.5 -79.5q26 -57 26 -120z"/>
<glyph glyph-name="f" horiz-adv-x="379" unicode="f" d="M439 715l-18 -100q-49 14 -89 14q-58 0 -68 -54l-9 -55h138l-18 -103h-139l-73 -417h-126l74 417h-89l18 103h89l11 65q11 65 55 107t126 42q56 0 118 -19z"/>
<glyph glyph-name="g" horiz-adv-x="529" unicode="g" d="M331 -68q0 21 -16.5 34t-38.5 16l-144 15q-59 -17 -59 -72q0 -20 16 -38q30 -32 103 -32q80 0 118 33q21 19 21 44zM358 356q0 37 -24 61q-24 23 -62 23q-35 0 -66 -27q-35 -32 -35 -83q0 -36 25 -61q23 -22 61 -22q37 0 65 25q36 33 36 84zM537 564l-17 -97q-2 0 -5 0.5 t-5 0.5q-39 0 -60 -21q27 -42 27 -92q0 -76 -54 -133q-65 -70 -168 -70q-57 0 -98 20q-37 -21 -37 -48q0 -26 51 -31l151 -16q53 -5 91 -43.5t38 -88.5q0 -72 -51 -121q-68 -66 -219 -66q-107 0 -164 46q-50 41 -50 98q0 85 82 129q-37 27 -37 73q0 72 79 116 q-39 45 -39 107q0 86 59 145q62 62 162 62q67 0 116 -29q44 61 114 61q26 0 34 -2z"/>
<glyph glyph-name="h" horiz-adv-x="591" unicode="h" d="M524 385q0 -25 -5 -53l-59 -332h-125l56 315q3 17 3 32q0 70 -70 70q-28 0 -55 -19t-45 -47q-29 -45 -44 -130l-39 -221h-126l127 722h126l-44 -249q63 60 147 60q73 0 116 -43q37 -36 37 -105z"/>
<glyph glyph-name="i" horiz-adv-x="278" unicode="i" d="M234 520l-91 -520h-128l91 520h128zM272 722l-23 -129h-135l23 129h135z"/>
<glyph glyph-name="j" horiz-adv-x="284" unicode="j" d="M236 520l-105 -606q-10 -61 -55 -96t-108 -35q-61 0 -106 29l18 101q36 -20 68 -20q51 0 61 55l100 572h127zM276 722l-23 -129h-135l23 129h135z"/>
<glyph glyph-name="k" horiz-adv-x="572" unicode="k" d="M590 520l-227 -207l152 -313h-140l-107 228l-103 -94l-24 -134h-126l127 722h126l-72 -409l225 207h169z"/>
<glyph glyph-name="l" horiz-adv-x="295" unicode="l" d="M263 722l-100 -567q-2 -12 -2 -16q0 -34 41 -34q14 0 29 3l-18 -107q-28 -7 -64 -7q-58 0 -90 35q-26 29 -26 76q0 24 4 45l100 572h126z"/>
<glyph glyph-name="m" horiz-adv-x="886" unicode="m" d="M820 398q0 -31 -7 -71l-59 -327h-126l56 310q5 25 5 44q0 30 -17.5 46.5t-46.5 16.5q-43 0 -79 -43q-42 -52 -60 -153l-40 -221h-123l55 310q5 23 5 44q0 28 -16.5 45.5t-48.5 17.5q-51 0 -93 -64q-29 -44 -45 -132l-40 -221h-125l92 520h102v-63q27 34 70.5 55t86.5 21 q59 0 90 -23q40 -30 46 -70q31 42 76.5 67.5t94.5 25.5q66 0 106 -37q41 -37 41 -98z"/>
<glyph glyph-name="n" horiz-adv-x="590" unicode="n" d="M524 385q0 -25 -5 -53l-59 -332h-125l56 315q3 17 3 32q0 70 -70 70q-28 0 -54.5 -19t-44.5 -47q-30 -47 -45 -130l-39 -221h-126l92 520h103v-63q66 76 161 76q73 0 116 -43q37 -36 37 -105z"/>
<glyph glyph-name="o" horiz-adv-x="560" unicode="o" d="M380 313q0 43 -19 71q-27 40 -80 40q-38 0 -72 -28q-64 -54 -64 -189q0 -43 19 -71q27 -40 80 -40q38 0 72 28q64 54 64 189zM506 308q0 -163 -96 -255q-70 -66 -172 -66q-90 0 -149 56q-68 64 -68 169q0 163 96 255q70 66 170 66q93 0 152 -56q67 -63 67 -169z"/>
<glyph glyph-name="p" horiz-adv-x="598" unicode="p" d="M416 308q0 41 -14 70q-24 49 -84 49q-43 0 -79 -36q-29 -30 -45 -81t-16 -99q0 -53 24.5 -86t76.5 -33q41 0 77 36q29 29 44.5 80.5t15.5 99.5zM544 312q0 -30 -7 -72q-27 -154 -131 -221q-50 -32 -111 -32q-49 0 -87 18.5t-57 48.5l-43 -253h-126l127 719v-3l1 3h101 v-54q20 31 61 49t79 18q82 0 135 -56q58 -61 58 -165z"/>
<glyph glyph-name="q" horiz-adv-x="590" unicode="q" d="M386 309q0 55 -23 83q-26 35 -78 35q-41 0 -77 -36q-29 -29 -44.5 -79.5t-15.5 -99.5q0 -51 25.5 -85.5t72.5 -34.5q43 0 79 36q40 41 55 123q6 38 6 58zM546 520l-127 -719h-126l40 231q-50 -45 -120 -45q-81 0 -134 56q-58 61 -58 165q0 89 34.5 169.5t102.5 123.5 q50 32 111 32q49 0 87.5 -18.5t56.5 -49.5l26 55h107z"/>
<glyph glyph-name="r" horiz-adv-x="400" unicode="r" d="M412 515l-21 -120q-30 10 -58 10q-58 0 -96.5 -38t-49.5 -103l-46 -264h-126l91 520h105v-67q44 69 145 69q24 0 56 -7z"/>
<glyph glyph-name="s" horiz-adv-x="512" unicode="s" d="M471 357h-117v1q0 30 -15 48q-26 32 -83 32q-40 0 -64 -21q-21 -18 -21 -44q0 -35 51 -48l107 -26q43 -10 77 -42q40 -38 40 -95q0 -84 -67 -134q-56 -41 -155 -41q-131 0 -188 80q-33 48 -33 102v4h116q0 -30 21 -56q26 -33 94 -33q39 0 66.5 16.5t27.5 50.5 q0 39 -42 48l-108 26q-62 15 -91 45q-36 38 -36 90q0 83 75 135q56 38 138 38q121 0 176 -79q31 -45 31 -90v-7z"/>
<glyph glyph-name="t" horiz-adv-x="398" unicode="t" d="M390 520l-19 -103h-130l-44 -248q-1 -5 -1 -15q0 -47 58 -47q36 0 80 18l-19 -109q-54 -23 -107 -23q-65 0 -100 34q-39 38 -39 101q0 21 5 53l41 236h-93l18 103h93l23 130l132 39l-29 -169h131z"/>
<glyph glyph-name="u" horiz-adv-x="576" unicode="u" d="M532 520l-91 -520h-103v63q-58 -76 -151 -76q-73 0 -119 49q-32 35 -36 85q-1 9 -1 27q0 19 3 40l59 332h125l-55 -315q-3 -17 -3 -32q0 -36 17 -53q18 -18 53 -18q53 0 95 65q26 40 42 132l39 221h126z"/>
<glyph glyph-name="v" horiz-adv-x="504" unicode="v" d="M536 520l-280 -520h-133l-101 520h125l65 -366l188 366h136z"/>
<glyph glyph-name="w" horiz-adv-x="767" unicode="w" d="M775 520l-219 -520h-114l-59 355l-177 -355h-116l-40 520h116l23 -341l165 336h103l54 -335l140 340h124z"/>
<glyph glyph-name="x" horiz-adv-x="518" unicode="x" d="M545 520l-226 -256l133 -264h-137l-85 176l-143 -176h-145l227 265l-136 255h139l84 -171l145 171h144z"/>
<glyph glyph-name="y" horiz-adv-x="528" unicode="y" d="M553 520l-349 -632q-28 -51 -63 -76q-38 -29 -101 -29q-57 0 -110 34l18 101q41 -27 83 -27q41 0 63 39l41 71l-112 519h131l69 -373l194 373h136z"/>
<glyph glyph-name="z" horiz-adv-x="503" unicode="z" d="M491 520l-20 -113l-317 -304h268l-18 -103h-424l20 110l321 307h-265l18 103h417z"/>
<glyph glyph-name="braceleft" horiz-adv-x="377" unicode="{" d="M297 -148h-48q-70 0 -106 38.5t-36 95.5q0 17 3 35l23 124q4 19 4 38q0 43 -24.5 63t-75.5 24l16 93q62 6 95.5 32.5t44.5 91.5l21 124q13 75 61 122t133 47h53l-15 -85h-34q-48 0 -72 -23.5t-32 -67.5l-27 -154q-8 -47 -43 -85t-88 -46l-1 -3q31 -7 55 -29 q31 -30 31 -79q0 -17 -2 -26l-27 -154q-3 -15 -3 -28q0 -63 75 -63h34z"/>
<glyph glyph-name="bar" horiz-adv-x="266" unicode="|" d="M182 -148h-98v928h98v-928z"/>
<glyph glyph-name="braceright" horiz-adv-x="377" unicode="}" d="M66 780h48q70 0 106 -38.5t36 -95.5q0 -17 -3 -35l-23 -124q-4 -19 -4 -38q0 -43 24.5 -63t75.5 -24l-16 -93q-62 -6 -95.5 -32.5t-44.5 -91.5l-21 -124q-13 -75 -61 -122t-133 -47h-53l15 85h34q48 0 72 23.5t32 67.5l27 154q8 47 43 85t88 46l1 3q-31 7 -55 29 q-32 31 -32 80q0 17 2 25l28 154q3 15 3 28q0 63 -75 63h-34z"/>
<glyph glyph-name="asciitilde" horiz-adv-x="681" unicode="~" d="M613 306q-55 -48 -100.5 -74t-98.5 -26q-42 0 -101.5 31t-83.5 31q-53 0 -117 -58l-62 93q37 34 60.5 52t60 34t73.5 16q40 0 101 -30t86 -30q57 0 119 54z"/>
<glyph glyph-name="nbspace" horiz-adv-x="207" unicode=" "/>
<glyph glyph-name="exclamdown" horiz-adv-x="339" unicode="¡" d="M112 372l24 133h132l-24 -133h-132zM11 -204l40 222l76 275h75l-20 -275l-40 -222h-131z"/>
<glyph glyph-name="cent" d="M299 517q-21 -6 -41 -23q-32 -27 -48.5 -80t-16.5 -105q0 -78 50 -107zM538 428q0 -1 -0.5 -3.5t-0.5 -3.5h-123v8q0 35 -15 57q-14 21 -38 30l-58 -324q31 4 55.5 24.5t31.5 50.5h123q-16 -81 -80.5 -132t-148.5 -52l-15 -83h-62l16 90q-82 22 -123 94q-32 55 -32 133 q0 69 24 134.5t70 109.5q64 62 157 68l14 80h62l-15 -84q68 -12 111 -61q47 -55 47 -136z" unicode="¢"/>
<glyph glyph-name="sterling" horiz-adv-x="573" unicode="£" d="M529 192q-17 -93 -74 -142.5t-151 -49.5h-330l20 110q76 0 89 74l23 130h-75l18 103h75l16 91q16 94 74.5 148t156.5 54q76 0 125.5 -43t49.5 -111q0 -18 -3 -36h-121q1 11 1 17q0 65 -67 65q-72 0 -89 -88l-17 -97h143l-18 -103h-143l-23 -131q-4 -23 -18.5 -43.5 t-35.5 -25.5l-1 -2h165q75 0 90 80h120z"/>
<glyph glyph-name="currency" horiz-adv-x="569" unicode="¤" d="M409 254q0 54 -33.5 90t-89.5 36q-61 0 -93 -34t-32 -92q0 -53 34 -90t91 -37q58 0 90.5 35t32.5 92zM563 64l-86 -84l-70 76q-57 -33 -121 -33t-123 33l-69 -76l-87 84l79 67q-36 63 -36 123t36 123l-79 63l88 87l67 -75q57 32 124 32q64 0 121 -32l69 75l87 -87 l-78 -63q36 -63 36 -123q0 -62 -36 -123z"/>
<glyph glyph-name="yen" horiz-adv-x="567" unicode="¥" d="M628 695l-217 -297h114l-13 -73h-170l-16 -90h170l-13 -73h-170l-29 -162h-128l29 162h-159l13 73h159l16 90h-159l13 73h106l-115 297h136l101 -271l192 271h140z"/>
<glyph glyph-name="brokenbar" horiz-adv-x="287" unicode="¦" d="M205 -50h-123v319h123v-319zM205 440h-123v319h123v-319z"/>
<glyph glyph-name="section" horiz-adv-x="547" unicode="§" d="M381 160q0 31 -18 53l-134 164q-57 -27 -57 -73q0 -31 17 -51l135 -164q57 26 57 71zM344 705q79 0 131 -47t52 -127q0 -3 -0.5 -8t-0.5 -8h-112q2 12 2 18q0 36 -21.5 54.5t-57.5 18.5q-32 0 -53.5 -19.5t-21.5 -50.5q0 -29 23 -57l163 -198q44 -54 44 -117 q0 -98 -112 -150q24 -42 24 -83q0 -65 -50 -115q-55 -55 -148 -55q-79 0 -129 48.5t-50 129.5v13h111q-2 -12 -2 -18q0 -36 22 -55.5t58 -19.5q31 0 53 19.5t22 50.5q0 29 -24 58l-163 198q-42 51 -42 117q0 99 110 149q-24 37 -24 85q0 66 47 113q58 56 149 56z"/>
<glyph glyph-name="dieresis" horiz-adv-x="321" unicode="¨" d="M180 722l-22 -121h-117l22 121h117zM386 722l-22 -121h-117l22 121h117z"/>
<glyph glyph-name="copyright" horiz-adv-x="838" unicode="©" d="M597 301q-8 -65 -55 -106.5t-118 -41.5q-86 0 -137 57.5t-51 141.5t51 141t137 57q71 0 118 -41.5t55 -106.5h-102q-4 24 -23 40.5t-48 16.5q-42 0 -63.5 -31.5t-21.5 -75.5q0 -48 22 -78t63 -30q29 0 48 16.5t23 40.5h102zM696 354q0 122 -77.5 202t-199.5 80t-199 -80 t-77 -202q0 -123 76.5 -202.5t199.5 -79.5q121 0 199 80t78 202zM789 354q0 -161 -104.5 -264.5t-265.5 -103.5t-265.5 103.5t-104.5 264.5q0 159 105.5 263.5t264.5 104.5t264.5 -104.5t105.5 -263.5z"/>
<glyph glyph-name="ordfeminine" horiz-adv-x="473" unicode="ª" d="M321 462v18l-99 -8q-23 -2 -39.5 -15t-16.5 -36q0 -22 16 -36t39 -14q46 0 73 24t27 67zM448 309q-25 -11 -47 -11q-29 0 -47 16t-20 40q-14 -25 -47 -42t-73 -17q-67 0 -104 36.5t-37 88.5q0 54 36.5 85.5t95.5 36.5l116 9v24q0 31 -14 46.5t-52 15.5q-68 0 -71 -56h-92 q4 64 48.5 96.5t114.5 32.5q117 0 147 -81q11 -28 11 -80v-148q0 -24 23 -24l12 2v-70z"/>
<glyph glyph-name="guillemotleft" horiz-adv-x="585" unicode="«" d="M311 489l-149 -185l81 -203l-81 -41l-128 258l214 231zM553 489l-149 -185l81 -203l-81 -41l-128 258l214 231z"/>
<glyph glyph-name="logicalnot" horiz-adv-x="667" unicode="¬" d="M561 84h-122v167h-408v113h529z"/>
<glyph glyph-name="registered" horiz-adv-x="838" unicode="®" d="M474 422q0 19 -12.5 28.5t-31.5 9.5h-53v-79h53q44 0 44 41zM571 178h-97l-49 120h-47v-120h-93v365h145q60 0 99 -32.5t39 -91.5q0 -75 -57 -103zM695 354q0 122 -77 202t-199 80t-199 -80t-77 -202q0 -123 76.5 -202.5t199.5 -79.5q121 0 198.5 80t77.5 202zM789 354 q0 -161 -104.5 -264.5t-265.5 -103.5t-265.5 103.5t-104.5 264.5q0 159 105.5 263.5t264.5 104.5t264.5 -104.5t105.5 -263.5z"/>
<glyph glyph-name="macron" horiz-adv-x="303" unicode="¯" d="M295 611h-299l16 100h300z"/>
<glyph glyph-name="degree" horiz-adv-x="444" unicode="°" d="M329 555q0 32 -22.5 54t-54.5 22t-53.5 -22t-21.5 -54q0 -33 21.5 -55.5t53.5 -22.5t54.5 22.5t22.5 55.5zM427 555q0 -75 -51 -122t-124 -47q-72 0 -121.5 48.5t-49.5 120.5q0 71 46.5 119t124.5 48q77 0 126 -47.5t49 -119.5z"/>
<glyph glyph-name="plusminus" horiz-adv-x="606" unicode="±" d="M557 0h-508v106h508v-106zM557 322h-198v-160h-113v160h-197v105h197v160h113v-160h198v-105z"/>
<glyph glyph-name="twosuperior" horiz-adv-x="444" unicode="²" d="M330 500l-96 -73h142l-15 -85h-286l13 71l176 131q41 30 41 57q0 13 -11 24t-29 11q-25 0 -41 -14.5t-21 -35.5h-93q34 129 172 129q49 0 82.5 -29t33.5 -76q0 -59 -68 -110z"/>
<glyph glyph-name="threesuperior" horiz-adv-x="442" unicode="³" d="M327 532q21 -8 34.5 -28t13.5 -42q0 -43 -31 -76q-46 -50 -135 -50q-60 0 -96.5 34.5t-36.5 79.5v9h87v-2q0 -23 15.5 -34.5t38.5 -11.5q28 0 49 13t21 39q0 31 -53 31h-21l12 71h11q20 0 32.5 2t24 12t11.5 30q0 33 -45 33q-56 0 -71 -50h-85q15 59 60.5 91t108.5 32 q51 0 87 -26q38 -29 38 -70q0 -31 -18.5 -55t-51.5 -32z"/>
<glyph glyph-name="acute" horiz-adv-x="253" unicode="´" d="M296 657l-216 -76l-29 71l206 104z"/>
<glyph glyph-name="mu" horiz-adv-x="596" unicode="µ" d="M500 0h-104l-10 70q-19 -38 -59 -60.5t-89 -22.5q-35 0 -56 11v-200h-124v722h124v-321q0 -99 91 -99q38 0 64 26q38 35 38 117v277h125v-520z"/>
<glyph glyph-name="paragraph" horiz-adv-x="671" unicode="¶" d="M655 612h-68l-130 -737h-99l130 737h-98l-130 -737h-99l77 436q-72 4 -119.5 52.5t-47.5 120.5q0 93 71.5 159t165.5 66h364z"/>
<glyph glyph-name="periodcentered" horiz-adv-x="313" unicode="·" d="M198 215h-152l28 156h152z"/>
<glyph glyph-name="cedilla" horiz-adv-x="196" unicode="¸" d="M140 -41l-111 -199l-95 49l109 150h97z"/>
<glyph glyph-name="onesuperior" horiz-adv-x="398" unicode="¹" d="M254 345h-91l45 257l-107 -67l18 100l117 73h82z"/>
<glyph glyph-name="ordmasculine" horiz-adv-x="473" unicode="º" d="M338 501q0 73 -26 101q-23 25 -59 25q-37 0 -60 -25q-25 -27 -25 -101q0 -73 25 -100q23 -25 60 -25q36 0 59 25q26 28 26 100zM434 501q0 -91 -43 -144q-22 -27 -58.5 -45t-79.5 -18t-80 18t-59 45q-43 53 -43 144q0 93 44 147q22 26 58.5 43.5t79.5 17.5q87 0 137 -61 q44 -54 44 -147z"/>
<glyph glyph-name="guillemotright" horiz-adv-x="582" unicode="»" d="M284 288l-213 -228l-65 58l150 182l-81 207l81 42zM526 288l-213 -228l-65 58l150 182l-81 207l81 42z"/>
<glyph glyph-name="onequarter" horiz-adv-x="886" unicode="¼" d="M259 345h-91l45 257l-107 -67l18 100l117 73h82zM144 -19l-63 55l626 686l65 -52zM777 72h-48l-13 -71h-87l13 71h-185l16 94l165 207h95l-174 -222h97l15 82h86l-14 -82h48z"/>
<glyph glyph-name="onehalf" horiz-adv-x="908" unicode="½" d="M719 158l-96 -73h142l-15 -85h-286l13 71l176 131q41 30 41 57q0 13 -11 24t-29 11q-25 0 -41 -14.5t-21 -35.5h-93q34 129 172 129q49 0 82.5 -29t33.5 -76q0 -59 -68 -110zM254 346h-91l45 257l-107 -67l18 100l117 73h82zM129 -19l-63 55l626 686l65 -52z"/>
<glyph glyph-name="threequarters" horiz-adv-x="923" unicode="¾" d="M814 72h-48l-13 -71h-87l13 71h-185l16 94l165 207h95l-174 -222h97l15 82h86l-14 -82h48zM331 532q21 -8 34.5 -28t13.5 -42q0 -42 -32 -76q-46 -50 -135 -50q-60 0 -96.5 34.5t-36.5 79.5v9h87v-2q0 -23 16 -34.5t39 -11.5q28 0 48.5 13t20.5 39q0 31 -53 31h-21l13 71 h11q20 0 32.5 2t24 12t11.5 30q0 17 -14 25t-32 8q-56 0 -71 -50h-85q15 59 60.5 91t108.5 32q51 0 87 -26q39 -30 39 -70q0 -31 -18.5 -55t-51.5 -32zM195 -19l-63 55l626 686l65 -52z"/>
<glyph glyph-name="questiondown" horiz-adv-x="520" unicode="¿" d="M210 363l25 140h140l-25 -140h-140zM-21 -41q0 18 3 36q14 84 109 148q4 3 17 11t16.5 11t14 10t14.5 10.5t12 11t11.5 12.5t9 13.5t8.5 16t6.5 17.5t5.5 21l5 24h124q-14 -82 -23 -103q-12 -30 -31.5 -54t-34.5 -35.5t-43.5 -29.5t-40.5 -26q-44 -30 -51 -69 q-1 -6 -1 -15q0 -36 28 -56.5t68 -20.5q47 0 78 29q29 29 31 70h130q-15 -95 -66 -145q-68 -67 -181 -67q-91 0 -155 48.5t-64 131.5z"/>
<glyph glyph-name="Agrave" horiz-adv-x="632" unicode="À" d="M519 822l-40 -65l-200 112l56 91zM400 252l-49 299l-155 -299h204zM576 0h-135l-22 136h-282l-70 -136h-137l374 709h148z"/>
<glyph glyph-name="Aacute" horiz-adv-x="632" unicode="Á" d="M400 252l-49 299l-155 -299h204zM576 0h-135l-22 136h-282l-70 -136h-137l374 709h148zM507 855l-216 -76l-29 71l206 104z"/>
<glyph glyph-name="Acircumflex" horiz-adv-x="632" unicode="Â" d="M443 939l105 -102l-60 -61l-89 87l-124 -91l-46 64l140 103h74zM400 252l-49 299l-155 -299h204zM576 0h-135l-22 136h-282l-70 -136h-137l374 709h148z"/>
<glyph glyph-name="Atilde" horiz-adv-x="632" unicode="Ã" d="M548 824q-51 -51 -110 -51q-26 0 -63 16.5t-52 16.5q-35 0 -67 -26l-36 61q54 52 109 52q26 0 63 -17t53 -17q34 0 65 26zM400 252l-49 299l-155 -299h204zM576 0h-135l-22 136h-282l-70 -136h-137l374 709h148z"/>
<glyph glyph-name="Adieresis" horiz-adv-x="632" unicode="Ä" d="M400 252l-49 299l-155 -299h204zM576 0h-135l-22 136h-282l-70 -136h-137l374 709h148zM367 912l-22 -121h-117l22 121h117zM573 912l-22 -121h-117l22 121h117z"/>
<glyph glyph-name="Aring" horiz-adv-x="632" unicode="Å" d="M399 252l-48 299l-154 -299h202zM435 763q0 22 -15.5 37t-37.5 15t-37 -15t-15 -37t15 -37.5t37 -15.5t37.5 15.5t15.5 37.5zM576 0h-135l-22 136h-282l-70 -136h-137l360 682q-30 35 -30 81q0 51 35.5 86t86.5 35t86.5 -35t35.5 -86q0 -58 -44 -94z"/>
<glyph glyph-name="AE" horiz-adv-x="951" unicode="Æ" d="M486 589h-50l-179 -290h178zM969 709l-21 -117h-331l-30 -165h279l-21 -116h-279l-34 -194h340l-21 -117h-469l32 180h-230l-111 -180h-147l449 709h594z"/>
<glyph glyph-name="Ccedilla" horiz-adv-x="628" unicode="Ç" d="M622 476h-132q0 57 -35 93q-32 35 -89 35q-62 0 -110 -48q-43 -42 -67 -129t-24 -161q0 -81 41 -123q38 -39 98 -39q61 0 102 38q32 30 46 74h132q-17 -84 -86 -151q-81 -78 -198 -78t-190 74q-75 75 -75 207q0 98 32.5 201.5t92.5 164.5q88 88 209 88q109 0 181 -69 t72 -177zM341 -41l-121 -199l-85 49l109 150h97z"/>
<glyph glyph-name="Egrave" horiz-adv-x="628" unicode="È" d="M527 821l-40 -65l-200 112l56 91zM646 709l-21 -117h-370l-30 -165h327l-21 -116h-327l-34 -194h376l-21 -117h-505l126 709h500z"/>
<glyph glyph-name="Eacute" horiz-adv-x="628" unicode="É" d="M646 709l-21 -117h-370l-30 -165h327l-21 -116h-327l-34 -194h376l-21 -117h-505l126 709h500zM534 855l-216 -76l-29 71l206 104z"/>
<glyph glyph-name="Ecircumflex" horiz-adv-x="628" unicode="Ê" d="M456 939l105 -102l-60 -61l-89 87l-124 -91l-46 64l140 103h74zM646 709l-21 -117h-370l-30 -165h327l-21 -116h-327l-34 -194h376l-21 -117h-505l126 709h500z"/>
<glyph glyph-name="Edieresis" horiz-adv-x="628" unicode="Ë" d="M646 709l-21 -117h-370l-30 -165h327l-21 -116h-327l-34 -194h376l-21 -117h-505l126 709h500zM387 912l-22 -121h-117l22 121h117zM593 912l-22 -121h-117l22 121h117z"/>
<glyph glyph-name="Igrave" horiz-adv-x="297" unicode="Ì" d="M329 836l-36 -58l-180 101l50 82zM277 709l-125 -709h-132l125 709h132z"/>
<glyph glyph-name="Iacute" horiz-adv-x="297" unicode="Í" d="M347 853l-216 -76l-29 71l206 104zM277 709l-125 -709h-132l125 709h132z"/>
<glyph glyph-name="Icircumflex" horiz-adv-x="297" unicode="Î" d="M278 939l105 -102l-60 -61l-89 87l-124 -91l-46 64l140 103h74zM277 709l-125 -709h-132l125 709h132z"/>
<glyph glyph-name="Idieresis" horiz-adv-x="297" unicode="Ï" d="M202 912l-22 -121h-117l22 121h117zM408 912l-22 -121h-117l22 121h117zM277 709l-125 -709h-132l125 709h132z"/>
<glyph glyph-name="Eth" horiz-adv-x="680" unicode="Ð" d="M518 442q0 60 -26 97q-38 54 -126 54h-112l-32 -183h131l-15 -84h-131l-37 -210h140q77 0 121 46q39 41 63 127.5t24 152.5zM645 451q0 -105 -35 -218t-109 -172q-79 -61 -205 -61h-276l57 326h-62l15 84h62l53 299h238q64 0 120.5 -24t91.5 -71q50 -68 50 -163z"/>
<glyph glyph-name="Ntilde" horiz-adv-x="733" unicode="Ñ" d="M713 709l-126 -709h-133l-222 509l-84 -509h-128l126 709h137l218 -503l84 503h128zM606 852q-58 -60 -115 -60q-29 0 -68 20.5t-53 20.5q-34 0 -63 -33l-51 64q60 60 115 60q29 0 67 -21t54 -21q29 0 63 34z"/>
<glyph glyph-name="Ograve" horiz-adv-x="671" unicode="Ò" d="M527 832l-40 -65l-200 112l56 91zM256 556q-43 -42 -67 -129t-24 -161q0 -81 41 -123q39 -39 96 -39q65 0 112 47q43 42 66.5 129.5t23.5 161.5q0 81 -41 123q-39 39 -96 39q-63 0 -111 -48zM110 61q-75 75 -75 207q0 97 32.5 200.5t92.5 164.5q88 88 209 88 q118 0 191 -74q76 -76 76 -207q0 -98 -32 -201t-92 -164q-88 -88 -212 -88q-117 0 -190 74z"/>
<glyph glyph-name="Oacute" horiz-adv-x="671" unicode="Ó" d="M256 556q-43 -42 -67 -129t-24 -161q0 -81 41 -123q39 -39 96 -39q65 0 112 47q43 42 66.5 129.5t23.5 161.5q0 81 -41 123q-39 39 -96 39q-63 0 -111 -48zM110 61q-75 75 -75 207q0 97 32.5 200.5t92.5 164.5q88 88 209 88q118 0 191 -74q76 -76 76 -207q0 -98 -32 -201 t-92 -164q-88 -88 -212 -88q-117 0 -190 74zM535 855l-216 -76l-29 71l206 104z"/>
<glyph glyph-name="Ocircumflex" horiz-adv-x="671" unicode="Ô" d="M454 939l105 -102l-60 -61l-89 87l-124 -91l-46 64l140 103h74zM504 442q0 81 -41 123q-39 39 -96 39q-63 0 -111 -48q-43 -42 -67 -129t-24 -161q0 -81 41 -123q39 -39 96 -39q65 0 112 47q43 42 66.5 129.5t23.5 161.5zM636 440q0 -98 -32 -201t-92 -164 q-88 -88 -212 -88q-117 0 -190 74q-75 75 -75 207q0 97 32.5 200.5t92.5 164.5q88 88 209 88q118 0 191 -74q76 -76 76 -207z"/>
<glyph glyph-name="Otilde" horiz-adv-x="671" unicode="Õ" d="M575 831q-51 -51 -110 -51q-27 0 -64 17t-52 17q-33 0 -66 -27l-37 61q54 52 110 52q26 0 62.5 -17t52.5 -17q35 0 66 26zM256 556q-43 -42 -67 -129t-24 -161q0 -81 41 -123q39 -39 96 -39q65 0 112 47q43 42 66.5 129.5t23.5 161.5q0 81 -41 123q-39 39 -96 39 q-63 0 -111 -48zM110 61q-75 75 -75 207q0 97 32.5 200.5t92.5 164.5q88 88 209 88q118 0 191 -74q76 -76 76 -207q0 -98 -32 -201t-92 -164q-88 -88 -212 -88q-117 0 -190 74z"/>
<glyph glyph-name="Odieresis" horiz-adv-x="671" unicode="Ö" d="M256 556q-43 -42 -67 -129t-24 -161q0 -81 41 -123q39 -39 96 -39q65 0 112 47q43 42 66.5 129.5t23.5 161.5q0 81 -41 123q-39 39 -96 39q-63 0 -111 -48zM110 61q-75 75 -75 207q0 97 32.5 200.5t92.5 164.5q88 88 209 88q118 0 191 -74q76 -76 76 -207q0 -98 -32 -201 t-92 -164q-88 -88 -212 -88q-117 0 -190 74zM379 912l-22 -121h-117l22 121h117zM585 912l-22 -121h-117l22 121h117z"/>
<glyph glyph-name="multiply" horiz-adv-x="687" unicode="×" d="M551 17l-208 208l-208 -208l-72 72l208 208l-208 208l72 72l208 -207l208 207l73 -72l-208 -208l208 -208z"/>
<glyph glyph-name="Oslash" horiz-adv-x="669" unicode="Ø" d="M503 442q0 50 -15 84l-267 -397q34 -25 80 -25q65 0 112 47q43 42 66.5 129.5t23.5 161.5zM441 583q-33 21 -75 21q-63 0 -111 -48q-43 -42 -67 -129t-24 -161q0 -44 12 -76zM635 440q0 -98 -32 -201t-92 -164q-88 -88 -212 -88q-83 0 -147 40l-55 -81l-61 36l62 91 q-64 75 -64 195q0 97 32.5 200.5t92.5 164.5q88 88 209 88q79 0 142 -36l45 67l61 -36l-51 -75q70 -75 70 -201z"/>
<glyph glyph-name="Ugrave" horiz-adv-x="694" unicode="Ù" d="M522 832l-40 -65l-200 112l56 91zM686 709l-81 -461q-22 -121 -97 -191t-193 -70q-120 0 -193 61.5t-73 179.5q0 33 6 69l72 412h131l-74 -422q-5 -28 -5 -49q0 -66 36.5 -100t102.5 -34q65 0 105 42t53 115l80 448h130z"/>
<glyph glyph-name="Uacute" horiz-adv-x="694" unicode="Ú" d="M686 709l-81 -461q-22 -121 -97 -191t-193 -70q-120 0 -193 61.5t-73 179.5q0 33 6 69l72 412h131l-74 -422q-5 -28 -5 -49q0 -66 36.5 -100t102.5 -34q65 0 105 42t53 115l80 448h130zM543 855l-216 -76l-29 71l206 104z"/>
<glyph glyph-name="Ucircumflex" horiz-adv-x="694" unicode="Û" d="M477 939l105 -102l-60 -61l-89 87l-124 -91l-46 64l140 103h74zM686 709l-81 -461q-22 -121 -97 -191t-193 -70q-120 0 -193 61.5t-73 179.5q0 33 6 69l72 412h131l-74 -422q-5 -28 -5 -49q0 -66 36.5 -100t102.5 -34q65 0 105 42t53 115l80 448h130z"/>
<glyph glyph-name="Udieresis" horiz-adv-x="694" unicode="Ü" d="M686 709l-81 -461q-22 -121 -97 -191t-193 -70q-120 0 -193 61.5t-73 179.5q0 33 6 69l72 412h131l-74 -422q-5 -28 -5 -49q0 -66 36.5 -100t102.5 -34q65 0 105 42t53 115l80 448h130zM392 912l-22 -121h-117l22 121h117zM598 912l-22 -121h-117l22 121h117z"/>
<glyph glyph-name="Yacute" horiz-adv-x="590" unicode="Ý" d="M663 709l-326 -437l-48 -272h-130l48 272l-168 437h132l118 -313l230 313h144zM473 855l-216 -76l-29 71l206 104z"/>
<glyph glyph-name="Thorn" horiz-adv-x="592" unicode="Þ" d="M147 0h-128l126 709h128l-22 -120h113q96 0 160.5 -55.5t64.5 -144.5q0 -122 -78 -188.5t-204 -66.5h-136zM231 476l-40 -229h121q67 0 105.5 32t38.5 97q0 45 -29 72.5t-83 27.5h-113z"/>
<glyph glyph-name="germandbls" horiz-adv-x="607" unicode="ß" d="M565 555q0 -57 -34 -104t-89 -59q52 -16 85.5 -63.5t33.5 -104.5q0 -106 -71 -171q-70 -64 -167 -64q-57 0 -112 19l19 108q41 -12 77 -12q55 0 89 31q42 38 42 104q0 47 -35 77t-84 30h-21l19 103h20q49 0 76 27q25 23 25 66q0 34 -21 57q-24 26 -63 26 q-44 0 -70.5 -30.5t-35.5 -80.5l-91 -514h-123l73 417h-83l17 103h84l4 21q18 91 81.5 141.5t151.5 50.5q94 0 155 -60q48 -46 48 -118z"/>
<glyph glyph-name="agrave" horiz-adv-x="590" unicode="à" d="M546 520l-92 -520h-101v59q-48 -72 -140 -72q-81 0 -133 55q-59 62 -59 166q0 70 24 140.5t69 115.5q69 69 155 69q49 0 88.5 -20t55.5 -51l23 58h110zM386 313q0 50 -24 80q-26 35 -77 35q-39 0 -76 -37q-29 -29 -45 -81t-16 -101q0 -51 24.5 -83.5t73.5 -32.5 q40 0 78 38q62 63 62 182zM443 631l-40 -65l-200 112l56 91z"/>
<glyph glyph-name="aacute" horiz-adv-x="590" unicode="á" d="M546 520l-92 -520h-101v59q-48 -72 -140 -72q-81 0 -133 55q-59 62 -59 166q0 70 24 140.5t69 115.5q69 69 155 69q49 0 88.5 -20t55.5 -51l23 58h110zM386 313q0 50 -24 80q-26 35 -77 35q-39 0 -76 -37q-29 -29 -45 -81t-16 -101q0 -51 24.5 -83.5t73.5 -32.5 q40 0 78 38q62 63 62 182zM441 657l-216 -76l-29 71l206 104z"/>
<glyph glyph-name="acircumflex" horiz-adv-x="590" unicode="â" d="M393 750l104 -123l-66 -54l-81 95l-117 -96l-51 62l140 116h71zM386 313q0 49 -24 82t-72 33q-44 0 -81 -37q-29 -29 -45 -81t-16 -101q0 -51 24.5 -83.5t73.5 -32.5q40 0 78 38q62 63 62 182zM546 520l-92 -520h-101v59q-24 -35 -62.5 -53.5t-77.5 -18.5q-81 0 -133 55 q-59 62 -59 166q0 70 24 140.5t69 115.5q69 69 155 69q49 0 88.5 -20t55.5 -51l23 58h110z"/>
<glyph glyph-name="atilde" horiz-adv-x="590" unicode="ã" d="M500 668q-51 -51 -110 -51q-26 0 -64 17t-52 17q-33 0 -66 -27l-37 61q54 52 110 52q26 0 62.5 -17t52.5 -17q35 0 66 26zM546 520l-92 -520h-101v59q-48 -72 -140 -72q-81 0 -133 55q-59 62 -59 166q0 70 24 140.5t69 115.5q69 69 155 69q49 0 88.5 -20t55.5 -51l23 58 h110zM386 313q0 50 -24 80q-26 35 -77 35q-39 0 -76 -37q-29 -29 -45 -81t-16 -101q0 -51 24.5 -83.5t73.5 -32.5q40 0 78 38q62 63 62 182z"/>
<glyph glyph-name="adieresis" horiz-adv-x="590" unicode="ä" d="M546 520l-92 -520h-101v59q-48 -72 -140 -72q-81 0 -133 55q-59 62 -59 166q0 70 24 140.5t69 115.5q69 69 155 69q49 0 88.5 -20t55.5 -51l23 58h110zM386 313q0 50 -24 80q-26 35 -77 35q-39 0 -76 -37q-29 -29 -45 -81t-16 -101q0 -51 24.5 -83.5t73.5 -32.5 q40 0 78 38q62 63 62 182zM314 722l-22 -121h-117l22 121h117zM520 722l-22 -121h-117l22 121h117z"/>
<glyph glyph-name="aring" horiz-adv-x="590" unicode="å" d="M546 520l-92 -520h-101v59q-48 -72 -140 -72q-81 0 -133 55q-59 62 -59 166q0 70 24 140.5t69 115.5q69 69 155 69q49 0 88.5 -20t55.5 -51l23 58h110zM386 313q0 50 -24 80q-26 35 -77 35q-39 0 -76 -37q-29 -29 -45 -81t-16 -101q0 -51 24.5 -83.5t73.5 -32.5 q40 0 78 38q62 63 62 182zM379 710q0 22 -15.5 37t-37.5 15t-37 -15t-15 -37t15 -37.5t37 -15.5t37.5 15.5t15.5 37.5zM448 710q0 -51 -35.5 -86.5t-86.5 -35.5t-86.5 35.5t-35.5 86.5t35.5 86t86.5 35t86.5 -35t35.5 -86z"/>
<glyph glyph-name="ae" horiz-adv-x="878" unicode="æ" d="M327 219h-47q-49 0 -74 -2q-36 -2 -60.5 -21.5t-24.5 -54.5q0 -24 18 -37.5t45 -13.5q59 0 96 36t47 93zM714 325q0 47 -28 78q-28 30 -77 30q-45 0 -82 -31q-38 -33 -53 -90h239q0 2 0.5 6.5t0.5 6.5zM831 303q0 -31 -6 -64q-1 -4 -2.5 -9.5t-1.5 -8.5h-361v-10 q0 -50 20 -80q30 -44 88 -44q43 0 76 28q18 16 32 43h124q-23 -62 -70 -106q-69 -65 -168 -65q-58 0 -110 29.5t-74 82.5q-17 -33 -51.5 -60t-74.5 -40q-36 -12 -86 -12q-70 0 -120 39.5t-50 106.5q0 79 61 123.5t146 52.5q24 2 89 2h51l8 45q2 12 2 17q0 28 -18 45t-51 17 q-86 0 -104 -71h-121q20 84 85.5 126.5t157.5 42.5q49 0 88.5 -20.5t50.5 -50.5q67 71 175 71q64 0 115 -30.5t74 -79.5q26 -57 26 -120z"/>
<glyph glyph-name="ccedilla" horiz-adv-x="529" unicode="ç" d="M272 -41l-111 -199l-95 49l109 150h97zM491 332q0 -1 -0.5 -3.5t-0.5 -3.5h-123v8q0 35 -15 57q-23 35 -70 35q-39 0 -71 -27t-48.5 -80t-16.5 -105q0 -50 24 -84t73 -34q36 0 64.5 21.5t35.5 54.5h123q-16 -82 -81.5 -133t-150.5 -51q-58 0 -105.5 27t-75.5 74 q-32 55 -32 133q0 69 24 134.5t70 109.5q72 68 171 68q103 0 158 -65q47 -55 47 -136z"/>
<glyph glyph-name="egrave" horiz-adv-x="557" unicode="è" d="M457 628l-40 -65l-200 112l56 91zM392 326q0 46 -27 76q-28 30 -77 30q-45 0 -82 -31q-36 -31 -53 -89h238q0 3 0.5 7.5t0.5 6.5zM510 303q0 -31 -6 -64q-1 -4 -2.5 -9.5t-1.5 -8.5h-360q0 -61 20 -90q30 -43 87 -43q77 0 102 60h120q-18 -59 -62 -100q-64 -61 -166 -61 q-93 0 -156 63q-30 30 -47 76t-17 91q0 34 6 67q19 109 94 180q73 69 177 69q64 0 113.5 -30.5t72.5 -79.5q26 -57 26 -120z"/>
<glyph glyph-name="eacute" horiz-adv-x="557" unicode="é" d="M392 326q0 46 -27 76q-28 30 -77 30q-45 0 -82 -31q-36 -31 -53 -89h238q0 3 0.5 7.5t0.5 6.5zM510 303q0 -31 -6 -64q-1 -4 -2.5 -9.5t-1.5 -8.5h-360q0 -61 20 -90q30 -43 87 -43q77 0 102 60h120q-18 -59 -62 -100q-64 -61 -166 -61q-93 0 -156 63q-30 30 -47 76 t-17 91q0 34 6 67q19 109 94 180q73 69 177 69q64 0 113.5 -30.5t72.5 -79.5q26 -57 26 -120zM458 657l-216 -76l-29 71l206 104z"/>
<glyph glyph-name="ecircumflex" horiz-adv-x="557" unicode="ê" d="M372 750l104 -123l-66 -54l-81 95l-117 -96l-51 62l140 116h71zM392 326q0 46 -27 76q-28 30 -77 30q-45 0 -82 -31q-36 -31 -53 -89h238q0 3 0.5 7.5t0.5 6.5zM510 303q0 -31 -6 -64q-1 -4 -2.5 -9.5t-1.5 -8.5h-360q0 -61 20 -90q30 -43 87 -43q77 0 102 60h120 q-18 -59 -62 -100q-64 -61 -166 -61q-93 0 -156 63q-30 30 -47 76t-17 91q0 34 6 67q19 109 94 180q73 69 177 69q64 0 113.5 -30.5t72.5 -79.5q26 -57 26 -120z"/>
<glyph glyph-name="edieresis" horiz-adv-x="557" unicode="ë" d="M392 326q0 46 -27 76q-28 30 -77 30q-45 0 -82 -31q-36 -31 -53 -89h238q0 3 0.5 7.5t0.5 6.5zM510 303q0 -31 -6 -64q-1 -4 -2.5 -9.5t-1.5 -8.5h-360q0 -61 20 -90q30 -43 87 -43q77 0 102 60h120q-18 -59 -62 -100q-64 -61 -166 -61q-93 0 -156 63q-30 30 -47 76 t-17 91q0 34 6 67q19 109 94 180q73 69 177 69q64 0 113.5 -30.5t72.5 -79.5q26 -57 26 -120zM304 722l-22 -121h-117l22 121h117zM510 722l-22 -121h-117l22 121h117z"/>
<glyph glyph-name="igrave" horiz-adv-x="278" unicode="ì" d="M292 634l-36 -59l-180 101l50 82zM234 520l-91 -520h-128l91 520h128z"/>
<glyph glyph-name="iacute" horiz-adv-x="278" unicode="í" d="M296 658l-195 -68l-26 64l186 93zM234 520l-91 -520h-128l91 520h128z"/>
<glyph glyph-name="icircumflex" horiz-adv-x="278" unicode="î" d="M238 750l104 -123l-66 -54l-81 95l-117 -96l-51 62l140 116h71zM234 520l-91 -520h-128l91 520h128z"/>
<glyph glyph-name="idieresis" horiz-adv-x="278" unicode="ï" d="M165 716l-19 -109h-106l20 109h105zM351 716l-20 -109h-105l19 109h106zM234 520l-91 -520h-128l91 520h128z"/>
<glyph glyph-name="eth" horiz-adv-x="560" unicode="ð" d="M380 313q0 43 -19 71q-27 40 -80 40q-38 0 -72 -28q-64 -54 -64 -189q0 -43 19 -71q27 -40 80 -40q38 0 72 28q64 54 64 189zM506 308q0 -163 -96 -255q-70 -66 -172 -66q-90 0 -149 56q-68 64 -68 169q0 163 96 255q70 66 170 66q16 0 24 -1l-22 51h-113l12 67h74 l-28 72h120l29 -72h98l-12 -67h-58l68 -159q27 -62 27 -116z"/>
<glyph glyph-name="ntilde" horiz-adv-x="590" unicode="ñ" d="M524 385q0 -25 -5 -53l-59 -332h-125l56 315q3 17 3 32q0 70 -70 70q-28 0 -54.5 -19t-44.5 -47q-30 -47 -45 -130l-39 -221h-126l92 520h103v-63q66 76 161 76q73 0 116 -43q37 -36 37 -105zM513 672q-59 -59 -112 -59q-29 0 -67 20t-52 20q-32 0 -62 -32l-50 63 q59 59 113 59q29 0 66 -20.5t53 -20.5q30 0 61 33z"/>
<glyph glyph-name="ograve" horiz-adv-x="560" unicode="ò" d="M448 631l-40 -65l-200 112l56 91zM209 396q-64 -54 -64 -189q0 -43 19 -71q27 -40 80 -40q38 0 72 28q64 54 64 189q0 43 -19 71q-27 40 -80 40q-38 0 -72 -28zM89 43q-68 64 -68 169q0 163 96 255q70 66 170 66q93 0 152 -56q67 -63 67 -169q0 -163 -96 -255 q-70 -66 -172 -66q-90 0 -149 56z"/>
<glyph glyph-name="oacute" horiz-adv-x="560" unicode="ó" d="M209 396q-64 -54 -64 -189q0 -43 19 -71q27 -40 80 -40q38 0 72 28q64 54 64 189q0 43 -19 71q-27 40 -80 40q-38 0 -72 -28zM89 43q-68 64 -68 169q0 163 96 255q70 66 170 66q93 0 152 -56q67 -63 67 -169q0 -163 -96 -255q-70 -66 -172 -66q-90 0 -149 56zM466 657 l-216 -76l-28 71l205 104z"/>
<glyph glyph-name="ocircumflex" horiz-adv-x="560" unicode="ô" d="M370 750l104 -123l-66 -54l-81 95l-117 -96l-51 62l140 116h71zM380 313q0 43 -19 71q-27 40 -80 40q-38 0 -72 -28q-64 -54 -64 -189q0 -43 19 -71q27 -40 80 -40q38 0 72 28q64 54 64 189zM506 308q0 -163 -96 -255q-70 -66 -172 -66q-90 0 -149 56q-68 64 -68 169 q0 163 96 255q70 66 170 66q93 0 152 -56q67 -63 67 -169z"/>
<glyph glyph-name="otilde" horiz-adv-x="560" unicode="õ" d="M481 663q-51 -51 -110 -51q-27 0 -64 16.5t-51 16.5q-35 0 -67 -26l-36 60q55 53 109 53q26 0 63 -17.5t53 -17.5q32 0 65 27zM209 396q-64 -54 -64 -189q0 -43 19 -71q27 -40 80 -40q38 0 72 28q64 54 64 189q0 43 -19 71q-27 40 -80 40q-38 0 -72 -28zM89 43 q-68 64 -68 169q0 163 96 255q70 66 170 66q93 0 152 -56q67 -63 67 -169q0 -163 -96 -255q-70 -66 -172 -66q-90 0 -149 56z"/>
<glyph glyph-name="odieresis" horiz-adv-x="560" unicode="ö" d="M209 396q-64 -54 -64 -189q0 -43 19 -71q27 -40 80 -40q38 0 72 28q64 54 64 189q0 43 -19 71q-27 40 -80 40q-38 0 -72 -28zM89 43q-68 64 -68 169q0 163 96 255q70 66 170 66q93 0 152 -56q67 -63 67 -169q0 -163 -96 -255q-70 -66 -172 -66q-90 0 -149 56zM295 722 l-22 -121h-117l22 121h117zM501 722l-22 -121h-117l22 121h117z"/>
<glyph glyph-name="divide" horiz-adv-x="646" unicode="÷" d="M393 30h-137v139h137v-139zM587 243h-528v114h528v-114zM393 436h-137v139h137v-139z"/>
<glyph glyph-name="oslash" horiz-adv-x="560" unicode="ø" d="M381 313q0 29 -8 50l-172 -260q19 -9 43 -9q38 0 73 29q64 54 64 190zM328 415q-22 11 -47 11q-38 0 -73 -29q-64 -54 -64 -190q0 -33 9 -55zM506 308q0 -163 -96 -255q-70 -66 -172 -66q-55 0 -100 22l-45 -68l-58 33l49 74q-63 64 -63 164q0 163 96 255q70 66 170 66 q57 0 104 -23l41 62l58 -33l-45 -68q61 -61 61 -163z"/>
<glyph glyph-name="ugrave" horiz-adv-x="576" unicode="ù" d="M34 188l59 332h125l-55 -315q-3 -17 -3 -32q0 -36 17 -53q18 -18 53 -18q53 0 95 65q26 40 42 132l39 221h126l-91 -520h-103v63q-58 -76 -151 -76q-73 0 -119 49q-32 35 -36 85q-1 9 -1 27q0 19 3 40zM438 631l-40 -65l-200 112l56 91z"/>
<glyph glyph-name="uacute" horiz-adv-x="576" unicode="ú" d="M34 188l59 332h125l-55 -315q-3 -17 -3 -32q0 -36 17 -53q18 -18 53 -18q53 0 95 65q26 40 42 132l39 221h126l-91 -520h-103v63q-58 -76 -151 -76q-73 0 -119 49q-32 35 -36 85q-1 9 -1 27q0 19 3 40zM451 657l-216 -76l-29 71l206 104z"/>
<glyph glyph-name="ucircumflex" horiz-adv-x="576" unicode="û" d="M383 750l104 -123l-66 -54l-81 95l-117 -96l-51 62l140 116h71zM532 520l-91 -520h-103v63q-58 -76 -151 -76q-73 0 -119 49q-32 35 -36 85q-1 9 -1 27q0 19 3 40l59 332h125l-55 -315q-3 -17 -3 -32q0 -36 17 -53q18 -18 53 -18q53 0 95 65q26 40 42 132l39 221h126z "/>
<glyph glyph-name="udieresis" horiz-adv-x="576" unicode="ü" d="M34 188l59 332h125l-55 -315q-3 -17 -3 -32q0 -36 17 -53q18 -18 53 -18q53 0 95 65q26 40 42 132l39 221h126l-91 -520h-103v63q-58 -76 -151 -76q-73 0 -119 49q-32 35 -36 85q-1 9 -1 27q0 19 3 40zM299 722l-22 -121h-117l22 121h117zM505 722l-22 -121h-117l22 121 h117z"/>
<glyph glyph-name="yacute" horiz-adv-x="528" unicode="ý" d="M553 520l-349 -632q-28 -51 -63 -76q-38 -29 -101 -29q-57 0 -110 34l18 101q41 -27 83 -27q41 0 63 39l41 71l-112 519h131l69 -373l194 373h136zM422 654l-216 -76l-29 71l206 104z"/>
<glyph glyph-name="thorn" horiz-adv-x="595" unicode="þ" d="M102 -199h-125l163 921h126l-38 -233q49 45 120 45q82 0 135 -56q58 -61 58 -165q0 -88 -35 -169t-103 -124q-50 -32 -111 -32q-96 0 -144 68zM175 212q0 -55 23 -83q26 -35 78 -35q41 0 77 36q29 29 44.5 79.5t15.5 99.5q0 51 -25.5 85.5t-72.5 34.5q-43 0 -79 -36 q-29 -30 -45 -81.5t-16 -99.5z"/>
<glyph glyph-name="OE" horiz-adv-x="1023" unicode="Œ" d="M510 445q0 64 -27 102q-41 58 -115 58q-25 0 -44.5 -6t-31 -13.5t-28.5 -21.5q-47 -38 -73 -127.5t-26 -167.5q0 -69 36.5 -117t104.5 -48q58 0 105 38t73 131.5t26 171.5zM1037 709l-21 -117h-348l-30 -165h301l-21 -116h-301l-34 -194h354l-21 -117h-479l8 45 q-23 -27 -66.5 -42.5t-84.5 -15.5q-122 0 -190.5 76.5t-68.5 199.5q0 114 37 224t113 169q85 66 186 66q60 0 110.5 -24t68.5 -61l13 72h474z"/>
<glyph glyph-name="oe" horiz-adv-x="920" unicode="œ" d="M749 312v13q0 48 -27 78q-28 30 -77 30q-45 0 -82 -31q-38 -33 -53 -90h239zM384 313q0 44 -18 71q-27 40 -80 40q-39 0 -71 -27q-31 -26 -48 -82.5t-17 -107.5q0 -43 19 -71q27 -40 80 -40q39 0 71 27t48 82t16 108zM867 303q0 -31 -6 -64q-1 -4 -2.5 -9.5t-1.5 -8.5 h-361v-10q0 -50 20 -80q30 -44 88 -44q43 0 76 28q18 16 32 43h124q-23 -62 -70 -106q-69 -65 -168 -65q-53 0 -100.5 24t-74.5 67q-75 -91 -180 -91q-93 0 -157 62q-63 62 -63 163q0 73 25 141.5t73 114.5q69 65 171 65q50 0 97.5 -24t69.5 -66q74 90 193 90 q64 0 115 -30.5t74 -79.5q26 -57 26 -120z"/>
<glyph glyph-name="Scaron" horiz-adv-x="622" unicode="Š" d="M329 772l-105 102l60 61l89 -87l124 91l46 -64l-140 -103h-74zM601 497h-133q0 54 -39.5 83.5t-95.5 29.5q-47 0 -85 -25q-44 -30 -44 -75q0 -29 17.5 -46.5t39.5 -23.5l147 -35q68 -16 113.5 -66t45.5 -123q0 -94 -67 -156q-79 -73 -210 -73q-136 0 -216 76 q-70 67 -70 156v16h133q0 -46 28 -83q40 -52 131 -52q53 0 96 26.5t43 76.5q0 30 -19 51t-49 28l-150 36q-62 15 -104 63t-42 113q0 102 84 168q78 60 187 60q125 0 196 -71q63 -63 63 -147v-7z"/>
<glyph glyph-name="scaron" horiz-adv-x="512" unicode="š" d="M232 572l-104 120l67 57l81 -95l117 96l51 -62l-140 -116h-72zM471 357h-117v1q0 30 -15 48q-26 32 -83 32q-40 0 -64 -21q-21 -18 -21 -44q0 -35 51 -48l107 -26q43 -10 77 -42q40 -38 40 -95q0 -84 -67 -134q-56 -41 -155 -41q-131 0 -188 80q-33 48 -33 102v4h116 q0 -30 21 -56q26 -33 94 -33q39 0 66.5 16.5t27.5 50.5q0 39 -42 48l-108 26q-62 15 -91 45q-36 38 -36 90q0 83 75 135q56 38 138 38q121 0 176 -79q31 -45 31 -90v-7z"/>
<glyph glyph-name="Ydieresis" horiz-adv-x="590" unicode="Ÿ" d="M663 709l-326 -437l-48 -272h-130l48 272l-168 437h132l118 -313l230 313h144zM306 779h-117l22 121h117zM512 779h-117l22 121h117z"/>
<glyph glyph-name="circumflex" horiz-adv-x="363" unicode="ˆ" d="M283 750l104 -123l-66 -54l-81 95l-117 -96l-51 62l140 116h71z"/>
<glyph glyph-name="tilde" horiz-adv-x="382" unicode="˜" d="M400 668q-51 -51 -110 -51q-26 0 -63 16.5t-52 16.5q-35 0 -67 -26l-36 60q55 53 109 53q26 0 63 -17.5t53 -17.5q32 0 65 27z"/>
<glyph glyph-name="pi" horiz-adv-x="634" unicode="π" d="M580 1q-48 -8 -67 -8q-143 0 -143 145v266h-121v-406h-124v406h-76v101h520v-101h-75v-248q0 -26 10.5 -38t36.5 -12q6 0 21 1t18 1v-107z"/>
<glyph glyph-name="endash" horiz-adv-x="657" unicode="–" d="M600 364l-20 -112h-539l20 112h539z"/>
<glyph glyph-name="emdash" horiz-adv-x="1147" unicode="—" d="M1089 363l-19 -111h-1029l19 111h1029z"/>
<glyph glyph-name="quoteleft" horiz-adv-x="265" unicode="‘" d="M250 662q-41 -18 -58 -40.5t-24 -61.5h71l-25 -146h-144l23 135q11 65 41 105.5t94 65.5z"/>
<glyph glyph-name="quotesinglbase" horiz-adv-x="285" unicode="‚" d="M191 150l-24 -139q-11 -66 -42 -107.5t-96 -66.5l-22 59q41 18 59 41t25 63h-73l26 150h147z"/>
<glyph glyph-name="quotedblleft" horiz-adv-x="481" unicode="“" d="M252 661q-41 -18 -58.5 -40.5t-24.5 -61.5h72l-26 -146h-143l24 135q11 65 40.5 105.5t93.5 65.5zM465 661q-41 -18 -58.5 -40.5t-24.5 -61.5h71l-26 -146h-144l24 135q11 64 41.5 105t94.5 66z"/>
<glyph glyph-name="quotedblright" horiz-adv-x="461" unicode="”" d="M260 709l-24 -135q-11 -64 -41.5 -105t-94.5 -66l-22 58q41 18 58.5 40.5t24.5 61.5h-71l26 146h144zM471 709l-24 -135q-11 -65 -40.5 -105.5t-93.5 -65.5l-22 58q41 18 58.5 40.5t24.5 61.5h-72l26 146h143z"/>
<glyph glyph-name="dagger" horiz-adv-x="560" unicode="†" d="M532 415h-184l-95 -540h-114l95 540h-184l19 105h184l33 189h114l-33 -189h184z"/>
<glyph glyph-name="daggerdbl" horiz-adv-x="560" unicode="‡" d="M481 64h-184l-34 -189h-114l34 189h-184l18 105h184l44 246h-184l18 105h184l34 189h114l-34 -189h184l-18 -105h-184l-44 -246h184z"/>
<glyph glyph-name="ellipsis" horiz-adv-x="997" unicode="…" d="M199 146l-26 -146h-145l26 146h145zM534 146l-26 -146h-145l26 146h145zM869 146l-26 -146h-145l26 146h145z"/>
<glyph glyph-name="perthousand" horiz-adv-x="1200" unicode="‰" d="M931 255q-25 -23 -36 -78q-2 -13 -2 -40q0 -28 18 -48q16 -18 43 -18q24 0 43 17q24 22 35 78q3 19 3 40q0 28 -18 48q-16 18 -44 18q-23 0 -42 -17zM846 29q-46 43 -46 110v19q0 18 2 28q12 70 51 112q51 56 125 56q63 0 104 -40q45 -42 45 -110v-19q0 -18 -2 -28 q-12 -71 -50 -112q-51 -56 -125 -56q-63 0 -104 40zM566 255q-25 -23 -36 -78q-2 -13 -2 -40q0 -28 18 -48q16 -18 43 -18q24 0 43 17q24 22 35 78q3 19 3 40q0 28 -18 48q-16 18 -44 18q-23 0 -42 -17zM481 29q-46 43 -46 110v19q0 18 2 28q12 70 51 112q51 56 125 56 q63 0 104 -40q45 -42 45 -110v-19q0 -18 -2 -28q-12 -71 -50 -112q-51 -56 -125 -56q-63 0 -104 40zM214 620q-24 -22 -35 -78q-3 -20 -3 -40q0 -28 18 -48q16 -18 44 -18q24 0 43 17q24 22 35 78q3 20 3 40q0 28 -18 48q-16 18 -44 18q-24 0 -43 -17zM129 394 q-45 42 -45 110v19q0 18 2 28q12 71 50 112q51 56 126 56q62 0 103 -40q46 -43 46 -110v-19q0 -18 -2 -28q-12 -71 -50 -112q-51 -56 -126 -56q-63 0 -104 40zM767 670l-629 -690l-64 56l626 687z"/>
<glyph glyph-name="guilsinglleft" horiz-adv-x="335" unicode="‹" d="M311 489l-149 -185l81 -203l-81 -41l-128 258l214 231z"/>
<glyph glyph-name="guilsinglright" horiz-adv-x="340" unicode="›" d="M284 288l-213 -228l-65 58l150 182l-81 207l81 42z"/>
<glyph glyph-name="fraction" horiz-adv-x="585" unicode="⁄" d="M583 670l-507 -690l-74 56l505 687z"/>
<glyph glyph-name="Euro" horiz-adv-x="619" unicode="€" d="M650 623l-64 -97q-69 69 -161 69q-65 0 -111 -39q-41 -35 -64 -101h291l-48 -73h-261q-2 -8 -4 -20q-4 -23 -6 -51h239l-48 -73h-189q7 -49 26 -77q43 -61 126 -61q86 0 143 44l36 -103q-81 -55 -182 -55q-144 0 -221 102q-46 63 -56 150h-79l13 73h65q1 21 7 63l1 8h-61 l13 73h66q35 121 123 189q84 65 190 65q127 0 216 -86z"/>
<glyph glyph-name="trademark" horiz-adv-x="855" unicode="™" d="M388 709l-15 -85h-110l-51 -296h-98l53 296h-110l15 85h316zM859 709l-67 -381h-96l47 257l-123 -247h-73l-37 251l-43 -261h-95l68 381h132l34 -241l118 241h135z"/>
<glyph glyph-name="arrowleft" horiz-adv-x="795" unicode="←" d="M751 275h-540l204 -204l-70 -70l-321 323l321 323l70 -69l-204 -205h540v-98z"/>
<glyph glyph-name="arrowright" horiz-adv-x="795" unicode="→" d="M771 323l-321 -323l-70 70l204 204h-540v98h540l-204 205l70 69z"/>
<glyph glyph-name="partialdiff" d="M446 695l-104 -586h155l-19 -109h-403l19 109h122l77 431l-173 -111l25 143l193 123h108z" unicode="∂"/>
<glyph glyph-name="product" horiz-adv-x="930" unicode="∏" d="M866 189l-482 -482h-28l510 509v-27zM866 -212l-82 -81h-27l109 109v-28zM866 -11l-282 -282h-27l309 309v-27zM866 389l-683 -682h-27l710 710v-28zM866 590l-802 -802v28l802 801v-27zM866 790l-802 -801v27l802 802v-28zM571 897l-507 -508v28l480 480h27zM772 897 l-708 -708v27l681 681h27zM371 897l-307 -307v27l280 280h27zM171 897l-107 -107v28l79 79h28z"/>
<glyph glyph-name="summation" horiz-adv-x="951" unicode="∑" d="M894 -99h-837v248h84v-162h670v162h83v-248z"/>
<glyph glyph-name="minus" horiz-adv-x="657" unicode="−" d="M582 252h-539v112h539v-112z"/>
<glyph glyph-name="radical" horiz-adv-x="695" unicode="√" d="M706 728h-113l-254 -736h-106l-189 528h133l109 -321l211 633h209v-104z"/>
<glyph glyph-name="infinity" horiz-adv-x="717" unicode="∞" d="M437 312h-119q-57 0 -98 -31t-41 -86q0 -42 30.5 -65.5t73.5 -23.5h117zM675 418l-18 -106h-103l-37 -206h103l-18 -106h-341q-83 0 -145.5 50.5t-62.5 130.5q0 65 39 116.5t101 75.5q-32 18 -51 53t-19 75q0 83 60 140q71 68 201 68q48 0 93 -15l-19 -104q-40 12 -85 12 q-53 0 -89.5 -27t-36.5 -77q0 -38 30.5 -59t70.5 -21h107l19 104h117l-19 -104h103z"/>
<glyph glyph-name="approxequal" horiz-adv-x="638" unicode="≈" d="M579 157q-44 -47 -80.5 -71.5t-85.5 -24.5q-44 0 -104 29l-45 21q-21 9 -40 9q-40 0 -94 -56l-71 84q44 47 80.5 71.5t85.5 24.5q40 0 102 -28q3 -2 20 -9.5t25 -10.5q25 -9 41 -9q18 0 36.5 9t29 18.5t27.5 27.5zM579 377q-30 -32 -49 -49t-51 -32.5t-66 -15.5 q-42 0 -104 30l-45 20q-23 10 -40 10q-18 0 -37 -10t-29.5 -19.5t-27.5 -27.5l-71 84q30 32 49 49t51 32.5t66 15.5q38 0 102 -29q36 -16 45 -19q25 -9 41 -9q18 0 36.5 9t29 18.5t27.5 27.5z"/>
<glyph glyph-name="notequal" horiz-adv-x="688" unicode="≠" d="M599 129h-339l-101 -131l-58 44l67 87h-79v99h155l77 100h-232v98h308l97 126l57 -45l-62 -81h110v-98h-186l-77 -100h263v-99z"/>
<glyph glyph-name="lozenge" d="M233 552q-35 -40 -50 -112q-25 -117 -30 -160l259 251q0 2 -5 11q-12 23 -36 37t-52 14q-50 0 -86 -41zM157 170q5 -13 7 -16q12 -23 36 -37t52 -14q50 0 86 41q35 40 50 112q25 110 31 167zM72 73q-42 60 -44 157v9q0 58 13 130q18 100 48.5 173t87.5 116q67 51 145 51 q117 0 178 -86q45 -64 45 -157q0 -49 -15 -139q-18 -100 -48.5 -173t-87.5 -116q-67 -51 -145 -51q-116 0 -177 86z" unicode="◊"/>
</font>
</defs>
</svg>
