<svg xmlns="http://www.w3.org/2000/svg" viewBox="0 0 360 242"><g fill="none" fill-rule="evenodd" transform="translate(4 4)"><g stroke="#FFF"><ellipse cx="118.3" cy="117.3" stroke-width="5.9" rx="118.3" ry="117.3"/><g fill="#FFF" stroke-width="2" transform="translate(53.2 60.6)"><path d="M24.6 25.9h-1.9V2.7l-9.4 22.9h-1.7L2.2 2.9v23H.3V0H3l9.5 23 9.4-23h2.7zM59.4 26h-2l-2.6-7H42.3l-2.5 7h-2l9.8-26h1.9l10 26zm-5.2-8.7L48.5 2.6 43 17.3h11.2zM93.2 13c0 3.6-.3 7.6-3.1 10.4a9.3 9.3 0 0 1-6.6 2.5H75V0h8.5c2.8 0 5 1 6.6 2.6 2.8 2.7 3.1 6.7 3.1 10.3zm-2 0c0-3.2-.1-6.9-2.5-9.2a7.6 7.6 0 0 0-5.2-2H77v22.3h6.6c2 0 3.9-.7 5.2-2 2.4-2.3 2.6-6 2.6-9.2zM128.4 25.9h-16.6V0h16.6v1.8h-14.7v9.5h12.9v1.9h-12.9v10.9h14.7zM21.9 104.4c-.2 2-1 4.1-2.5 5.7-2 2-4.6 3-7.4 3-2.8 0-5.4-.9-7.3-2.8-2.8-2.9-3.2-6.3-3.2-10.6 0-4.2.4-7.7 3.2-10.5 2-2 4.5-3 7.3-3s5.5 1.1 7.4 3A9.4 9.4 0 0 1 22 95h-4.8c-.1-1.1-.5-2-1.2-2.7-.8-1-2.3-1.6-3.9-1.6-1.5 0-3 .6-4 1.7-1.8 1.8-1.8 5-1.8 7.4 0 2.4 0 5.6 1.8 7.5 1 1 2.5 1.7 4 1.7a5 5 0 0 0 4-1.6c.6-.8 1-1.8 1-2.9H22zM59.2 112.7h-4.7v-11.3H43.9v11.3h-4.7V86.8h4.7v10.1h10.6V86.8h4.7zM87.5 112.7h-4.8V86.8h4.8zM129.8 95c0 5-3.1 8.4-9 8.4h-5.6v9.3h-4.6v-26h10.1c6 0 9.1 3.4 9.1 8.4zm-4.7 0c0-2.4-1.4-4.1-4.6-4.1h-5.3v8.4h5.3c3.2 0 4.6-1.7 4.6-4.2zM21.3 62.6c0 2-.7 4-2.4 5.4a10 10 0 0 1-6.5 1.8H3.3v-26h9.1c2 0 4 .4 5.7 1.5 1.6 1 2.6 3 2.6 5 0 2.8-1.1 5.2-4.1 6 3.2.8 4.7 3.4 4.7 6.3zm-2.5-12.2c0-3.6-3.2-4.7-6.4-4.7H5.2v9.7h7.2c3.6 0 6.4-.9 6.4-5zm.6 12c0-4.2-3.2-5.2-7-5.2H5.2V68h7.2c3.6 0 7-1 7-5.5zM59 43.9l-9 15.6v10.3h-1.8V59.5l-9-15.6h2.1l7.9 13.8 7.9-13.8z"/><path fill-rule="nonzero" d="M74.5 57.8v-1.3h54.1v1.3z"/></g></g><g fill="#FFF" transform="translate(183 173.2)"><path d="M166.1.6c-6.2 0-9.5 3.2-12.1 5.7-2.4 2.3-4.3 4.2-8.3 4.2-4 0-5.8-1.9-8.2-4.2-2.7-2.5-6-5.7-12.2-5.7-6.3 0-9.6 3.2-12.2 5.7-2.4 2.3-4.3 4.2-8.2 4.2-4 0-5.9-1.9-8.3-4.2C94 3.8 90.7.6 84.5.6c-6.3 0-9.6 3.2-12.2 5.7-2.4 2.3-4.3 4.2-8.3 4.2-4 0-5.8-1.9-8.2-4.2-2.6-2.5-6-5.7-12.2-5.7-6.2 0-9.5 3.2-12.1 5.7-2.4 2.3-4.3 4.2-8.3 4.2-4 0-5.8-1.9-8.2-4.2C12.4 3.8 9 .6 2.8.6A2.8 2.8 0 0 0 0 3.4C0 4.9 1.3 6 2.8 6c4 0 5.9 1.9 8.2 4.2 2.7 2.5 6 5.7 12.2 5.7 6.3 0 9.6-3.2 12.2-5.7C37.8 8 39.7 6 43.6 6c4 0 5.9 1.9 8.3 4.2C54.5 12.8 57.8 16 64 16c6.3 0 9.6-3.2 12.2-5.7C78.6 8 80.5 6 84.5 6c4 0 5.8 1.9 8.2 4.2 2.6 2.5 6 5.7 12.2 5.7 6.2 0 9.5-3.2 12.2-5.7 2.3-2.3 4.2-4.2 8.2-4.2 4 0 5.8 1.9 8.2 4.2 2.7 2.5 6 5.7 12.2 5.7 6.3 0 9.6-3.2 12.2-5.7 2.4-2.3 4.3-4.2 8.2-4.2 1.6 0 2.9-1.2 2.9-2.7 0-1.6-1.3-2.8-2.9-2.8zM166.1 25.7c-6.2 0-9.5 3.2-12.1 5.7-2.4 2.4-4.3 4.2-8.3 4.2-4 0-5.8-1.8-8.2-4.2-2.7-2.5-6-5.7-12.2-5.7-6.3 0-9.6 3.2-12.2 5.7-2.4 2.4-4.3 4.2-8.2 4.2-4 0-5.9-1.8-8.3-4.2-2.6-2.5-5.9-5.7-12.1-5.7-6.3 0-9.6 3.2-12.2 5.7-2.4 2.4-4.3 4.2-8.3 4.2-4 0-5.8-1.8-8.2-4.2-2.6-2.5-6-5.7-12.2-5.7-6.2 0-9.5 3.2-12.1 5.7-2.4 2.4-4.3 4.2-8.3 4.2-4 0-5.8-1.8-8.2-4.2-2.6-2.5-6-5.7-12.2-5.7A2.8 2.8 0 0 0 0 28.5c0 1.5 1.3 2.8 2.8 2.8 4 0 5.9 1.8 8.2 4.1 2.7 2.6 6 5.7 12.2 5.7 6.3 0 9.6-3.1 12.2-5.7 2.4-2.3 4.3-4.1 8.2-4.1 4 0 5.9 1.8 8.3 4.1 2.6 2.6 5.9 5.7 12.1 5.7 6.3 0 9.6-3.1 12.2-5.7 2.4-2.3 4.3-4.1 8.3-4.1 4 0 5.8 1.8 8.2 4.1 2.6 2.6 6 5.7 12.2 5.7 6.2 0 9.5-3.1 12.2-5.7 2.3-2.3 4.2-4.1 8.2-4.1 4 0 5.8 1.8 8.2 4.1 2.7 2.6 6 5.7 12.2 5.7 6.3 0 9.6-3.1 12.2-5.7 2.4-2.3 4.3-4.1 8.2-4.1 1.6 0 2.9-1.3 2.9-2.8 0-1.6-1.3-2.8-2.9-2.8zM166.1 48c-6.2 0-9.5 3.2-12.1 5.8-2.4 2.3-4.3 4.1-8.3 4.1-4 0-5.8-1.8-8.2-4.1-2.7-2.6-6-5.8-12.2-5.8-6.3 0-9.6 3.2-12.2 5.8-2.4 2.3-4.3 4.1-8.2 4.1-4 0-5.9-1.8-8.3-4.1C94 51.2 90.7 48 84.5 48c-6.3 0-9.6 3.2-12.2 5.8-2.4 2.3-4.3 4.1-8.3 4.1-4 0-5.8-1.8-8.2-4.1-2.6-2.6-6-5.8-12.2-5.8-6.2 0-9.5 3.2-12.1 5.8-2.4 2.3-4.3 4.1-8.3 4.1-4 0-5.8-1.8-8.2-4.1C12.4 51.2 9 48 2.8 48A2.8 2.8 0 0 0 0 50.8c0 1.5 1.3 2.8 2.8 2.8 4 0 5.9 1.8 8.2 4.1 2.7 2.6 6 5.8 12.2 5.8 6.3 0 9.6-3.2 12.2-5.8 2.4-2.3 4.3-4.1 8.2-4.1 4 0 5.9 1.8 8.3 4.1 2.6 2.6 5.9 5.8 12.1 5.8 6.3 0 9.6-3.2 12.2-5.8 2.4-2.3 4.3-4.1 8.3-4.1 4 0 5.8 1.8 8.2 4.1 2.6 2.6 6 5.8 12.2 5.8 6.2 0 9.5-3.2 12.2-5.8 2.3-2.3 4.2-4.1 8.2-4.1 4 0 5.8 1.8 8.2 4.1 2.7 2.6 6 5.8 12.2 5.8 6.3 0 9.6-3.2 12.2-5.8 2.4-2.3 4.3-4.1 8.2-4.1 1.6 0 2.9-1.2 2.9-2.8 0-1.5-1.3-2.8-2.9-2.8z"/></g></g></svg>