<?xml version="1.0" encoding="UTF-8" standalone="no"?>
<!DOCTYPE svg  PUBLIC '-//W3C//DTD SVG 1.1//EN'  'http://www.w3.org/Graphics/SVG/1.1/DTD/svg11.dtd'>
<svg xmlns="http://www.w3.org/2000/svg">
<defs>
<font id="Elena-Regular" horiz-adv-x="697">
<font-face underline-position="-48" font-weight="400" descent="-200" panose-1="2 0 0 0 0 0 0 0 0 0" units-per-em="1000" unicode-range="U+0020-25CA" bbox="-40 -250 1004 861" x-height="463" underline-thickness="52" font-family="Elena" ascent="800" cap-height="661"/>
<missing-glyph horiz-adv-x="1000"/>
<glyph glyph-name=".notdef" horiz-adv-x="1000"/>
<glyph glyph-name=".null" horiz-adv-x="0"/>
<glyph glyph-name="nonmarkingreturn" horiz-adv-x="333"/>
<glyph glyph-name="space" horiz-adv-x="210" unicode=" "/>
<glyph glyph-name="exclam" horiz-adv-x="226" unicode="!" d="M56 48q0 26 16.5 42.5t41.5 16.5t40.5 -17.5t15.5 -44.5q0 -23 -16.5 -39t-40.5 -16q-25 0 -41 16.5t-16 41.5zM70 623v34q16 13 43 13q28 0 44 -13v-34q0 -31 -7 -134.5t-14 -190.5l-7 -88h-32q-27 343 -27 413z"/>
<glyph glyph-name="quotedbl" horiz-adv-x="344" unicode='&quot;' d="M294 655q0 -15 -6 -48t-15 -78.5t-13 -75.5h-24q-4 30 -13 75.5t-15 78.5t-6 48q0 23 13.5 35.5t32.5 12.5t32.5 -12.5t13.5 -35.5zM142 655q0 -15 -6 -48t-15 -78.5t-13 -75.5h-24q-4 30 -13 75.5t-15 78.5t-6 48q0 23 13.5 35.5t32.5 12.5t32.5 -12.5t13.5 -35.5z"/>
<glyph glyph-name="numbersign" horiz-adv-x="602" unicode="#" d="M240 335l-23 -165h153l23 165h-153zM147 0l16 117h-123q-1 4 -1 12q0 10 3.5 20.5t6.5 15.5l3 5h118l23 165h-123q-1 4 -1 13q0 10 3 20t6 15l3 5h119l16 116h47l-16 -116h153l16 116h47l-16 -116h115q2 -10 2 -14q0 -10 -3 -20t-7 -14l-3 -5h-111l-23 -165h116 q2 -10 2 -13q0 -10 -3.5 -20t-7.5 -15l-3 -5h-111l-16 -117h-47l16 117h-153l-16 -117h-47z"/>
<glyph glyph-name="dollar" horiz-adv-x="448" unicode="$" d="M70 26q-4 27 -4 63q0 40 3 61q8 7 20 7q5 0 9.5 -1.5t7.5 -3.5l2 -1q7 -68 27 -94q31 -11 77 -11q49 0 71.5 27t22.5 60q0 19 -7.5 34.5t-25 27.5t-31 19t-39.5 18q-36 15 -54 24.5t-40 26t-31 38t-9 50.5q0 52 37 87t99 43v83q23 19 58 19v-100q54 -4 103 -23 q3 -26 3 -59q0 -27 -2 -51q-9 -8 -20 -8l-19 5q-6 53 -25 83q-28 10 -70 10t-66 -19.5t-24 -51.5q0 -13 5.5 -24.5t12.5 -19t22 -16t25 -13t30.5 -13.5t30.5 -13q61 -29 88 -57t27 -80t-35 -93.5t-96 -54.5v-84q-23 -19 -58 -19v98q-69 2 -125 26z"/>
<glyph glyph-name="percent" horiz-adv-x="627" unicode="%" d="M422 120q0 -38 14.5 -62t43.5 -24q54 0 54 75q0 86 -58 86q-54 0 -54 -75zM472 -10q-52 0 -80.5 31t-28.5 85q0 64 36.5 99t83.5 35q52 0 80.5 -31t28.5 -85q0 -64 -36 -99t-84 -35zM96 394q0 -38 14.5 -62t43.5 -24q54 0 54 75q0 86 -58 86q-54 0 -54 -75zM146 264 q-52 0 -80.5 31t-28.5 85q0 64 36.5 99t83.5 35q52 0 80.5 -31t28.5 -85q0 -64 -36 -99t-84 -35zM141 12l310 507l40 -26l-310 -507z"/>
<glyph glyph-name="ampersand" horiz-adv-x="665" unicode="&amp;" d="M251 46q89 0 147 47l-128 137q-81 87 -100 111q-55 -68 -55 -164q0 -131 136 -131zM270 620q-45 0 -71 -24.5t-26 -72.5q0 -18 6 -38t19 -42.5t24.5 -39.5t33 -42t32 -37t35 -38t29.5 -31l97 -104q30 55 30 128v83l-82 13q-1 3 -1 9q0 9 5 17t11 11l5 4q62 -3 101 -3 l124 3q-1 -21 -15 -41q-45 -7 -81 -13v-55q0 -107 -62 -192q77 -74 168 -82v-33h-75q-77 0 -146 61q-87 -71 -202 -71q-89 0 -144 41t-55 123q0 109 121 212q-49 73 -49 128q0 76 57 126t136 50q58 0 98.5 -24.5t40.5 -56.5q0 -40 -43 -62q-7 35 -39 64t-82 29z"/>
<glyph glyph-name="quotesingle" horiz-adv-x="192" unicode="&apos;" d="M142 655q0 -15 -6 -48t-15 -78.5t-13 -75.5h-24q-4 30 -13 75.5t-15 78.5t-6 48q0 23 13.5 35.5t32.5 12.5t32.5 -12.5t13.5 -35.5z"/>
<glyph glyph-name="parenleft" horiz-adv-x="285" unicode="(" d="M133 281q0 -54 2.5 -90t13 -92.5t37 -116.5t68.5 -125l-31 -23q-170 199 -170 447t170 447l31 -23q-42 -65 -68.5 -125t-37 -116.5t-13 -92.5t-2.5 -90z"/>
<glyph glyph-name="parenright" horiz-adv-x="285" unicode=")" d="M232 281q0 -248 -170 -447l-31 23q42 65 68.5 125t37 116.5t13 92.5t2.5 90t-2.5 90t-13 92.5t-37 116.5t-68.5 125l31 23q170 -199 170 -447z"/>
<glyph glyph-name="asterisk" horiz-adv-x="399" unicode="*" d="M314 648l20 7q20 -15 20 -48q0 -6 -1 -9l-20 -7q-42 -15 -119 -18q61 -46 87 -82l12 -17q-4 -12 -20 -23.5t-28 -11.5l-12 17q-24 32 -53 107q-25 -69 -52 -108l-12 -17q-13 0 -29 12t-20 24l12 17q19 25 87 83q-81 3 -120 16l-20 6q-1 3 -1 10q0 35 20 47l20 -6 q41 -14 106 -57q-22 79 -22 119v21q10 7 30 7t30 -7v-21q0 -47 -21 -119q56 40 106 58z"/>
<glyph glyph-name="plus" horiz-adv-x="574" unicode="+" d="M80 281h179v184h56v-184h179v-56h-179v-186h-56v186h-179v56z"/>
<glyph glyph-name="comma" horiz-adv-x="204" unicode="," d="M51 44q3 63 43 71q73 -7 73 -85q0 -79 -90 -178l-24 19q49 75 49 129q0 25 -51 44z"/>
<glyph glyph-name="hyphen" horiz-adv-x="290" unicode="-" d="M54 298h190q2 -12 2 -18q0 -11 -2.5 -22.5t-5.5 -17.5l-2 -6h-190q-2 12 -2 18q0 11 2.5 22.5t5.5 17.5z"/>
<glyph glyph-name="period" horiz-adv-x="208" unicode="." d="M47 48q0 25 16.5 42t40.5 17t40.5 -17t16.5 -42t-16.5 -41.5t-40.5 -16.5t-40.5 16.5t-16.5 41.5z"/>
<glyph glyph-name="slash" horiz-adv-x="312" unicode="/" d="M282 670l-193 -747h-59l194 747h58z"/>
<glyph glyph-name="zero" horiz-adv-x="525" unicode="0" d="M131 262q0 -104 33.5 -162t103.5 -58q62 0 94.5 43.5t32.5 154.5q0 221 -136 221q-62 0 -95 -44t-33 -155zM256 -11q-90 0 -148.5 58.5t-58.5 186.5q0 139 65.5 209.5t156.5 70.5q90 0 148 -58.5t58 -186.5q0 -140 -65.5 -210t-155.5 -70z"/>
<glyph glyph-name="one" horiz-adv-x="336" unicode="1" d="M144 448h-107q-1 4 -1 10q0 8 4 15t8 10l3 3q104 14 169 23v-458l101 -13q-4 -26 -15 -40q-86 3 -123 3l-137 -3q-2 6 -2 10q0 8 4 15t8 11l5 3l83 13v398z"/>
<glyph glyph-name="two" horiz-adv-x="470" unicode="2" d="M421 0h-399v46l95 74q91 71 136 130t45 118q0 39 -22.5 62t-82.5 23q-56 0 -123 -39l-13 35q90 65 176 65q70 0 109 -32.5t39 -93.5q0 -75 -59 -146t-164 -146l-51 -35l266 9q13 41 19 93q8 5 19 5q12 0 19 -7q0 -90 -9 -161z"/>
<glyph glyph-name="three" horiz-adv-x="450" unicode="3" d="M371 388q0 -50 -33 -93t-88 -72q57 -6 105 -46t48 -113q0 -95 -70 -163.5t-170 -68.5q-89 0 -127 36q-1 5 -1 12q0 44 34 57q53 -51 124 -51q67 0 97.5 42t30.5 102q0 69 -38.5 111.5t-112.5 42.5h-67v38q88 10 139 48t51 94q0 42 -24 66t-68 24q-61 0 -125 -39l-13 35 q90 64 167 64q66 0 103.5 -32.5t37.5 -93.5z"/>
<glyph glyph-name="four" horiz-adv-x="510" unicode="4" d="M91 104l219 3v296zM383 -158h-73v211h-282v47l301 404h54v-395l116 2l-4 -58h-112v-211z"/>
<glyph glyph-name="five" horiz-adv-x="459" unicode="5" d="M330 45q0 147 -140 147q-47 0 -104 -24l-16 14l16 322h307l-5 -69h-245l-15 -204q48 20 97 20q88 0 136.5 -44.5t48.5 -127.5q0 -103 -72.5 -175t-176.5 -72q-90 0 -127 33q-1 6 -1 12q0 44 34 57q56 -48 124 -48q72 0 105.5 45.5t33.5 113.5z"/>
<glyph glyph-name="six" horiz-adv-x="495" unicode="6" d="M240 361q-61 0 -106 -30q-1 -13 -1 -47q0 -242 123 -242q109 0 109 144q0 175 -125 175zM405 671l5 -42q-127 -18 -192 -88.5t-80 -170.5q66 52 139 52q71 0 119.5 -48t48.5 -156q0 -107 -61.5 -167.5t-139.5 -60.5q-38 0 -70.5 13.5t-61.5 42.5t-45.5 83t-16.5 127 q0 176 93.5 289t261.5 126z"/>
<glyph glyph-name="seven" horiz-adv-x="454" unicode="7" d="M423 504v-39l-219 -633l-64 24l209 579h-244q-12 -37 -20 -96q-9 -6 -19 -6t-19 7v16q0 76 10 148h366z"/>
<glyph glyph-name="eight" horiz-adv-x="515" unicode="8" d="M160 533q0 -93 119 -151q79 57 79 131q0 49 -25.5 78.5t-72.5 29.5q-45 0 -72.5 -25t-27.5 -63zM255 41q60 0 91.5 34t31.5 81q0 52 -30.5 89.5t-105.5 74.5q-103 -66 -103 -161q0 -49 31.5 -83.5t84.5 -34.5zM240 -10q-89 0 -134.5 41t-45.5 107q0 65 41 112t107 88 q-65 37 -95.5 76t-30.5 96q0 67 59.5 113.5t132.5 46.5q71 0 116 -35.5t45 -101.5q0 -97 -117 -170q72 -39 105.5 -81.5t33.5 -100.5q0 -77 -63.5 -134t-153.5 -57z"/>
<glyph glyph-name="nine" horiz-adv-x="495" unicode="9" d="M255 143q61 0 106 30q1 13 1 47q0 242 -123 242q-109 0 -109 -144q0 -175 125 -175zM90 -167l-5 42q127 18 192 88.5t80 170.5q-66 -52 -139 -52q-71 0 -119.5 48t-48.5 156q0 107 61.5 167.5t139.5 60.5q38 0 70.5 -13.5t61.5 -42.5t45.5 -83t16.5 -127 q0 -176 -93.5 -289t-261.5 -126z"/>
<glyph glyph-name="colon" horiz-adv-x="208" unicode=":" d="M47 391q0 25 16.5 42t40.5 17t40.5 -17t16.5 -42t-16.5 -41.5t-40.5 -16.5t-40.5 16.5t-16.5 41.5zM47 48q0 25 16.5 42t40.5 17t40.5 -17t16.5 -42t-16.5 -41.5t-40.5 -16.5t-40.5 16.5t-16.5 41.5z"/>
<glyph glyph-name="semicolon" horiz-adv-x="208" unicode=";" d="M47 44q3 63 43 71q73 -7 73 -85q0 -79 -90 -178l-24 19q49 75 49 129q0 25 -51 44zM47 391q0 25 16.5 42t40.5 17t40.5 -17t16.5 -42t-16.5 -41.5t-40.5 -16.5t-40.5 16.5t-16.5 41.5z"/>
<glyph glyph-name="less" horiz-adv-x="518" unicode="&lt;" d="M63 270l372 225l28 -46l-326 -197l326 -196l-29 -46l-371 225v35z"/>
<glyph glyph-name="equal" horiz-adv-x="574" unicode="=" d="M80 197h414v-54h-414v54zM80 363h414v-54h-414v54z"/>
<glyph glyph-name="greater" horiz-adv-x="518" unicode="&gt;" d="M83 495l372 -225v-35l-371 -225l-29 46l326 196l-326 197z"/>
<glyph glyph-name="question" horiz-adv-x="362" unicode="?" d="M89 48q0 25 16.5 42t40.5 17t40.5 -17t16.5 -42t-16.5 -41.5t-40.5 -16.5t-40.5 16.5t-16.5 41.5zM146 366l69 68q60 62 60 117q0 39 -29.5 58t-74.5 19q-37 0 -72 -11q-12 -28 -24 -101q-6 -4 -16 -4q-9 0 -18 4q-9 51 -9 103q0 20 1 27q57 24 141 24q79 0 129.5 -35 t50.5 -98q0 -43 -21.5 -76.5t-62.5 -72.5q-13 -12 -30.5 -28t-27.5 -25.5t-21 -20t-16.5 -19t-7.5 -16.5l-12 -67l-28 -3q-15 60 -15 92q0 31 34 65z"/>
<glyph glyph-name="at" horiz-adv-x="799" unicode="@" d="M331 101q29 0 63.5 30t53.5 61l25 176q-20 10 -52 10q-33 0 -57 -20t-35.5 -53t-16.5 -66t-5 -67q0 -49 15 -68zM514 93q72 4 120.5 69.5t48.5 157.5q0 103 -56 161.5t-167 58.5q-142 0 -243 -106.5t-101 -269.5q0 -133 71.5 -200t202.5 -67q64 0 128 14t91 28l11 -29 q-33 -20 -100.5 -41t-144.5 -21q-145 0 -232.5 74.5t-87.5 227.5q0 181 124.5 308t294.5 127q120 0 195 -70t75 -185q0 -83 -43 -151.5t-101.5 -103t-113.5 -34.5q-25 0 -35.5 13t-10.5 44q0 26 2 50q-66 -108 -118 -108q-90 0 -90 119q0 63 23.5 122.5t74.5 102t120 42.5 q48 0 90 -14q-37 -219 -37 -291q0 -22 9 -28z"/>
<glyph glyph-name="A" horiz-adv-x="563" unicode="A" d="M273 569l-101 -307h201zM441 53l-52 159h-233l-52 -159l99 -14q-1 -20 -15 -41q-62 3 -114 3l-112 -3q-1 3 -1 9q0 9 5 17t10 12l6 3l55 14l211 607h68l207 -607l74 -14q-1 -20 -15 -41q-55 3 -104 3l-126 -3q-1 3 -1 9q0 9 5.5 17t10.5 12l5 3z"/>
<glyph glyph-name="B" horiz-adv-x="582" unicode="B" d="M211 368q88 1 91 1h7q92 29 92 136q0 48 -32.5 77.5t-100.5 29.5h-57v-244zM211 322v-268q31 -3 91 -3q147 0 147 134q0 61 -40 99.5t-120 38.5q-3 0 -78 -1zM58 660h224q198 0 198 -136q0 -65 -37 -107t-77 -55q38 -7 68 -20q98 -42 98 -140q0 -92 -70.5 -147 t-179.5 -55h-40q-11 0 -42.5 0.5t-44.5 0.5l-117 -3q-1 3 -1 9q0 9 5.5 17t10.5 12l5 3l74 14v554l-94 12q-1 3 -1 9q0 9 5.5 17t10.5 11z"/>
<glyph glyph-name="C" horiz-adv-x="614" unicode="C" d="M377 54q87 0 175 39l16 -39q-94 -64 -216 -64q-148 0 -227.5 91t-79.5 224q0 96 30 169t80 114.5t107.5 61.5t119.5 20q108 0 178 -31q7 -53 7 -107q0 -32 -3 -65q-10 -7 -22 -7q-6 0 -12 1.5t-9 2.5l-3 2q-8 75 -24 116q-55 29 -128 29q-103 0 -167.5 -61t-64.5 -205 q0 -134 62 -212.5t181 -78.5z"/>
<glyph glyph-name="D" horiz-adv-x="701" unicode="D" d="M310 611h-97v-546q38 -7 110 -7q120 0 181.5 59t61.5 199q0 135 -64 215t-192 80zM58 660h276q82 0 145.5 -25t101 -68t56.5 -96.5t19 -113.5q0 -178 -98 -267.5t-254 -89.5q-26 0 -73 0.5t-63 0.5l-130 -3q-1 3 -1 9q0 9 5.5 17t10.5 12l5 3l76 14v554l-96 12q-1 3 -1 9 q0 9 5.5 17t10.5 11z"/>
<glyph glyph-name="E" horiz-adv-x="536" unicode="E" d="M188 1l-150 -3q-1 3 -1 9q0 9 5.5 17t10.5 12l5 3l74 14v554l-94 12q-1 3 -1 9q0 9 5.5 17t10.5 11l5 4q72 -1 130 -1l286 1q8 -60 8 -131v-19q-8 -6 -20 -6l-20 5q-8 71 -24 95l-207 2v-241l211 8q0 -15 -6 -30t-12 -23l-6 -7l-187 1v-260l213 1q15 26 23 94q9 5 20 5 q12 0 20 -6q0 -97 -8 -150q-164 3 -291 3z"/>
<glyph glyph-name="F" horiz-adv-x="518" unicode="F" d="M188 659l286 1q8 -60 8 -133v-18q-9 -6 -20 -6l-20 5q-8 71 -24 95l-207 2v-250l201 8q0 -16 -6 -31t-12 -22l-6 -7l-177 1v-249l120 -14q-2 -22 -15 -43q-67 3 -140 3l-138 -3q-1 3 -1 9q0 9 5.5 17t10.5 12l5 3l74 14v554l-94 12q-1 3 -1 9q0 9 5.5 17t10.5 11l5 4 q79 -1 130 -1z"/>
<glyph glyph-name="G" horiz-adv-x="701" unicode="G" d="M578 301l97 2q-3 -20 -15 -41q-26 -7 -51 -13v-196q-18 -12 -45.5 -24t-82.5 -25.5t-110 -13.5q-106 0 -181.5 45.5t-110 115t-34.5 154.5q0 96 32 169t85 114.5t114 61.5t127 20q117 0 204 -32q7 -60 7 -107q0 -33 -3 -64q-10 -7 -22 -7l-24 6q-10 79 -23 113 q-63 33 -155 33q-252 0 -252 -267q0 -137 67.5 -216.5t193.5 -79.5q93 0 141 24v176l-106 13q-1 2 -1 9q0 9 5 17t11 12l5 3q77 -2 127 -2z"/>
<glyph glyph-name="H" horiz-adv-x="752" unicode="H" d="M132 53v554l-94 13q-1 3 -1 9q0 9 5.5 17t10.5 12l5 3q65 -2 115 -2l125 2q-1 -20 -15 -41q-36 -6 -72 -13v-242h331v242l-87 13q-1 3 -1 9q0 9 5 17t11 12l5 3q58 -2 108 -2l132 2q-2 -20 -15 -41q-43 -6 -79 -13v-554l94 -14q-2 -20 -15 -41q-58 3 -119 3l-126 -3 q-1 3 -1 9q0 9 5 17t11 12l5 3l67 14v262h-331v-262l87 -14q-1 -20 -15 -41q-51 3 -112 3l-133 -3q-1 3 -1 9q0 9 5.5 17t10.5 12l5 3z"/>
<glyph glyph-name="I" horiz-adv-x="342" unicode="I" d="M173 659l132 2q-1 -20 -15 -41q-43 -6 -79 -13v-554l94 -14q-1 -20 -15 -41q-58 3 -119 3l-133 -3q-1 3 -1 9q0 9 5.5 17t10.5 12l5 3l74 14v554l-94 13q-1 3 -1 9q0 9 5.5 17t10.5 12l5 3q65 -2 115 -2z"/>
<glyph glyph-name="J" horiz-adv-x="330" unicode="J" d="M173 659l132 2q-1 -20 -15 -41q-43 -6 -79 -13v-461q0 -134 -32.5 -197t-137.5 -117l-16 35q68 44 87.5 104.5t19.5 194.5v441l-94 13q-1 3 -1 9q0 9 5.5 17t10.5 12l5 3q65 -2 115 -2z"/>
<glyph glyph-name="K" horiz-adv-x="634" unicode="K" d="M173 659l123 2q-1 -20 -15 -41q-38 -6 -70 -13v-554l94 -14q-1 -20 -15 -41q-58 3 -119 3l-133 -3q-1 3 -1 9q0 9 5.5 17t10.5 12l5 3l74 14v554l-94 13q-1 3 -1 9q0 9 5.5 17t10.5 12l5 3q65 -2 115 -2zM511 659l117 2q-1 -20 -15 -41q-37 -6 -69 -13l-222 -252 q54 -64 89 -108l104 -127q39 -47 64.5 -65t58.5 -25v-30q-25 -3 -47 -3q-39 0 -66.5 12.5t-45.5 30t-54 61.5l-193 236l238 270l-84 13q-1 3 -1 9q0 9 5.5 17t10.5 12l5 3q59 -2 105 -2z"/>
<glyph glyph-name="L" horiz-adv-x="511" unicode="L" d="M132 53v554l-94 13q-1 3 -1 9q0 9 5.5 17t10.5 12l5 3q65 -2 115 -2l132 2q-1 -20 -15 -41q-43 -6 -79 -13v-552l213 1q15 26 23 94q9 5 20 5q12 0 20 -6q0 -97 -8 -151q-164 3 -281 3l-160 -3q-1 3 -1 9q0 9 5.5 17t10.5 12l5 3z"/>
<glyph glyph-name="M" horiz-adv-x="957" unicode="M" d="M776 53l-43 524l-225 -577h-54l-242 565l-42 -512l94 -14q-2 -20 -15 -41q-45 3 -108 3l-127 -3q-1 3 -1 9q0 9 5.5 17t10.5 12l5 3l74 14l54 554l-95 12q-1 3 -1 9q0 9 5 17t11 11l5 4h167l237 -568l216 568h189q-5 -26 -15 -40q-47 -7 -80 -13l55 -554l94 -14 q-2 -20 -15 -41q-59 3 -117 3l-125 -3q-1 3 -1 9q0 9 5 17t11 12l5 3z"/>
<glyph glyph-name="N" horiz-adv-x="749" unicode="N" d="M604 659l124 2q-1 -20 -15 -41q-43 -6 -79 -13l-3 -607h-64l-378 537l5 -484l94 -14q-1 -20 -15 -41q-54 3 -112 3l-127 -3q-1 3 -1 9q0 9 5.5 17t10.5 12l5 3l74 14l3 554l-96 12q-1 3 -1 9q0 9 5 17t11 11l5 4h143l375 -541l-4 488l-92 13q-1 3 -1 9q0 9 5 17t11 12 l5 3q57 -2 107 -2z"/>
<glyph glyph-name="O" d="M137 346q0 -134 56 -216t162 -82q206 0 206 266q0 134 -56 216t-162 82q-206 0 -206 -266zM339 -10q-95 0 -162.5 45.5t-98 115t-30.5 154.5q0 92 26.5 163.5t71 114.5t99 65t114.5 22q95 0 162.5 -45.5t98 -115t30.5 -154.5q0 -92 -26.5 -163.5t-71 -114.5t-99 -65 t-114.5 -22z" unicode="O"/>
<glyph glyph-name="P" horiz-adv-x="551" unicode="P" d="M211 612v-297h44q172 0 172 156q0 63 -35 102t-110 39h-71zM310 660q100 0 151.5 -43.5t51.5 -125.5q0 -108 -82.5 -166.5t-203.5 -58.5h-16v-211l110 -14q-2 -22 -15 -43q-65 3 -135 3l-133 -3q-1 3 -1 9q0 9 5.5 17t10.5 12l5 3l74 14v554l-94 12q-1 3 -1 9q0 9 5.5 17 t10.5 11l5 4h252z"/>
<glyph glyph-name="Q" d="M137 346q0 -134 56 -216t162 -82q206 0 206 266q0 134 -56 216t-162 82q-206 0 -206 -266zM339 -10q-95 0 -162.5 45.5t-98 115t-30.5 154.5q0 92 26.5 163.5t71 114.5t99 65t114.5 22q95 0 162.5 -45.5t98 -115t30.5 -154.5q0 -145 -62 -234t-159 -118q61 -34 147 -34 q61 0 114 13q-2 -34 -28.5 -59.5t-65.5 -25.5q-140 0 -225 95q-22 -2 -32 -2z" unicode="Q"/>
<glyph glyph-name="R" horiz-adv-x="603" unicode="R" d="M132 53v554l-94 12q-1 3 -1 9q0 9 5.5 17t10.5 11l5 4h251q97 0 149.5 -38t52.5 -108q0 -72 -45.5 -121t-105.5 -73q30 -36 50 -63l100 -137q35 -47 60 -66t57 -24v-30q-27 -3 -45 -3q-57 0 -85.5 20.5t-74.5 83.5l-165 227l50 18q120 44 120 148q0 49 -36.5 83.5 t-109.5 34.5h-70v-559l94 -14q-1 -20 -15 -41q-58 3 -119 3l-133 -3q-1 3 -1 9q0 9 5.5 17t10.5 12l5 3z"/>
<glyph glyph-name="S" horiz-adv-x="511" unicode="S" d="M237 40q66 0 103.5 35t37.5 85q0 53 -31.5 85t-105.5 66l-17 8q-41 19 -62 30.5t-49 33t-40.5 48.5t-12.5 62q0 78 59.5 127t158.5 50q80 0 158 -25q7 -59 7 -106q0 -29 -3 -61q-8 -6 -22 -6l-21 5q-14 101 -31 126q-38 19 -93 19q-54 0 -93.5 -27t-39.5 -78 q0 -20 8 -36.5t17 -28t32 -26t36.5 -21.5t47.5 -24l10 -5q45 -22 68.5 -36t50 -37.5t37.5 -52.5t11 -68q0 -80 -62.5 -136t-167.5 -56q-97 0 -174 29q-7 57 -7 106q0 30 3 60q10 7 22 7l21 -5q9 -87 29 -124q46 -23 115 -23z"/>
<glyph glyph-name="T" horiz-adv-x="573" unicode="T" d="M34 660h506q9 -66 9 -167q-8 -6 -22 -6l-22 5q-8 81 -29 114l-146 2v-555l94 -14q-1 -20 -15 -41q-58 3 -119 3l-135 -3q-1 3 -1 9q0 9 5 17t11 12l5 3l76 14v555l-153 -2q-21 -33 -29 -114q-9 -5 -22 -5q-14 0 -22 6q0 101 9 167z"/>
<glyph glyph-name="U" horiz-adv-x="714" unicode="U" d="M586 659l125 2q-1 -20 -15 -41q-43 -6 -79 -13v-321q0 -141 -62.5 -218.5t-208.5 -77.5q-127 0 -182.5 64.5t-55.5 200.5v352l-94 13q-1 3 -1 9q0 9 5.5 17t10.5 12l5 3q65 -2 115 -2l132 2q-1 -20 -15 -41q-43 -6 -79 -13v-335q0 -126 46 -175.5t136 -49.5 q99 0 137.5 56.5t38.5 169.5v334l-94 13q-1 3 -1 9q0 9 5 17t11 12l5 3q65 -2 115 -2z"/>
<glyph glyph-name="V" horiz-adv-x="647" unicode="V" d="M303 0l-229 607l-67 13q-1 3 -1 9q0 9 5 17t11 12l5 3q43 -2 93 -2l147 2q-1 -20 -15 -41q-54 -6 -90 -13l184 -510l177 510l-95 13q-1 3 -1 9q0 9 5.5 17t10.5 12l5 3q51 -2 101 -2l111 2q-2 -20 -15 -41q-31 -7 -55 -13l-218 -607h-69z"/>
<glyph glyph-name="W" horiz-adv-x="995" unicode="W" d="M254 0l-178 607l-74 13q-1 3 -1 9q0 9 5.5 17t10.5 12l5 3q50 -2 100 -2l129 2q-2 -20 -15 -41q-35 -6 -74 -13l138 -493l180 546h62l185 -555l134 502l-94 13q-1 3 -1 9q0 9 5 17t11 12l5 3q67 -2 117 -2l100 2q-2 -20 -15 -41q-32 -6 -62 -13l-168 -607h-70l-188 549 l-186 -549h-61z"/>
<glyph glyph-name="X" horiz-adv-x="668" unicode="X" d="M103 53l194 280l-183 274l-86 13q-1 3 -1 9q0 9 5.5 17t10.5 12l5 3q51 -2 105 -2l148 2q-2 -20 -15 -41q-45 -6 -83 -13l139 -210l144 210l-89 13q-1 3 -1 9q0 9 5 17t11 12l5 3q59 -2 111 -2l115 2q-2 -20 -15 -41q-37 -6 -72 -13l-180 -260l197 -294l85 -14 q-2 -20 -15 -41q-50 3 -109 3l-144 -3q-1 3 -1 9q0 9 5.5 17t10.5 12l5 3l74 14l-153 231l-158 -231l90 -14q-1 -20 -15 -41q-53 3 -108 3l-121 -3q-1 3 -1 9q0 9 5.5 17t10.5 12l5 3z"/>
<glyph glyph-name="Y" horiz-adv-x="596" unicode="Y" d="M268 53v220l-187 334l-68 13q-1 3 -1 9q0 9 5 17t11 12l5 3q64 -2 112 -2l126 2q-1 -20 -15 -41q-48 -5 -89 -13l152 -279l141 279l-96 13q-1 3 -1 9q0 9 5.5 17t10.5 12l5 3q62 -2 115 -2l101 2q-2 -20 -15 -41q-31 -6 -60 -13l-178 -334v-220l94 -14q-1 -20 -15 -41 q-58 3 -119 3l-133 -3q-1 3 -1 9q0 9 5.5 17t10.5 12l5 3z"/>
<glyph glyph-name="Z" horiz-adv-x="558" unicode="Z" d="M494 0h-453v49l385 555l-285 -5q-16 -32 -36 -110q-10 -4 -18 -4q-18 0 -25 10q0 79 24 165h434v-49l-385 -555l303 5q19 35 37 111q8 4 18 4q16 0 25 -10q0 -73 -24 -166z"/>
<glyph glyph-name="bracketleft" horiz-adv-x="287" unicode="[" d="M276 -158h-176v883h176q-4 -23 -15 -37q-57 -7 -101 -14v-781l101 -14q5 -6 8.5 -15.5t4.5 -15.5z"/>
<glyph glyph-name="backslash" horiz-adv-x="312" unicode="\" d="M223 -77l-193 747h58l194 -747h-59z"/>
<glyph glyph-name="bracketright" horiz-adv-x="287" unicode="]" d="M187 -158h-176q4 23 15 37q57 7 101 14v781l-101 14q-5 6 -8.5 15.5t-5.5 15.5l-1 6h176v-883z"/>
<glyph glyph-name="asciicircum" horiz-adv-x="461" unicode="^" d="M250 660l141 -250l-46 -28l-115 204l-114 -204l-46 29l141 249h39z"/>
<glyph glyph-name="underscore" horiz-adv-x="432" unicode="_" d="M-1 -74h434v-52h-434v52z"/>
<glyph glyph-name="grave" horiz-adv-x="295" unicode="`" d="M138 726q21 -101 82 -171l-16 -21q-47 25 -88 68t-41 81q14 43 63 43z"/>
<glyph glyph-name="a" horiz-adv-x="462" unicode="a" d="M195 53q58 0 105 28q-1 12 -1 41l1 108l-38 -9q-31 -7 -49.5 -12.5t-43.5 -17t-37 -29t-12 -40.5q0 -69 75 -69zM242 475q77 0 104.5 -37.5t27.5 -105.5l-1 -218q0 -50 10 -67.5t41 -17.5l14 1l4 -23q-34 -17 -74 -17q-28 0 -43 14t-21 43q-73 -57 -140 -57q-57 0 -90 32 t-33 83q0 123 192 155l67 11v28q0 65 -16.5 89.5t-72.5 24.5q-61 0 -129 -37l-13 35q33 26 82 45t91 19z"/>
<glyph glyph-name="b" horiz-adv-x="504" unicode="b" d="M249 47q68 0 102 40.5t34 139.5q0 85 -31 135t-93 50q-59 0 -106 -31v-316q46 -18 94 -18zM155 730v-309q81 54 143 54q72 0 120 -52.5t48 -167.5q0 -127 -69 -194t-163 -67q-91 0 -155 22v654l-72 9q-2 4 -2 10q0 8 4 15t8 10l4 3q69 6 134 13z"/>
<glyph glyph-name="c" horiz-adv-x="431" unicode="c" d="M119 249q0 -198 164 -198q53 0 103 27l12 -33q-1 0 -12.5 -8t-24.5 -14.5t-32 -14.5t-43.5 -13t-49.5 -5q-37 0 -70 11.5t-62.5 36t-47 70.5t-17.5 109q0 116 70.5 185.5t170.5 69.5q40 0 73.5 -10.5t44.5 -22.5q2 -8 2 -16q0 -42 -37 -63q-45 55 -110 55 q-134 0 -134 -166z"/>
<glyph glyph-name="d" horiz-adv-x="525" unicode="d" d="M256 422q-67 0 -101.5 -44t-34.5 -144q0 -82 31.5 -131.5t92.5 -49.5q62 0 106 31v298q-28 40 -94 40zM426 730v-675l81 -9q2 -6 2 -10q0 -8 -4 -15t-8 -10l-4 -3q-70 -6 -135 -13l-5 51q-81 -56 -143 -56q-71 0 -121 52.5t-50 163.5q0 130 68 199.5t164 69.5 q43 0 79 -15v210l-72 9q-2 6 -2 10q0 8 4 15t8 10l4 3q69 6 134 13z"/>
<glyph glyph-name="e" horiz-adv-x="453" unicode="e" d="M237 424q-104 0 -117 -133l207 11q3 15 3 30q0 41 -23 66.5t-70 25.5zM395 79l12 -33q-19 -16 -65.5 -36t-103.5 -20q-37 0 -70.5 11.5t-63.5 36t-47.5 70t-17.5 107.5q0 128 63.5 194t155.5 66q72 0 111.5 -44t39.5 -113q0 -36 -10 -70l-281 2v-15q0 -184 167 -184 q60 0 110 28z"/>
<glyph glyph-name="f" horiz-adv-x="349" unicode="f" d="M186 412v-363l91 -13q-4 -24 -15 -38q-73 3 -110 3l-110 -3q-2 6 -2 10q0 8 4 14.5t8 9.5l5 2l53 13v365h-59l-4 19l63 32v66q0 78 51.5 136t136.5 58q38 0 62 -8q3 -9 3 -19q0 -30 -21 -53q-48 24 -95 24q-36 0 -48.5 -25t-12.5 -85v-93l131 3q0 -15 -6 -28.5t-12 -20.5 l-6 -6h-107z"/>
<glyph glyph-name="g" horiz-adv-x="517" unicode="g" d="M137 316q0 -53 25.5 -93t82.5 -40q46 0 72.5 28t26.5 83q0 54 -25.5 94t-82.5 40q-46 0 -72.5 -28.5t-26.5 -83.5zM407 -98q0 41 -25 55.5t-93 15.5l-85 1q-35 0 -61 6q-33 -49 -33 -89q0 -92 132 -92q77 0 121 30t44 73zM502 465q0 -18 -11 -38.5t-23 -23.5l-75 7 q28 -37 28 -92q0 -81 -56.5 -131.5t-130.5 -50.5q-31 0 -59 7q-21 -38 -21 -60q0 -21 17 -29.5t60 -9.5l91 -2q86 -2 122 -31.5t36 -83.5q0 -72 -76 -124.5t-187 -52.5q-185 0 -185 108q0 25 15 50.5t29.5 39.5t40.5 35l5 4q-45 19 -45 63q0 42 72 102q-89 39 -89 141 q0 81 57 131.5t131 50.5q50 0 89 -18z"/>
<glyph glyph-name="h" horiz-adv-x="551" unicode="h" d="M21 679q-2 4 -2 10q0 8 4 15t8 10l4 3q69 6 134 13v-309q77 54 153 54q78 0 106.5 -41t28.5 -115v-272l72 -13q-4 -22 -15 -36q-55 3 -92 3l-110 -3q-1 4 -1 10q0 8 4.5 14.5t8.5 9.5l4 2l53 13v252q0 57 -20.5 85t-81.5 28q-66 0 -110 -31v-334l71 -13q-4 -22 -15 -36 q-56 3 -93 3l-107 -3q-2 4 -2 10q0 8 4.5 14.5t8.5 9.5l4 2l53 13v623z"/>
<glyph glyph-name="i" horiz-adv-x="280" unicode="i" d="M82 653q0 24 15 40t39 16q25 0 38.5 -16t13.5 -42q0 -24 -14.5 -39t-38.5 -15q-23 0 -38 16.5t-15 39.5zM186 470v-423l71 -13q-4 -22 -15 -36q-56 3 -93 3l-107 -3q-2 4 -2 10q0 8 4 14.5t8 9.5l5 2l53 13v360l-81 11q-2 4 -2 10q0 8 4 15t8 11l4 3q76 6 143 13z"/>
<glyph glyph-name="j" horiz-adv-x="271" unicode="j" d="M82 653q0 24 15 40t39 16q25 0 38.5 -16t13.5 -42q0 -24 -14.5 -39t-38.5 -15q-23 0 -38 16.5t-15 39.5zM186 470v-373q0 -96 -45 -203.5t-96 -135.5q-29 1 -47.5 20.5t-19.5 46.5q37 18 55.5 30t39.5 36.5t29 63t8 96.5v359l-82 9q-2 4 -2 10q0 8 4 15t8 10l4 3 q79 6 144 13z"/>
<glyph glyph-name="k" horiz-adv-x="512" unicode="k" d="M342 177l107 -128l71 -13q-4 -22 -15 -36h-115l-207 247l171 169l-48 12q-2 6 -2 10q0 8 4 14t8 8l5 3h158q-4 -21 -15 -35l-42 -12l-157 -154q44 -46 77 -85zM21 679q-2 4 -2 10q0 8 4 15t8 10l4 3q69 6 134 13v-683l66 -13q-4 -22 -15 -36q-51 3 -88 3l-107 -3 q-2 4 -2 10q0 8 4.5 14.5t8.5 9.5l4 2l53 13v623z"/>
<glyph glyph-name="l" horiz-adv-x="263" unicode="l" d="M21 679q-2 4 -2 10q0 8 4 15t8 10l4 3q69 6 134 13v-683l71 -13q-4 -22 -15 -36q-56 3 -93 3l-107 -3q-2 4 -2 10q0 8 4.5 14.5t8.5 9.5l4 2l53 13v623z"/>
<glyph glyph-name="m" horiz-adv-x="844" unicode="m" d="M183 419q80 56 154 56q87 0 116 -59q86 59 162 59q78 0 106.5 -41t28.5 -115v-272l72 -13q-4 -22 -15 -36q-55 3 -92 3l-109 -3q-2 4 -2 10q0 8 4 14.5t8 9.5l5 2l53 13v252q0 57 -20.5 85t-81.5 28q-70 0 -108 -27q6 -30 6 -66v-272l72 -13q-4 -22 -15 -36q-55 3 -92 3 l-109 -3q-2 4 -2 10q0 8 4 14.5t8 9.5l5 2l53 13v252q0 58 -19.5 85.5t-80.5 27.5q-64 0 -108 -31v-334l71 -13q-4 -22 -15 -36q-56 3 -93 3l-107 -3q-2 4 -2 10q0 8 4 14.5t8 9.5l5 2l53 13v360l-81 11q-2 4 -2 10q0 8 4 15t8 11l4 3q74 6 139 13z"/>
<glyph glyph-name="n" horiz-adv-x="568" unicode="n" d="M29 418q-2 4 -2 10q0 8 4 15t8 11l4 3q74 6 139 13l1 -51q80 56 156 56q78 0 106.5 -41t28.5 -115v-272l72 -13q-4 -22 -15 -36q-55 3 -92 3l-110 -3q-1 4 -1 10q0 8 4 14.5t8 9.5l5 2l53 13v252q0 57 -20.5 85t-81.5 28q-66 0 -110 -31v-334l71 -13q-4 -22 -15 -36 q-56 3 -93 3l-107 -3q-2 4 -2 10q0 8 4 14.5t8 9.5l5 2l53 13v360z"/>
<glyph glyph-name="o" horiz-adv-x="499" unicode="o" d="M121 243q0 -91 33 -145.5t101 -54.5q61 0 92.5 40t31.5 138q0 91 -32.5 146t-100.5 55q-61 0 -93 -40.5t-32 -138.5zM243 -10q-88 0 -146 55t-58 170q0 126 65 193t154 67q88 0 145.5 -55t57.5 -170q0 -127 -64.5 -193.5t-153.5 -66.5z"/>
<glyph glyph-name="p" horiz-adv-x="526" unicode="p" d="M177 381v-316q46 -18 94 -18q67 0 101.5 41.5t34.5 140.5q0 85 -31 134t-93 49q-59 0 -106 -31zM101 -193v600l-81 11q-2 4 -2 10q0 8 4 15t8 11l4 3q74 6 139 13l1 -51q84 56 146 56q72 0 120 -51.5t48 -166.5q0 -127 -69 -195t-163 -68q-32 0 -79 5v-192l71 -13 q-4 -22 -15 -36q-56 3 -93 3l-107 -3q-2 4 -2 10q0 8 4.5 14.5t8.5 9.5l4 2z"/>
<glyph glyph-name="q" horiz-adv-x="504" unicode="q" d="M256 418q-67 0 -101.5 -43t-34.5 -142q0 -82 31.5 -131t92.5 -49q62 0 106 31v311q-32 23 -94 23zM350 -192v236q-81 -54 -140 -54q-72 0 -121.5 51.5t-49.5 163.5q0 127 69 196.5t163 69.5q86 0 155 -24v-639l71 -13q-4 -22 -15 -36q-56 3 -93 3l-107 -3q-2 4 -2 10 q0 8 4 14.5t8 8.5l5 3z"/>
<glyph glyph-name="r" horiz-adv-x="373" unicode="r" d="M182 470v-92q21 27 36.5 43t43.5 32.5t58 16.5q27 0 43 -6q3 -9 3 -20q0 -28 -13 -52q-22 4 -45 4q-43 0 -70 -10.5t-52 -40.5v-297l91 -13q-4 -23 -15 -37q-76 3 -113 3l-107 -3q-2 4 -2 10q0 8 4 14.5t8 9.5l5 2l53 13v360l-81 11q-2 4 -2 10q0 8 4 15t8 11l4 3 q74 6 139 13z"/>
<glyph glyph-name="s" horiz-adv-x="415" unicode="s" d="M49 16q-6 33 -6 88q0 25 1 35q8 11 24 11q9 0 18 -6q11 -65 29 -96q31 -11 79 -11q49 0 71 24.5t22 55.5q0 18 -7.5 32t-25 26t-30 18t-39.5 17q-37 15 -54 23.5t-39.5 24.5t-31.5 36.5t-9 48.5q0 60 47.5 96t124.5 36q65 0 124 -24q5 -40 5 -79q0 -24 -1 -34 q-8 -11 -23 -11q-10 0 -19 6q-11 63 -26 88q-25 9 -68 9q-42 0 -65.5 -19t-23.5 -50q0 -14 6 -25t21 -21t26 -15.5t36 -15.5t36 -15q60 -27 87.5 -55t27.5 -74q0 -61 -48.5 -105.5t-132.5 -44.5q-80 0 -136 26z"/>
<glyph glyph-name="t" horiz-adv-x="326" unicode="t" d="M165 464l147 3q0 -33 -24 -55h-123v-275q0 -52 11 -71t53 -19q47 0 79 8l7 -34q-63 -28 -136 -28q-57 0 -73.5 26.5t-16.5 89.5v303h-70l-4 20l65 35l44 104l41 6v-113z"/>
<glyph glyph-name="u" horiz-adv-x="560" unicode="u" d="M170 470v-304q0 -57 20 -85t80 -28q65 0 107 31v323l-82 9q-2 6 -2 12q0 8 4 15t8 11l4 3q77 6 144 13v-415l81 -9q1 -4 1 -11q0 -8 -3.5 -15t-7.5 -10l-4 -2q-69 -6 -134 -13l-6 51q-78 -56 -147 -56q-139 0 -139 156v264l-72 9q-2 4 -2 10q0 8 4 15t8 10l4 3 q76 7 134 13z"/>
<glyph glyph-name="v" horiz-adv-x="493" unicode="v" d="M277 0h-51l-176 416l-53 12q-2 4 -2 10q0 8 4.5 14t8.5 8l4 3h197q-4 -21 -15 -35q-37 -7 -60 -12l127 -314l124 314l-68 12q-2 4 -2 10q0 8 4.5 14t8.5 8l4 3h166q-4 -21 -15 -35q-21 -7 -37 -12z"/>
<glyph glyph-name="w" horiz-adv-x="754" unicode="w" d="M192 0l-137 416l-58 12q-2 4 -2 10q0 8 4.5 14t8.5 8l4 3h210q-4 -21 -15 -35q-46 -8 -70 -12l102 -324l140 371h33l136 -367l100 320l-75 12q-2 4 -2 10q0 8 4.5 14t8.5 8l4 3h178q-4 -21 -15 -35l-48 -12l-135 -416h-55l-131 339l-133 -339h-57z"/>
<glyph glyph-name="x" horiz-adv-x="503" unicode="x" d="M88 47l125 183l-129 186l-65 12q-2 4 -2 10q0 8 4.5 14t8.5 8l4 3h185q-3 -21 -14 -35l-36 -12l85 -129l86 129l-55 12q-2 4 -2 10q0 8 4.5 14t8.5 8l4 3h178q-4 -21 -15 -35q-40 -8 -64 -12l-114 -173l135 -196l66 -13q-4 -22 -15 -36q-58 3 -95 3l-85 -3q-2 4 -2 10 q0 8 4.5 14.5t8.5 9.5l4 2l32 13l-91 139l-92 -139l61 -13q-4 -22 -15 -36q-59 3 -96 3l-87 -3q-2 4 -2 10q0 8 4 14.5t8 9.5l5 2z"/>
<glyph glyph-name="y" horiz-adv-x="506" unicode="y" d="M231 -10l6 18l-167 408l-58 12q-2 4 -2 10q0 8 4 14t8 8l5 3h209q-4 -21 -15 -35q-41 -7 -66 -12l117 -311l113 311l-67 12q-2 4 -2 10q0 8 4 14t8 8l5 3h177q-4 -21 -15 -35q-23 -5 -48 -12l-169 -436q-35 -91 -70 -149.5t-57 -70.5q-30 0 -47 19t-23 44q105 36 150 167 z"/>
<glyph glyph-name="z" horiz-adv-x="444" unicode="z" d="M384 0h-345v42l272 377l-186 -5q-12 -18 -37 -83q-7 -3 -15 -3q-15 0 -24 10q7 79 22 125h332v-42l-271 -377l198 4q23 37 38 83q8 4 17 4q12 0 21 -9q-6 -68 -22 -126z"/>
<glyph glyph-name="braceleft" horiz-adv-x="317" unicode="{" d="M33 301l36 6q71 11 71 100q0 24 -15.5 91.5t-15.5 113.5q0 64 31 91t98 27q26 0 56 -3v-29q-69 0 -92 -17.5t-23 -77.5q0 -41 11 -110t11 -93q0 -92 -81 -116q81 -24 81 -116q0 -24 -11 -93t-11 -110q0 -60 23 -77.5t92 -17.5v-29q-30 -3 -56 -3q-67 0 -98 27t-31 91 q0 46 15.5 113.5t15.5 91.5q0 89 -71 100l-36 6v34z"/>
<glyph glyph-name="bar" horiz-adv-x="255" unicode="|" d="M100 -158v883h55v-883h-55z"/>
<glyph glyph-name="braceright" horiz-adv-x="317" unicode="}" d="M248 307l36 -6v-34l-36 -6q-71 -11 -71 -100q0 -24 15.5 -91.5t15.5 -113.5q0 -64 -31 -91t-98 -27q-26 0 -56 3v29q69 0 92 17.5t23 77.5q0 41 -11 110t-11 93q0 92 81 116q-81 24 -81 116q0 24 11 93t11 110q0 60 -23 77.5t-92 17.5v29q30 3 56 3q67 0 98 -27t31 -91 q0 -46 -15.5 -113.5t-15.5 -91.5q0 -89 71 -100z"/>
<glyph glyph-name="asciitilde" horiz-adv-x="574" unicode="~" d="M214 360q33 0 79 -29q50 -32 82 -32q23 0 42.5 7t29 14.5t27.5 23.5l20 -17q-16 -34 -51.5 -62.5t-81.5 -28.5q-12 0 -22 1.5t-22 7.5t-16.5 8t-19.5 11.5t-16 10.5q-35 22 -66 22q-51 0 -98 -45l-21 18q54 90 134 90z"/>
<glyph glyph-name="uni00A0" horiz-adv-x="210" unicode=" "/>
<glyph glyph-name="exclamdown" horiz-adv-x="226" unicode="¡" d="M56 417q0 25 16 41.5t41 16.5q24 0 40.5 -16t16.5 -39q0 -27 -15.5 -44.5t-40.5 -17.5t-41.5 16.5t-16.5 42.5zM70 -192v34q0 31 7 134.5t13 191.5l7 87h32q28 -343 28 -413v-34q-16 -13 -44 -13q-27 0 -43 13z"/>
<glyph glyph-name="cent" horiz-adv-x="452" unicode="¢" d="M143 285q0 -178 155 -178q48 0 93 25l12 -33l-13 -9q-14 -8 -26.5 -14.5t-34.5 -15t-44 -11.5v-84q-23 -19 -58 -19v102q-70 8 -116.5 57t-46.5 148q0 85 45.5 144.5t117.5 80.5v90q23 19 58 19v-99h10q80 0 108 -32q3 -9 3 -18q0 -40 -39 -63q-40 57 -99 57 q-125 0 -125 -147z"/>
<glyph glyph-name="sterling" horiz-adv-x="455" unicode="£" d="M406 -2q-131 3 -244 3l-116 -3q-10 7 -10 20l4 15q77 54 77 173q0 18 -3 35h-68q-3 12 -4 19l64 29q-4 20 -4 43q0 79 57 130.5t151 51.5q46 0 72 -11q3 -7 3 -16q0 -33 -25 -56q-40 27 -95 27q-47 0 -69 -17t-22 -68q0 -37 9 -80l147 3v-6q0 -11 -5 -23t-11 -19l-5 -7 h-119q1 -6 1 -23q0 -35 -10.5 -66.5t-21.5 -47t-25 -32t-15 -17.5l238 4q15 44 19 79q7 4 18 4q12 0 20 -6q0 -76 -8 -138z"/>
<glyph glyph-name="currency" horiz-adv-x="582" unicode="¤" d="M149 288q0 -64 39.5 -107t102.5 -43q64 0 103.5 43t39.5 107q0 63 -39.5 105.5t-103.5 42.5q-63 0 -102.5 -42.5t-39.5 -105.5zM93 288q0 72 39 125l-62 63l38 38l61 -62q52 41 122 41q68 0 122 -39l60 60l39 -39l-60 -60q41 -55 41 -127q0 -73 -41 -128l60 -60l-38 -38 l-60 59q-53 -40 -123 -40q-71 0 -123 41l-60 -60l-38 38l61 61q-38 53 -38 127z"/>
<glyph glyph-name="yen" horiz-adv-x="569" unicode="¥" d="M257 504q-2 -24 -15 -39q-30 -7 -56 -12l113 -180l111 180l-70 12q-1 4 -1 10q0 8 4 15t8 10l4 4q37 -1 79 -1l97 1q-2 -24 -14 -39q-27 -7 -50 -12l-90 -144h100q0 -18 -19 -37h-105l-29 -47v-16h153q0 -18 -19 -37h-134v-122l82 -13q-1 -20 -15 -39q-53 3 -105 3 l-118 -3q-1 4 -1 10q0 8 4.5 15t8.5 11l4 3l64 13v122h-159q0 18 19 37h140v15l-31 48h-128q0 18 19 37h85l-93 144l-57 12q-1 4 -1 10q0 8 4 15t8 10l4 4q56 -1 99 -1z"/>
<glyph glyph-name="brokenbar" horiz-adv-x="253" unicode="¦" d="M100 223h53v-381h-53v381zM153 342h-53v383h53v-383z"/>
<glyph glyph-name="section" horiz-adv-x="534" unicode="§" d="M251 323q-53 22 -76 34q-29 -41 -29 -96q0 -39 27 -68.5t100 -58.5q40 -16 75 -34q30 39 30 96q0 39 -26.5 68t-100.5 59zM373 -61q0 44 -35 70t-119 62q-81 35 -117.5 67t-36.5 86q0 83 82 149q-75 47 -75 121q0 75 59.5 125.5t156.5 50.5q76 0 154 -25q7 -59 7 -106 q0 -29 -3 -61q-8 -6 -22 -6l-21 5q-15 102 -31 127q-38 19 -89 19q-55 0 -93.5 -27.5t-38.5 -77.5q0 -44 35 -70t119 -62q81 -35 117.5 -67t36.5 -86q0 -86 -83 -149q76 -47 76 -121q0 -75 -60.5 -125.5t-159.5 -50.5q-77 0 -153 30q-7 59 -7 106q0 29 3 61q8 7 21 7 q12 0 22 -6q14 -99 31 -130q38 -21 88 -21q59 0 97.5 27.5t38.5 77.5z"/>
<glyph glyph-name="dieresis" horiz-adv-x="404" unicode="¨" d="M230 637q0 21 14 35.5t35 14.5t35.5 -14.5t14.5 -35.5t-14.5 -35t-35.5 -14t-35 14t-14 35zM75 637q0 21 14 35.5t35 14.5t35.5 -14.5t14.5 -35.5t-14.5 -35t-35.5 -14t-35 14t-14 35z"/>
<glyph glyph-name="copyright" horiz-adv-x="817" unicode="©" d="M530 523q1 -17 1 -58q0 -34 -4 -61q-11 -6 -21 -6q-6 0 -11 1t-7 3l-2 1q-4 45 -14 78q-33 11 -65 11q-118 0 -118 -143q0 -88 34.5 -127t83.5 -39q60 0 120 31l17 -34q-67 -55 -146 -55q-76 0 -128.5 51t-52.5 147q0 57 19 101.5t49.5 69.5t64.5 37.5t69 12.5 q63 0 111 -21zM120 332q0 -125 79 -208.5t209 -83.5q131 0 210 83.5t79 208.5t-79 209t-210 84q-130 0 -209 -84t-79 -209zM67 332q0 145 94.5 243.5t246.5 98.5t247 -98.5t95 -243.5t-95 -243.5t-247 -98.5q-151 0 -246 98.5t-95 243.5z"/>
<glyph glyph-name="ordfeminine" horiz-adv-x="381" unicode="ª" d="M108 421q0 -46 57 -46q29 0 61 20v98l-22 -4q-96 -17 -96 -68zM192 667q56 0 73.5 -27.5t17.5 -73.5v-151q0 -32 7 -43t28 -11h10l3 -20q-27 -13 -55 -13q-37 0 -46 39q-54 -39 -94 -39q-42 0 -65.5 22.5t-23.5 58.5q0 85 137 108l42 7v18q0 42 -10.5 59.5t-47.5 17.5 q-38 0 -92 -27l-9 30q56 45 125 45z"/>
<glyph glyph-name="guillemotleft" horiz-adv-x="552" unicode="«" d="M280 224v54q47 34 98 74t78 62l27 23l21 -27q-62 -88 -143 -159q36 -32 72 -71.5t53 -63.5l18 -24l-21 -27q-97 82 -203 159zM48 224v54q47 34 98 74t78 62l27 23l21 -27q-62 -88 -143 -159q36 -32 71.5 -71.5t53.5 -63.5l18 -24l-21 -27q-97 82 -203 159z"/>
<glyph glyph-name="logicalnot" horiz-adv-x="575" unicode="¬" d="M439 225h-359v56h415v-240h-56v184z"/>
<glyph glyph-name="registered" horiz-adv-x="465" unicode="®" d="M215 588v-139l22 -2q0 -8 -6 -17q-17 1 -33 1l-38 -1q-1 2 -1 5t1.5 6t3.5 4l1 1l17 3v138l-24 3q-1 2 -1 5q0 4 2 7.5t4 5.5l2 1h67q66 0 66 -45q0 -35 -42 -53q8 -8 14 -15l24 -29q16 -21 32 -21v-13q-10 -2 -17 -2q-25 0 -45 26l-41 52v11q17 0 30 11t13 28 q0 29 -40 29h-11zM87 515q0 -63 38.5 -105t107.5 -42t107 41.5t38 105.5t-38 106t-107 42t-107.5 -42t-38.5 -106zM52 515q0 77 49.5 129t131.5 52t131 -52t49 -129t-49 -129t-131 -52t-131.5 52t-49.5 129z"/>
<glyph glyph-name="macron" horiz-adv-x="387" unicode="¯" d="M85 663h225q2 -12 2 -17q0 -10 -2.5 -20t-5.5 -14l-2 -5h-225q-2 12 -2 16q0 10 2.5 20t4.5 15z"/>
<glyph glyph-name="degree" horiz-adv-x="279" unicode="°" d="M79 587q0 -80 63 -80q59 0 59 69q0 81 -63 81q-59 0 -59 -70zM134 462q-54 0 -84 29.5t-30 81.5q0 61 38.5 95t86.5 34q55 0 84.5 -29.5t29.5 -81.5q0 -61 -38.5 -95t-86.5 -34z"/>
<glyph glyph-name="plusminus" horiz-adv-x="538" unicode="±" d="M85 56h368v-56h-368v56zM85 317h156v148h56v-148h156v-56h-156v-150h-56v150h-156v56z"/>
<glyph glyph-name="twosuperior" horiz-adv-x="367" unicode="²" d="M300 467h-273v34q54 42 86 69t64.5 67.5t32.5 69.5q0 54 -59 54q-43 0 -91 -27l-10 26q68 50 124 50q51 0 75.5 -23t24.5 -61q0 -30 -15 -60t-45 -59t-52.5 -48t-58.5 -45l158 4q7 16 12 63q6 5 16 5t16 -5q0 -73 -5 -114z"/>
<glyph glyph-name="threesuperior" horiz-adv-x="318" unicode="³" d="M69 628v30q70 4 94.5 21.5t24.5 45.5q0 40 -49 40q-40 0 -88 -23l-12 27q55 39 117 39q95 0 95 -67q0 -56 -65 -82q36 -6 59 -26.5t23 -54.5q0 -52 -47 -86t-107 -34q-57 0 -87 20q-1 3 -1 10q0 32 23 43q38 -31 81 -31q75 0 75 63q0 25 -19 45t-54 20h-63z"/>
<glyph glyph-name="acute" horiz-adv-x="295" unicode="´" d="M157 726q49 0 63 -43q0 -38 -41 -81t-88 -68l-16 21q61 70 82 171z"/>
<glyph glyph-name="mu" horiz-adv-x="545" unicode="µ" d="M212 -10q-51 0 -84 37v-17q0 -18 9.5 -95.5t10.5 -154.5h-77v705h76v-299q0 -57 20.5 -84.5t81.5 -27.5q64 0 105 30v381h76v-341q0 -40 12 -58t46 -18q18 0 45 8l4 -31q-51 -30 -104 -30q-65 0 -75 51q-78 -56 -146 -56z"/>
<glyph glyph-name="paragraph" horiz-adv-x="544" unicode="¶" d="M353 660h145q-4 -28 -15 -42q-41 -4 -70 -12v-457q0 -136 -27 -198.5t-123 -115.5l-17 28q31 25 51 48.5t31.5 45t17 57t6.5 65.5t1 90v491zM292 660v-400h-11q-96 0 -166 63t-70 155q0 88 60.5 135t154.5 47h32z"/>
<glyph glyph-name="periodcentered" horiz-adv-x="208" unicode="·" d="M47 264q0 26 16.5 42.5t41.5 16.5t40.5 -17.5t15.5 -44.5q0 -23 -16.5 -39t-40.5 -16q-25 0 -41 16.5t-16 41.5z"/>
<glyph glyph-name="cedilla" horiz-adv-x="325" unicode="¸" d="M187 -146q0 38 -47 38q-23 0 -46 -9l-15 10l38 129l39 -6l-29 -96q24 12 50 12q33 0 53 -18.5t20 -47.5q0 -30 -17.5 -52t-45.5 -33t-55.5 -16t-53.5 -5l-3 28q112 6 112 66z"/>
<glyph glyph-name="onesuperior" horiz-adv-x="302" unicode="¹" d="M111 757h-73q-1 2 -1 7q0 7 3.5 14t7.5 10l4 4q75 7 119 12v-295l68 -7q-3 -23 -13 -36q-57 2 -82 2l-100 -2q-1 3 -1 8q0 7 3.5 14t7.5 10l3 3l54 8v248z"/>
<glyph glyph-name="ordmasculine" horiz-adv-x="390" unicode="º" d="M102 506q0 -135 89 -135q41 0 61.5 27t20.5 92q0 134 -88 134q-83 0 -83 -118zM183 328q-63 0 -103.5 38.5t-40.5 119.5q0 88 45.5 134.5t108.5 46.5t103.5 -38t40.5 -118q0 -90 -45.5 -136.5t-108.5 -46.5z"/>
<glyph glyph-name="guillemotright" horiz-adv-x="552" unicode="»" d="M272 278v-54q-47 -34 -98 -74t-78 -62l-27 -23l-21 27q62 88 143 159q-36 32 -72 71.5t-53 63.5l-18 24l21 27q97 -82 203 -159zM504 278v-54q-47 -34 -98 -74t-78 -62l-27 -23l-21 27q62 88 143 159q-36 32 -72 71.5t-53 63.5l-18 24l21 27q97 -82 203 -159z"/>
<glyph glyph-name="onequarter" horiz-adv-x="761" unicode="¼" d="M473 138l120 2v153zM643 0h-50v101h-164v36l167 211h47v-207l66 1l-3 -41h-63v-101zM116 617h-73q-1 2 -1 7q0 7 4 14t8 10l3 4q75 7 119 12v-298l68 -7q-3 -23 -13 -36q-58 2 -83 2l-99 -2q-1 3 -1 8q0 7 3.5 14t6.5 10l4 3l54 8v251zM177 -17l331 692l46 -22l-333 -692 z"/>
<glyph glyph-name="onehalf" horiz-adv-x="787" unicode="½" d="M177 -17l331 692l46 -22l-333 -692zM116 617h-73q-1 2 -1 7q0 7 4 14t8 10l3 4q75 7 119 12v-298l68 -7q-3 -23 -13 -36q-58 2 -83 2l-99 -2q-1 3 -1 8q0 7 3.5 14t6.5 10l4 3l54 8v251zM722 0h-273v34q54 42 86 69t64.5 67.5t32.5 69.5q0 55 -59 55q-41 0 -91 -28 l-10 26q68 50 124 50q51 0 75.5 -23t24.5 -61q0 -24 -12.5 -50t-28 -45.5t-45 -45t-45.5 -38t-47 -35.5l165 4q6 15 12 65q6 5 16 5q8 0 16 -5q0 -73 -5 -114z"/>
<glyph glyph-name="threequarters" horiz-adv-x="788" unicode="¾" d="M500 138l120 2v153zM670 0h-50v101h-164v36l167 211h47v-207l66 1l-3 -41h-63v-101zM94 487v30q70 4 95 21.5t25 46.5q0 41 -52 41q-38 0 -86 -24l-12 26q65 39 116 39q48 0 72 -18.5t24 -48.5q0 -56 -65 -82q36 -6 59 -26.5t23 -54.5q0 -52 -46.5 -86t-105.5 -34t-89 20 q-1 3 -1 10q0 31 23 42q38 -31 81 -31q76 0 76 64q0 25 -19 45t-55 20h-63zM206 -17l331 692l46 -22l-333 -692z"/>
<glyph glyph-name="questiondown" horiz-adv-x="341" unicode="¿" d="M273 417q0 -25 -16.5 -42t-40.5 -17t-40.5 17t-16.5 42t16.5 41.5t40.5 16.5t40.5 -16.5t16.5 -41.5zM216 99l-69 -68q-60 -61 -60 -117q0 -39 29.5 -58t74.5 -19q37 0 72 11q12 28 24 101q6 4 16 4q9 0 18 -4q9 -51 9 -103q0 -20 -1 -27q-57 -24 -141 -24 q-79 0 -129.5 35t-50.5 98q0 43 21.5 76.5t62.5 72.5q13 12 30.5 28t27.5 25.5t21 20t16.5 19t7.5 16.5l12 67l28 3q15 -60 15 -92q0 -31 -34 -65z"/>
<glyph glyph-name="Agrave" horiz-adv-x="563" unicode="À" d="M228 861q32 -47 60 -73t76 -48l-7 -22q-151 16 -176 84q0 19 13 35t34 24zM273 569l-101 -307h201zM441 53l-52 159h-233l-52 -159l99 -14q-1 -20 -15 -41q-62 3 -114 3l-112 -3q-1 3 -1 9q0 9 5 17t10 12l6 3l55 14l211 607h68l207 -607l74 -14q-1 -20 -15 -41 q-55 3 -104 3l-126 -3q-1 3 -1 9q0 9 5.5 17t10.5 12l5 3z"/>
<glyph glyph-name="Aacute" horiz-adv-x="563" unicode="Á" d="M328 861q43 -17 43 -56q-26 -72 -172 -87l-7 22q48 22 76 48t60 73zM273 569l-101 -307h201zM441 53l-52 159h-233l-52 -159l99 -14q-1 -20 -15 -41q-62 3 -114 3l-112 -3q-1 3 -1 9q0 9 5 17t10 12l6 3l55 14l211 607h68l207 -607l74 -14q-1 -20 -15 -41q-55 3 -104 3 l-126 -3q-1 3 -1 9q0 9 5.5 17t10.5 12l5 3z"/>
<glyph glyph-name="Acircumflex" horiz-adv-x="563" unicode="Â" d="M173 714l-20 17l105 109h55q29 -59 102 -102l-23 -20q-32 9 -62.5 25.5t-45.5 28.5l-14 11zM273 569l-101 -307h201zM441 53l-52 159h-233l-52 -159l99 -14q-1 -20 -15 -41q-62 3 -114 3l-112 -3q-1 3 -1 9q0 9 5 17t10 12l6 3l55 14l211 607h68l207 -607l74 -14 q-1 -20 -15 -41q-55 3 -104 3l-126 -3q-1 3 -1 9q0 9 5.5 17t10.5 12l5 3z"/>
<glyph glyph-name="Atilde" horiz-adv-x="563" unicode="Ã" d="M241 838q8 0 15 -1.5t14 -6t11 -7t12 -9t10 -8.5q25 -19 41 -19q35 0 69 40l20 -17q-14 -33 -41 -59.5t-62 -26.5q-6 0 -12 1.5t-10.5 3t-10 5t-8 5.5t-9 7t-8.5 6q-2 2 -10 8t-11.5 8t-10 4.5t-12.5 2.5q-34 0 -68 -40l-21 18q39 85 102 85zM273 569l-101 -307h201z M441 53l-52 159h-233l-52 -159l99 -14q-1 -20 -15 -41q-62 3 -114 3l-112 -3q-1 3 -1 9q0 9 5 17t10 12l6 3l55 14l211 607h68l207 -607l74 -14q-1 -20 -15 -41q-55 3 -104 3l-126 -3q-1 3 -1 9q0 9 5.5 17t10.5 12l5 3z"/>
<glyph glyph-name="Adieresis" horiz-adv-x="563" unicode="Ä" d="M318 779q0 21 14 35.5t35 14.5t35.5 -14.5t14.5 -35.5t-14.5 -35t-35.5 -14t-35 14t-14 35zM146 779q0 21 14 35.5t35 14.5t35.5 -14.5t14.5 -35.5t-14.5 -35t-35.5 -14t-35 14t-14 35zM273 569l-101 -307h201zM441 53l-52 159h-233l-52 -159l99 -14q-1 -20 -15 -41 q-62 3 -114 3l-112 -3q-1 3 -1 9q0 9 5 17t10 12l6 3l55 14l211 607h68l207 -607l74 -14q-1 -20 -15 -41q-55 3 -104 3l-126 -3q-1 3 -1 9q0 9 5.5 17t10.5 12l5 3z"/>
<glyph glyph-name="Aring" horiz-adv-x="563" unicode="Å" d="M319 779q0 40 -37 40t-37 -40t37 -40t37 40zM358 779q0 -31 -20.5 -53t-55.5 -22t-55.5 22t-20.5 53q0 30 21.5 52.5t54.5 22.5q35 0 55.5 -22t20.5 -53zM273 569l-101 -307h201zM441 53l-52 159h-233l-52 -159l99 -14q-1 -20 -15 -41q-62 3 -114 3l-112 -3q-1 3 -1 9 q0 9 5 17t10 12l6 3l55 14l211 607h68l207 -607l74 -14q-1 -20 -15 -41q-55 3 -104 3l-126 -3q-1 3 -1 9q0 9 5.5 17t10.5 12l5 3z"/>
<glyph glyph-name="AE" horiz-adv-x="762" unicode="Æ" d="M270 569l-100 -307h199zM693 660q8 -63 8 -151q-8 -6 -20 -6l-20 5q-8 69 -23 92l-303 3l76 -238l230 8q0 -16 -6 -31t-12 -22l-6 -7l-191 1l81 -259l144 1q15 26 23 94q9 5 20 5q12 0 20 -6q0 -89 -8 -151q-101 3 -214 3l-153 -3q-2 4 -2 10q0 8 4.5 16t8.5 12l4 4 l78 13l-47 159h-231l-53 -159l99 -14q-1 -20 -15 -41q-55 3 -116 3l-107 -3q-2 2 -2 9q0 8 5 16t11 12l5 4l55 14l211 607h446z"/>
<glyph glyph-name="Ccedilla" horiz-adv-x="614" unicode="Ç" d="M387 -146q0 38 -47 38q-24 0 -46 -9l-15 10l29 99q-127 14 -195 102.5t-68 210.5q0 96 30 169t80 114.5t107.5 61.5t119.5 20q108 0 178 -31q7 -53 7 -107q0 -32 -3 -65q-10 -7 -22 -7q-6 0 -12 1.5t-9 2.5l-3 2q-8 75 -24 116q-55 29 -128 29q-103 0 -167.5 -61 t-64.5 -205q0 -134 62 -212.5t181 -78.5q87 0 175 39l16 -39q-94 -64 -216 -64h-4l-21 -70q24 12 50 12q33 0 53 -18.5t20 -47.5q0 -30 -17.5 -52t-45.5 -33t-55.5 -16t-53.5 -5l-3 28q112 6 112 66z"/>
<glyph glyph-name="Egrave" horiz-adv-x="536" unicode="È" d="M235 861q32 -47 60 -73t76 -48l-7 -22q-151 16 -176 84q0 19 13 35t34 24zM188 1l-150 -3q-1 3 -1 9q0 9 5.5 17t10.5 12l5 3l74 14v554l-94 12q-1 3 -1 9q0 9 5.5 17t10.5 11l5 4q72 -1 130 -1l286 1q8 -60 8 -131v-19q-8 -6 -20 -6l-20 5q-8 71 -24 95l-207 2v-241 l211 8q0 -15 -6 -30t-12 -23l-6 -7l-187 1v-260l213 1q15 26 23 94q9 5 20 5q12 0 20 -6q0 -97 -8 -150q-164 3 -291 3z"/>
<glyph glyph-name="Eacute" horiz-adv-x="536" unicode="É" d="M344 861q43 -17 43 -56q-26 -72 -172 -87l-7 22q48 22 76 48t60 73zM188 1l-150 -3q-1 3 -1 9q0 9 5.5 17t10.5 12l5 3l74 14v554l-94 12q-1 3 -1 9q0 9 5.5 17t10.5 11l5 4q72 -1 130 -1l286 1q8 -60 8 -131v-19q-8 -6 -20 -6l-20 5q-8 71 -24 95l-207 2v-241l211 8 q0 -15 -6 -30t-12 -23l-6 -7l-187 1v-260l213 1q15 26 23 94q9 5 20 5q12 0 20 -6q0 -97 -8 -150q-164 3 -291 3z"/>
<glyph glyph-name="Ecircumflex" horiz-adv-x="536" unicode="Ê" d="M177 714l-20 17l105 109h55q29 -59 102 -102l-23 -20q-32 9 -62.5 25.5t-45.5 28.5l-14 11zM188 1l-150 -3q-1 3 -1 9q0 9 5.5 17t10.5 12l5 3l74 14v554l-94 12q-1 3 -1 9q0 9 5.5 17t10.5 11l5 4q72 -1 130 -1l286 1q8 -60 8 -131v-19q-8 -6 -20 -6l-20 5q-8 71 -24 95 l-207 2v-241l211 8q0 -15 -6 -30t-12 -23l-6 -7l-187 1v-260l213 1q15 26 23 94q9 5 20 5q12 0 20 -6q0 -97 -8 -150q-164 3 -291 3z"/>
<glyph glyph-name="Edieresis" horiz-adv-x="536" unicode="Ë" d="M319 779q0 21 14 35.5t35 14.5t35.5 -14.5t14.5 -35.5t-14.5 -35t-35.5 -14t-35 14t-14 35zM147 779q0 21 14 35.5t35 14.5t35.5 -14.5t14.5 -35.5t-14.5 -35t-35.5 -14t-35 14t-14 35zM188 1l-150 -3q-1 3 -1 9q0 9 5.5 17t10.5 12l5 3l74 14v554l-94 12q-1 3 -1 9 q0 9 5.5 17t10.5 11l5 4q72 -1 130 -1l286 1q8 -60 8 -131v-19q-8 -6 -20 -6l-20 5q-8 71 -24 95l-207 2v-241l211 8q0 -15 -6 -30t-12 -23l-6 -7l-187 1v-260l213 1q15 26 23 94q9 5 20 5q12 0 20 -6q0 -97 -8 -150q-164 3 -291 3z"/>
<glyph glyph-name="Igrave" horiz-adv-x="342" unicode="Ì" d="M127 861q32 -47 60 -73t76 -48l-7 -22q-151 16 -176 84q0 19 13 35t34 24zM173 659l132 2q-1 -20 -15 -41q-43 -6 -79 -13v-554l94 -14q-1 -20 -15 -41q-58 3 -119 3l-133 -3q-1 3 -1 9q0 9 5.5 17t10.5 12l5 3l74 14v554l-94 13q-1 3 -1 9q0 9 5.5 17t10.5 12l5 3 q65 -2 115 -2z"/>
<glyph glyph-name="Iacute" horiz-adv-x="342" unicode="Í" d="M225 861q43 -17 43 -56q-26 -72 -172 -87l-7 22q48 22 76 48t60 73zM173 659l132 2q-1 -20 -15 -41q-43 -6 -79 -13v-554l94 -14q-1 -20 -15 -41q-58 3 -119 3l-133 -3q-1 3 -1 9q0 9 5.5 17t10.5 12l5 3l74 14v554l-94 13q-1 3 -1 9q0 9 5.5 17t10.5 12l5 3 q65 -2 115 -2z"/>
<glyph glyph-name="Icircumflex" horiz-adv-x="342" unicode="Î" d="M64 714l-20 17l105 109h55q29 -59 102 -102l-23 -20q-32 9 -62.5 25.5t-44.5 28.5l-15 11zM173 659l132 2q-1 -20 -15 -41q-43 -6 -79 -13v-554l94 -14q-1 -20 -15 -41q-58 3 -119 3l-133 -3q-1 3 -1 9q0 9 5.5 17t10.5 12l5 3l74 14v554l-94 13q-1 3 -1 9q0 9 5.5 17 t10.5 12l5 3q65 -2 115 -2z"/>
<glyph glyph-name="Idieresis" horiz-adv-x="342" unicode="Ï" d="M209 779q0 21 14 35.5t35 14.5t35.5 -14.5t14.5 -35.5t-14.5 -35t-35.5 -14t-35 14t-14 35zM37 779q0 21 14 35.5t35 14.5t35.5 -14.5t14.5 -35.5t-14.5 -35t-35.5 -14t-35 14t-14 35zM173 659l132 2q-1 -20 -15 -41q-43 -6 -79 -13v-554l94 -14q-1 -20 -15 -41 q-58 3 -119 3l-133 -3q-1 3 -1 9q0 9 5.5 17t10.5 12l5 3l74 14v554l-94 13q-1 3 -1 9q0 9 5.5 17t10.5 12l5 3q65 -2 115 -2z"/>
<glyph glyph-name="Eth" horiz-adv-x="701" unicode="Ð" d="M310 611h-97v-251h142q2 -10 2 -15q0 -8 -2.5 -15.5t-4.5 -10.5l-3 -3h-134v-251q38 -7 110 -7q120 0 181.5 59t61.5 199q0 135 -64 215t-192 80zM58 660h276q82 0 145.5 -25t101 -68t56.5 -96.5t19 -113.5q0 -178 -98 -267.5t-254 -89.5q-26 0 -73 0.5t-63 0.5l-130 -3 q-1 3 -1 9q0 9 5.5 17t10.5 12l5 3l76 14v263h-97q-2 10 -2 15q0 8 2.5 15.5t4.5 10.5l3 3h89v247l-96 12q-1 3 -1 9q0 9 5.5 17t10.5 11z"/>
<glyph glyph-name="Ntilde" horiz-adv-x="749" unicode="Ñ" d="M329 838q8 0 15 -1.5t14 -6t11 -7t12 -9t10 -8.5q25 -19 41 -19q35 0 69 40l20 -17q-14 -33 -41 -59.5t-62 -26.5q-6 0 -12 1.5t-10.5 3t-10 5t-8 5.5t-9 7t-8.5 6q-2 2 -10 8t-11.5 8t-10 4.5t-12.5 2.5q-34 0 -68 -40l-21 18q39 85 102 85zM604 659l124 2 q-1 -20 -15 -41q-43 -6 -79 -13l-3 -607h-64l-378 537l5 -484l94 -14q-1 -20 -15 -41q-54 3 -112 3l-127 -3q-1 3 -1 9q0 9 5.5 17t10.5 12l5 3l74 14l3 554l-96 12q-1 3 -1 9q0 9 5 17t11 11l5 4h143l375 -541l-4 488l-92 13q-1 3 -1 9q0 9 5 17t11 12l5 3q57 -2 107 -2z "/>
<glyph glyph-name="Ograve" d="M309 861q32 -47 60 -73t76 -48l-7 -22q-151 16 -176 84q0 19 13 35t34 24zM137 346q0 -134 56 -216t162 -82q206 0 206 266q0 134 -56 216t-162 82q-206 0 -206 -266zM339 -10q-95 0 -162.5 45.5t-98 115t-30.5 154.5q0 92 26.5 163.5t71 114.5t99 65t114.5 22 q95 0 162.5 -45.5t98 -115t30.5 -154.5q0 -92 -26.5 -163.5t-71 -114.5t-99 -65t-114.5 -22z" unicode="Ò"/>
<glyph glyph-name="Oacute" d="M396 861q43 -17 43 -56q-26 -72 -172 -87l-7 22q48 22 76 48t60 73zM137 346q0 -134 56 -216t162 -82q206 0 206 266q0 134 -56 216t-162 82q-206 0 -206 -266zM339 -10q-95 0 -162.5 45.5t-98 115t-30.5 154.5q0 92 26.5 163.5t71 114.5t99 65t114.5 22 q95 0 162.5 -45.5t98 -115t30.5 -154.5q0 -92 -26.5 -163.5t-71 -114.5t-99 -65t-114.5 -22z" unicode="Ó"/>
<glyph glyph-name="Ocircumflex" d="M243 714l-20 17l105 109h55q29 -59 102 -102l-23 -20q-32 9 -62.5 25.5t-45.5 28.5l-14 11zM137 346q0 -134 56 -216t162 -82q206 0 206 266q0 134 -56 216t-162 82q-206 0 -206 -266zM339 -10q-95 0 -162.5 45.5t-98 115t-30.5 154.5q0 92 26.5 163.5t71 114.5t99 65 t114.5 22q95 0 162.5 -45.5t98 -115t30.5 -154.5q0 -92 -26.5 -163.5t-71 -114.5t-99 -65t-114.5 -22z" unicode="Ô"/>
<glyph glyph-name="Otilde" d="M311 838q8 0 15 -1.5t14 -6t11 -7t12 -9t10 -8.5q25 -19 41 -19q35 0 69 40l20 -17q-14 -33 -41 -59.5t-62 -26.5q-6 0 -12 1.5t-10.5 3t-10 5t-8 5.5t-9 7t-8.5 6q-2 2 -10 8t-11.5 8t-10 4.5t-12.5 2.5q-34 0 -68 -40l-21 18q39 85 102 85zM137 346q0 -134 56 -216 t162 -82q206 0 206 266q0 134 -56 216t-162 82q-206 0 -206 -266zM339 -10q-95 0 -162.5 45.5t-98 115t-30.5 154.5q0 92 26.5 163.5t71 114.5t99 65t114.5 22q95 0 162.5 -45.5t98 -115t30.5 -154.5q0 -92 -26.5 -163.5t-71 -114.5t-99 -65t-114.5 -22z" unicode="Õ"/>
<glyph glyph-name="Odieresis" d="M391 779q0 21 14 35.5t35 14.5t35.5 -14.5t14.5 -35.5t-14.5 -35t-35.5 -14t-35 14t-14 35zM219 779q0 21 14 35.5t35 14.5t35.5 -14.5t14.5 -35.5t-14.5 -35t-35.5 -14t-35 14t-14 35zM137 346q0 -134 56 -216t162 -82q206 0 206 266q0 134 -56 216t-162 82 q-206 0 -206 -266zM339 -10q-95 0 -162.5 45.5t-98 115t-30.5 154.5q0 92 26.5 163.5t71 114.5t99 65t114.5 22q95 0 162.5 -45.5t98 -115t30.5 -154.5q0 -92 -26.5 -163.5t-71 -114.5t-99 -65t-114.5 -22z" unicode="Ö"/>
<glyph glyph-name="multiply" horiz-adv-x="585" unicode="×" d="M119 465l173 -174l173 174l40 -40l-173 -173l173 -173l-39 -39l-173 173l-174 -173l-39 39l173 173l-173 174z"/>
<glyph glyph-name="Oslash" d="M561 314q0 122 -47 201l-296 -415q54 -52 137 -52q206 0 206 266zM137 346q0 -136 55 -215l298 418q-57 63 -147 63q-206 0 -206 -266zM339 -10q-98 0 -167 47l-55 -78l-32 23l57 79q-94 88 -94 244q0 92 26.5 163.5t71 114.5t99 65t114.5 22q105 0 177 -56l50 70l32 -23 l-52 -73q84 -88 84 -233q0 -92 -26.5 -163.5t-71 -114.5t-99 -65t-114.5 -22z" unicode="Ø"/>
<glyph glyph-name="Ugrave" horiz-adv-x="714" unicode="Ù" d="M322 861q32 -47 60 -73t76 -48l-7 -22q-151 16 -176 84q0 19 13 35t34 24zM586 659l125 2q-1 -20 -15 -41q-43 -6 -79 -13v-321q0 -141 -62.5 -218.5t-208.5 -77.5q-127 0 -182.5 64.5t-55.5 200.5v352l-94 13q-1 3 -1 9q0 9 5.5 17t10.5 12l5 3q65 -2 115 -2l132 2 q-1 -20 -15 -41q-43 -6 -79 -13v-335q0 -126 46 -175.5t136 -49.5q99 0 137.5 56.5t38.5 169.5v334l-94 13q-1 3 -1 9q0 9 5 17t11 12l5 3q65 -2 115 -2z"/>
<glyph glyph-name="Uacute" horiz-adv-x="714" unicode="Ú" d="M420 861q43 -17 43 -56q-26 -72 -172 -87l-7 22q48 22 76 48t60 73zM586 659l125 2q-1 -20 -15 -41q-43 -6 -79 -13v-321q0 -141 -62.5 -218.5t-208.5 -77.5q-127 0 -182.5 64.5t-55.5 200.5v352l-94 13q-1 3 -1 9q0 9 5.5 17t10.5 12l5 3q65 -2 115 -2l132 2 q-1 -20 -15 -41q-43 -6 -79 -13v-335q0 -126 46 -175.5t136 -49.5q99 0 137.5 56.5t38.5 169.5v334l-94 13q-1 3 -1 9q0 9 5 17t11 12l5 3q65 -2 115 -2z"/>
<glyph glyph-name="Ucircumflex" horiz-adv-x="714" unicode="Û" d="M258 714l-20 17l105 109h55q29 -59 102 -102l-23 -20q-32 9 -62.5 25.5t-44.5 28.5l-15 11zM586 659l125 2q-1 -20 -15 -41q-43 -6 -79 -13v-321q0 -141 -62.5 -218.5t-208.5 -77.5q-127 0 -182.5 64.5t-55.5 200.5v352l-94 13q-1 3 -1 9q0 9 5.5 17t10.5 12l5 3 q65 -2 115 -2l132 2q-1 -20 -15 -41q-43 -6 -79 -13v-335q0 -126 46 -175.5t136 -49.5q99 0 137.5 56.5t38.5 169.5v334l-94 13q-1 3 -1 9q0 9 5 17t11 12l5 3q65 -2 115 -2z"/>
<glyph glyph-name="Udieresis" horiz-adv-x="714" unicode="Ü" d="M407 779q0 21 14 35.5t35 14.5t35.5 -14.5t14.5 -35.5t-14.5 -35t-35.5 -14t-35 14t-14 35zM235 779q0 21 14 35.5t35 14.5t35.5 -14.5t14.5 -35.5t-14.5 -35t-35.5 -14t-35 14t-14 35zM586 659l125 2q-1 -20 -15 -41q-43 -6 -79 -13v-321q0 -141 -62.5 -218.5 t-208.5 -77.5q-127 0 -182.5 64.5t-55.5 200.5v352l-94 13q-1 3 -1 9q0 9 5.5 17t10.5 12l5 3q65 -2 115 -2l132 2q-1 -20 -15 -41q-43 -6 -79 -13v-335q0 -126 46 -175.5t136 -49.5q99 0 137.5 56.5t38.5 169.5v334l-94 13q-1 3 -1 9q0 9 5 17t11 12l5 3q65 -2 115 -2z"/>
<glyph glyph-name="Yacute" horiz-adv-x="596" unicode="Ý" d="M363 861q43 -17 43 -56q-26 -72 -172 -87l-7 22q48 22 76 48t60 73zM268 53v220l-187 334l-68 13q-1 3 -1 9q0 9 5 17t11 12l5 3q64 -2 112 -2l126 2q-1 -20 -15 -41q-48 -5 -89 -13l152 -279l141 279l-96 13q-1 3 -1 9q0 9 5.5 17t10.5 12l5 3q62 -2 115 -2l101 2 q-2 -20 -15 -41q-31 -6 -60 -13l-178 -334v-220l94 -14q-1 -20 -15 -41q-58 3 -119 3l-133 -3q-1 3 -1 9q0 9 5.5 17t10.5 12l5 3z"/>
<glyph glyph-name="Thorn" horiz-adv-x="551" unicode="Þ" d="M211 492v-297h43q173 0 173 156q0 62 -35.5 101.5t-110.5 39.5h-70zM172 659l133 2q-1 -20 -15 -41q-43 -6 -79 -13v-67h98q102 0 153 -43.5t51 -125.5q0 -108 -83 -166.5t-204 -58.5h-15v-93l94 -14q-1 -20 -15 -41q-59 3 -120 3l-132 -3q-1 3 -1 9q0 9 5.5 17t10.5 12 l5 3l74 14v554l-94 13q-1 3 -1 9q0 9 5.5 17t10.5 12l5 3q64 -2 114 -2z"/>
<glyph glyph-name="germandbls" horiz-adv-x="575" unicode="ß" d="M110 463v71q0 77 58 139t151 62q66 0 114 -31.5t48 -93.5q0 -37 -19.5 -65.5t-59.5 -60.5q-37 -28 -37 -53q0 -27 27 -50q9 -7 30 -25.5t29 -26t25 -23.5t24 -25t18 -24.5t16 -28t8.5 -28t3.5 -32.5q0 -77 -49 -127.5t-137 -50.5q-61 0 -103 14q-6 37 -6 101v24 q8 10 22 10q11 0 17 -5q11 -66 29 -95q16 -2 49 -2q54 0 76.5 31t22.5 75q0 48 -21.5 85t-86.5 90q-33 27 -48.5 46.5t-15.5 43.5q0 13 3.5 24.5t12 23t13 17.5t18.5 19t17 16q45 47 45 90q0 89 -99 89q-119 0 -119 -125v-562h-45l-99 -2q-2 6 -2 10q0 8 4 14.5t8 9.5l5 2 l53 13v365h-59l-4 19z"/>
<glyph glyph-name="agrave" horiz-adv-x="462" unicode="à" d="M222 726q21 -101 82 -171l-16 -21q-47 25 -88 68t-41 81q14 43 63 43zM195 53q58 0 105 28q-1 12 -1 41l1 108l-38 -9q-31 -7 -49.5 -12.5t-43.5 -17t-37 -29t-12 -40.5q0 -69 75 -69zM242 475q77 0 104.5 -37.5t27.5 -105.5l-1 -218q0 -50 10 -67.5t41 -17.5l14 1l4 -23 q-34 -17 -74 -17q-28 0 -43 14t-21 43q-73 -57 -140 -57q-57 0 -90 32t-33 83q0 123 192 155l67 11v28q0 65 -16.5 89.5t-72.5 24.5q-61 0 -129 -37l-13 35q33 26 82 45t91 19z"/>
<glyph glyph-name="aacute" horiz-adv-x="462" unicode="á" d="M241 726q49 0 63 -43q0 -38 -41 -81t-88 -68l-16 21q61 70 82 171zM195 53q58 0 105 28q-1 12 -1 41l1 108l-38 -9q-31 -7 -49.5 -12.5t-43.5 -17t-37 -29t-12 -40.5q0 -69 75 -69zM242 475q77 0 104.5 -37.5t27.5 -105.5l-1 -218q0 -50 10 -67.5t41 -17.5l14 1l4 -23 q-34 -17 -74 -17q-28 0 -43 14t-21 43q-73 -57 -140 -57q-57 0 -90 32t-33 83q0 123 192 155l67 11v28q0 65 -16.5 89.5t-72.5 24.5q-61 0 -129 -37l-13 35q33 26 82 45t91 19z"/>
<glyph glyph-name="acircumflex" horiz-adv-x="462" unicode="â" d="M120 539l-24 16l103 158l58 17l10 -7q15 -41 42.5 -87.5t54.5 -73.5l-23 -20q-29 13 -57.5 42t-43.5 52l-14 22zM195 53q58 0 105 28q-1 12 -1 41l1 108l-38 -9q-31 -7 -49.5 -12.5t-43.5 -17t-37 -29t-12 -40.5q0 -69 75 -69zM242 475q77 0 104.5 -37.5t27.5 -105.5 l-1 -218q0 -50 10 -67.5t41 -17.5l14 1l4 -23q-34 -17 -74 -17q-28 0 -43 14t-21 43q-73 -57 -140 -57q-57 0 -90 32t-33 83q0 123 192 155l67 11v28q0 65 -16.5 89.5t-72.5 24.5q-61 0 -129 -37l-13 35q33 26 82 45t91 19z"/>
<glyph glyph-name="atilde" horiz-adv-x="462" unicode="ã" d="M184 698q8 0 15 -1.5t14 -6t11 -7t12 -9t10 -8.5q25 -19 41 -19q35 0 69 40l20 -17q-14 -33 -41 -59.5t-62 -26.5q-6 0 -12 1.5t-10.5 3t-10 5t-8 5.5t-9 7t-8.5 6q-2 2 -10 8t-11.5 8t-10 4.5t-12.5 2.5q-34 0 -68 -40l-21 18q39 85 102 85zM195 53q58 0 105 28 q-1 12 -1 41l1 108l-38 -9q-31 -7 -49.5 -12.5t-43.5 -17t-37 -29t-12 -40.5q0 -69 75 -69zM242 475q77 0 104.5 -37.5t27.5 -105.5l-1 -218q0 -50 10 -67.5t41 -17.5l14 1l4 -23q-34 -17 -74 -17q-28 0 -43 14t-21 43q-73 -57 -140 -57q-57 0 -90 32t-33 83q0 123 192 155 l67 11v28q0 65 -16.5 89.5t-72.5 24.5q-61 0 -129 -37l-13 35q33 26 82 45t91 19z"/>
<glyph glyph-name="adieresis" horiz-adv-x="462" unicode="ä" d="M259 637q0 21 14 35.5t35 14.5t35.5 -14.5t14.5 -35.5t-14.5 -35t-35.5 -14t-35 14t-14 35zM104 637q0 21 14 35.5t35 14.5t35.5 -14.5t14.5 -35.5t-14.5 -35t-35.5 -14t-35 14t-14 35zM195 53q58 0 105 28q-1 12 -1 41l1 108l-38 -9q-31 -7 -49.5 -12.5t-43.5 -17 t-37 -29t-12 -40.5q0 -69 75 -69zM242 475q77 0 104.5 -37.5t27.5 -105.5l-1 -218q0 -50 10 -67.5t41 -17.5l14 1l4 -23q-34 -17 -74 -17q-28 0 -43 14t-21 43q-73 -57 -140 -57q-57 0 -90 32t-33 83q0 123 192 155l67 11v28q0 65 -16.5 89.5t-72.5 24.5q-61 0 -129 -37 l-13 35q33 26 82 45t91 19z"/>
<glyph glyph-name="aring" horiz-adv-x="462" unicode="å" d="M315 643q0 -35 -23 -59t-61 -24q-37 0 -60.5 22.5t-23.5 57.5q0 36 24 61t61 25q38 0 60.5 -24t22.5 -59zM274 643q0 20 -11.5 33t-31.5 13q-19 0 -30.5 -12.5t-11.5 -33.5q0 -20 11 -33t31 -13t31.5 12.5t11.5 33.5zM195 53q58 0 105 28q-1 12 -1 41l1 108l-38 -9 q-31 -7 -49.5 -12.5t-43.5 -17t-37 -29t-12 -40.5q0 -69 75 -69zM242 475q77 0 104.5 -37.5t27.5 -105.5l-1 -218q0 -50 10 -67.5t41 -17.5l14 1l4 -23q-34 -17 -74 -17q-28 0 -43 14t-21 43q-73 -57 -140 -57q-57 0 -90 32t-33 83q0 123 192 155l67 11v28q0 65 -16.5 89.5 t-72.5 24.5q-61 0 -129 -37l-13 35q33 26 82 45t91 19z"/>
<glyph glyph-name="ae" horiz-adv-x="709" unicode="æ" d="M494 424q-105 0 -118 -133l208 11q3 15 3 30q0 41 -23 66.5t-70 25.5zM194 53q74 0 130 39q-24 50 -24 123v15l-39 -9q-31 -7 -49.5 -12.5t-43.5 -17t-37 -29t-12 -40.5q0 -69 75 -69zM652 79l12 -33q-19 -16 -65.5 -36t-103.5 -20q-100 0 -153 71q-89 -71 -179 -71 q-57 0 -90 32t-33 83q0 123 192 155l67 11v28q0 63 -16 88.5t-73 25.5q-61 0 -129 -37l-13 35q33 27 82.5 45.5t94.5 18.5q91 0 112 -73q60 73 158 73q72 0 111.5 -44t39.5 -113q0 -36 -10 -70l-282 2v-15q0 -184 168 -184q60 0 110 28z"/>
<glyph glyph-name="ccedilla" horiz-adv-x="431" unicode="ç" d="M284 -146q0 38 -47 38q-23 0 -46 -9l-15 10l29 99q-71 9 -118.5 63t-47.5 162q0 116 70.5 185.5t170.5 69.5q40 0 73.5 -10.5t44.5 -22.5q2 -8 2 -16q0 -42 -37 -63q-45 55 -110 55q-134 0 -134 -166q0 -198 164 -198q53 0 103 27l12 -33q-1 -1 -12 -8t-23.5 -13.5 t-30 -14.5t-40.5 -13t-47 -6l-21 -70q24 12 50 12q33 0 53 -18.5t20 -47.5q0 -30 -17.5 -52t-45.5 -33t-55.5 -16t-53.5 -5l-3 28q112 6 112 66z"/>
<glyph glyph-name="egrave" horiz-adv-x="453" unicode="è" d="M225 726q21 -101 82 -171l-16 -21q-47 25 -88 68t-41 81q14 43 63 43zM237 424q-104 0 -117 -133l207 11q3 15 3 30q0 41 -23 66.5t-70 25.5zM395 79l12 -33q-19 -16 -65.5 -36t-103.5 -20q-37 0 -70.5 11.5t-63.5 36t-47.5 70t-17.5 107.5q0 128 63.5 194t155.5 66 q72 0 111.5 -44t39.5 -113q0 -36 -10 -70l-281 2v-15q0 -184 167 -184q60 0 110 28z"/>
<glyph glyph-name="eacute" horiz-adv-x="453" unicode="é" d="M255 726q49 0 63 -43q0 -38 -41 -81t-88 -68l-16 21q61 70 82 171zM237 424q-104 0 -117 -133l207 11q3 15 3 30q0 41 -23 66.5t-70 25.5zM395 79l12 -33q-19 -16 -65.5 -36t-103.5 -20q-37 0 -70.5 11.5t-63.5 36t-47.5 70t-17.5 107.5q0 128 63.5 194t155.5 66 q72 0 111.5 -44t39.5 -113q0 -36 -10 -70l-281 2v-15q0 -184 167 -184q60 0 110 28z"/>
<glyph glyph-name="ecircumflex" horiz-adv-x="453" unicode="ê" d="M127 539l-24 16l103 158l58 17l10 -7q15 -41 42.5 -87.5t54.5 -73.5l-23 -20q-29 13 -57.5 42t-42.5 52l-15 22zM237 424q-104 0 -117 -133l207 11q3 15 3 30q0 41 -23 66.5t-70 25.5zM395 79l12 -33q-19 -16 -65.5 -36t-103.5 -20q-37 0 -70.5 11.5t-63.5 36t-47.5 70 t-17.5 107.5q0 128 63.5 194t155.5 66q72 0 111.5 -44t39.5 -113q0 -36 -10 -70l-281 2v-15q0 -184 167 -184q60 0 110 28z"/>
<glyph glyph-name="edieresis" horiz-adv-x="453" unicode="ë" d="M272 637q0 21 14 35.5t35 14.5t35.5 -14.5t14.5 -35.5t-14.5 -35t-35.5 -14t-35 14t-14 35zM117 637q0 21 14 35.5t35 14.5t35.5 -14.5t14.5 -35.5t-14.5 -35t-35.5 -14t-35 14t-14 35zM237 424q-104 0 -117 -133l207 11q3 15 3 30q0 41 -23 66.5t-70 25.5zM395 79 l12 -33q-19 -16 -65.5 -36t-103.5 -20q-37 0 -70.5 11.5t-63.5 36t-47.5 70t-17.5 107.5q0 128 63.5 194t155.5 66q72 0 111.5 -44t39.5 -113q0 -36 -10 -70l-281 2v-15q0 -184 167 -184q60 0 110 28z"/>
<glyph glyph-name="igrave" horiz-adv-x="280" unicode="ì" d="M115 726q21 -101 82 -171l-16 -21q-47 25 -88 68t-41 81q14 43 63 43zM186 470v-423l71 -13q-4 -22 -15 -36q-56 3 -93 3l-107 -3q-2 4 -2 10q0 8 4 14.5t8 9.5l5 2l53 13v360l-81 11q-2 4 -2 10q0 8 4 15t8 11l4 3q76 6 143 13z"/>
<glyph glyph-name="iacute" horiz-adv-x="280" unicode="í" d="M141 726q49 0 63 -43q0 -38 -41 -81t-88 -68l-16 21q61 70 82 171zM186 470v-423l71 -13q-4 -22 -15 -36q-56 3 -93 3l-107 -3q-2 4 -2 10q0 8 4 14.5t8 9.5l5 2l53 13v360l-81 11q-2 4 -2 10q0 8 4 15t8 11l4 3q76 6 143 13z"/>
<glyph glyph-name="icircumflex" horiz-adv-x="280" unicode="î" d="M24 539l-24 16l103 158l58 17l10 -7q15 -41 42.5 -87.5t54.5 -73.5l-23 -20q-29 13 -57.5 42t-43.5 52l-14 22zM186 470v-423l71 -13q-4 -22 -15 -36q-56 3 -93 3l-107 -3q-2 4 -2 10q0 8 4 14.5t8 9.5l5 2l53 13v360l-81 11q-2 4 -2 10q0 8 4 15t8 11l4 3q76 6 143 13z "/>
<glyph glyph-name="idieresis" horiz-adv-x="280" unicode="ï" d="M161 637q0 21 14 35.5t35 14.5t35.5 -14.5t14.5 -35.5t-14.5 -35t-35.5 -14t-35 14t-14 35zM6 637q0 21 14 35.5t35 14.5t35.5 -14.5t14.5 -35.5t-14.5 -35t-35.5 -14t-35 14t-14 35zM186 470v-423l71 -13q-4 -22 -15 -36q-56 3 -93 3l-107 -3q-2 4 -2 10q0 8 4 14.5 t8 9.5l5 2l53 13v360l-81 11q-2 4 -2 10q0 8 4 15t8 11l4 3q76 6 143 13z"/>
<glyph glyph-name="eth" horiz-adv-x="492" unicode="ð" d="M372 221q0 197 -134 197q-58 0 -89 -39t-31 -136q0 -90 32.5 -145t99.5 -55q60 0 91 40t31 138zM452 250q0 -126 -64 -193t-150 -67q-87 0 -144.5 55t-57.5 170q0 125 58.5 188t136.5 63q72 0 121 -43q-18 88 -89 160l-144 -55q-13 3 -13 22q0 5 2 13l125 48 q-60 50 -142 77l15 40q113 -29 190 -93l116 44q12 -6 12 -22q0 -3 -2 -13l-96 -37q126 -128 126 -357z"/>
<glyph glyph-name="ntilde" horiz-adv-x="568" unicode="ñ" d="M239 698q8 0 15 -1.5t14 -6t11 -7t12 -9t10 -8.5q25 -19 41 -19q35 0 69 40l20 -17q-14 -33 -41 -59.5t-62 -26.5q-6 0 -12 1.5t-10.5 3t-10 5t-8 5.5t-9 7t-8.5 6q-2 2 -10 8t-11.5 8t-10 4.5t-12.5 2.5q-34 0 -68 -40l-21 18q39 85 102 85zM29 418q-2 4 -2 10q0 8 4 15 t8 11l4 3q74 6 139 13l1 -51q80 56 156 56q78 0 106.5 -41t28.5 -115v-272l72 -13q-4 -22 -15 -36q-55 3 -92 3l-110 -3q-1 4 -1 10q0 8 4 14.5t8 9.5l5 2l53 13v252q0 57 -20.5 85t-81.5 28q-66 0 -110 -31v-334l71 -13q-4 -22 -15 -36q-56 3 -93 3l-107 -3q-2 4 -2 10 q0 8 4 14.5t8 9.5l5 2l53 13v360z"/>
<glyph glyph-name="ograve" horiz-adv-x="499" unicode="ò" d="M240 726q21 -101 82 -171l-16 -21q-47 25 -88 68t-41 81q14 43 63 43zM121 243q0 -91 33 -145.5t101 -54.5q61 0 92.5 40t31.5 138q0 91 -32.5 146t-100.5 55q-61 0 -93 -40.5t-32 -138.5zM243 -10q-88 0 -146 55t-58 170q0 126 65 193t154 67q88 0 145.5 -55t57.5 -170 q0 -127 -64.5 -193.5t-153.5 -66.5z"/>
<glyph glyph-name="oacute" horiz-adv-x="499" unicode="ó" d="M259 726q49 0 63 -43q0 -38 -41 -81t-88 -68l-16 21q61 70 82 171zM121 243q0 -91 33 -145.5t101 -54.5q61 0 92.5 40t31.5 138q0 91 -32.5 146t-100.5 55q-61 0 -93 -40.5t-32 -138.5zM243 -10q-88 0 -146 55t-58 170q0 126 65 193t154 67q88 0 145.5 -55t57.5 -170 q0 -127 -64.5 -193.5t-153.5 -66.5z"/>
<glyph glyph-name="ocircumflex" horiz-adv-x="499" unicode="ô" d="M144 539l-24 16l103 158l58 17l10 -7q15 -41 42.5 -87.5t54.5 -73.5l-23 -20q-29 13 -57.5 42t-43.5 52l-14 22zM121 243q0 -91 33 -145.5t101 -54.5q61 0 92.5 40t31.5 138q0 91 -32.5 146t-100.5 55q-61 0 -93 -40.5t-32 -138.5zM243 -10q-88 0 -146 55t-58 170 q0 126 65 193t154 67q88 0 145.5 -55t57.5 -170q0 -127 -64.5 -193.5t-153.5 -66.5z"/>
<glyph glyph-name="otilde" horiz-adv-x="499" unicode="õ" d="M211 698q8 0 15 -1.5t14 -6t11 -7t12 -9t10 -8.5q25 -19 41 -19q35 0 69 40l20 -17q-14 -33 -41 -59.5t-62 -26.5q-6 0 -12 1.5t-10.5 3t-10 5t-8 5.5t-9 7t-8.5 6q-2 2 -10 8t-11.5 8t-10 4.5t-12.5 2.5q-34 0 -68 -40l-21 18q39 85 102 85zM121 243q0 -91 33 -145.5 t101 -54.5q61 0 92.5 40t31.5 138q0 91 -32.5 146t-100.5 55q-61 0 -93 -40.5t-32 -138.5zM243 -10q-88 0 -146 55t-58 170q0 126 65 193t154 67q88 0 145.5 -55t57.5 -170q0 -127 -64.5 -193.5t-153.5 -66.5z"/>
<glyph glyph-name="odieresis" horiz-adv-x="499" unicode="ö" d="M280 637q0 21 14 35.5t35 14.5t35.5 -14.5t14.5 -35.5t-14.5 -35t-35.5 -14t-35 14t-14 35zM125 637q0 21 14 35.5t35 14.5t35.5 -14.5t14.5 -35.5t-14.5 -35t-35.5 -14t-35 14t-14 35zM121 243q0 -91 33 -145.5t101 -54.5q61 0 92.5 40t31.5 138q0 91 -32.5 146 t-100.5 55q-61 0 -93 -40.5t-32 -138.5zM243 -10q-88 0 -146 55t-58 170q0 126 65 193t154 67q88 0 145.5 -55t57.5 -170q0 -127 -64.5 -193.5t-153.5 -66.5z"/>
<glyph glyph-name="divide" horiz-adv-x="574" unicode="÷" d="M235 95q0 23 16 39.5t38 16.5t37.5 -16.5t15.5 -39.5t-15 -38.5t-38 -15.5t-38.5 15.5t-15.5 38.5zM235 411q0 23 16 39.5t38 16.5t37.5 -16.5t15.5 -39.5t-15 -38.5t-38 -15.5t-38.5 15.5t-15.5 38.5zM80 286h414v-56h-414v56z"/>
<glyph glyph-name="oslash" horiz-adv-x="499" unicode="ø" d="M379 221q0 76 -22 126l-189 -268q33 -36 87 -36q61 0 92.5 40t31.5 138zM121 243q0 -83 26 -134l191 270q-33 43 -92 43q-61 0 -93 -40.5t-32 -138.5zM243 -10q-67 0 -117 31l-43 -61l-28 19l44 63q-60 58 -60 173q0 126 65 193t154 67q73 0 122 -36l42 59l28 -19 l-44 -62q55 -60 55 -167q0 -127 -64.5 -193.5t-153.5 -66.5z"/>
<glyph glyph-name="ugrave" horiz-adv-x="560" unicode="ù" d="M244 726q21 -101 82 -171l-16 -21q-47 25 -88 68t-41 81q14 43 63 43zM170 470v-304q0 -57 20 -85t80 -28q65 0 107 31v323l-82 9q-2 6 -2 12q0 8 4 15t8 11l4 3q77 6 144 13v-415l81 -9q1 -4 1 -11q0 -8 -3.5 -15t-7.5 -10l-4 -2q-69 -6 -134 -13l-6 51 q-78 -56 -147 -56q-139 0 -139 156v264l-72 9q-2 4 -2 10q0 8 4 15t8 10l4 3q76 7 134 13z"/>
<glyph glyph-name="uacute" horiz-adv-x="560" unicode="ú" d="M291 726q49 0 63 -43q0 -38 -41 -81t-88 -68l-16 21q61 70 82 171zM170 470v-304q0 -57 20 -85t80 -28q65 0 107 31v323l-82 9q-2 6 -2 12q0 8 4 15t8 11l4 3q77 6 144 13v-415l81 -9q1 -4 1 -11q0 -8 -3.5 -15t-7.5 -10l-4 -2q-69 -6 -134 -13l-6 51q-78 -56 -147 -56 q-139 0 -139 156v264l-72 9q-2 4 -2 10q0 8 4 15t8 10l4 3q76 7 134 13z"/>
<glyph glyph-name="ucircumflex" horiz-adv-x="560" unicode="û" d="M154 539l-24 16l103 158l58 17l10 -7q15 -41 42.5 -87.5t54.5 -73.5l-23 -20q-29 13 -57.5 42t-43.5 52l-14 22zM170 470v-304q0 -57 20 -85t80 -28q65 0 107 31v323l-82 9q-2 6 -2 12q0 8 4 15t8 11l4 3q77 6 144 13v-415l81 -9q1 -4 1 -11q0 -8 -3.5 -15t-7.5 -10 l-4 -2q-69 -6 -134 -13l-6 51q-78 -56 -147 -56q-139 0 -139 156v264l-72 9q-2 4 -2 10q0 8 4 15t8 10l4 3q76 7 134 13z"/>
<glyph glyph-name="udieresis" horiz-adv-x="560" unicode="ü" d="M294 637q0 21 14 35.5t35 14.5t35.5 -14.5t14.5 -35.5t-14.5 -35t-35.5 -14t-35 14t-14 35zM139 637q0 21 14 35.5t35 14.5t35.5 -14.5t14.5 -35.5t-14.5 -35t-35.5 -14t-35 14t-14 35zM170 470v-304q0 -57 20 -85t80 -28q65 0 107 31v323l-82 9q-2 6 -2 12q0 8 4 15 t8 11l4 3q77 6 144 13v-415l81 -9q1 -4 1 -11q0 -8 -3.5 -15t-7.5 -10l-4 -2q-69 -6 -134 -13l-6 51q-78 -56 -147 -56q-139 0 -139 156v264l-72 9q-2 4 -2 10q0 8 4 15t8 10l4 3q76 7 134 13z"/>
<glyph glyph-name="yacute" horiz-adv-x="506" unicode="ý" d="M301 726q49 0 63 -43q0 -38 -41 -81t-88 -68l-16 21q61 70 82 171zM231 -10l6 18l-167 408l-58 12q-2 4 -2 10q0 8 4 14t8 8l5 3h209q-4 -21 -15 -35q-41 -7 -66 -12l117 -311l113 311l-67 12q-2 4 -2 10q0 8 4 14t8 8l5 3h177q-4 -21 -15 -35q-23 -5 -48 -12l-169 -436 q-35 -91 -70 -149.5t-57 -70.5q-30 0 -47 19t-23 44q105 36 150 167z"/>
<glyph glyph-name="thorn" horiz-adv-x="518" unicode="þ" d="M169 381v-316q46 -18 94 -18q67 0 101.5 41.5t34.5 140.5q0 85 -31 134t-93 49q-59 0 -106 -31zM169 730v-311q79 56 143 56q72 0 120 -51.5t48 -166.5q0 -127 -69 -195t-163 -68q-32 0 -79 5v-192l71 -13q-4 -22 -15 -36q-56 3 -93 3l-107 -3q-2 4 -2 10q0 8 4.5 14.5 t8.5 9.5l4 2l53 13v863l-72 9q-2 4 -2 10q0 8 4 15t8 10l4 3q69 6 134 13z"/>
<glyph glyph-name="OE" horiz-adv-x="882" unicode="Œ" d="M364 45q46 0 115 15v532q-65 18 -123 18q-103 0 -161 -60.5t-58 -202.5q0 -86 19 -147.5t52.5 -94t71.5 -46.5t84 -14zM493 659h42l286 1q8 -61 8 -151q-7 -6 -20 -6l-20 5q-8 71 -24 95l-207 2v-240l210 8q0 -15 -6 -30t-12 -23l-5 -7l-187 1v-259l213 1q15 26 23 94 q9 5 20 5q12 0 20 -6q0 -98 -8 -151q-145 4 -268 5h-69q-73 -16 -145 -16q-132 0 -214 81.5t-82 236.5q0 173 91 267.5t228 94.5q57 0 126 -8z"/>
<glyph glyph-name="oe" horiz-adv-x="790" unicode="œ" d="M575 424q-104 0 -117 -133l207 11q3 15 3 30q0 41 -23 66.5t-70 25.5zM120 243q0 -91 33 -145.5t101 -54.5q61 0 91.5 40t30.5 138q0 92 -31.5 146.5t-99.5 54.5q-61 0 -93 -40.5t-32 -138.5zM733 79l12 -33q-19 -16 -65.5 -36t-103.5 -20q-49 0 -94 22.5t-73 68.5 q-30 -44 -74.5 -67.5t-92.5 -23.5q-88 0 -146 55t-58 170q0 126 65 193t154 67q114 0 167 -91q30 45 75.5 68t96.5 23q72 0 111.5 -44t39.5 -113q0 -36 -10 -70l-281 2v-15q0 -184 167 -184q60 0 110 28z"/>
<glyph glyph-name="Scaron" horiz-adv-x="511" unicode="Š" d="M378 841l20 -17l-105 -109h-55q-29 59 -102 102l23 20q32 -9 62.5 -25.5t44.5 -27.5l15 -12zM237 40q66 0 103.5 35t37.5 85q0 53 -31.5 85t-105.5 66l-17 8q-41 19 -62 30.5t-49 33t-40.5 48.5t-12.5 62q0 78 59.5 127t158.5 50q80 0 158 -25q7 -59 7 -106q0 -29 -3 -61 q-8 -6 -22 -6l-21 5q-14 101 -31 126q-38 19 -93 19q-54 0 -93.5 -27t-39.5 -78q0 -20 8 -36.5t17 -28t32 -26t36.5 -21.5t47.5 -24l10 -5q45 -22 68.5 -36t50 -37.5t37.5 -52.5t11 -68q0 -80 -62.5 -136t-167.5 -56q-97 0 -174 29q-7 57 -7 106q0 30 3 60q10 7 22 7l21 -5 q9 -87 29 -124q46 -23 115 -23z"/>
<glyph glyph-name="scaron" horiz-adv-x="415" unicode="š" d="M315 730l24 -16l-103 -158l-58 -17l-10 7q-15 41 -42.5 87.5t-54.5 73.5l23 20q29 -13 57.5 -42t42.5 -51l15 -23zM49 16q-6 33 -6 88q0 25 1 35q8 11 24 11q9 0 18 -6q11 -65 29 -96q31 -11 79 -11q49 0 71 24.5t22 55.5q0 18 -7.5 32t-25 26t-30 18t-39.5 17 q-37 15 -54 23.5t-39.5 24.5t-31.5 36.5t-9 48.5q0 60 47.5 96t124.5 36q65 0 124 -24q5 -40 5 -79q0 -24 -1 -34q-8 -11 -23 -11q-10 0 -19 6q-11 63 -26 88q-25 9 -68 9q-42 0 -65.5 -19t-23.5 -50q0 -14 6 -25t21 -21t26 -15.5t36 -15.5t36 -15q60 -27 87.5 -55t27.5 -74 q0 -61 -48.5 -105.5t-132.5 -44.5q-80 0 -136 26z"/>
<glyph glyph-name="Ydieresis" horiz-adv-x="596" unicode="Ÿ" d="M356 779q0 21 14 35.5t35 14.5t35.5 -14.5t14.5 -35.5t-14.5 -35t-35.5 -14t-35 14t-14 35zM184 779q0 21 14 35.5t35 14.5t35.5 -14.5t14.5 -35.5t-14.5 -35t-35.5 -14t-35 14t-14 35zM268 53v220l-187 334l-68 13q-1 3 -1 9q0 9 5 17t11 12l5 3q64 -2 112 -2l126 2 q-1 -20 -15 -41q-48 -5 -89 -13l152 -279l141 279l-96 13q-1 3 -1 9q0 9 5.5 17t10.5 12l5 3q62 -2 115 -2l101 2q-2 -20 -15 -41q-31 -6 -60 -13l-178 -334v-220l94 -14q-1 -20 -15 -41q-58 3 -119 3l-133 -3q-1 3 -1 9q0 9 5.5 17t10.5 12l5 3z"/>
<glyph glyph-name="circumflex" horiz-adv-x="418" unicode="ˆ" d="M99 539l-24 16l103 158l58 17l10 -7q15 -41 42.5 -87.5t54.5 -73.5l-23 -20q-29 13 -57.5 42t-42.5 52l-15 22z"/>
<glyph glyph-name="tilde" horiz-adv-x="444" unicode="˜" d="M177 698q8 0 15 -1.5t14 -6t11 -7t12 -9t10 -8.5q25 -19 41 -19q35 0 69 40l20 -17q-14 -33 -41 -59.5t-62 -26.5q-6 0 -12 1.5t-10.5 3t-10 5t-8 5.5t-9 7t-8.5 6q-2 2 -10 8t-11.5 8t-10 4.5t-12.5 2.5q-34 0 -68 -40l-21 18q39 85 102 85z"/>
<glyph glyph-name="pi" horiz-adv-x="572" unicode="π" d="M41 465h496v-61l-117 -2v-258q0 -52 12 -74t49 -22q21 0 53 8l6 -29q-53 -32 -118 -32q-45 0 -61 21.5t-16 75.5q0 17 9 309l-155 -2q0 -140 -6 -239.5t-11 -129.5l-6 -30h-86q5 17 13 49.5t21.5 136t14.5 212.5l-120 -1z"/>
<glyph glyph-name="endash" horiz-adv-x="577" unicode="–" d="M100 296h385q2 -12 2 -18q0 -11 -2.5 -21.5t-4.5 -15.5l-3 -5h-385q-2 12 -2 17q0 11 2.5 21.5t5.5 15.5z"/>
<glyph glyph-name="emdash" horiz-adv-x="805" unicode="—" d="M100 296h613q2 -10 2 -18q0 -11 -2.5 -21.5t-4.5 -15.5l-3 -5h-613q-2 12 -2 17q0 11 2.5 21.5t5.5 15.5z"/>
<glyph glyph-name="quoteleft" horiz-adv-x="184" unicode="‘" d="M148 529q-3 -61 -43 -69q-31 2 -50.5 23.5t-19.5 56.5q0 73 83 162l23 -18q-43 -68 -43 -114q0 -11 16 -22.5t34 -18.5z"/>
<glyph glyph-name="quotesinglbase" horiz-adv-x="184" unicode="‚" d="M36 46q3 61 43 69q31 -2 50.5 -23.5t19.5 -56.5q0 -73 -83 -162l-23 18q43 68 43 114q0 11 -16 22.5t-34 18.5z"/>
<glyph glyph-name="quotedblleft" horiz-adv-x="343" unicode="“" d="M148 529q-3 -61 -43 -69q-31 2 -50.5 23.5t-19.5 56.5q0 73 83 162l23 -18q-43 -68 -43 -114q0 -11 16 -22.5t34 -18.5zM307 529q-3 -61 -43 -69q-31 2 -50.5 23.5t-19.5 56.5q0 73 83 162l23 -18q-43 -68 -43 -114q0 -11 16 -22.5t34 -18.5z"/>
<glyph glyph-name="quotedblright" horiz-adv-x="343" unicode="”" d="M195 633q3 61 43 69q31 -2 50.5 -23.5t19.5 -56.5q0 -73 -83 -162l-23 18q43 68 43 114q0 11 -16 22.5t-34 18.5zM36 633q3 61 43 69q31 -2 50.5 -23.5t19.5 -56.5q0 -73 -83 -162l-23 18q43 68 43 114q0 11 -16 22.5t-34 18.5z"/>
<glyph glyph-name="dagger" horiz-adv-x="440" unicode="†" d="M375 491h17q13 -16 13 -35t-13 -35h-17q-38 0 -135 18q14 -106 14 -124q0 -53 -4 -157t-8 -182l-4 -77h-34q-16 297 -16 416q0 18 14 125q-99 -19 -137 -19h-17q-13 14 -13 35t13 35h17q42 0 136 -18q-15 108 -15 167v17q16 13 35 13t35 -13v-17q0 -23 -16 -167 q97 18 135 18z"/>
<glyph glyph-name="daggerdbl" horiz-adv-x="440" unicode="‡" d="M48 491h17q39 0 136 -18q-15 108 -15 167v17q16 13 35 13t35 -13v-17q0 -31 -16 -167q94 18 135 18h17q13 -16 13 -35t-13 -35h-17q-31 0 -135 18q14 -106 14 -124v-57q0 -19 -14 -125q99 19 135 19h17q13 -16 13 -35t-13 -35h-17q-38 0 -135 18q16 -144 16 -167v-17 q-14 -13 -35 -13t-35 13v17q0 59 15 167q-94 -18 -136 -18h-17q-13 14 -13 35t13 35h17q38 0 137 -19q-14 106 -14 125v57q0 18 14 125q-95 -19 -137 -19h-17q-13 14 -13 35t13 35z"/>
<glyph glyph-name="ellipsis" horiz-adv-x="779" unicode="…" d="M598 48q0 25 16.5 42t40.5 17t40.5 -17t16.5 -42t-16.5 -41.5t-40.5 -16.5t-40.5 16.5t-16.5 41.5zM332 48q0 25 16.5 42t40.5 17t40.5 -17t16.5 -42t-16.5 -41.5t-40.5 -16.5t-40.5 16.5t-16.5 41.5zM67 48q0 25 16.5 42t40.5 17t40.5 -17t16.5 -42t-16.5 -41.5 t-40.5 -16.5t-40.5 16.5t-16.5 41.5z"/>
<glyph glyph-name="perthousand" horiz-adv-x="906" unicode="‰" d="M140 12l310 507l40 -26l-310 -507zM701 120q0 -38 14.5 -62t43.5 -24q54 0 54 75q0 86 -58 86q-54 0 -54 -75zM751 -10q-52 0 -80.5 31t-28.5 85q0 64 36.5 99t83.5 35q52 0 80.5 -31t28.5 -85q0 -64 -36 -99t-84 -35zM422 120q0 -38 14.5 -62t43.5 -24q54 0 54 75 q0 86 -58 86q-54 0 -54 -75zM472 -10q-52 0 -80.5 31t-28.5 85q0 64 36.5 99t83.5 35q52 0 80.5 -31t28.5 -85q0 -64 -36 -99t-84 -35zM96 394q0 -38 14.5 -62t43.5 -24q54 0 54 75q0 86 -58 86q-54 0 -54 -75zM146 264q-52 0 -80.5 31t-28.5 85q0 64 36.5 99t83.5 35 q52 0 80.5 -31t28.5 -85q0 -64 -36 -99t-84 -35z"/>
<glyph glyph-name="guilsinglleft" horiz-adv-x="320" unicode="‹" d="M48 224v54q47 34 98 74t78 62l27 23l21 -27q-62 -88 -143 -159q36 -32 71.5 -71.5t53.5 -63.5l18 -24l-21 -27q-97 82 -203 159z"/>
<glyph glyph-name="guilsinglright" horiz-adv-x="320" unicode="›" d="M272 278v-54q-47 -34 -98 -74t-78 -62l-27 -23l-21 27q62 88 143 159q-36 32 -72 71.5t-53 63.5l-18 24l21 27q97 -82 203 -159z"/>
<glyph glyph-name="fraction" horiz-adv-x="303" unicode="⁄" d="M-17 -17l331 692l46 -22l-333 -692z"/>
<glyph glyph-name="Euro" horiz-adv-x="498" unicode="€" d="M318 457q-108 0 -125 -136h178q0 -18 -19 -37h-162v-18q0 -23 2 -43h179q0 -18 -19 -37h-155q24 -136 154 -136q46 0 92 23l13 -33q-10 -8 -25.5 -17t-52.5 -21t-74 -12q-69 0 -122.5 46.5t-65.5 149.5h-70q0 18 19 37h48q0 39 3 61h-70q0 18 19 37h58q21 87 83 138.5 t140 51.5q42 0 73 -12t42 -30q2 -8 2 -13q0 -18 -11 -35.5t-28 -25.5q-44 62 -106 62z"/>
<glyph glyph-name="trademark" horiz-adv-x="702" unicode="™" d="M173 629v-209l39 -5q-3 -14 -11 -26q-29 1 -52 1l-58 -1q-1 2 -1 7q0 6 3 10.5t7 6.5l3 2l25 5v209l-58 -1q-6 -20 -6 -43q-5 -3 -11 -3q-8 0 -13 5q0 49 3 73h215q3 -24 3 -73q-5 -4 -13 -4l-11 3q0 31 -6 42zM367 585l-13 -165l33 -6q0 -13 -8 -25q-22 1 -46 1l-49 -1 q-1 3 -1 7q0 5 2.5 9.5t5.5 6.5l3 2l25 6l18 210l-37 4q-1 3 -1 8t2.5 9.5t4.5 6.5l3 2h74l85 -205l71 205h87q-1 -13 -10 -25q-18 -2 -27 -4l18 -211l37 -6q-1 -13 -9 -25q-26 1 -50 1l-51 -1q-1 2 -1 7t2.5 9.5t4.5 6.5l2 1l24 7l-13 172l-76 -202h-28z"/>
<glyph glyph-name="partialdiff" horiz-adv-x="504" unicode="∂" d="M258 363q-68 0 -102 -56t-34 -140q0 -59 24.5 -92t66.5 -33q43 0 75 26.5t48.5 71t24.5 85t11 86.5q-46 52 -114 52zM242 612q-49 0 -98 -34l-20 24q22 21 58.5 38.5t75.5 17.5q72 0 118 -43.5t63 -106.5t17 -145q0 -68 -11.5 -129t-37 -118.5t-74 -91.5t-115.5 -34 q-69 0 -120.5 46.5t-51.5 137.5q0 107 54.5 177t149.5 70q75 0 127 -58q1 11 1 40q0 209 -136 209z"/>
<glyph glyph-name="product" horiz-adv-x="698" unicode="∏" d="M125 -66v672l-94 13q-1 3 -1 9q0 9 5 17t11 11l5 4h617q-2 -20 -15 -41q-43 -6 -79 -13v-672l94 -14q-2 -20 -15 -41q-58 3 -119 3l-116 -3q-1 3 -1 9q0 9 5.5 17t10.5 11l5 4l57 14v667h-291v-667l77 -14q-1 -20 -15 -41q-41 3 -102 3l-133 -3q-1 3 -1 9q0 9 5 17t11 11 l5 4z"/>
<glyph glyph-name="summation" horiz-adv-x="547" unicode="∑" d="M148 603l230 -312l-249 -348l333 5q12 26 20 87q9 5 20 5q12 0 20 -6q0 -93 -8 -154h-474l-12 21l263 366l-280 378l8 15h461q8 -62 8 -154q-8 -6 -20 -6l-20 5q-8 69 -24 94z"/>
<glyph glyph-name="minus" horiz-adv-x="574" unicode="−" d="M80 281h414v-56h-414v56z"/>
<glyph glyph-name="radical" horiz-adv-x="561" unicode="√" d="M194 446l144 -408l167 765h56l-190 -868h-48l-158 437l-87 -39l-23 51z"/>
<glyph glyph-name="infinity" horiz-adv-x="895" unicode="∞" d="M763 310q0 55 -34 84.5t-86 29.5q-45 0 -87.5 -29.5t-74.5 -75.5q76 -121 173 -121q45 0 77 29.5t32 82.5zM445 271q-42 -59 -87.5 -93t-108.5 -34q-73 0 -121 42t-48 113q0 78 46.5 126.5t122.5 48.5q46 0 86 -19.5t64 -43t51 -60.5q42 59 87.5 93t108.5 34 q73 0 121 -42t48 -113q0 -78 -46.5 -126.5t-122.5 -48.5q-46 0 -86 19.5t-64 43t-51 60.5zM132 312q0 -55 34 -84.5t86 -29.5q89 0 162 105q-76 121 -173 121q-45 0 -77 -29.5t-32 -82.5z"/>
<glyph glyph-name="approxequal" horiz-adv-x="574" unicode="≈" d="M214 228q33 0 79 -29q50 -32 82 -32q23 0 42.5 7t29 14.5t27.5 23.5l20 -17q-16 -34 -51.5 -62.5t-81.5 -28.5q-12 0 -22 1.5t-22 7.5t-16.5 8t-19.5 11.5t-16 10.5q-35 22 -66 22q-51 0 -98 -45l-21 18q54 90 134 90zM214 398q33 0 79 -29q50 -32 82 -32q23 0 42.5 7 t29 14.5t27.5 23.5l20 -17q-16 -34 -51.5 -62.5t-81.5 -28.5q-12 0 -22 1.5t-22 7.5t-16.5 8t-19.5 11.5t-16 10.5q-35 22 -66 22q-51 0 -98 -45l-21 18q54 90 134 90z"/>
<glyph glyph-name="notequal" horiz-adv-x="574" unicode="≠" d="M80 363h223l42 116l44 -16l-36 -100h141v-54h-161l-40 -113h201v-54h-221l-41 -116l-44 16l36 100h-144v54h163l41 113h-204v54z"/>
<glyph glyph-name="lessequal" horiz-adv-x="575" unicode="≤" d="M481 463l-329 -144l329 -144l-22 -52l-379 167v58l379 167zM81 56h414v-56h-414v56z"/>
<glyph glyph-name="greaterequal" horiz-adv-x="575" unicode="≥" d="M423 319l-329 144l22 52l379 -167v-58l-379 -167l-22 52zM80 56h414v-56h-414v56z"/>
<glyph glyph-name="lozenge" horiz-adv-x="596" unicode="◊" d="M298 593l-164 -263l164 -263l164 263zM68 330l213 330h34l213 -330l-213 -330h-34z"/>
</font>
</defs>
</svg>
